<?xml version="1.0" encoding="UTF-8"?>
<!DOCTYPE svg PUBLIC "-//W3C//DTD SVG 1.1//EN" "http://www.w3.org/Graphics/SVG/1.1/DTD/svg11.dtd">
<svg version="1.1" xmlns="http://www.w3.org/2000/svg" xmlns:xlink="http://www.w3.org/1999/xlink" x="0" y="0" width="850" height="300" viewBox="0, 0, 850, 300">
  <g id="Layer_1">
    <g>
      <g id="rect4727">
        <path d="M76.433,31.453 L417.368,31.453 C439.16,31.453 456.826,48.159 456.826,68.765 L456.826,232.355 C456.826,252.962 439.16,269.667 417.368,269.667 L76.433,269.667 C54.641,269.667 36.975,252.962 36.975,232.355 L36.975,68.765 C36.975,48.159 54.641,31.453 76.433,31.453 z" fill="#81A9DA" fill-opacity="0.627"/>
        <path d="M76.433,31.453 L417.368,31.453 C439.16,31.453 456.826,48.159 456.826,68.765 L456.826,232.355 C456.826,252.962 439.16,269.667 417.368,269.667 L76.433,269.667 C54.641,269.667 36.975,252.962 36.975,232.355 L36.975,68.765 C36.975,48.159 54.641,31.453 76.433,31.453 z" fill-opacity="0" stroke="#535353" stroke-width="1.748" stroke-opacity="0.392" stroke-linecap="round" stroke-linejoin="round"/>
      </g>
      <g id="rect4729">
        <path d="M54.198,31.487 L411.843,31.487 C434.703,31.487 453.234,48.04 453.234,68.458 L453.234,230.552 C453.234,250.97 434.703,267.523 411.843,267.523 L54.198,267.523 C31.338,267.523 12.806,250.97 12.806,230.552 L12.806,68.458 C12.806,48.04 31.338,31.487 54.198,31.487 z" fill="#88A8DD"/>
        <path d="M54.198,31.487 L411.843,31.487 C434.703,31.487 453.234,48.04 453.234,68.458 L453.234,230.552 C453.234,250.97 434.703,267.523 411.843,267.523 L54.198,267.523 C31.338,267.523 12.806,250.97 12.806,230.552 L12.806,68.458 C12.806,48.04 31.338,31.487 54.198,31.487 z" fill-opacity="0" stroke="#535353" stroke-width="1.772" stroke-linecap="round" stroke-linejoin="round"/>
      </g>
    </g>
    <g id="rect6576">
      <path d="M544.263,31.013 L809.898,31.013 C818.714,31.013 825.86,39.397 825.86,49.738 L825.86,251.382 C825.86,261.724 818.714,270.107 809.898,270.107 L544.263,270.107 C535.448,270.107 528.301,261.724 528.301,251.382 L528.301,49.738 C528.301,39.397 535.448,31.013 544.263,31.013 z" fill="#9B9B9B"/>
      <path d="M544.263,31.013 L809.898,31.013 C818.714,31.013 825.86,39.397 825.86,49.738 L825.86,251.382 C825.86,261.724 818.714,270.107 809.898,270.107 L544.263,270.107 C535.448,270.107 528.301,261.724 528.301,251.382 L528.301,49.738 C528.301,39.397 535.448,31.013 544.263,31.013 z" fill-opacity="0" stroke="#242424" stroke-width="0.6" stroke-linecap="round" stroke-linejoin="round"/>
    </g>
    <text transform="matrix(1, 0, 0, 1, 687.414, 58.175)">
      <tspan x="-82.251" y="-5" font-family="Arial-BoldMT" font-size="20" fill="#000000">Matching Service </tspan>
      <tspan x="-37.783" y="18" font-family="Arial-BoldMT" font-size="20" fill="#000000">Adapter</tspan>
    </text>
    <text transform="matrix(1, 0.004, -0.004, 1, 238.794, 58.175)">
      <tspan x="-68.55" y="-6.994" font-family="Arial-BoldMT" font-size="20" fill="#000000">GOV.UK Verify </tspan>
      <tspan x="-18.325" y="16.006" font-family="Arial-BoldMT" font-size="20" fill="#000000">hub</tspan>
    </text>
    <path d="M246.026,200.301 C245.959,200.191 245.359,199.398 244.691,198.54 C243.856,197.465 243.474,196.909 243.466,196.756 C243.46,196.633 243.45,191.339 243.444,184.99 L243.434,173.446 L241.47,173.445 C240.384,173.445 239.379,173.408 239.222,173.363 C238.855,173.257 238.548,172.981 238.337,172.568 C238.185,172.268 238.169,172.097 238.169,170.737 L238.169,169.237 L237.946,169.185 C237.221,169.017 236.6,168.817 236.081,168.584 C235.757,168.438 235.469,168.342 235.441,168.371 C235.272,168.54 236.022,169.749 236.707,170.412 L237.18,170.869 L237.209,171.773 C237.234,172.561 237.266,172.735 237.462,173.133 C237.748,173.717 238.26,174.188 238.847,174.407 C239.262,174.563 239.473,174.58 240.926,174.58 L242.543,174.58 L242.543,175.192 L242.543,175.803 L242.278,175.914 C241.718,176.148 240.659,176.291 239.667,176.266 L238.695,176.241 L237.926,177.787 C237.503,178.637 236.73,180.205 236.209,181.27 C234.524,184.715 232.981,187.877 232.376,189.121 C229.114,195.831 229.055,195.944 228.641,196.207 C228.015,196.603 227.607,196.562 226.494,195.986 C225.687,195.569 225.573,195.483 225.401,195.157 C225.134,194.656 225.147,194.171 225.442,193.523 C225.57,193.24 226.158,192.025 226.747,190.822 C227.336,189.619 228.119,188.015 228.488,187.258 C228.857,186.5 229.658,184.86 230.27,183.612 C230.882,182.365 231.611,180.87 231.891,180.291 C232.171,179.712 232.932,178.15 233.583,176.82 C234.234,175.49 234.766,174.378 234.765,174.349 C234.764,174.32 234.597,174.114 234.392,173.892 C232.767,172.12 232.081,169.614 232.587,167.29 C232.679,166.866 232.771,166.447 232.791,166.358 C232.815,166.25 232.66,165.964 232.33,165.507 C232.057,165.129 231.739,164.637 231.623,164.414 C229.298,159.945 230.467,154.463 234.358,151.581 C235.879,150.454 237.832,149.792 239.633,149.792 C240.335,149.792 241.672,150.015 242.347,150.244 C245.205,151.214 247.575,153.751 248.409,156.732 C248.693,157.744 248.777,158.4 248.779,159.605 C248.78,160.416 248.805,160.639 248.896,160.674 C248.959,160.698 249.965,160.721 251.132,160.725 C252.713,160.73 253.318,160.76 253.513,160.842 C253.892,161 254.269,161.499 254.373,161.979 C254.434,162.259 254.454,163.952 254.436,167.33 L254.411,172.271 L254.189,172.649 C254.066,172.857 253.829,173.112 253.662,173.216 C253.366,173.4 253.297,173.406 251.231,173.431 L249.105,173.456 L249.105,174.971 L249.105,176.487 L248.248,177.336 C247.283,178.292 247.061,178.644 247.061,179.21 C247.061,179.747 247.308,180.128 248.289,181.1 C249.054,181.858 249.105,181.928 249.104,182.234 C249.103,182.536 249.049,182.614 248.337,183.329 C247.532,184.138 247.323,184.49 247.323,185.034 C247.323,185.546 247.492,185.824 248.325,186.683 L249.105,187.486 L249.105,188.107 L249.105,188.729 L248.29,189.532 C247.309,190.5 247.061,190.881 247.061,191.417 C247.061,191.983 247.283,192.335 248.248,193.291 L249.105,194.14 L249.105,195.537 L249.105,196.935 L248.477,197.754 C248.132,198.204 247.544,198.961 247.172,199.436 C246.799,199.911 246.476,200.345 246.454,200.401 C246.388,200.569 246.156,200.515 246.026,200.301 z M245.054,184.585 L245.054,173.77 L244.689,173.77 L244.325,173.77 L244.325,184.585 L244.325,195.399 L244.689,195.399 L245.054,195.399 L245.054,184.585 z M250.527,169.827 C250.708,169.73 250.963,169.497 251.094,169.308 L251.332,168.965 L251.357,167.418 C251.371,166.568 251.361,165.751 251.333,165.604 C251.271,165.277 250.778,164.712 250.423,164.564 C250.242,164.488 249.771,164.454 248.872,164.454 L247.581,164.454 L247.378,164.799 C246.345,166.555 244.666,167.993 242.786,168.732 C242.452,168.863 242.051,168.998 241.895,169.032 C241.739,169.065 241.523,169.126 241.416,169.166 L241.222,169.239 L241.457,169.485 C241.705,169.744 242.043,169.929 242.381,169.99 C242.492,170.01 244.297,170.021 246.391,170.015 C250.134,170.004 250.203,170.001 250.527,169.827 z M238.168,164.776 C238.168,162.405 238.189,161.889 238.293,161.64 C238.453,161.256 238.624,161.071 238.992,160.884 C239.267,160.743 239.566,160.731 243.244,160.71 L247.201,160.688 L247.265,160.121 C247.353,159.342 247.205,158.064 246.912,157.079 C246.049,154.175 243.83,152.068 241.032,151.499 C239.999,151.289 239.213,151.287 238.216,151.491 C235.987,151.95 234.204,153.3 232.971,155.462 C232.308,156.625 231.886,158.458 231.953,159.877 C232.028,161.455 232.407,162.721 233.208,164.068 L233.592,164.714 L233.794,164.447 C234.563,163.431 235.688,162.51 236.741,162.033 L237.298,161.781 L237.247,162.034 C237.219,162.173 237.196,162.97 237.196,163.804 L237.196,165.322 L236.679,165.577 C236.221,165.802 235.576,166.367 235.576,166.543 C235.576,166.727 237.562,167.607 237.986,167.611 L238.169,167.612 L238.169,164.774 z M242.325,167.274 C243.658,166.709 244.88,165.757 245.612,164.714 L245.8,164.446 L243.895,164.47 L241.99,164.495 L241.679,164.746 C241.132,165.189 241.053,165.409 241.016,166.589 L240.984,167.635 L241.363,167.578 C241.572,167.547 242.005,167.41 242.325,167.274 z M233.511,197.546 C232.842,197.217 231.722,196.668 231.022,196.326 C229.962,195.808 229.76,195.682 229.817,195.572 C229.855,195.499 230.106,194.984 230.374,194.427 C230.642,193.87 231.344,192.43 231.933,191.227 C232.521,190.024 233.344,188.339 233.761,187.482 L234.518,185.924 L235.27,186.277 C237.031,187.103 239.546,188.375 239.546,188.44 C239.546,188.586 238.164,191.349 238.091,191.349 C238.049,191.349 237.566,191.128 237.018,190.858 C236.47,190.588 235.811,190.277 235.553,190.167 C235.104,189.975 235.072,189.973 234.807,190.098 C234.317,190.331 234.236,191.048 234.669,191.331 C234.783,191.406 235.382,191.711 236,192.009 C237.675,192.815 237.563,192.568 236.883,193.965 C236.564,194.62 236.26,195.156 236.207,195.156 C236.155,195.156 235.52,194.864 234.797,194.508 C233.896,194.064 233.391,193.86 233.193,193.86 C232.667,193.86 232.367,194.376 232.604,194.873 C232.714,195.105 232.921,195.233 234.154,195.839 C234.936,196.223 235.576,196.556 235.576,196.58 C235.576,196.69 234.84,198.153 234.786,198.149 C234.753,198.145 234.179,197.875 233.511,197.546 z" fill="#000000" id="path25084"/>
    <path d="M590.095,200.301 C590.162,200.191 590.762,199.398 591.43,198.54 C592.265,197.465 592.647,196.909 592.655,196.756 C592.661,196.633 592.671,191.339 592.677,184.99 L592.687,173.446 L594.651,173.445 C595.737,173.445 596.742,173.408 596.899,173.363 C597.266,173.257 597.573,172.981 597.784,172.568 C597.936,172.268 597.952,172.097 597.952,170.737 L597.952,169.237 L598.175,169.185 C598.9,169.017 599.521,168.817 600.04,168.584 C600.364,168.438 600.652,168.342 600.68,168.371 C600.849,168.54 600.099,169.749 599.414,170.412 L598.941,170.869 L598.912,171.773 C598.887,172.561 598.855,172.735 598.659,173.133 C598.373,173.717 597.861,174.188 597.274,174.407 C596.859,174.563 596.648,174.58 595.195,174.58 L593.578,174.58 L593.578,175.192 L593.578,175.803 L593.843,175.914 C594.403,176.148 595.462,176.291 596.454,176.266 L597.426,176.241 L598.195,177.787 C598.618,178.637 599.391,180.205 599.912,181.27 C601.597,184.715 603.14,187.877 603.745,189.121 C607.007,195.831 607.066,195.944 607.48,196.207 C608.106,196.603 608.514,196.562 609.627,195.986 C610.434,195.569 610.548,195.483 610.72,195.157 C610.987,194.656 610.974,194.171 610.679,193.523 C610.551,193.24 609.963,192.025 609.374,190.822 C608.785,189.619 608.002,188.015 607.633,187.258 C607.264,186.5 606.463,184.86 605.851,183.612 C605.239,182.365 604.51,180.87 604.23,180.291 C603.95,179.712 603.189,178.15 602.538,176.82 C601.887,175.49 601.355,174.378 601.356,174.349 C601.357,174.32 601.524,174.114 601.729,173.892 C603.354,172.12 604.04,169.614 603.534,167.29 C603.442,166.866 603.35,166.447 603.33,166.358 C603.306,166.25 603.461,165.964 603.791,165.507 C604.064,165.129 604.382,164.637 604.498,164.414 C606.823,159.945 605.654,154.463 601.763,151.581 C600.242,150.454 598.289,149.792 596.488,149.792 C595.786,149.792 594.449,150.015 593.774,150.244 C590.916,151.214 588.546,153.751 587.712,156.732 C587.428,157.744 587.344,158.4 587.342,159.605 C587.341,160.416 587.316,160.639 587.225,160.674 C587.162,160.698 586.156,160.721 584.99,160.725 C583.408,160.73 582.803,160.76 582.608,160.842 C582.229,161 581.852,161.499 581.748,161.979 C581.687,162.259 581.667,163.952 581.685,167.33 L581.71,172.271 L581.932,172.649 C582.055,172.857 582.292,173.112 582.459,173.216 C582.755,173.4 582.824,173.406 584.89,173.431 L587.016,173.456 L587.016,174.971 L587.016,176.487 L587.873,177.336 C588.838,178.292 589.06,178.644 589.06,179.21 C589.06,179.747 588.813,180.128 587.832,181.1 C587.067,181.858 587.016,181.928 587.017,182.234 C587.018,182.536 587.072,182.614 587.784,183.329 C588.589,184.138 588.798,184.49 588.798,185.034 C588.798,185.546 588.629,185.824 587.796,186.683 L587.016,187.486 L587.016,188.107 L587.016,188.729 L587.831,189.532 C588.812,190.5 589.06,190.881 589.06,191.417 C589.06,191.983 588.838,192.335 587.873,193.291 L587.016,194.14 L587.016,195.537 L587.016,196.935 L587.644,197.754 C587.989,198.204 588.577,198.961 588.949,199.436 C589.322,199.911 589.645,200.345 589.667,200.401 C589.733,200.569 589.965,200.515 590.095,200.301 z M591.067,184.585 L591.067,173.77 L591.432,173.77 L591.796,173.77 L591.796,184.585 L591.796,195.399 L591.432,195.399 L591.067,195.399 L591.067,184.585 z M585.594,169.827 C585.413,169.73 585.158,169.497 585.027,169.308 L584.789,168.965 L584.764,167.418 C584.75,166.568 584.76,165.751 584.788,165.604 C584.85,165.277 585.343,164.712 585.698,164.564 C585.879,164.488 586.35,164.454 587.249,164.454 L588.54,164.454 L588.743,164.799 C589.776,166.555 591.455,167.993 593.335,168.732 C593.669,168.863 594.07,168.998 594.226,169.032 C594.382,169.065 594.598,169.126 594.705,169.166 L594.899,169.239 L594.664,169.485 C594.416,169.744 594.078,169.929 593.74,169.99 C593.629,170.01 591.824,170.021 589.73,170.015 C585.987,170.004 585.918,170.001 585.594,169.827 z M597.953,164.776 C597.953,162.405 597.932,161.889 597.828,161.64 C597.668,161.256 597.497,161.071 597.129,160.884 C596.854,160.743 596.555,160.731 592.877,160.71 L588.92,160.688 L588.856,160.121 C588.768,159.342 588.916,158.064 589.209,157.079 C590.072,154.175 592.291,152.068 595.089,151.499 C596.122,151.289 596.908,151.287 597.905,151.491 C600.134,151.95 601.917,153.3 603.15,155.462 C603.813,156.625 604.235,158.458 604.168,159.877 C604.093,161.455 603.714,162.721 602.913,164.068 L602.529,164.714 L602.327,164.447 C601.558,163.431 600.433,162.51 599.38,162.033 L598.823,161.781 L598.874,162.034 C598.902,162.173 598.924,162.97 598.924,163.804 L598.924,165.322 L599.442,165.577 C599.9,165.802 600.545,166.367 600.545,166.543 C600.545,166.727 598.559,167.607 598.135,167.611 L597.952,167.612 L597.952,164.774 z M593.796,167.274 C592.463,166.709 591.241,165.757 590.509,164.714 L590.321,164.446 L592.226,164.47 L594.131,164.495 L594.442,164.746 C594.989,165.189 595.068,165.409 595.105,166.589 L595.137,167.635 L594.758,167.578 C594.549,167.547 594.116,167.41 593.796,167.274 z M602.61,197.546 C603.279,197.217 604.399,196.668 605.099,196.326 C606.159,195.808 606.361,195.682 606.304,195.572 C606.266,195.499 606.015,194.984 605.747,194.427 C605.479,193.87 604.777,192.43 604.188,191.227 C603.599,190.024 602.777,188.339 602.36,187.482 L601.603,185.924 L600.851,186.277 C599.09,187.103 596.575,188.375 596.575,188.44 C596.575,188.586 597.957,191.349 598.03,191.349 C598.072,191.349 598.555,191.128 599.103,190.858 C599.651,190.588 600.31,190.277 600.568,190.167 C601.017,189.975 601.049,189.973 601.314,190.098 C601.804,190.331 601.885,191.048 601.452,191.331 C601.338,191.406 600.739,191.711 600.121,192.009 C598.446,192.815 598.558,192.568 599.238,193.965 C599.557,194.62 599.861,195.156 599.914,195.156 C599.966,195.156 600.601,194.864 601.324,194.508 C602.225,194.064 602.73,193.86 602.928,193.86 C603.454,193.86 603.754,194.376 603.517,194.873 C603.407,195.105 603.201,195.233 601.967,195.839 C601.185,196.223 600.545,196.556 600.545,196.58 C600.545,196.69 601.281,198.153 601.335,198.149 C601.368,198.145 601.942,197.875 602.61,197.546 z" fill="#000000" id="path25084"/>
    <path d="M86.76,218.915 C83.271,218.101 80.973,215.494 80.425,211.73 C79.987,208.725 80.84,206.121 83.465,202.453 C86.133,198.724 88.038,194.98 88.272,193.002 L88.388,192.031 L86.639,192.03 C85.678,192.03 84.568,191.94 84.174,191.83 C82.941,191.488 81.574,189.819 80.811,187.726 C80.223,186.114 80.237,183.108 80.84,181.563 C81.876,178.907 83.832,176.876 86.322,175.87 L87.448,175.415 L101.273,175.357 C109.517,175.323 115.656,175.377 116.481,175.491 C121.474,176.183 124.883,180.579 124.424,185.736 C123.898,191.655 120.807,197.632 115.398,203.191 L114.203,204.42 L117.838,204.42 C122.298,204.42 122.523,204.499 123.49,206.405 C125.189,209.756 124.619,213.436 122.005,215.99 C121.379,216.603 120.338,217.383 119.692,217.724 C117.283,218.996 117.797,218.957 102.12,219.067 C90.9,219.146 87.609,219.113 86.76,218.915 z M110.374,215.921 C108.517,214.183 107.501,211.357 107.956,209.189 C108.377,207.184 108.994,206.255 111.779,203.435 C115.979,199.181 118.168,196.257 120.096,192.326 C121.598,189.266 122.196,187.115 122.228,184.657 C122.252,182.844 122.209,182.602 121.675,181.549 C120.57,179.368 118.83,178.248 116.336,178.111 C113.985,177.982 112.705,178.402 111.415,179.727 C110.12,181.057 109.689,182.271 109.699,184.559 C109.707,186.433 110.085,187.965 110.975,189.727 C111.654,191.073 111.646,191.663 110.947,191.856 C110.676,191.931 106.008,192.001 100.574,192.012 L90.692,192.031 L90.692,192.478 C90.692,194.453 88.576,199.057 85.926,202.847 C83.512,206.299 83.104,207.024 82.713,208.551 C81.836,211.971 83.624,215.354 86.933,216.537 C87.484,216.733 90.319,216.793 99.484,216.8 L111.323,216.809 L110.374,215.921 z M86.38,210.565 C86.388,210.484 86.727,209.886 87.134,209.238 L87.874,208.058 L96.741,208.006 L105.608,207.955 L104.983,209.333 L104.359,210.71 L95.363,210.711 C90.415,210.711 86.373,210.646 86.38,210.565 z M89.513,204.525 C89.513,204.475 89.83,203.855 90.219,203.148 L90.925,201.863 L99.66,201.863 L108.395,201.863 L107.702,203.24 L107.009,204.616 L98.261,204.616 C93.449,204.616 89.513,204.575 89.513,204.525 z M92.741,197.291 L93.389,195.866 L102.168,195.815 C106.996,195.786 110.947,195.807 110.947,195.862 C110.947,195.916 110.669,196.581 110.33,197.339 L109.714,198.717 L100.903,198.717 L92.092,198.717 L92.741,197.292 z M118.66,215.779 C119.769,215.312 121.051,213.983 121.618,212.713 C122.236,211.328 122.323,208.886 121.796,207.696 L121.391,206.779 L116.776,206.779 L112.161,206.779 L111.623,207.419 C110.857,208.327 110.553,209.166 110.553,210.376 C110.553,211.906 111.046,213.13 112.146,214.334 C113.96,216.319 116.199,216.816 118.66,215.779 z M108.3,189.327 C107.663,187.676 107.323,185.858 107.316,184.067 C107.309,182.256 107.358,181.996 107.937,180.775 C108.304,180 108.974,179.041 109.55,178.465 L110.535,177.48 L99.244,177.48 C88.275,177.48 87.923,177.491 86.856,177.891 C85.527,178.388 83.932,179.889 83.22,181.314 C82.786,182.182 82.73,182.54 82.74,184.362 C82.752,186.529 83.099,187.807 84.03,189.115 L84.427,189.672 L96.43,189.672 C107.78,189.672 108.425,189.653 108.3,189.327 z" fill="#000000" id="path25051"/>
    <text transform="matrix(1, 0, 0, 1, 119.44, 248.107)">
      <tspan x="-85.463" y="-9" font-family="ArialMT" font-size="15" fill="#000000">Matching Service Adapter</tspan>
      <tspan x="-66.284" y="8" font-family="ArialMT" font-size="15" fill="#000000">encyption certificate</tspan>
    </text>
    <g>
      <g id="rect8777">
        <path d="M681.716,159.726 L811.2,159.726 C816.102,159.726 820.076,156.412 820.076,152.324 L820.076,93.122 C820.076,89.034 816.102,85.719 811.2,85.719 L681.716,85.719 C676.814,85.719 672.84,89.034 672.84,93.122 L672.84,152.324 C672.84,156.412 676.814,159.726 681.716,159.726 z" fill="#D4E1F5"/>
        <path d="M681.716,159.726 L811.2,159.726 C816.102,159.726 820.076,156.412 820.076,152.324 L820.076,93.122 C820.076,89.034 816.102,85.719 811.2,85.719 L681.716,85.719 C676.814,85.719 672.84,89.034 672.84,93.122 L672.84,152.324 C672.84,156.412 676.814,159.726 681.716,159.726 z" fill-opacity="0" stroke="#000000" stroke-width="0.477"/>
      </g>
      <text transform="matrix(1, 0, 0, 1, 746.458, 122.723)">
        <tspan x="-70.876" y="-20.5" font-family="ArialMT" font-size="15" fill="#000000">Data decrypted using </tspan>
        <tspan x="-57.524" y="-3.5" font-family="ArialMT" font-size="15" fill="#000000">Matching Service</tspan>
        <tspan x="-50.863" y="13.5" font-family="ArialMT" font-size="15" fill="#000000">Adapter private</tspan>
        <tspan x="-48.358" y="30.5" font-family="ArialMT" font-size="15" fill="#000000">encryption key</tspan>
      </text>
    </g>
    <text transform="matrix(1, 0, 0, 1, 299.463, 218)">
      <tspan x="-85.463" y="-3.5" font-family="ArialMT" font-size="15" fill="#000000">Matching Service Adapter</tspan>
      <tspan x="-70.038" y="13.5" font-family="ArialMT" font-size="15" fill="#000000">public encryption key</tspan>
    </text>
    <text transform="matrix(1, 0, 0, 1, 626.537, 218)">
      <tspan x="-85.463" y="-3.5" font-family="ArialMT" font-size="15" fill="#000000">Matching Service Adapter</tspan>
      <tspan x="-72.953" y="13.5" font-family="ArialMT" font-size="15" fill="#000000">private encryption key</tspan>
    </text>
    <g>
      <path d="M139.826,197.994 C151.089,177.892 174.897,163.815 216.335,162.424" fill-opacity="0" stroke="#121F64" stroke-width="1"/>
      <path d="M216.37,165.424 L224.335,162.333 L216.301,159.425 z" fill="#121F64" fill-opacity="1" stroke="#121F64" stroke-width="1" stroke-opacity="1"/>
    </g>
    <g>
      <g id="rect8777">
        <path d="M560.274,140.726 L632.38,140.726 C635.11,140.726 637.323,139.114 637.323,137.125 L637.323,108.321 C637.323,106.332 635.11,104.719 632.38,104.719 L560.274,104.719 C557.544,104.719 555.331,106.332 555.331,108.321 L555.331,137.125 C555.331,139.114 557.544,140.726 560.274,140.726 z" fill="#CCCCCC"/>
        <path d="M560.274,140.726 L632.38,140.726 C635.11,140.726 637.323,139.114 637.323,137.125 L637.323,108.321 C637.323,106.332 635.11,104.719 632.38,104.719 L560.274,104.719 C557.544,104.719 555.331,106.332 555.331,108.321 L555.331,137.125 C555.331,139.114 557.544,140.726 560.274,140.726 z" fill-opacity="0" stroke="#000000" stroke-width="0.477"/>
      </g>
      <text transform="matrix(1, 0, 0, 1, 596.327, 122.723)">
        <tspan x="-35.848" y="3.75" font-family="ArialMT" font-size="15" fill="#000000">Decryption</tspan>
      </text>
    </g>
    <g>
      <path d="M448.41,120.158 L546.331,120.158" fill-opacity="0" stroke="#121F64" stroke-width="1" stroke-linecap="round"/>
      <path d="M546.331,123.158 L554.331,120.158 L546.331,117.158 z" fill="#121F64" fill-opacity="1" stroke="#121F64" stroke-width="1" stroke-opacity="1"/>
    </g>
    <g>
      <path d="M637.898,120.158 L663.84,120.158" fill-opacity="0" stroke="#121F64" stroke-width="1" stroke-linecap="round"/>
      <path d="M663.84,123.158 L671.84,120.158 L663.84,117.158 z" fill="#121F64" fill-opacity="1" stroke="#121F64" stroke-width="1" stroke-opacity="1"/>
    </g>
    <g>
      <g>
        <g id="rect8777">
          <path d="M30.43,159.726 L159.913,159.726 C164.815,159.726 168.789,156.412 168.789,152.324 L168.789,93.122 C168.789,89.034 164.815,85.719 159.913,85.719 L30.43,85.719 C25.527,85.719 21.553,89.034 21.553,93.122 L21.553,152.324 C21.553,156.412 25.527,159.726 30.43,159.726 z" fill="#D4E1F5"/>
          <path d="M30.43,159.726 L159.913,159.726 C164.815,159.726 168.789,156.412 168.789,152.324 L168.789,93.122 C168.789,89.034 164.815,85.719 159.913,85.719 L30.43,85.719 C25.527,85.719 21.553,89.034 21.553,93.122 L21.553,152.324 C21.553,156.412 25.527,159.726 30.43,159.726 z" fill-opacity="0" stroke="#000000" stroke-width="0.477"/>
        </g>
        <text transform="matrix(1, 0, 0, 1, 95.171, 122.723)">
          <tspan x="-50.859" y="-22.5" font-family="ArialMT" font-size="15" fill="#000000">Data to encrypt </tspan>
          <tspan x="-50.446" y="-5.5" font-family="ArialMT" font-size="15" fill="#000000">using Matching </tspan>
          <tspan x="-52.947" y="11.5" font-family="ArialMT" font-size="15" fill="#000000">Service Adapter </tspan>
          <tspan x="-70.038" y="28.5" font-family="ArialMT" font-size="15" fill="#000000">public encryption key</tspan>
        </text>
      </g>
      <g>
        <g id="rect8777">
          <path d="M204.881,140.726 L276.987,140.726 C279.717,140.726 281.93,139.114 281.93,137.125 L281.93,108.321 C281.93,106.332 279.717,104.719 276.987,104.719 L204.881,104.719 C202.151,104.719 199.938,106.332 199.938,108.321 L199.938,137.125 C199.938,139.114 202.151,140.726 204.881,140.726 z" fill="#CCCCCC"/>
          <path d="M204.881,140.726 L276.987,140.726 C279.717,140.726 281.93,139.114 281.93,137.125 L281.93,108.321 C281.93,106.332 279.717,104.719 276.987,104.719 L204.881,104.719 C202.151,104.719 199.938,106.332 199.938,108.321 L199.938,137.125 C199.938,139.114 202.151,140.726 204.881,140.726 z" fill-opacity="0" stroke="#000000" stroke-width="0.477"/>
        </g>
        <text transform="matrix(1, 0, 0, 1, 240.934, 122.723)">
          <tspan x="-35.435" y="3.75" font-family="ArialMT" font-size="15" fill="#000000">Encryption</tspan>
        </text>
      </g>
      <g>
        <g id="rect8777">
          <path d="M320.814,159.726 L440.108,159.726 C444.624,159.726 448.286,156.412 448.286,152.324 L448.286,93.122 C448.286,89.034 444.624,85.719 440.108,85.719 L320.814,85.719 C316.297,85.719 312.636,89.034 312.636,93.122 L312.636,152.324 C312.636,156.412 316.297,159.726 320.814,159.726 z" fill="#D4E1F5"/>
          <path d="M320.814,159.726 L440.108,159.726 C444.624,159.726 448.286,156.412 448.286,152.324 L448.286,93.122 C448.286,89.034 444.624,85.719 440.108,85.719 L320.814,85.719 C316.297,85.719 312.636,89.034 312.636,93.122 L312.636,152.324 C312.636,156.412 316.297,159.726 320.814,159.726 z" fill-opacity="0" stroke="#000000" stroke-width="0.477"/>
        </g>
        <text transform="matrix(1, 0, 0, 1, 380.461, 120.723)">
          <tspan x="-50.819" y="-20.5" font-family="ArialMT" font-size="15" fill="#000000">Pr7uk03'p^/P{e</tspan>
          <tspan x="-45.831" y="-3.5" font-family="ArialMT" font-size="15" fill="#000000">*ks[w96nlsp'&lt; </tspan>
          <tspan x="-56.909" y="13.5" font-family="ArialMT" font-size="15" fill="#000000">P[c_=?jy84gksos</tspan>
          <tspan x="-50.665" y="30.5" font-family="ArialMT" font-size="15" fill="#000000">:nIhbou0=2-!,:e</tspan>
        </text>
      </g>
      <g>
        <path d="M169.375,120.158 L190.938,120.158" fill-opacity="0" stroke="#121F64" stroke-width="1" stroke-linecap="round"/>
        <path d="M190.938,123.158 L198.938,120.158 L190.938,117.158 z" fill="#121F64" fill-opacity="1" stroke="#121F64" stroke-width="1" stroke-opacity="1"/>
      </g>
      <g>
        <path d="M281.93,120.158 L303.493,120.158" fill-opacity="0" stroke="#121F64" stroke-width="1" stroke-linecap="round"/>
        <path d="M303.493,123.158 L311.493,120.158 L303.493,117.158 z" fill="#121F64" fill-opacity="1" stroke="#121F64" stroke-width="1" stroke-opacity="1"/>
      </g>
    </g>
  </g>
</svg>
