<!DOCTYPE svg PUBLIC "-//W3C//DTD SVG 1.1//EN" "http://www.w3.org/Graphics/SVG/1.1/DTD/svg11.dtd">
<svg xmlns="http://www.w3.org/2000/svg" xmlns:xlink="http://www.w3.org/1999/xlink" width="1181px" height="501px" version="1.1"><defs/><g transform="translate(0.5,0.5)"><rect x="710" y="0" width="470" height="500" fill="none" stroke="#1a1a1a" pointer-events="none"/><rect x="0" y="0" width="670" height="500" fill="none" stroke="#1a1a1a" pointer-events="none"/><g fill="#333333" font-family="Helvetica" font-weight="bold" text-anchor="middle" font-size="18px"><text x="334.5" y="51.5">GOV.UK Verify hub</text></g><g fill="#333333" font-family="Helvetica" font-weight="bold" text-anchor="middle" font-size="18px"><text x="944.5" y="51.5">Matching Service Adapter</text></g><rect x="40" y="90" width="180" height="110" fill="none" stroke="#1a1a1a" pointer-events="none"/><g fill="#333333" font-family="Helvetica" text-anchor="middle" font-size="18px"><text x="129.5" y="118.5">Data</text><text x="129.5" y="162.5">Id: ABC123</text><text x="129.5" y="184.5">Name: Amy</text></g><rect x="270" y="120" width="140" height="50" fill="none" stroke="#1a1a1a" pointer-events="none"/><g fill="#333333" font-family="Helvetica" text-anchor="middle" font-size="18px"><text x="339.5" y="151.5">Encrypt</text></g><path d="M 220 145 L 253.76 145" fill="none" stroke="#000000" stroke-width="2" stroke-miterlimit="10" pointer-events="none"/><path d="M 267.76 145 L 253.76 149.67 L 253.76 140.33 Z" fill="#000000" stroke="#000000" stroke-width="2" stroke-miterlimit="10" pointer-events="none"/><rect x="460" y="90" width="170" height="110" fill="none" stroke="#1a1a1a" pointer-events="none"/><g fill="#333333" font-family="Helvetica" text-anchor="middle" font-size="18px"><text x="544.5" y="118.5">Encrypted data</text><text x="544.5" y="162.5">;3SS/2a"w74</text><text x="544.5" y="184.5">f$5''D22%2G</text></g><path d="M 410 145 L 443.76 145" fill="none" stroke="#000000" stroke-width="2" stroke-miterlimit="10" pointer-events="none"/><path d="M 457.76 145 L 443.76 149.67 L 443.76 140.33 Z" fill="#000000" stroke="#000000" stroke-width="2" stroke-miterlimit="10" pointer-events="none"/><path d="M 40 145 L 40 145" fill="none" stroke="#000000" stroke-width="2" stroke-miterlimit="10" pointer-events="none"/><path d="M 40 145 L 40 145 L 40 145 Z" fill="#000000" stroke="#000000" stroke-width="2" stroke-miterlimit="10" pointer-events="none"/><rect x="770" y="120" width="140" height="50" fill="none" stroke="#1a1a1a" pointer-events="none"/><g fill="#333333" font-family="Helvetica" text-anchor="middle" font-size="18px"><text x="839.5" y="151.5">Decrypt</text></g><path d="M 630 145 L 753.76 145" fill="none" stroke="#000000" stroke-width="2" stroke-miterlimit="10" pointer-events="none"/><path d="M 767.76 145 L 753.76 149.67 L 753.76 140.33 Z" fill="#000000" stroke="#000000" stroke-width="2" stroke-miterlimit="10" pointer-events="none"/><rect x="960" y="90" width="180" height="110" fill="none" stroke="#1a1a1a" pointer-events="none"/><g fill="#333333" font-family="Helvetica" text-anchor="middle" font-size="18px"><text x="1049.5" y="118.5">Data</text><text x="1049.5" y="162.5">Id: ABC123</text><text x="1049.5" y="184.5">Name: Amy</text></g><path d="M 910 145 L 943.76 145" fill="none" stroke="#000000" stroke-width="2" stroke-miterlimit="10" pointer-events="none"/><path d="M 957.76 145 L 943.76 149.67 L 943.76 140.33 Z" fill="#000000" stroke="#000000" stroke-width="2" stroke-miterlimit="10" pointer-events="none"/><rect x="250" y="250" width="180" height="80" fill="none" stroke="#1a1a1a" pointer-events="none"/><g fill="#333333" font-family="Helvetica" text-anchor="middle" font-size="18px"><text x="339.5" y="285.5">Matching Service</text><text x="339.5" y="307.5">Adapter public key</text></g><path d="M 340 250 L 340 186.24" fill="none" stroke="#000000" stroke-width="2" stroke-miterlimit="10" pointer-events="none"/><path d="M 340 172.24 L 344.67 186.24 L 335.33 186.24 Z" fill="#000000" stroke="#000000" stroke-width="2" stroke-miterlimit="10" pointer-events="none"/><rect x="250" y="380" width="180" height="80" fill="none" stroke="#1a1a1a" pointer-events="none"/><g fill="#333333" font-family="Helvetica" text-anchor="middle" font-size="18px"><text x="339.5" y="415.5">Matching Service</text><text x="339.5" y="437.5">Adapter Certificate</text></g><path d="M 340 380 L 340 346.24" fill="none" stroke="#000000" stroke-width="2" stroke-miterlimit="10" pointer-events="none"/><path d="M 340 332.24 L 344.67 346.24 L 335.33 346.24 Z" fill="#000000" stroke="#000000" stroke-width="2" stroke-miterlimit="10" pointer-events="none"/><rect x="750" y="250" width="180" height="80" fill="none" stroke="#1a1a1a" pointer-events="none"/><g fill="#333333" font-family="Helvetica" text-anchor="middle" font-size="18px"><text x="839.5" y="285.5">Matching Service</text><text x="839.5" y="307.5">Adapter private key</text></g><path d="M 840 250 L 840 186.24" fill="none" stroke="#000000" stroke-width="2" stroke-miterlimit="10" pointer-events="none"/><path d="M 840 172.24 L 844.67 186.24 L 835.33 186.24 Z" fill="#000000" stroke="#000000" stroke-width="2" stroke-miterlimit="10" pointer-events="none"/></g></svg>