<?xml version="1.0" encoding="UTF-8"?>
<!DOCTYPE svg PUBLIC "-//W3C//DTD SVG 1.1//EN" "http://www.w3.org/Graphics/SVG/1.1/DTD/svg11.dtd">
<svg version="1.1" xmlns="http://www.w3.org/2000/svg" xmlns:xlink="http://www.w3.org/1999/xlink" x="0" y="0" width="900" height="540" viewBox="0, 0, 900, 540">
  <g id="Layer_1">
    <g>
      <path d="M124.057,3.336 L468.164,3.336 C475.576,3.336 481.585,8.879 481.585,15.717 L481.585,526.783 C481.585,533.621 475.576,539.164 468.164,539.164 L124.057,539.164 C116.644,539.164 110.635,533.621 110.635,526.783 L110.635,15.717 C110.635,8.879 116.644,3.336 124.057,3.336 z" fill="#BDC1C7"/>
      <path d="M124.057,3.336 L468.164,3.336 C475.576,3.336 481.585,8.879 481.585,15.717 L481.585,526.783 C481.585,533.621 475.576,539.164 468.164,539.164 L124.057,539.164 C116.644,539.164 110.635,533.621 110.635,526.783 L110.635,15.717 C110.635,8.879 116.644,3.336 124.057,3.336 z" fill-opacity="0" stroke="#8B9094" stroke-width="1"/>
    </g>
    <path d="M71.056,530.078 C71.056,530.078 71.056,530.078 71.056,530.078 C71.056,530.078 70.7,530.078 71.056,530.078 z" fill="#FFFFFF"/>
    <g>
      <path d="M492.578,3.336 L852.84,3.336 C858.911,3.336 863.833,8.883 863.833,15.725 L863.833,526.775 C863.833,533.617 858.911,539.164 852.84,539.164 L492.578,539.164 C486.507,539.164 481.585,533.617 481.585,526.775 L481.585,15.725 C481.585,8.883 486.507,3.336 492.578,3.336 z" fill="#EDF0F4"/>
      <path d="M492.578,3.336 L852.84,3.336 C858.911,3.336 863.833,8.883 863.833,15.725 L863.833,526.775 C863.833,533.617 858.911,539.164 852.84,539.164 L492.578,539.164 C486.507,539.164 481.585,533.617 481.585,526.775 L481.585,15.725 C481.585,8.883 486.507,3.336 492.578,3.336 z" fill-opacity="0" stroke="#8B9094" stroke-width="1"/>
    </g>
    <g>
      <path d="M24.992,160.164 L471.483,160.164 C477.753,160.164 482.835,165.537 482.835,172.164 L482.835,527.164 C482.835,533.792 477.753,539.164 471.483,539.164 L24.992,539.164 C18.723,539.164 13.641,533.792 13.641,527.164 L13.641,172.164 C13.641,165.537 18.723,160.164 24.992,160.164 z" fill="#BDC1C7"/>
      <path d="M24.992,160.164 L471.483,160.164 C477.753,160.164 482.835,165.537 482.835,172.164 L482.835,527.164 C482.835,533.792 477.753,539.164 471.483,539.164 L24.992,539.164 C18.723,539.164 13.641,533.792 13.641,527.164 L13.641,172.164 C13.641,165.537 18.723,160.164 24.992,160.164 z" fill-opacity="0" stroke="#8B9094" stroke-width="1"/>
    </g>
    <path d="M110.635,148.273 L480.585,148.273 L480.585,176.273 L110.635,176.273 L110.635,148.273 z" fill="#BDC0C6"/>
  </g>
  <g id="Layer_2">
    <g>
      <path d="M233.532,51.5 L387.532,51.5 C394.16,51.5 399.532,56.873 399.532,63.5 L399.532,148.5 C399.532,155.127 394.16,160.5 387.532,160.5 L233.532,160.5 C226.905,160.5 221.532,155.127 221.532,148.5 L221.532,63.5 C221.532,56.873 226.905,51.5 233.532,51.5 z" fill="#A79E9E"/>
      <path d="M233.532,51.5 L387.532,51.5 C394.16,51.5 399.532,56.873 399.532,63.5 L399.532,148.5 C399.532,155.127 394.16,160.5 387.532,160.5 L233.532,160.5 C226.905,160.5 221.532,155.127 221.532,148.5 L221.532,63.5 C221.532,56.873 226.905,51.5 233.532,51.5 z" fill-opacity="0" stroke="#3E3D3D" stroke-width="1"/>
    </g>
    <g>
      <path d="M231.147,381.763 L390.147,381.763 C396.774,381.763 402.147,387.135 402.147,393.763 L402.147,438.763 C402.147,445.39 396.774,450.763 390.147,450.763 L231.147,450.763 C224.519,450.763 219.147,445.39 219.147,438.763 L219.147,393.763 C219.147,387.135 224.519,381.763 231.147,381.763 z" fill="#9B9B9B"/>
      <path d="M231.147,381.763 L390.147,381.763 C396.774,381.763 402.147,387.135 402.147,393.763 L402.147,438.763 C402.147,445.39 396.774,450.763 390.147,450.763 L231.147,450.763 C224.519,450.763 219.147,445.39 219.147,438.763 L219.147,393.763 C219.147,387.135 224.519,381.763 231.147,381.763 z" fill-opacity="0" stroke="#4F4F4F" stroke-width="1"/>
    </g>
    <path d="M295.647,335.008 L295.647,335.008" fill-opacity="0" stroke="#7874A0" stroke-width="1"/>
    <g>
      <path d="M234.147,202.535 L387.147,202.535 C393.774,202.535 399.147,207.908 399.147,214.535 L399.147,295.535 C399.147,302.163 393.774,307.535 387.147,307.535 L234.147,307.535 C227.519,307.535 222.147,302.163 222.147,295.535 L222.147,214.535 C222.147,207.908 227.519,202.535 234.147,202.535 z" fill="#9B9B9B"/>
      <path d="M234.147,202.535 L387.147,202.535 C393.774,202.535 399.147,207.908 399.147,214.535 L399.147,295.535 C399.147,302.163 393.774,307.535 387.147,307.535 L234.147,307.535 C227.519,307.535 222.147,302.163 222.147,295.535 L222.147,214.535 C222.147,207.908 227.519,202.535 234.147,202.535 z" fill-opacity="0" stroke="#585858" stroke-width="1"/>
    </g>
    <g>
      <path d="M240.812,247.555 L342.812,247.555 C349.439,247.555 354.812,252.927 354.812,259.555 L354.812,287.555 C354.812,294.182 349.439,299.555 342.812,299.555 L240.812,299.555 C234.185,299.555 228.812,294.182 228.812,287.555 L228.812,259.555 C228.812,252.927 234.185,247.555 240.812,247.555 z" fill="#EDF0F4"/>
      <path d="M240.812,247.555 L342.812,247.555 C349.439,247.555 354.812,252.927 354.812,259.555 L354.812,287.555 C354.812,294.182 349.439,299.555 342.812,299.555 L240.812,299.555 C234.185,299.555 228.812,294.182 228.812,287.555 L228.812,259.555 C228.812,252.927 234.185,247.555 240.812,247.555 z" fill-opacity="0" stroke="#95979A" stroke-width="1"/>
    </g>
    <g>
      <path d="M568.695,73 L651.695,73 C658.322,73 663.695,78.373 663.695,85 L663.695,127 C663.695,133.627 658.322,139 651.695,139 L568.695,139 C562.067,139 556.695,133.627 556.695,127 L556.695,85 C556.695,78.373 562.067,73 568.695,73 z" fill="#81A9DA"/>
      <path d="M568.695,73 L651.695,73 C658.322,73 663.695,78.373 663.695,85 L663.695,127 C663.695,133.627 658.322,139 651.695,139 L568.695,139 C562.067,139 556.695,133.627 556.695,127 L556.695,85 C556.695,78.373 562.067,73 568.695,73 z" fill-opacity="0" stroke="#5E6873" stroke-width="1"/>
    </g>
    <g>
      <g>
        <path d="M747,69.164 L834,69.164 C840.627,69.164 846,74.537 846,81.164 L846,123.367 C846,129.995 840.627,135.367 834,135.367 L747,135.367 C740.373,135.367 735,129.995 735,123.367 L735,81.164 C735,74.537 740.373,69.164 747,69.164 z" fill="#ACC6E9"/>
        <path d="M747,69.164 L834,69.164 C840.627,69.164 846,74.537 846,81.164 L846,123.367 C846,129.995 840.627,135.367 834,135.367 L747,135.367 C740.373,135.367 735,129.995 735,123.367 L735,81.164 C735,74.537 740.373,69.164 747,69.164 z" fill-opacity="0" stroke="#6B6F94" stroke-width="1"/>
      </g>
      <g>
        <path d="M742.9,72.664 L829.9,72.664 C836.527,72.664 841.9,78.037 841.9,84.664 L841.9,126.867 C841.9,133.495 836.527,138.867 829.9,138.867 L742.9,138.867 C736.273,138.867 730.9,133.495 730.9,126.867 L730.9,84.664 C730.9,78.037 736.273,72.664 742.9,72.664 z" fill="#ACC6E9"/>
        <path d="M742.9,72.664 L829.9,72.664 C836.527,72.664 841.9,78.037 841.9,84.664 L841.9,126.867 C841.9,133.495 836.527,138.867 829.9,138.867 L742.9,138.867 C736.273,138.867 730.9,133.495 730.9,126.867 L730.9,84.664 C730.9,78.037 736.273,72.664 742.9,72.664 z" fill-opacity="0" stroke="#6B6F94" stroke-width="1"/>
      </g>
      <g>
        <path d="M737.833,76.633 L824.833,76.633 C831.461,76.633 836.833,82.005 836.833,88.633 L836.833,130.836 C836.833,137.463 831.461,142.836 824.833,142.836 L737.833,142.836 C731.206,142.836 725.833,137.463 725.833,130.836 L725.833,88.633 C725.833,82.005 731.206,76.633 737.833,76.633 z" fill="#ACC6E9"/>
        <path d="M737.833,76.633 L824.833,76.633 C831.461,76.633 836.833,82.005 836.833,88.633 L836.833,130.836 C836.833,137.463 831.461,142.836 824.833,142.836 L737.833,142.836 C731.206,142.836 725.833,137.463 725.833,130.836 L725.833,88.633 C725.833,82.005 731.206,76.633 737.833,76.633 z" fill-opacity="0" stroke="#6B6F94" stroke-width="1"/>
      </g>
    </g>
    <path d="M39.347,319 L39.347,319" fill-opacity="0" stroke="#7874A0" stroke-width="1"/>
    <path d="M109.497,324.9 L109.497,324.9" fill-opacity="0" stroke="#7874A0" stroke-width="1"/>
    <path d="M221,84.88 L399.305,84.88" fill-opacity="0" stroke="#0041C7" stroke-width="1" stroke-opacity="0.5" stroke-dasharray="6,5" stroke-linecap="round"/>
    <g>
      <path d="M100.167,84.88 L212,84.88" fill-opacity="0" stroke="#0041C7" stroke-width="1" stroke-opacity="0.5" stroke-linecap="round"/>
      <path d="M212,87.88 L220,84.88 L212,81.88 z" fill-opacity="0" stroke="#0041C7" stroke-width="1" stroke-opacity="0.5"/>
    </g>
    <g>
      <path d="M400.058,84.88 L548.272,84.88" fill-opacity="0" stroke="#0041C7" stroke-width="1" stroke-opacity="0.5" stroke-linecap="round"/>
      <path d="M548.272,87.88 L556.272,84.88 L548.272,81.88 z" fill-opacity="0" stroke="#0041C7" stroke-width="1" stroke-opacity="0.5"/>
    </g>
    <g>
      <path d="M726.097,124.5 L674.422,124.5" fill-opacity="0" stroke="#0041C7" stroke-width="1" stroke-opacity="0.5" stroke-linecap="round"/>
      <path d="M674.422,121.5 L666.422,124.5 L674.422,127.5 z" fill-opacity="0" stroke="#0041C7" stroke-width="1" stroke-opacity="0.5"/>
    </g>
    <g>
      <path d="M556.694,124.5 L409.636,124.5" fill-opacity="0" stroke="#0041C7" stroke-width="1" stroke-linecap="round"/>
      <path d="M409.636,121.5 L401.636,124.5 L409.636,127.5 z" fill-opacity="0" stroke="#0041C7" stroke-width="1" stroke-opacity="1"/>
    </g>
    <g>
      <path d="M220.469,124.5 L105.802,124.5" fill-opacity="0" stroke="#0041C7" stroke-width="1" stroke-linecap="round"/>
      <path d="M105.802,121.5 L97.802,124.5 L105.802,127.5 z" fill-opacity="0" stroke="#0041C7" stroke-width="1" stroke-opacity="1"/>
    </g>
    <path d="M399.147,217.072 L598.615,217.072" fill-opacity="0" stroke="#0041C7" stroke-width="1" stroke-linecap="round"/>
    <g>
      <path d="M598.615,217.072 L598.615,148" fill-opacity="0" stroke="#0041C7" stroke-width="1"/>
      <path d="M601.615,148 L598.615,140 L595.615,148 z" fill-opacity="0" stroke="#0041C7" stroke-width="1" stroke-opacity="1"/>
    </g>
    <path d="M637.149,284.75 L637.149,139" fill-opacity="0" stroke="#0041C7" stroke-width="1" stroke-opacity="0.5" stroke-linecap="round"/>
    <g>
      <path d="M637.149,284.75 L409.104,284.75" fill-opacity="0" stroke="#0041C7" stroke-width="1" stroke-opacity="0.5" stroke-linecap="round"/>
      <path d="M409.104,281.75 L401.104,284.75 L409.104,287.75 z" fill-opacity="0" stroke="#0041C7" stroke-width="1" stroke-opacity="0.5"/>
    </g>
    <g>
      <path d="M386.397,308.152 L386.397,372.763" fill-opacity="0" stroke="#BEF0FC" stroke-width="1" stroke-opacity="0.5" stroke-linecap="round"/>
      <path d="M383.397,372.763 L386.397,380.763 L389.397,372.763 z" fill="#BEF0FC" fill-opacity="0.5" stroke="#BEF0FC" stroke-width="1" stroke-opacity="0.5"/>
    </g>
    <g>
      <path d="M349.861,381.763 L349.861,316.449" fill-opacity="0" stroke="#BEF0FC" stroke-width="1" stroke-linecap="round"/>
      <path d="M352.861,316.449 L349.861,308.449 L346.861,316.449 z" fill="#BEF0FC" fill-opacity="1" stroke="#BEF0FC" stroke-width="1" stroke-opacity="1"/>
    </g>
    <g>
      <path d="M306.087,481.517 L306.087,461.2" fill-opacity="0" stroke="#BEF0FC" stroke-width="1" stroke-opacity="0.5" stroke-linecap="round"/>
      <path d="M309.087,461.2 L306.087,453.2 L303.087,461.2 z" fill="#BEF0FC" fill-opacity="0.5" stroke="#BEF0FC" stroke-width="1" stroke-opacity="0.5"/>
    </g>
    <g>
      <path d="M316.431,452.2 L316.431,472.517" fill-opacity="0" stroke="#BEF0FC" stroke-width="1" stroke-opacity="0.5" stroke-linecap="round"/>
      <path d="M313.431,472.517 L316.431,480.517 L319.431,472.517 z" fill="#BEF0FC" fill-opacity="0.5" stroke="#BEF0FC" stroke-width="1" stroke-opacity="0.5"/>
    </g>
    <path d="M187.5,508.349 L187.5,148.773" fill-opacity="0" stroke="#BEF0FC" stroke-width="1" stroke-linecap="round"/>
    <g>
      <path d="M135.62,372.763 L135.62,134.586" fill-opacity="0" stroke="#BEF0FC" stroke-width="1" stroke-linecap="round"/>
      <path d="M132.62,372.763 L135.62,380.763 L138.62,372.763 z" fill="#BEF0FC" fill-opacity="1" stroke="#BEF0FC" stroke-width="1" stroke-opacity="1"/>
    </g>
    <path d="M135.62,134.586 L220.469,134.586" fill-opacity="0" stroke="#BEF0FC" stroke-width="1" stroke-linecap="round"/>
    <g>
      <path d="M225.405,508.349 L187.5,508.349" fill-opacity="0" stroke="#BEF0FC" stroke-width="1" stroke-linecap="round"/>
      <path d="M225.405,511.349 L233.405,508.349 L225.405,505.349 z" fill="#BEF0FC" fill-opacity="1" stroke="#BEF0FC" stroke-width="1" stroke-opacity="1"/>
    </g>
    <path d="M187.5,146.841 L220.469,146.841" fill-opacity="0" stroke="#BEF0FC" stroke-width="1" stroke-linecap="round"/>
    <path d="M221.532,124.5 L398.468,124.5" fill-opacity="0" stroke="#0041C7" stroke-width="1" stroke-dasharray="6,5" stroke-linecap="round"/>
    <path d="M558.632,124.5 L596.863,124.5" fill-opacity="0" stroke="#0041C7" stroke-width="1" stroke-dasharray="6,5" stroke-linecap="round"/>
    <path d="M598.013,125.836 L598.013,142.836" fill-opacity="0" stroke="#0041C7" stroke-width="1" stroke-dasharray="10,7"/>
    <path d="M557.705,84.88 L663.242,84.88" fill-opacity="0" stroke="#0041C7" stroke-width="1" stroke-opacity="0.5" stroke-dasharray="6,5" stroke-linecap="round"/>
    <path d="M637.078,124.5 L664.272,124.5" fill-opacity="0" stroke="#0041C7" stroke-width="1" stroke-opacity="0.5" stroke-dasharray="6,5"/>
    <path d="M637.149,125.836 L637.149,142.836" fill-opacity="0" stroke="#0041C7" stroke-width="1" stroke-opacity="0.5" stroke-dasharray="10,7"/>
    <g>
      <g>
        <path d="M472.249,133.25 C467.416,133.25 463.499,129.332 463.499,124.5 C463.499,119.668 467.416,115.75 472.249,115.75 C477.081,115.75 480.999,119.668 480.999,124.5 C480.999,129.332 477.081,133.25 472.249,133.25 z" fill="#BFF1FD"/>
        <path d="M472.249,133.25 C467.416,133.25 463.499,129.332 463.499,124.5 C463.499,119.668 467.416,115.75 472.249,115.75 C477.081,115.75 480.999,119.668 480.999,124.5 C480.999,129.332 477.081,133.25 472.249,133.25 z" fill-opacity="0" stroke="#0041C7" stroke-width="1"/>
      </g>
      <text transform="matrix(1, 0, 0, 1, 471.749, 124)">
        <tspan x="-3.059" y="3.5" font-family="Arial-BoldMT" font-size="11" fill="#000000">6</tspan>
      </text>
    </g>
    <g>
      <g>
        <path d="M349.861,339.487 C345.212,339.487 341.444,335.57 341.444,330.737 C341.444,325.905 345.212,321.987 349.861,321.987 C354.509,321.987 358.277,325.905 358.277,330.737 C358.277,335.57 354.509,339.487 349.861,339.487 z" fill="#BFF1FD"/>
        <path d="M349.861,339.487 C345.212,339.487 341.444,335.57 341.444,330.737 C341.444,325.905 345.212,321.987 349.861,321.987 C354.509,321.987 358.277,325.905 358.277,330.737 C358.277,335.57 354.509,339.487 349.861,339.487 z" fill-opacity="0" stroke="#83B3C2" stroke-width="1"/>
      </g>
      <text transform="matrix(1, 0, 0, 1, 349.477, 330.237)">
        <tspan x="-3.059" y="3.5" font-family="Arial-BoldMT" font-size="11" fill="#000000">1</tspan>
      </text>
    </g>
    <text transform="matrix(1, 0, 0, 1, 308.689, 28.107)">
      <tspan x="-110.021" y="6.107" font-family="Arial-BoldMT" font-size="22" fill="#000000">Government network</tspan>
    </text>
    <text transform="matrix(1, 0, 0, 1, 304.766, 104.5)">
      <tspan x="-53.011" y="-5" font-family="Arial-BoldMT" font-size="18" fill="#000000">Government </tspan>
      <tspan x="-31.03" y="16" font-family="Arial-BoldMT" font-size="18" fill="#000000">service</tspan>
    </text>
    <text transform="matrix(1, 0, 0, 1, 607.326, 103.5)">
      <tspan x="-28.898" y="-3.5" font-family="Arial-BoldMT" font-size="15" fill="#000000">GOV.UK</tspan>
      <tspan x="-36.259" y="13.5" font-family="Arial-BoldMT" font-size="15" fill="#000000">Verify hub</tspan>
    </text>
    <text transform="matrix(1, 0, 0, 1, 781.239, 105.5)">
      <tspan x="-26.667" y="-3.5" font-family="Arial-BoldMT" font-size="15" fill="#000000">Identity </tspan>
      <tspan x="-30.007" y="13.5" font-family="Arial-BoldMT" font-size="15" fill="#000000">provider</tspan>
    </text>
    <text transform="matrix(1, 0, 0, 1, 290.688, 222.035)">
      <tspan x="-61.688" y="-3.5" font-family="Arial-BoldMT" font-size="15" fill="#000000">Matching Service</tspan>
      <tspan x="-28.337" y="13.5" font-family="Arial-BoldMT" font-size="15" fill="#000000">Adapter</tspan>
    </text>
    <text transform="matrix(1, 0, 0, 1, 291.312, 273.055)">
      <tspan x="-49.915" y="-10.333" font-family="Arial-BoldMT" font-size="10" fill="#000000">- Generate #PID</tspan>
      <tspan x="-49.915" y="0.667" font-family="Arial-BoldMT" font-size="10" fill="#000000">- Convert between</tspan>
      <tspan x="-49.915" y="11.667" font-family="Arial-BoldMT" font-size="10" fill="#000000">  SAML and JSON</tspan>
    </text>
    <text transform="matrix(1, 0, 0, 1, 310.147, 413.063)">
      <tspan x="-54.587" y="-3.5" font-family="Arial-BoldMT" font-size="15" fill="#000000">Local Matching </tspan>
      <tspan x="-26.689" y="13.5" font-family="Arial-BoldMT" font-size="15" fill="#000000">Service</tspan>
    </text>
    <g>
      <path d="M44.347,381.763 L156.347,381.763 C162.974,381.763 168.347,387.135 168.347,393.763 L168.347,509.899 C168.347,516.527 162.974,521.899 156.347,521.899 L44.347,521.899 C37.719,521.899 32.347,516.527 32.347,509.899 L32.347,393.763 C32.347,387.135 37.719,381.763 44.347,381.763 z" fill="#AFC4D2"/>
      <path d="M44.347,381.763 L156.347,381.763 C162.974,381.763 168.347,387.135 168.347,393.763 L168.347,509.899 C168.347,516.527 162.974,521.899 156.347,521.899 L44.347,521.899 C37.719,521.899 32.347,516.527 32.347,509.899 L32.347,393.763 C32.347,387.135 37.719,381.763 44.347,381.763 z" fill-opacity="0" stroke="#767D81" stroke-width="1"/>
    </g>
    <text transform="matrix(1, 0, 0, 1, 97.615, 404.049)">
      <tspan x="-49.603" y="1.5" font-family="Arial-BoldMT" font-size="15" fill="#000000">Data sources:</tspan>
    </text>
    <g>
      <g>
        <path d="M57.48,418.074 L138.714,417.997 C143.068,417.993 146.602,422.852 146.607,428.851 L146.623,445.143 C146.628,451.141 143.104,456.007 138.75,456.011 L57.516,456.089 C53.162,456.093 49.628,451.233 49.623,445.235 L49.607,428.943 C49.602,422.944 53.126,418.078 57.48,418.074 z" fill="#A3ABD0"/>
        <path d="M57.48,418.074 L138.714,417.997 C143.068,417.993 146.602,422.852 146.607,428.851 L146.623,445.143 C146.628,451.141 143.104,456.007 138.75,456.011 L57.516,456.089 C53.162,456.093 49.628,451.233 49.623,445.235 L49.607,428.943 C49.602,422.944 53.126,418.078 57.48,418.074 z" fill-opacity="0" stroke="#7874A0" stroke-width="1"/>
      </g>
      <g>
        <path d="M98.103,424.811 C73.298,424.834 53.187,422.605 53.184,419.832 C53.181,417.059 73.288,414.792 98.094,414.768 C122.899,414.745 143.01,416.974 143.013,419.747 C143.016,422.52 122.909,424.787 98.103,424.811 z" fill="#A3ABD0"/>
        <path d="M98.103,424.811 C73.298,424.834 53.187,422.605 53.184,419.832 C53.181,417.059 73.288,414.792 98.094,414.768 C122.899,414.745 143.01,416.974 143.013,419.747 C143.016,422.52 122.909,424.787 98.103,424.811 z" fill-opacity="0" stroke="#7874A0" stroke-width="1"/>
      </g>
      <path d="M97.636,458.665 C72.83,458.689 52.719,456.46 52.717,453.687 C52.714,450.914 72.821,448.646 97.626,448.623 C122.432,448.599 142.543,450.828 142.546,453.601 C142.548,456.375 122.442,458.642 97.636,458.665 z" fill="#A3ABD0"/>
      <path d="M143.25,453.984 C135.638,462.078 55.845,460.345 53.012,454.071" fill-opacity="0" stroke="#7874A0" stroke-width="1"/>
    </g>
    <text transform="matrix(1, 0, 0, 1, 98.117, 435.73)">
      <tspan x="-38.767" y="5.333" font-family="Arial-BoldMT" font-size="15" fill="#000000">Datastores</tspan>
    </text>
    <g>
      <g>
        <g>
          <path d="M81.79,473.59 L117.79,473.59 C124.417,473.59 129.79,478.963 129.79,485.59 L129.79,498.59 C129.79,505.218 124.417,510.59 117.79,510.59 L81.79,510.59 C75.163,510.59 69.79,505.218 69.79,498.59 L69.79,485.59 C69.79,478.963 75.163,473.59 81.79,473.59 z" fill="#C5ABDB"/>
          <path d="M81.79,473.59 L117.79,473.59 C124.417,473.59 129.79,478.963 129.79,485.59 L129.79,498.59 C129.79,505.218 124.417,510.59 117.79,510.59 L81.79,510.59 C75.163,510.59 69.79,505.218 69.79,498.59 L69.79,485.59 C69.79,478.963 75.163,473.59 81.79,473.59 z" fill-opacity="0" stroke="#8D86AC" stroke-width="1"/>
        </g>
        <g>
          <path d="M79.977,472.132 L115.977,472.132 C122.605,472.132 127.977,477.505 127.977,484.132 L127.977,497.132 C127.977,503.759 122.605,509.132 115.977,509.132 L79.977,509.132 C73.35,509.132 67.977,503.759 67.977,497.132 L67.977,484.132 C67.977,477.505 73.35,472.132 79.977,472.132 z" fill="#C5ABDB"/>
          <path d="M79.977,472.132 L115.977,472.132 C122.605,472.132 127.977,477.505 127.977,484.132 L127.977,497.132 C127.977,503.759 122.605,509.132 115.977,509.132 L79.977,509.132 C73.35,509.132 67.977,503.759 67.977,497.132 L67.977,484.132 C67.977,477.505 73.35,472.132 79.977,472.132 z" fill-opacity="0" stroke="#8D86AC" stroke-width="1"/>
        </g>
        <g>
          <path d="M78.44,470.84 L114.44,470.84 C121.067,470.84 126.44,476.213 126.44,482.84 L126.44,495.84 C126.44,502.468 121.067,507.84 114.44,507.84 L78.44,507.84 C71.813,507.84 66.44,502.468 66.44,495.84 L66.44,482.84 C66.44,476.213 71.813,470.84 78.44,470.84 z" fill="#C5ABDB"/>
          <path d="M78.44,470.84 L114.44,470.84 C121.067,470.84 126.44,476.213 126.44,482.84 L126.44,495.84 C126.44,502.468 121.067,507.84 114.44,507.84 L78.44,507.84 C71.813,507.84 66.44,502.468 66.44,495.84 L66.44,482.84 C66.44,476.213 71.813,470.84 78.44,470.84 z" fill-opacity="0" stroke="#8D86AC" stroke-width="1"/>
        </g>
      </g>
      <text transform="matrix(1, 0, 0, 1, 97.615, 490.215)">
        <tspan x="-16.674" y="4.604" font-family="Arial-BoldMT" font-size="15" fill="#000000">APIs</tspan>
      </text>
    </g>
    <g>
      <g>
        <g>
          <path d="M247.208,485.356 L374.085,485.356 C380.885,485.356 386.397,491.07 386.397,498.118 L386.397,517.261 C386.397,524.309 380.885,530.023 374.085,530.023 L247.208,530.023 C240.409,530.023 234.897,524.309 234.897,517.261 L234.897,498.118 C234.897,491.07 240.409,485.356 247.208,485.356 z" fill="#A3ABD0"/>
          <path d="M247.208,485.356 L374.085,485.356 C380.885,485.356 386.397,491.07 386.397,498.118 L386.397,517.261 C386.397,524.309 380.885,530.023 374.085,530.023 L247.208,530.023 C240.409,530.023 234.897,524.309 234.897,517.261 L234.897,498.118 C234.897,491.07 240.409,485.356 247.208,485.356 z" fill-opacity="0" stroke="#7874A0" stroke-width="1"/>
        </g>
        <g>
          <path d="M310.647,493.317 C271.904,493.317 240.497,490.675 240.497,487.417 C240.497,484.159 271.904,481.517 310.647,481.517 C349.389,481.517 380.797,484.159 380.797,487.417 C380.797,490.675 349.389,493.317 310.647,493.317 z" fill="#A3ABD0"/>
          <path d="M310.647,493.317 C271.904,493.317 240.497,490.675 240.497,487.417 C240.497,484.159 271.904,481.517 310.647,481.517 C349.389,481.517 380.797,484.159 380.797,487.417 C380.797,490.675 349.389,493.317 310.647,493.317 z" fill-opacity="0" stroke="#7874A0" stroke-width="1"/>
        </g>
        <path d="M310.147,533.183 C271.404,533.183 239.997,530.542 239.997,527.283 C239.997,524.025 271.404,521.383 310.147,521.383 C348.889,521.383 380.297,524.025 380.297,527.283 C380.297,530.542 348.889,533.183 310.147,533.183 z" fill="#A3ABD0"/>
        <path d="M381.116,527.646 C369.216,537.147 244.592,535.022 240.178,527.647" fill-opacity="0" stroke="#7874A0" stroke-width="1"/>
      </g>
      <text transform="matrix(1, 0, 0, 1, 310.286, 514.25)">
        <tspan x="-55.009" y="-5.25" font-family="Arial-BoldMT" font-size="15" fill="#000000">Local matching </tspan>
        <tspan x="-33.761" y="11.75" font-family="Arial-BoldMT" font-size="15" fill="#000000">datastore</tspan>
      </text>
    </g>
    <path d="M482.335,166.953 L484.562,166.953 L484.562,188 L482.335,188 L482.335,166.953 z" fill="#BFC3C6"/>
    <text transform="matrix(1, 0, 0, 1, 498.381, 162.586)">
      <tspan x="-95.189" y="-17.5" font-family="ArialMT" font-size="12" fill="#000000">Response:</tspan>
      <tspan x="-95.189" y="-3.5" font-family="ArialMT" font-size="12" fill="#000000">- #PID</tspan>
      <tspan x="-95.189" y="10.5" font-family="ArialMT" font-size="12" fill="#000000">- Attributes extracted from MDS</tspan>
      <tspan x="-95.189" y="24.5" font-family="ArialMT" font-size="12" fill="#000000">- Status code: success</tspan>
    </text>
    <path d="M264.186,351.464 L268.436,351.464 L268.436,359.918 L264.186,359.918 L264.186,351.464 z" fill="#BDC1C7"/>
    <path d="M589.267,452.397 L782.563,452.397 C789.201,452.397 794.582,456.843 794.582,462.328 L794.582,523.569 C794.582,529.054 789.201,533.5 782.563,533.5 L589.267,533.5 C582.629,533.5 577.248,529.054 577.248,523.569 L577.248,462.328 C577.248,456.843 582.629,452.397 589.267,452.397 z" fill="#BDC0C6"/>
    <g>
      <path d="M585.904,507.823 L613.734,507.731" fill-opacity="0" stroke="#0041C7" stroke-width="1"/>
      <path d="M613.744,510.731 L621.734,507.705 L613.724,504.731 z" fill-opacity="0" stroke="#0041C7" stroke-width="1" stroke-opacity="1"/>
    </g>
    <g>
      <path d="M585.466,520.05 L614.171,519.957" fill-opacity="0" stroke="#BEF0FC" stroke-width="1"/>
      <path d="M614.181,522.957 L622.171,519.931 L614.161,516.957 z" fill="#BEF0FC" fill-opacity="1" stroke="#BEF0FC" stroke-width="1" stroke-opacity="1"/>
    </g>
    <text transform="matrix(1, 0, 0, 1, 714.159, 477.509)">
      <tspan x="-75.922" y="-10.196" font-family="ArialMT" font-size="12" fill="#000000">Matching dataset</tspan>
      <tspan x="-75.922" y="3.804" font-family="ArialMT" font-size="12" fill="#000000">Persistent identifier</tspan>
      <tspan x="-75.922" y="17.804" font-family="ArialMT" font-size="12" fill="#000000">Hashed persistent identifier</tspan>
    </text>
    <text transform="matrix(1, 0, 0, 1, 719.134, 514.886)">
      <tspan x="-80.897" y="-5.181" font-family="ArialMT" font-size="12" fill="#000000">SAML communication</tspan>
      <tspan x="-80.897" y="8.819" font-family="ArialMT" font-size="12" fill="#000000">Non-SAML communication</tspan>
    </text>
    <text transform="matrix(1, 0, 0, 1, 603.819, 480.931)">
      <tspan x="-17.989" y="-11.668" font-family="ArialMT" font-size="12" fill="#000000">MDS:</tspan>
      <tspan x="-17.989" y="2.332" font-family="ArialMT" font-size="12" fill="#000000">PID: </tspan>
      <tspan x="-17.989" y="16.332" font-family="ArialMT" font-size="12" fill="#000000">#PID:</tspan>
    </text>
    <path d="M67.215,142.273 C67.063,142.222 65.49,141.455 63.72,140.569 C60.26,138.836 60.346,138.899 59.7,137.628 C59.225,136.691 59.174,135.698 59.58,135.264 L59.841,134.986 L59.387,134.554 C59.137,134.317 58.933,134.021 58.933,133.896 C58.933,133.772 59.221,133.23 59.574,132.692 C59.926,132.154 60.249,131.657 60.291,131.587 C60.34,131.507 60.175,131.527 59.844,131.642 C59.375,131.804 58.453,131.824 51.149,131.824 L42.978,131.824 L42.094,131.515 C40.488,130.952 39.201,129.874 38.474,128.483 C37.837,127.264 37.719,126.72 37.654,124.702 C37.561,121.806 37.807,120.507 38.712,119.107 L39.132,118.457 L38.374,117.411 C37.958,116.836 37.382,115.884 37.095,115.296 C36.808,114.708 36.546,114.224 36.513,114.22 C36.479,114.216 36.389,114.386 36.312,114.599 C35.545,116.72 32.572,116.495 31.936,114.268 C31.849,113.964 31.397,110.858 30.932,107.366 C30.192,101.819 30.1,100.945 30.202,100.447 C30.538,98.805 32.092,97.993 33.502,98.721 C34.32,99.144 34.768,99.964 34.952,101.374 L35.036,102.011 L35.271,101.326 C35.681,100.133 36.151,99.611 37.445,98.913 C37.562,98.849 38.164,97.745 38.818,96.395 L39.983,93.989 L39.603,93.701 C37.856,92.378 37.073,90.703 37.034,88.209 C36.995,85.662 37.695,83.635 38.93,82.719 C40.965,81.21 44.267,79.84 46.239,79.687 C47.262,79.607 47.689,79.722 50.291,80.772 C52.48,81.656 53.265,81.789 53.632,81.336 L53.833,81.088 L53.954,81.435 C54.26,82.314 54.033,82.889 53.322,83.031 C53.129,83.07 52.971,83.114 52.971,83.13 C52.971,83.145 53.092,83.425 53.241,83.751 C53.799,84.972 53.879,85.5 53.936,88.347 C53.985,90.791 54.006,91.024 54.18,91.024 C54.531,91.024 55.65,91.463 56.021,91.745 C56.241,91.913 56.438,92.195 56.515,92.453 C56.628,92.831 56.614,92.943 56.393,93.399 C56.112,93.98 55.568,94.427 54.56,94.906 L53.885,95.226 L53.809,96.133 C53.768,96.632 53.664,97.147 53.578,97.278 C53.319,97.674 51.707,98.902 50.955,99.276 C50.566,99.47 50.014,99.69 49.729,99.767 L49.211,99.905 L48.871,101.013 C48.684,101.623 48.524,102.162 48.515,102.211 C48.492,102.335 49.326,102.646 50.97,103.126 C54.128,104.047 55.56,104.964 55.56,106.066 C55.56,106.295 55.561,106.487 55.563,106.491 C55.564,106.496 56.186,106.541 56.946,106.591 C60.662,106.838 62.819,107.22 63.891,107.822 C64.787,108.325 66.229,109.472 67.455,110.657 C68.358,111.531 68.554,111.673 68.73,111.579 C68.843,111.518 69.292,111.087 69.727,110.622 L70.518,109.776 L74.873,109.813 C78.928,109.848 79.243,109.865 79.453,110.056 C79.578,110.168 79.695,110.392 79.713,110.552 C79.747,110.844 79.754,110.846 83.66,111.68 L87.573,112.515 L87.543,114.275 C87.527,115.243 87.505,116.04 87.495,116.046 C87.485,116.052 84.918,116.269 81.79,116.529 L76.103,117 L75.386,116.649 C73.813,115.881 73.62,115.738 73.547,115.285 L73.479,114.866 L72.715,114.898 L71.951,114.93 L71.682,115.593 C71.33,116.459 70.889,117.076 70.428,117.346 C70.072,117.553 69.982,117.557 68.442,117.426 C66.492,117.261 64.225,116.974 61.792,116.585 C60.797,116.426 59.783,116.275 59.54,116.25 L59.099,116.204 L59.537,116.316 C59.778,116.377 60.399,116.572 60.917,116.748 C61.435,116.924 63.747,117.549 66.055,118.136 C71.054,119.407 71.747,119.617 72.901,120.209 C73.997,120.77 75.207,121.929 75.65,122.841 C76.095,123.759 76.224,124.815 76.015,125.839 C75.763,127.075 75.233,128.079 73.62,130.379 C72.296,132.266 70.248,135.504 70.329,135.582 C70.347,135.599 71.281,136.034 72.404,136.549 C74.186,137.365 74.493,137.544 74.803,137.944 C76.178,139.719 74.859,141.366 71.466,142.108 C70.59,142.3 67.634,142.414 67.215,142.273 z M67.814,137.138 C68.064,136.947 68.687,136.024 69.653,134.413 C70.456,133.072 71.501,131.42 71.975,130.741 C74.804,126.682 74.875,126.539 74.883,124.923 C74.89,123.655 74.668,123.125 73.743,122.2 C72.693,121.15 71.717,120.761 67.27,119.621 C65.144,119.076 63.372,118.63 63.33,118.63 C63.289,118.63 63.423,118.907 63.627,119.246 C64.4,120.529 64.488,120.958 64.538,123.653 C64.573,125.596 64.547,126.233 64.408,126.834 C64.203,127.72 63.704,128.768 63.19,129.395 C62.988,129.642 62.236,130.734 61.52,131.82 L60.217,133.797 L60.762,134.285 C62.327,135.686 64.202,136.9 65.428,137.305 C66.311,137.597 67.303,137.528 67.814,137.138 z M39.499,127.697 C39.499,127.477 40.244,126.895 40.818,126.667 C41.38,126.443 41.677,126.417 44.346,126.363 L47.259,126.303 L46.278,125.491 C45.003,124.437 42.367,122.029 41.619,121.237 C41.296,120.896 40.964,120.617 40.881,120.617 C40.625,120.617 39.648,121.653 39.35,122.24 C39.196,122.545 39.011,123.132 38.939,123.545 C38.761,124.563 38.859,126.707 39.111,127.325 C39.282,127.745 39.499,127.953 39.499,127.697 z M62.992,126.91 C63.095,126.565 63.13,125.909 63.107,124.758 C63.076,123.229 63.051,123.053 62.778,122.47 C61.946,120.695 60.509,119.957 57.878,119.955 C56.892,119.954 56.874,119.959 56.545,120.313 C55.587,121.345 52.198,125.945 52.198,126.215 C52.197,126.263 53.767,126.287 55.685,126.266 C57.765,126.244 59.527,126.277 60.049,126.347 C61.049,126.482 61.887,126.805 62.258,127.199 C62.61,127.574 62.818,127.492 62.992,126.91 z M41.293,116.819 C42.577,116.197 42.522,116.201 51.089,116.191 L58.988,116.182 L58.32,115.86 C57.952,115.683 57.37,115.486 57.026,115.422 C56.622,115.348 54.074,115.319 49.8,115.342 C43.298,115.376 43.189,115.38 42.552,115.62 C41.675,115.952 41.216,116.247 40.455,116.967 C39.615,117.763 39.431,118.113 40.152,117.543 C40.46,117.3 40.973,116.974 41.293,116.819 z M70.127,116.062 C70.278,115.865 70.548,115.336 70.728,114.888 C71.242,113.609 71.23,113.617 72.575,113.693 C73.938,113.77 74.242,113.905 74.715,114.641 C75.063,115.183 75.524,115.584 75.724,115.517 C75.781,115.498 75.306,114.845 74.668,114.065 C74.03,113.286 73.509,112.553 73.509,112.436 C73.509,111.84 74.598,111.521 76.545,111.546 C77.627,111.56 77.802,111.535 78.146,111.316 L78.533,111.07 L77.705,111.002 C77.249,110.965 75.536,110.948 73.898,110.966 L70.92,110.998 L70.31,111.659 C69.568,112.463 68.824,112.998 68.449,112.998 C68.241,112.998 67.817,112.651 66.781,111.636 C65.41,110.292 63.928,109.099 63.108,108.68 C62.597,108.42 61.465,108.184 59.982,108.028 C57.975,107.818 54.905,107.586 54.775,107.635 C54.385,107.782 53.204,110.016 52.929,111.128 C52.718,111.98 52.715,112.042 52.866,112.585 C53.016,113.124 53.689,113.522 55.345,114.052 C57.87,114.86 64.859,116.026 69.092,116.345 C69.365,116.365 69.648,116.391 69.721,116.402 C69.794,116.412 69.977,116.259 70.127,116.062 z M81.542,113.641 C84.229,113.142 86.391,112.7 86.345,112.659 C86.262,112.584 79.979,111.23 79.72,111.231 C79.644,111.231 79.582,111.306 79.582,111.397 C79.582,111.488 79.392,111.752 79.16,111.984 C78.574,112.57 77.954,112.729 76.407,112.691 C75.702,112.674 75.165,112.705 75.165,112.762 C75.165,112.879 76.495,114.542 76.592,114.547 C76.627,114.548 78.854,114.141 81.542,113.641 z M48.398,98.989 C48.453,98.941 48.814,98.817 49.199,98.714 C50.128,98.465 50.888,98.071 51.736,97.398 C52.455,96.828 52.484,96.664 51.866,96.655 C51.541,96.65 50.69,96.281 50.39,96.015 C50.18,95.828 49.437,94.392 49.437,94.172 C49.437,94.109 49.763,94.369 50.162,94.75 C50.96,95.514 51.509,95.841 52.171,95.946 L52.605,96.016 L52.674,95.361 C52.712,95 52.773,94.625 52.811,94.527 C52.848,94.429 53.21,94.22 53.615,94.063 C54.397,93.76 55.138,93.297 55.327,92.994 C55.553,92.632 54.951,92.312 53.614,92.081 L53.209,92.011 L53.117,92.593 C53.048,93.022 52.972,93.185 52.824,93.213 C52.639,93.249 52.63,93.178 52.702,92.193 C52.745,91.611 52.75,91.135 52.714,91.135 C52.677,91.135 52.397,91.233 52.091,91.354 C51.785,91.475 51.535,91.534 51.535,91.486 C51.535,91.314 52.208,90.343 52.502,90.089 L52.802,89.831 L52.307,89.767 C50.727,89.561 45.681,89.264 45.425,89.361 C45.012,89.518 44.832,89.88 44.746,90.726 C44.665,91.526 44.772,91.83 45.288,92.261 C45.512,92.448 45.508,92.45 45.143,92.349 C44.367,92.135 44.074,91.545 44.167,90.388 C44.228,89.625 44.449,89.203 44.921,88.949 C45.189,88.804 46.124,88.811 51.049,88.995 L52.827,89.062 L52.785,87.642 C52.71,85.13 52.359,84.019 51.291,82.917 C50.648,82.253 50.559,82.226 49.271,82.294 C48.099,82.357 47.667,82.781 47.447,84.082 C47.313,84.878 47.368,85.396 47.631,85.811 C47.773,86.036 47.768,86.095 47.584,86.363 C47.306,86.766 47.133,87.245 47.095,87.712 C47.054,88.206 46.864,88.238 45.499,87.981 C44.316,87.759 43.895,87.826 43.547,88.293 C43.301,88.622 43.158,89.542 43.149,90.861 L43.143,91.636 L41.857,92.276 L40.57,92.917 L40.918,93.128 C41.178,93.286 41.266,93.42 41.266,93.656 C41.266,93.83 40.771,94.994 40.162,96.253 C39.554,97.508 39.058,98.559 39.058,98.589 C39.058,98.619 39.247,98.643 39.479,98.643 C40.488,98.643 41.241,98.901 43.749,100.105 C45.147,100.776 46.539,101.437 46.842,101.573 L47.394,101.822 L47.846,100.449 C48.094,99.694 48.342,99.037 48.398,98.989 z M93.407,114.406 C93.462,114.087 93.509,113.13 93.512,112.28 C93.521,109.919 93.034,108.393 91.893,107.205 C91.322,106.611 90.004,105.835 89.853,106.005 C89.809,106.056 89.484,107.165 89.131,108.471 C88.779,109.776 88.458,110.882 88.42,110.927 C88.382,110.972 87.756,111.088 87.03,111.185 L85.71,111.361 L82.673,110.631 C81.003,110.229 79.526,109.854 79.391,109.797 C79.257,109.74 79.117,109.575 79.08,109.431 C79.037,109.258 80.034,105.752 82.005,99.148 C83.65,93.637 85.045,89.034 85.106,88.92 C85.167,88.806 85.402,88.664 85.629,88.605 C86.369,88.41 91.985,87.27 92.203,87.27 C92.319,87.27 92.931,87.502 93.563,87.786 C94.435,88.177 94.699,88.344 94.657,88.476 C94.39,89.326 92.059,97.895 92.059,98.025 C92.059,98.119 92.198,98.268 92.367,98.355 C93.531,98.957 94.818,100.301 95.467,101.592 C96.106,102.862 96.306,103.811 96.302,105.545 C96.298,107.325 96.129,108.283 95.464,110.293 C95.089,111.427 93.488,114.985 93.352,114.985 C93.327,114.985 93.352,114.725 93.407,114.406 z M88.448,99.389 C90.03,93.513 91.299,88.682 91.27,88.652 C91.21,88.593 86.145,89.614 86.056,89.703 C85.989,89.77 80.355,108.619 80.355,108.775 C80.355,108.883 85.127,110.119 85.421,110.088 C85.526,110.077 86.453,106.804 88.448,99.389 z" fill="#000000" id="path3384"/>
    <g>
      <g>
        <path d="M397.468,212.797 L397.468,295.773 C397.468,301.165 393.61,305.535 388.852,305.535 L368.75,305.535 C363.992,305.535 360.134,301.165 360.134,295.773 L360.134,212.797 C360.134,207.406 363.992,203.035 368.75,203.035 L388.852,203.035 C393.61,203.035 397.468,207.406 397.468,212.797 z" fill="#EDF0F4"/>
        <path d="M397.468,212.797 L397.468,295.773 C397.468,301.165 393.61,305.535 388.852,305.535 L368.75,305.535 C363.992,305.535 360.134,301.165 360.134,295.773 L360.134,212.797 C360.134,207.406 363.992,203.035 368.75,203.035 L388.852,203.035 C393.61,203.035 397.468,207.406 397.468,212.797 z" fill-opacity="0" stroke="#95979A" stroke-width="1"/>
      </g>
      <text transform="matrix(-0, 1, -1, -0, 377.968, 255.274)">
        <tspan x="-31.677" y="-8" font-family="Arial-BoldMT" font-size="10" fill="#000000">User account </tspan>
        <tspan x="-19.451" y="3" font-family="Arial-BoldMT" font-size="10" fill="#000000">creation </tspan>
        <tspan x="-32.495" y="14" font-family="Arial-BoldMT" font-size="10" fill="#000000">URI  endpoint</tspan>
      </text>
    </g>
    <path d="M241.403,341.193 L285.411,341.193" fill-opacity="0" stroke="#BEF0FC" stroke-width="1" stroke-linecap="round"/>
    <g>
      <path d="M285.411,341.193 L285.411,308.379" fill-opacity="0" stroke="#BEF0FC" stroke-width="1" stroke-linecap="round"/>
      <g>
        <path d="M241.403,341.193 L241.403,317.152" fill-opacity="0" stroke="#BEF0FC" stroke-width="1" stroke-linecap="round"/>
        <path d="M244.403,317.152 L241.403,309.152 L238.403,317.152 z" fill="#BEF0FC" fill-opacity="1" stroke="#BEF0FC" stroke-width="1" stroke-opacity="1"/>
      </g>
    </g>
    <path d="M239.468,329.188 L242.468,329.188 L242.468,337.812 L239.468,337.812 L239.468,329.188 z" fill="#BDC1C7"/>
    <text transform="matrix(1, 0, 0, 1, 237.819, 347.237)">
      <tspan x="-18.671" y="-10.5" font-family="ArialMT" font-size="12" fill="#000000">Extract </tspan>
      <tspan x="-24.68" y="3.5" font-family="ArialMT" font-size="12" fill="#000000">attributes</tspan>
      <tspan x="-27" y="17.5" font-family="ArialMT" font-size="12" fill="#000000">from MDS</tspan>
    </text>
    <g>
      <g>
        <path d="M273.103,333.423 C268.454,333.423 264.686,329.505 264.686,324.673 C264.686,319.84 268.454,315.923 273.103,315.923 C277.751,315.923 281.519,319.84 281.519,324.673 C281.519,329.505 277.751,333.423 273.103,333.423 z" fill="#BFF1FD"/>
        <path d="M273.103,333.423 C268.454,333.423 264.686,329.505 264.686,324.673 C264.686,319.84 268.454,315.923 273.103,315.923 C277.751,315.923 281.519,319.84 281.519,324.673 C281.519,329.505 277.751,333.423 273.103,333.423 z" fill-opacity="0" stroke="#83B3C2" stroke-width="1"/>
      </g>
      <text transform="matrix(1, 0, 0, 1, 272.719, 324.173)">
        <tspan x="-3.059" y="3.5" font-family="Arial-BoldMT" font-size="11" fill="#000000">5</tspan>
      </text>
    </g>
    <g>
      <path d="M625.5,267.54 L625.5,148" fill-opacity="0" stroke="#0041C7" stroke-width="1" stroke-linecap="round"/>
      <path d="M628.5,148 L625.5,140 L622.5,148 z" fill-opacity="0" stroke="#0041C7" stroke-width="1" stroke-opacity="1"/>
    </g>
    <path d="M400.636,267.54 L625.5,267.54" fill-opacity="0" stroke="#0041C7" stroke-width="1" stroke-linecap="round"/>
    <g>
      <g>
        <path d="M542.255,276.29 C537.422,276.29 533.505,272.373 533.505,267.54 C533.505,262.708 537.422,258.79 542.255,258.79 C547.087,258.79 551.005,262.708 551.005,267.54 C551.005,272.373 547.087,276.29 542.255,276.29 z" fill="#BFF1FD"/>
        <path d="M542.255,276.29 C537.422,276.29 533.505,272.373 533.505,267.54 C533.505,262.708 537.422,258.79 542.255,258.79 C547.087,258.79 551.005,262.708 551.005,267.54 C551.005,272.373 547.087,276.29 542.255,276.29 z" fill-opacity="0" stroke="#0041C7" stroke-width="1"/>
      </g>
      <text transform="matrix(1, 0, 0, 1, 541.755, 267.04)">
        <tspan x="-3.059" y="3.5" font-family="Arial-BoldMT" font-size="11" fill="#000000">2</tspan>
      </text>
    </g>
    <path d="M611.861,240.035 L611.861,139" fill-opacity="0" stroke="#0041C7" stroke-width="1" stroke-linecap="round"/>
    <g>
      <path d="M611.861,240.035 L408,240.035" fill-opacity="0" stroke="#0041C7" stroke-width="1" stroke-linecap="round"/>
      <path d="M408,237.035 L400,240.035 L408,243.035 z" fill-opacity="0" stroke="#0041C7" stroke-width="1" stroke-opacity="1"/>
    </g>
    <g>
      <g>
        <path d="M583.75,247.555 C578.917,247.555 575,243.637 575,238.805 C575,233.972 578.917,230.055 583.75,230.055 C588.583,230.055 592.5,233.972 592.5,238.805 C592.5,243.637 588.583,247.555 583.75,247.555 z" fill="#BFF1FD"/>
        <path d="M583.75,247.555 C578.917,247.555 575,243.637 575,238.805 C575,233.972 578.917,230.055 583.75,230.055 C588.583,230.055 592.5,233.972 592.5,238.805 C592.5,243.637 588.583,247.555 583.75,247.555 z" fill-opacity="0" stroke="#0041C7" stroke-width="1"/>
      </g>
      <text transform="matrix(1, 0, 0, 1, 583.25, 238.305)">
        <tspan x="-3.059" y="3.5" font-family="Arial-BoldMT" font-size="11" fill="#000000">4</tspan>
      </text>
    </g>
    <g>
      <path d="M482.335,220.16 L569.397,220.16 L569.397,257.827 L482.335,257.827 L482.335,220.16 z" fill="#EDF0F4"/>
      <path d="M417.655,220.16 L482.486,220.16 L482.486,257.827 L417.655,257.827 L417.655,220.16 z" fill="#BDC1C7"/>
    </g>
    <text transform="matrix(1, 0, 0, 1, 496.348, 241.535)">
      <tspan x="-76.298" y="-10.5" font-family="ArialMT" font-size="12" fill="#000000">Unknown attribute query:</tspan>
      <tspan x="-76.298" y="3.5" font-family="ArialMT" font-size="12" fill="#000000">MDS, #PID, list of attributes </tspan>
      <tspan x="-76.298" y="17.5" font-family="ArialMT" font-size="12" fill="#000000">to extract from MDS</tspan>
    </text>
    <text transform="matrix(1, 0, 0, 1, 638.457, 30.106)">
      <tspan x="-137.79" y="-15.228" font-family="ArialMT" font-size="12" fill="#000000">Check:</tspan>
      <tspan x="-137.79" y="-1.228" font-family="ArialMT" font-size="12" fill="#000000">- that gov service supports user account creation</tspan>
      <tspan x="-137.79" y="12.772" font-family="ArialMT" font-size="12" fill="#000000">- the list of attributes to extract from MDS</tspan>
    </text>
    <path d="M628.341,51.5 L584.333,51.5" fill-opacity="0" stroke="#0041C7" stroke-width="1" stroke-linecap="round"/>
    <g>
      <g>
        <path d="M604.215,62.033 C599.383,62.033 595.465,58.116 595.465,53.283 C595.465,48.451 599.383,44.533 604.215,44.533 C609.048,44.533 612.965,48.451 612.965,53.283 C612.965,58.116 609.048,62.033 604.215,62.033 z" fill="#BFF1FD"/>
        <path d="M604.215,62.033 C599.383,62.033 595.465,58.116 595.465,53.283 C595.465,48.451 599.383,44.533 604.215,44.533 C609.048,44.533 612.965,48.451 612.965,53.283 C612.965,58.116 609.048,62.033 604.215,62.033 z" fill-opacity="0" stroke="#0041C7" stroke-width="1"/>
      </g>
      <text transform="matrix(1, 0, 0, 1, 603.715, 52.783)">
        <tspan x="-3.059" y="3.5" font-family="Arial-BoldMT" font-size="11" fill="#000000">3</tspan>
      </text>
    </g>
    <path d="M584.333,51.5 L584.333,72.887" fill-opacity="0" stroke="#0041C7" stroke-width="1" stroke-linecap="round"/>
    <g>
      <path d="M628.341,51.5 L628.341,64.035" fill-opacity="0" stroke="#0041C7" stroke-width="1" stroke-linecap="round"/>
      <path d="M625.341,64.035 L628.341,72.035 L631.341,64.035 z" fill-opacity="0" stroke="#0041C7" stroke-width="1" stroke-opacity="1"/>
    </g>
    <g>
      <g>
        <path d="M187.5,282.305 C182.852,282.305 179.083,278.387 179.083,273.555 C179.083,268.722 182.852,264.805 187.5,264.805 C192.148,264.805 195.917,268.722 195.917,273.555 C195.917,278.387 192.148,282.305 187.5,282.305 z" fill="#BFF1FD"/>
        <path d="M187.5,282.305 C182.852,282.305 179.083,278.387 179.083,273.555 C179.083,268.722 182.852,264.805 187.5,264.805 C192.148,264.805 195.917,268.722 195.917,273.555 C195.917,278.387 192.148,282.305 187.5,282.305 z" fill-opacity="0" stroke="#83B3C2" stroke-width="1"/>
      </g>
      <text transform="matrix(1, 0, 0, 1, 187.117, 273.055)">
        <tspan x="-3.059" y="3.5" font-family="Arial-BoldMT" font-size="11" fill="#000000">7</tspan>
      </text>
    </g>
    <path d="M133.073,291.555 L137.406,291.555 L137.406,346.464 L133.073,346.464 L133.073,291.555 z" fill="#BDC1C7"/>
    <text transform="matrix(1, 0, 0, 1, 116.98, 321.502)">
      <tspan x="-44.021" y="-18.962" font-family="ArialMT" font-size="12" fill="#000000">Create new user </tspan>
      <tspan x="-37.025" y="-4.962" font-family="ArialMT" font-size="12" fill="#000000">account using </tspan>
      <tspan x="-43.69" y="9.038" font-family="ArialMT" font-size="12" fill="#000000">values extracted </tspan>
      <tspan x="-27" y="23.038" font-family="ArialMT" font-size="12" fill="#000000">from MDS</tspan>
    </text>
    <path d="M184.833,198.583 L189.167,198.583 L189.167,254.56 L184.833,254.56 L184.833,198.583 z" fill="#BDC1C7"/>
    <text transform="matrix(1, 0, 0, 1, 180.273, 226.571)">
      <tspan x="-18.009" y="-17.704" font-family="ArialMT" font-size="12" fill="#000000">Create </tspan>
      <tspan x="-28.014" y="-3.704" font-family="ArialMT" font-size="12" fill="#000000">correlation </tspan>
      <tspan x="-37.685" y="10.296" font-family="ArialMT" font-size="12" fill="#000000">between MDS </tspan>
      <tspan x="-25.017" y="24.296" font-family="ArialMT" font-size="12" fill="#000000">and #PID</tspan>
    </text>
    <g>
      <g>
        <path d="M135.62,282.305 C130.972,282.305 127.203,278.387 127.203,273.555 C127.203,268.722 130.972,264.805 135.62,264.805 C140.268,264.805 144.037,268.722 144.037,273.555 C144.037,278.387 140.268,282.305 135.62,282.305 z" fill="#BFF1FD"/>
        <path d="M135.62,282.305 C130.972,282.305 127.203,278.387 127.203,273.555 C127.203,268.722 130.972,264.805 135.62,264.805 C140.268,264.805 144.037,268.722 144.037,273.555 C144.037,278.387 140.268,282.305 135.62,282.305 z" fill-opacity="0" stroke="#83B3C2" stroke-width="1"/>
      </g>
      <text transform="matrix(1, 0, 0, 1, 135.236, 273.055)">
        <tspan x="-3.059" y="3.5" font-family="Arial-BoldMT" font-size="11" fill="#000000">8</tspan>
      </text>
    </g>
    <text transform="matrix(1, 0, 0, 1, 321.599, 357.992)">
      <tspan x="-16.002" y="-10.5" font-family="ArialMT" font-size="12" fill="#000000">JSON</tspan>
      <tspan x="-26.35" y="3.5" font-family="ArialMT" font-size="12" fill="#000000">response:</tspan>
      <tspan x="-25.011" y="17.5" font-family="ArialMT" font-size="12" fill="#000000">no-match</tspan>
    </text>
    <g>
      <path d="M664.715,84.88 L716.39,84.88" fill-opacity="0" stroke="#0041C7" stroke-width="1" stroke-opacity="0.5" stroke-linecap="round"/>
      <path d="M716.39,87.88 L724.39,84.88 L716.39,81.88 z" fill-opacity="0" stroke="#0041C7" stroke-width="1" stroke-opacity="0.5"/>
    </g>
    <text transform="matrix(1, 0, 0, 1, 589.615, 269.096)">
      <tspan x="-33.354" y="-4.375" font-family="ArialMT" font-size="12" fill="#000000">S</tspan>
      <tspan x="-25.351" y="-4.375" font-family="ArialMT" font-size="12" fill="#000000">tatus code: </tspan>
      <tspan x="-24.68" y="9.625" font-family="ArialMT" font-size="12" fill="#000000">no match</tspan>
    </text>
  </g>
</svg>
