<?xml version="1.0" encoding="UTF-8"?>
<!DOCTYPE svg PUBLIC "-//W3C//DTD SVG 1.1//EN" "http://www.w3.org/Graphics/SVG/1.1/DTD/svg11.dtd">
<svg version="1.1" xmlns="http://www.w3.org/2000/svg" xmlns:xlink="http://www.w3.org/1999/xlink" x="0" y="0" width="744" height="425" viewBox="0, 0, 744, 425">
  <g id="Layer_1">
    <g>
      <path d="M120.486,9.421 L381.269,9.421 C386.887,9.421 391.441,13.623 391.441,18.806 L391.441,406.194 C391.441,411.377 386.887,415.579 381.269,415.579 L120.486,415.579 C114.869,415.579 110.315,411.377 110.315,406.194 L110.315,18.806 C110.315,13.623 114.869,9.421 120.486,9.421 z" fill="#BDC1C7"/>
      <path d="M120.486,9.421 L381.269,9.421 C386.887,9.421 391.441,13.623 391.441,18.806 L391.441,406.194 C391.441,411.377 386.887,415.579 381.269,415.579 L120.486,415.579 C114.869,415.579 110.315,411.377 110.315,406.194 L110.315,18.806 C110.315,13.623 114.869,9.421 120.486,9.421 z" fill-opacity="0" stroke="#9FA5AE" stroke-width="1"/>
    </g>
    <g>
      <path d="M401.479,9.844 L730.448,9.844 C735.992,9.844 740.487,14.04 740.487,19.216 L740.487,405.784 C740.487,410.96 735.992,415.156 730.448,415.156 L401.479,415.156 C395.935,415.156 391.441,410.96 391.441,405.784 L391.441,19.216 C391.441,14.04 395.935,9.844 401.479,9.844 z" fill="#EDF0F4"/>
      <path d="M401.479,9.844 L730.448,9.844 C735.992,9.844 740.487,14.04 740.487,19.216 L740.487,405.784 C740.487,410.96 735.992,415.156 730.448,415.156 L401.479,415.156 C395.935,415.156 391.441,410.96 391.441,405.784 L391.441,19.216 C391.441,14.04 395.935,9.844 401.479,9.844 z" fill-opacity="0" stroke="#8B9094" stroke-width="1"/>
    </g>
    <g id="rect43929">
      <path d="M151.569,181.166 L341.948,181.166 C346.627,181.166 350.419,185.004 350.419,189.739 L350.419,282.063 C350.419,286.798 346.627,290.637 341.948,290.637 L151.569,290.637 C146.891,290.637 143.098,286.798 143.098,282.063 L143.098,189.739 C143.098,185.004 146.891,181.166 151.569,181.166 z" fill="#A7A9AB"/>
      <path d="M151.569,181.166 L341.948,181.166 C346.627,181.166 350.419,185.004 350.419,189.739 L350.419,282.063 C350.419,286.798 346.627,290.637 341.948,290.637 L151.569,290.637 C146.891,290.637 143.098,286.798 143.098,282.063 L143.098,189.739 C143.098,185.004 146.891,181.166 151.569,181.166 z" fill-opacity="0" stroke="#6E757E" stroke-width="0.644" stroke-linecap="round" stroke-linejoin="round"/>
    </g>
    <g>
      <path d="M205.478,180.858 L340.224,180.774 C345.84,180.771 350.396,185.001 350.399,190.223 L350.421,225.681 C350.425,230.903 345.874,235.14 340.258,235.143 L205.512,235.228 C199.896,235.231 195.34,231.001 195.337,225.778 L195.314,190.32 C195.311,185.098 199.861,180.862 205.478,180.858 z" fill="#9B9B9B"/>
      <path d="M205.478,180.858 L340.224,180.774 C345.84,180.771 350.396,185.001 350.399,190.223 L350.421,225.681 C350.425,230.903 345.874,235.14 340.258,235.143 L205.512,235.228 C199.896,235.231 195.34,231.001 195.337,225.778 L195.314,190.32 C195.311,185.098 199.861,180.862 205.478,180.858 z" fill-opacity="0" stroke="#4F4F4F" stroke-width="1"/>
    </g>
    <g>
      <path d="M205.509,235.228 L340.25,235.228 C345.866,235.228 350.419,239.542 350.419,244.864 L350.419,281 C350.419,286.322 345.866,290.637 340.25,290.637 L205.509,290.637 C199.893,290.637 195.34,286.322 195.34,281 L195.34,244.864 C195.34,239.542 199.893,235.228 205.509,235.228 z" fill="#9B9B9B"/>
      <path d="M205.509,235.228 L340.25,235.228 C345.866,235.228 350.419,239.542 350.419,244.864 L350.419,281 C350.419,286.322 345.866,290.637 340.25,290.637 L205.509,290.637 C199.893,290.637 195.34,286.322 195.34,281 L195.34,244.864 C195.34,239.542 199.893,235.228 205.509,235.228 z" fill-opacity="0" stroke="#4F4F4F" stroke-width="1"/>
    </g>
    <path d="M503.55,227.725 L503.55,135.303" fill-opacity="0" stroke="#002060" stroke-width="1.009" stroke-linecap="round" id="path43941"/>
    <path d="M350.421,191.88 L465.841,191.88" fill-opacity="0" stroke="#002060" stroke-width="1" stroke-linecap="round" id="path43991"/>
    <g id="rect20475">
      <path d="M479.006,355.552 L681.921,355.552 C685.953,355.552 689.222,356.095 689.222,356.764 L689.222,400.756 C689.222,401.426 685.953,401.968 681.921,401.968 L479.006,401.968 C474.974,401.968 471.705,401.426 471.705,400.756 L471.705,356.764 C471.705,356.095 474.974,355.552 479.006,355.552 z" fill="#BDC0C6"/>
      <path d="M479.006,355.552 L681.921,355.552 C685.953,355.552 689.222,356.095 689.222,356.764 L689.222,400.756 C689.222,401.426 685.953,401.968 681.921,401.968 L479.006,401.968 C474.974,401.968 471.705,401.426 471.705,400.756 L471.705,356.764 C471.705,356.095 474.974,355.552 479.006,355.552 z" fill-opacity="0" stroke="#9FA5AE" stroke-width="0.312" stroke-linecap="round" stroke-linejoin="round"/>
    </g>
    <path d="M371.989,119.669 C371.936,119.581 371.459,118.951 370.929,118.27 C370.266,117.416 369.962,116.975 369.956,116.853 C369.949,116.756 369.944,112.551 369.939,107.51 L369.931,98.343 L368.371,98.343 C367.509,98.342 366.71,98.313 366.586,98.277 C366.295,98.193 366.051,97.973 365.883,97.645 C365.762,97.408 365.75,97.271 365.75,96.192 L365.75,95 L365.573,94.959 C364.997,94.826 364.504,94.667 364.092,94.482 C363.834,94.366 363.606,94.29 363.583,94.313 C363.449,94.447 364.045,95.407 364.589,95.934 L364.964,96.296 L364.987,97.014 C365.008,97.641 365.033,97.778 365.188,98.095 C365.416,98.558 365.822,98.932 366.288,99.106 C366.618,99.23 366.786,99.244 367.939,99.244 L369.223,99.244 L369.223,99.729 L369.223,100.215 L369.013,100.303 C368.568,100.489 367.727,100.602 366.94,100.582 L366.168,100.562 L365.557,101.79 C365.221,102.465 364.607,103.71 364.193,104.556 C362.855,107.292 361.63,109.803 361.15,110.79 C358.56,116.119 358.512,116.209 358.184,116.417 C357.687,116.732 357.362,116.699 356.479,116.242 C355.838,115.911 355.748,115.842 355.61,115.584 C355.399,115.186 355.409,114.801 355.643,114.286 C355.745,114.062 356.212,113.097 356.68,112.141 C357.147,111.186 357.769,109.912 358.062,109.311 C358.355,108.709 358.992,107.407 359.477,106.416 C359.963,105.426 360.542,104.239 360.765,103.779 C360.987,103.319 361.591,102.078 362.108,101.022 C362.625,99.966 363.047,99.083 363.047,99.06 C363.046,99.037 362.913,98.874 362.751,98.697 C361.46,97.29 360.915,95.3 361.317,93.454 C361.39,93.118 361.463,92.785 361.479,92.714 C361.498,92.629 361.375,92.402 361.113,92.039 C360.896,91.738 360.643,91.347 360.551,91.171 C358.706,87.622 359.633,83.269 362.724,80.98 C363.932,80.085 365.482,79.559 366.912,79.559 C367.47,79.559 368.531,79.736 369.068,79.918 C371.337,80.689 373.219,82.703 373.882,85.07 C374.107,85.874 374.174,86.395 374.175,87.352 C374.176,87.996 374.195,88.173 374.268,88.201 C374.318,88.22 375.117,88.238 376.043,88.242 C377.3,88.246 377.78,88.269 377.935,88.334 C378.235,88.46 378.535,88.856 378.618,89.237 C378.666,89.459 378.682,90.804 378.668,93.486 L378.647,97.41 L378.471,97.71 C378.374,97.875 378.186,98.078 378.053,98.161 C377.818,98.307 377.763,98.311 376.123,98.331 L374.434,98.351 L374.434,99.554 L374.434,100.758 L373.754,101.432 C372.988,102.192 372.811,102.47 372.811,102.92 C372.811,103.347 373.007,103.649 373.786,104.421 C374.394,105.023 374.434,105.079 374.433,105.321 C374.433,105.562 374.39,105.623 373.824,106.191 C373.185,106.833 373.019,107.113 373.019,107.545 C373.019,107.952 373.153,108.173 373.815,108.855 L374.434,109.492 L374.434,109.986 L374.434,110.479 L373.787,111.117 C373.008,111.886 372.811,112.188 372.811,112.614 C372.811,113.064 372.988,113.343 373.754,114.102 L374.434,114.776 L374.434,115.886 L374.434,116.995 L373.935,117.646 C373.661,118.003 373.195,118.605 372.899,118.982 C372.603,119.359 372.347,119.704 372.329,119.748 C372.277,119.881 372.092,119.838 371.99,119.669 z M371.217,107.188 L371.217,98.6 L370.928,98.6 L370.638,98.6 L370.638,107.188 L370.638,115.776 L370.928,115.776 L371.217,115.776 L371.217,107.188 z M375.563,95.469 C375.707,95.392 375.909,95.207 376.013,95.057 L376.202,94.784 L376.223,93.556 C376.234,92.881 376.225,92.233 376.203,92.115 C376.154,91.855 375.762,91.407 375.481,91.289 C375.337,91.229 374.963,91.203 374.249,91.203 L373.224,91.203 L373.063,91.476 C372.242,92.871 370.909,94.012 369.416,94.6 C369.151,94.704 368.832,94.811 368.708,94.837 C368.585,94.864 368.414,94.912 368.329,94.944 L368.174,95.002 L368.361,95.198 C368.558,95.403 368.827,95.55 369.094,95.598 C369.183,95.614 370.616,95.623 372.279,95.618 C375.251,95.611 375.306,95.607 375.563,95.469 z M365.749,91.458 C365.749,89.575 365.766,89.165 365.848,88.968 C365.976,88.663 366.111,88.516 366.403,88.367 C366.622,88.255 366.859,88.245 369.78,88.229 L372.922,88.211 L372.973,87.761 C373.043,87.143 372.925,86.128 372.693,85.345 C372.008,83.039 370.245,81.367 368.023,80.914 C367.203,80.748 366.579,80.746 365.787,80.908 C364.017,81.272 362.601,82.344 361.622,84.061 C361.096,84.985 360.76,86.44 360.814,87.567 C360.873,88.82 361.174,89.825 361.81,90.896 L362.115,91.408 L362.276,91.196 C362.887,90.389 363.78,89.658 364.615,89.28 L365.058,89.079 L365.017,89.28 C364.995,89.39 364.977,90.023 364.977,90.686 L364.977,91.891 L364.566,92.094 C364.202,92.273 363.691,92.721 363.691,92.86 C363.691,93.007 365.267,93.706 365.604,93.709 L365.749,93.71 L365.749,91.456 z M369.05,93.442 C370.108,92.993 371.079,92.237 371.661,91.408 L371.81,91.196 L370.297,91.215 L368.784,91.235 L368.537,91.434 C368.103,91.786 368.04,91.96 368.011,92.897 L367.985,93.728 L368.286,93.683 C368.452,93.658 368.796,93.549 369.05,93.442 z M362.05,117.481 C361.52,117.219 360.63,116.783 360.074,116.512 C359.233,116.101 359.072,116 359.118,115.913 C359.148,115.855 359.347,115.446 359.56,115.004 C359.773,114.562 360.33,113.418 360.797,112.463 C361.265,111.508 361.918,110.169 362.249,109.489 L362.85,108.252 L363.447,108.532 C364.846,109.188 366.843,110.198 366.843,110.249 C366.843,110.366 365.746,112.559 365.688,112.559 C365.654,112.559 365.271,112.384 364.836,112.17 C364.401,111.955 363.877,111.709 363.672,111.621 C363.316,111.469 363.29,111.466 363.08,111.566 C362.691,111.751 362.627,112.321 362.97,112.546 C363.061,112.605 363.536,112.847 364.028,113.084 C365.357,113.724 365.269,113.528 364.728,114.637 C364.475,115.157 364.234,115.583 364.192,115.583 C364.15,115.583 363.646,115.351 363.072,115.068 C362.357,114.715 361.956,114.554 361.798,114.554 C361.38,114.554 361.142,114.964 361.33,115.358 C361.418,115.542 361.582,115.644 362.561,116.125 C363.182,116.43 363.691,116.695 363.691,116.714 C363.691,116.801 363.106,117.962 363.064,117.959 C363.037,117.958 362.581,117.742 362.05,117.481 z" fill="#000000" id="path12916"/>
    <g>
      <path d="M250.878,354.865 L250.878,299.637" fill-opacity="0" stroke="#BEF0FC" stroke-width="1" stroke-linecap="round"/>
      <path d="M253.878,299.637 L250.878,291.637 L247.878,299.637 z" fill="#BEF0FC" fill-opacity="1" stroke="#BEF0FC" stroke-width="1" stroke-opacity="1"/>
    </g>
    <g>
      <path d="M236.556,290.637 L236.556,346.552" fill-opacity="0" stroke="#BEF0FC" stroke-width="1" stroke-linecap="round"/>
      <path d="M233.556,346.552 L236.556,354.552 L239.556,346.552 z" fill="#BEF0FC" fill-opacity="1" stroke="#BEF0FC" stroke-width="1" stroke-opacity="1"/>
    </g>
    <g>
      <path d="M99.184,81.029 L149.443,81.029" fill-opacity="0" stroke="#012060" stroke-width="1" stroke-linecap="round"/>
      <path d="M149.443,81.029 L147.443,84.029 L155.443,81.029 L147.443,78.029 z" fill="#012060" fill-opacity="1" stroke="#012060" stroke-width="1" stroke-opacity="1"/>
    </g>
    <g>
      <path d="M158.761,119.827 L105.184,119.955" fill-opacity="0" stroke="#012060" stroke-width="1" stroke-linecap="round"/>
      <path d="M105.184,119.955 L107.176,116.95 L99.184,119.969 L107.191,122.95 z" fill="#012060" fill-opacity="1" stroke="#012060" stroke-width="1" stroke-opacity="1"/>
    </g>
    <path d="M440.739,81.029 L525.794,81.029" fill-opacity="0" stroke="#012060" stroke-width="1" stroke-dasharray="6,5" stroke-linecap="round"/>
    <g>
      <path d="M536.767,81.145 L599.237,81.145" fill-opacity="0" stroke="#012060" stroke-width="1" stroke-linecap="round"/>
      <path d="M599.237,81.145 L597.237,84.145 L605.237,81.145 L597.237,78.145 z" fill="#012060" fill-opacity="1" stroke="#012060" stroke-width="1" stroke-opacity="1"/>
    </g>
    <g>
      <path d="M376.473,88.897 L377.189,88.897 L377.189,97.709 L376.473,97.709 L376.473,88.897 z" fill="#EDF0F4"/>
      <path d="M375.756,88.897 L376.473,88.897 L376.473,97.709 L375.756,97.709 L375.756,88.897 z" fill="#BDC0C6"/>
    </g>
    <g>
      <path d="M503.55,227.725 L356.729,227.725" fill-opacity="0" stroke="#012060" stroke-width="1" stroke-linecap="round"/>
      <path d="M356.729,227.725 L358.729,224.725 L350.729,227.725 L358.729,230.725 z" fill="#012060" fill-opacity="1" stroke="#012060" stroke-width="1" stroke-opacity="1"/>
    </g>
    <g>
      <g>
        <path d="M181.673,359.392 L308.55,359.392 C315.349,359.392 320.861,365.105 320.861,372.153 L320.861,391.296 C320.861,398.345 315.349,404.058 308.55,404.058 L181.673,404.058 C174.873,404.058 169.361,398.345 169.361,391.296 L169.361,372.153 C169.361,365.105 174.873,359.392 181.673,359.392 z" fill="#A3ABD0"/>
        <path d="M181.673,359.392 L308.55,359.392 C315.349,359.392 320.861,365.105 320.861,372.153 L320.861,391.296 C320.861,398.345 315.349,404.058 308.55,404.058 L181.673,404.058 C174.873,404.058 169.361,398.345 169.361,391.296 L169.361,372.153 C169.361,365.105 174.873,359.392 181.673,359.392 z" fill-opacity="0" stroke="#7874A0" stroke-width="1"/>
      </g>
      <g>
        <path d="M245.111,367.352 C206.368,367.352 174.961,364.711 174.961,361.452 C174.961,358.194 206.368,355.552 245.111,355.552 C283.854,355.552 315.261,358.194 315.261,361.452 C315.261,364.711 283.854,367.352 245.111,367.352 z" fill="#A3ABD0"/>
        <path d="M245.111,367.352 C206.368,367.352 174.961,364.711 174.961,361.452 C174.961,358.194 206.368,355.552 245.111,355.552 C283.854,355.552 315.261,358.194 315.261,361.452 C315.261,364.711 283.854,367.352 245.111,367.352 z" fill-opacity="0" stroke="#7874A0" stroke-width="1"/>
      </g>
      <path d="M245.111,407.719 C206.368,407.719 174.961,405.077 174.961,401.819 C174.961,398.56 206.368,395.919 245.111,395.919 C283.854,395.919 315.261,398.56 315.261,401.819 C315.261,405.077 283.854,407.719 245.111,407.719 z" fill="#A3ABD0"/>
      <path d="M315.58,401.681 C303.68,411.182 179.057,409.057 174.642,401.682" fill-opacity="0" stroke="#7874A0" stroke-width="1"/>
    </g>
    <g>
      <g>
        <path d="M181.673,359.392 L308.55,359.392 C315.349,359.392 320.861,365.105 320.861,372.153 L320.861,391.296 C320.861,398.345 315.349,404.058 308.55,404.058 L181.673,404.058 C174.873,404.058 169.361,398.345 169.361,391.296 L169.361,372.153 C169.361,365.105 174.873,359.392 181.673,359.392 z" fill="#A3ABD0"/>
        <path d="M181.673,359.392 L308.55,359.392 C315.349,359.392 320.861,365.105 320.861,372.153 L320.861,391.296 C320.861,398.345 315.349,404.058 308.55,404.058 L181.673,404.058 C174.873,404.058 169.361,398.345 169.361,391.296 L169.361,372.153 C169.361,365.105 174.873,359.392 181.673,359.392 z" fill-opacity="0" stroke="#7874A0" stroke-width="1"/>
      </g>
      <g>
        <path d="M245.111,367.352 C206.368,367.352 174.961,364.711 174.961,361.452 C174.961,358.194 206.368,355.552 245.111,355.552 C283.854,355.552 315.261,358.194 315.261,361.452 C315.261,364.711 283.854,367.352 245.111,367.352 z" fill="#A3ABD0"/>
        <path d="M245.111,367.352 C206.368,367.352 174.961,364.711 174.961,361.452 C174.961,358.194 206.368,355.552 245.111,355.552 C283.854,355.552 315.261,358.194 315.261,361.452 C315.261,364.711 283.854,367.352 245.111,367.352 z" fill-opacity="0" stroke="#7874A0" stroke-width="1"/>
      </g>
      <path d="M245.111,407.719 C206.368,407.719 174.961,405.077 174.961,401.819 C174.961,398.56 206.368,395.919 245.111,395.919 C283.854,395.919 315.261,398.56 315.261,401.819 C315.261,405.077 283.854,407.719 245.111,407.719 z" fill="#A3ABD0"/>
      <path d="M315.58,401.681 C303.68,411.182 179.057,409.057 174.642,401.682" fill-opacity="0" stroke="#7874A0" stroke-width="1"/>
    </g>
    <text transform="matrix(1, 0, 0, 1, 245.111, 386.544)">
      <tspan x="-55.009" y="-5.25" font-family="Arial-BoldMT" font-size="15" fill="#000000">Local matching </tspan>
      <tspan x="-33.761" y="11.75" font-family="Arial-BoldMT" font-size="15" fill="#000000">datastore</tspan>
    </text>
    <text transform="matrix(1, 0, 0, 1, 606.596, 387.514)">
      <tspan x="-70.808" y="3.5" font-family="ArialMT" font-size="12" fill="#000000">Non SAML communication</tspan>
    </text>
    <text transform="matrix(1, 0, 0, 1, 592.073, 370.514)">
      <tspan x="-56.801" y="3.5" font-family="ArialMT" font-size="12" fill="#000000">SAML communcation</tspan>
    </text>
    <g>
      <g>
        <path d="M626.403,57.323 L713.403,57.323 C720.031,57.323 725.403,62.696 725.403,69.323 L725.403,111.527 C725.403,118.154 720.031,123.527 713.403,123.527 L626.403,123.527 C619.776,123.527 614.403,118.154 614.403,111.527 L614.403,69.323 C614.403,62.696 619.776,57.323 626.403,57.323 z" fill="#ACC6E9"/>
        <path d="M626.403,57.323 L713.403,57.323 C720.031,57.323 725.403,62.696 725.403,69.323 L725.403,111.527 C725.403,118.154 720.031,123.527 713.403,123.527 L626.403,123.527 C619.776,123.527 614.403,118.154 614.403,111.527 L614.403,69.323 C614.403,62.696 619.776,57.323 626.403,57.323 z" fill-opacity="0" stroke="#6B6F94" stroke-width="1"/>
      </g>
      <g>
        <path d="M622.303,60.823 L709.303,60.823 C715.931,60.823 721.303,66.196 721.303,72.823 L721.303,115.027 C721.303,121.654 715.931,127.027 709.303,127.027 L622.303,127.027 C615.676,127.027 610.303,121.654 610.303,115.027 L610.303,72.823 C610.303,66.196 615.676,60.823 622.303,60.823 z" fill="#ACC6E9"/>
        <path d="M622.303,60.823 L709.303,60.823 C715.931,60.823 721.303,66.196 721.303,72.823 L721.303,115.027 C721.303,121.654 715.931,127.027 709.303,127.027 L622.303,127.027 C615.676,127.027 610.303,121.654 610.303,115.027 L610.303,72.823 C610.303,66.196 615.676,60.823 622.303,60.823 z" fill-opacity="0" stroke="#6B6F94" stroke-width="1"/>
      </g>
      <g>
        <path d="M617.236,64.792 L704.236,64.792 C710.864,64.792 716.236,70.165 716.236,76.792 L716.236,118.995 C716.236,125.623 710.864,130.995 704.236,130.995 L617.236,130.995 C610.609,130.995 605.236,125.623 605.236,118.995 L605.236,76.792 C605.236,70.165 610.609,64.792 617.236,64.792 z" fill="#ACC6E9"/>
        <path d="M617.236,64.792 L704.236,64.792 C710.864,64.792 716.236,70.165 716.236,76.792 L716.236,118.995 C716.236,125.623 710.864,130.995 704.236,130.995 L617.236,130.995 C610.609,130.995 605.236,125.623 605.236,118.995 L605.236,76.792 C605.236,70.165 610.609,64.792 617.236,64.792 z" fill-opacity="0" stroke="#6B6F94" stroke-width="1"/>
      </g>
    </g>
    <text transform="matrix(1, 0, 0, 1, 661.142, 94.159)">
      <tspan x="-26.667" y="-3.5" font-family="Arial-BoldMT" font-size="15" fill="#000000">Identity </tspan>
      <tspan x="-34.178" y="13.5" font-family="Arial-BoldMT" font-size="15" fill="#000000">providers</tspan>
    </text>
    <g>
      <g>
        <path d="M441.767,69.303 L524.767,69.303 C531.394,69.303 536.767,74.676 536.767,81.303 L536.767,123.303 C536.767,129.93 531.394,135.303 524.767,135.303 L441.767,135.303 C435.139,135.303 429.767,129.93 429.767,123.303 L429.767,81.303 C429.767,74.676 435.139,69.303 441.767,69.303 z" fill="#81A9DA"/>
        <path d="M441.767,69.303 L524.767,69.303 C531.394,69.303 536.767,74.676 536.767,81.303 L536.767,123.303 C536.767,129.93 531.394,135.303 524.767,135.303 L441.767,135.303 C435.139,135.303 429.767,129.93 429.767,123.303 L429.767,81.303 C429.767,74.676 435.139,69.303 441.767,69.303 z" fill-opacity="0" stroke="#5E6873" stroke-width="1"/>
      </g>
      <text transform="matrix(1, 0, 0, 1, 483.267, 102.303)">
        <tspan x="-28.898" y="-3.5" font-family="Arial-BoldMT" font-size="15" fill="#000000">GOV.UK</tspan>
        <tspan x="-36.259" y="13.5" font-family="Arial-BoldMT" font-size="15" fill="#000000">Verify hub</tspan>
      </text>
    </g>
    <text transform="matrix(1, 0, 0, 1, 274.009, 208.751)">
      <tspan x="-61.688" y="-4.322" font-family="Arial-BoldMT" font-size="15" fill="#000000">Matching Service </tspan>
      <tspan x="-28.337" y="12.678" font-family="Arial-BoldMT" font-size="15" fill="#000000">Adapter</tspan>
    </text>
    <g>
      <g>
        <path d="M168.111,47.803 L322.111,47.803 C328.739,47.803 334.111,53.176 334.111,59.803 L334.111,144.803 C334.111,151.43 328.739,156.803 322.111,156.803 L168.111,156.803 C161.484,156.803 156.111,151.43 156.111,144.803 L156.111,59.803 C156.111,53.176 161.484,47.803 168.111,47.803 z" fill="#A79E9E"/>
        <path d="M168.111,47.803 L322.111,47.803 C328.739,47.803 334.111,53.176 334.111,59.803 L334.111,144.803 C334.111,151.43 328.739,156.803 322.111,156.803 L168.111,156.803 C161.484,156.803 156.111,151.43 156.111,144.803 L156.111,59.803 C156.111,53.176 161.484,47.803 168.111,47.803 z" fill-opacity="0" stroke="#3E3D3D" stroke-width="1"/>
      </g>
      <text transform="matrix(1, 0, 0, 1, 245.111, 102.303)">
        <tspan x="-44.176" y="-7" font-family="Arial-BoldMT" font-size="15" fill="#000000">Government </tspan>
        <tspan x="-25.858" y="10" font-family="Arial-BoldMT" font-size="15" fill="#000000">service</tspan>
      </text>
    </g>
    <text transform="matrix(1, 0, 0, 1, 272.88, 264.182)">
      <tspan x="-55.009" y="-4" font-family="Arial-BoldMT" font-size="15" fill="#000000">Local matching </tspan>
      <tspan x="-25.858" y="13" font-family="Arial-BoldMT" font-size="15" fill="#000000">service</tspan>
    </text>
    <text transform="matrix(-0, -1, 1, -0, 173.423, 234.12)">
      <tspan x="-32.915" y="-7.917" font-family="Arial-BoldMT" font-size="15" fill="#000000">Matching </tspan>
      <tspan x="-25.858" y="9.083" font-family="Arial-BoldMT" font-size="15" fill="#000000">service</tspan>
    </text>
    <text transform="matrix(1, 0, 0, 1, 190.775, 323.751)">
      <tspan x="-29.678" y="-3.5" font-family="ArialMT" font-size="12" fill="#000000">Match user</tspan>
      <tspan x="-37.685" y="10.5" font-family="ArialMT" font-size="12" fill="#000000">to local record</tspan>
    </text>
    <text transform="matrix(1, 0, 0, 1, 561.757, 72.059)">
      <tspan x="-10.074" y="3.5" font-family="ArialMT" font-size="12.5" fill="#000000">PKI</tspan>
    </text>
    <text transform="matrix(1, 0, 0, 1, 587.519, 99.693)">
      <tspan x="-17.02" y="3.5" font-family="ArialMT" font-size="12.5" fill="#000000">SAML</tspan>
    </text>
    <text transform="matrix(1, 0, 0, 1, 377.493, 72.059)">
      <tspan x="-10.074" y="3.5" font-family="ArialMT" font-size="12.5" fill="#000000">PKI</tspan>
    </text>
    <text transform="matrix(1, 0, 0, 1, 419.693, 181.514)">
      <tspan x="-10.074" y="3.5" font-family="ArialMT" font-size="12.5" fill="#000000">PKI</tspan>
    </text>
    <text transform="matrix(1, 0, 0, 1, 409.747, 99.693)">
      <tspan x="-17.02" y="3.5" font-family="ArialMT" font-size="12.5" fill="#000000">SAML</tspan>
    </text>
    <text transform="matrix(1, 0, 0, 1, 464.256, 208.439)">
      <tspan x="-17.02" y="3.5" font-family="ArialMT" font-size="12.5" fill="#000000">SAML</tspan>
    </text>
    <text transform="matrix(1, 0, 0, 1, 261.881, 30.107)">
      <tspan x="-110.021" y="6.107" font-family="Arial-BoldMT" font-size="22" fill="#000000">Government network</tspan>
    </text>
    <path d="M158.598,81.145 L334.111,81.145" fill-opacity="0" stroke="#012060" stroke-width="1" stroke-dasharray="6,5" stroke-linecap="round"/>
    <path d="M159.041,119.898 L334.111,119.898" fill-opacity="0" stroke="#012060" stroke-width="1" stroke-dasharray="6,5" stroke-linecap="round"/>
    <g>
      <path d="M333.595,81.145 L421.899,81.145" fill-opacity="0" stroke="#012060" stroke-width="1" stroke-linecap="round"/>
      <path d="M421.899,81.145 L419.899,84.145 L427.899,81.145 L419.899,78.145 z" fill="#012060" fill-opacity="1" stroke="#012060" stroke-width="1" stroke-opacity="1"/>
    </g>
    <g>
      <path d="M428.415,119.898 L340.111,119.898" fill-opacity="0" stroke="#012060" stroke-width="1" stroke-linecap="round"/>
      <path d="M340.111,119.898 L342.111,116.898 L334.111,119.898 L342.111,122.898 z" fill="#012060" fill-opacity="1" stroke="#012060" stroke-width="1" stroke-opacity="1"/>
    </g>
    <path d="M424.767,119.898 L465.841,119.898" fill-opacity="0" stroke="#012060" stroke-width="1" stroke-dasharray="6,5" stroke-linecap="round"/>
    <path d="M503.55,134.861 L503.55,118.888" fill-opacity="0" stroke="#002060" stroke-width="1.04" stroke-dasharray="4.16,4.16" stroke-linecap="round" id="path44055"/>
    <path d="M535.272,118.888 L503.55,118.888" fill-opacity="0" stroke="#002060" stroke-width="1.04" stroke-dasharray="4.16,4.16" stroke-linecap="round" id="path44057"/>
    <path d="M465.841,135.942 L465.841,119.969" fill-opacity="0" stroke="#002060" stroke-width="1.04" stroke-dasharray="4.16,4.16" stroke-linecap="round" id="path44055"/>
    <path d="M415.65,228.415 C415.596,228.327 415.119,227.697 414.589,227.016 C413.926,226.162 413.623,225.721 413.617,225.599 C413.61,225.502 413.604,221.297 413.599,216.256 L413.591,207.089 L412.032,207.089 C411.169,207.088 410.371,207.059 410.246,207.023 C409.955,206.939 409.711,206.719 409.544,206.391 C409.423,206.154 409.41,206.017 409.41,204.938 L409.41,203.746 L409.233,203.705 C408.657,203.572 408.164,203.413 407.752,203.228 C407.495,203.112 407.266,203.036 407.244,203.059 C407.11,203.193 407.706,204.153 408.25,204.68 L408.625,205.042 L408.648,205.76 C408.668,206.387 408.694,206.524 408.849,206.841 C409.076,207.304 409.482,207.678 409.949,207.852 C410.278,207.976 410.446,207.99 411.6,207.99 L412.884,207.99 L412.884,208.475 L412.884,208.961 L412.673,209.049 C412.229,209.235 411.387,209.348 410.6,209.328 L409.828,209.308 L409.217,210.536 C408.881,211.211 408.268,212.456 407.854,213.302 C406.516,216.038 405.29,218.548 404.81,219.536 C402.22,224.865 402.173,224.955 401.844,225.163 C401.347,225.478 401.023,225.445 400.139,224.988 C399.499,224.657 399.408,224.588 399.271,224.33 C399.06,223.932 399.069,223.547 399.304,223.032 C399.406,222.808 399.872,221.843 400.34,220.887 C400.808,219.932 401.43,218.658 401.723,218.057 C402.015,217.455 402.652,216.153 403.138,215.162 C403.624,214.171 404.203,212.985 404.425,212.525 C404.647,212.065 405.252,210.824 405.769,209.768 C406.286,208.712 406.708,207.829 406.707,207.806 C406.707,207.783 406.574,207.62 406.411,207.443 C405.12,206.036 404.576,204.046 404.978,202.2 C405.051,201.864 405.124,201.531 405.14,201.46 C405.159,201.375 405.036,201.148 404.774,200.785 C404.557,200.484 404.304,200.093 404.212,199.917 C402.366,196.368 403.294,192.015 406.384,189.726 C407.592,188.831 409.143,188.305 410.573,188.305 C411.13,188.305 412.192,188.482 412.728,188.664 C414.997,189.435 416.879,191.449 417.542,193.816 C417.767,194.62 417.834,195.141 417.836,196.098 C417.837,196.742 417.856,196.919 417.929,196.947 C417.979,196.966 418.778,196.984 419.704,196.988 C420.96,196.992 421.44,197.015 421.595,197.08 C421.896,197.205 422.196,197.602 422.278,197.983 C422.327,198.205 422.342,199.55 422.328,202.232 L422.308,206.156 L422.132,206.456 C422.035,206.621 421.846,206.824 421.713,206.907 C421.479,207.053 421.424,207.057 419.783,207.077 L418.094,207.097 L418.094,208.3 L418.094,209.504 L417.414,210.178 C416.648,210.938 416.471,211.216 416.471,211.666 C416.471,212.093 416.668,212.395 417.447,213.167 C418.054,213.769 418.094,213.825 418.094,214.067 C418.094,214.308 418.051,214.369 417.485,214.937 C416.846,215.579 416.679,215.859 416.679,216.291 C416.679,216.698 416.814,216.919 417.476,217.601 L418.094,218.238 L418.094,218.732 L418.094,219.225 L417.448,219.863 C416.669,220.632 416.471,220.934 416.471,221.36 C416.471,221.81 416.648,222.089 417.414,222.848 L418.094,223.522 L418.094,224.632 L418.094,225.741 L417.596,226.392 C417.322,226.749 416.855,227.351 416.56,227.728 C416.264,228.105 416.007,228.45 415.99,228.494 C415.937,228.627 415.753,228.584 415.65,228.415 z M414.878,215.934 L414.878,207.346 L414.588,207.346 L414.299,207.346 L414.299,215.934 L414.299,224.522 L414.588,224.522 L414.878,224.522 L414.878,215.934 z M419.224,204.215 C419.367,204.138 419.57,203.953 419.674,203.803 L419.863,203.53 L419.883,202.302 C419.894,201.627 419.885,200.979 419.864,200.861 C419.815,200.601 419.423,200.153 419.141,200.035 C418.997,199.975 418.624,199.949 417.909,199.949 L416.884,199.949 L416.723,200.222 C415.903,201.617 414.57,202.758 413.077,203.346 C412.811,203.45 412.493,203.557 412.369,203.583 C412.245,203.61 412.074,203.658 411.989,203.69 L411.835,203.748 L412.021,203.944 C412.218,204.149 412.487,204.296 412.755,204.344 C412.843,204.36 414.276,204.369 415.939,204.364 C418.912,204.357 418.967,204.353 419.224,204.215 z M409.41,200.204 C409.41,198.321 409.426,197.911 409.509,197.714 C409.636,197.409 409.772,197.262 410.064,197.113 C410.283,197.001 410.52,196.991 413.441,196.975 L416.582,196.957 L416.633,196.507 C416.703,195.889 416.586,194.874 416.353,194.091 C415.668,191.785 413.905,190.113 411.683,189.66 C410.864,189.493 410.239,189.492 409.447,189.654 C407.677,190.018 406.261,191.09 405.283,192.807 C404.756,193.731 404.421,195.186 404.474,196.313 C404.534,197.566 404.835,198.571 405.471,199.642 L405.775,200.154 L405.936,199.942 C406.547,199.135 407.44,198.404 408.276,198.026 L408.718,197.825 L408.678,198.026 C408.656,198.136 408.638,198.769 408.638,199.432 L408.638,200.637 L408.226,200.84 C407.863,201.019 407.351,201.467 407.351,201.606 C407.351,201.753 408.928,202.452 409.265,202.455 L409.41,202.456 L409.41,200.202 z M412.711,202.188 C413.769,201.739 414.74,200.983 415.321,200.154 L415.47,199.942 L413.957,199.961 L412.445,199.981 L412.198,200.18 C411.764,200.532 411.701,200.706 411.671,201.643 L411.645,202.474 L411.947,202.429 C412.112,202.404 412.456,202.295 412.71,202.188 z M405.711,226.227 C405.18,225.965 404.291,225.529 403.735,225.258 C402.893,224.846 402.733,224.746 402.778,224.659 C402.808,224.601 403.007,224.192 403.22,223.75 C403.433,223.308 403.99,222.164 404.458,221.209 C404.926,220.254 405.579,218.915 405.91,218.235 L406.511,216.998 L407.108,217.278 C408.507,217.934 410.503,218.944 410.503,218.995 C410.503,219.112 409.406,221.305 409.348,221.305 C409.315,221.305 408.931,221.13 408.496,220.916 C408.061,220.701 407.538,220.455 407.333,220.367 C406.976,220.215 406.951,220.212 406.741,220.312 C406.351,220.497 406.287,221.067 406.631,221.292 C406.721,221.351 407.197,221.593 407.688,221.829 C409.018,222.47 408.929,222.274 408.389,223.383 C408.136,223.903 407.894,224.329 407.852,224.329 C407.811,224.329 407.307,224.097 406.732,223.814 C406.017,223.461 405.616,223.299 405.459,223.299 C405.041,223.299 404.803,223.71 404.991,224.104 C405.078,224.288 405.242,224.39 406.222,224.871 C406.843,225.176 407.351,225.441 407.351,225.46 C407.351,225.547 406.767,226.708 406.724,226.705 C406.697,226.704 406.242,226.488 405.711,226.227 z" fill="#000000" id="path12916"/>
    <path d="M429.767,81.145 L536.767,81.145" fill-opacity="0" stroke="#012060" stroke-width="1" stroke-dasharray="6,5" stroke-linecap="round"/>
    <path d="M563.316,119.669 C563.263,119.581 562.786,118.951 562.256,118.27 C561.593,117.416 561.29,116.975 561.283,116.853 C561.277,116.756 561.271,112.551 561.266,107.51 L561.258,98.343 L559.698,98.343 C558.836,98.342 558.038,98.313 557.913,98.277 C557.622,98.193 557.378,97.973 557.211,97.645 C557.09,97.408 557.077,97.271 557.077,96.192 L557.077,95 L556.9,94.959 C556.324,94.826 555.831,94.667 555.419,94.482 C555.162,94.366 554.933,94.29 554.91,94.313 C554.776,94.447 555.372,95.407 555.917,95.934 L556.291,96.296 L556.315,97.014 C556.335,97.641 556.36,97.778 556.516,98.095 C556.743,98.558 557.149,98.932 557.615,99.106 C557.945,99.23 558.113,99.244 559.266,99.244 L560.551,99.244 L560.551,99.729 L560.551,100.215 L560.34,100.303 C559.895,100.489 559.054,100.602 558.267,100.582 L557.495,100.562 L556.884,101.79 C556.548,102.465 555.934,103.71 555.521,104.556 C554.183,107.292 552.957,109.803 552.477,110.79 C549.887,116.119 549.84,116.209 549.511,116.417 C549.014,116.732 548.69,116.699 547.806,116.242 C547.165,115.911 547.075,115.842 546.938,115.584 C546.726,115.186 546.736,114.801 546.97,114.286 C547.073,114.062 547.539,113.097 548.007,112.141 C548.475,111.186 549.097,109.912 549.389,109.311 C549.682,108.709 550.319,107.407 550.805,106.416 C551.29,105.426 551.87,104.239 552.092,103.779 C552.314,103.319 552.919,102.078 553.435,101.022 C553.952,99.966 554.375,99.083 554.374,99.06 C554.373,99.037 554.24,98.874 554.078,98.697 C552.787,97.29 552.243,95.3 552.644,93.454 C552.717,93.118 552.79,92.785 552.806,92.714 C552.825,92.629 552.703,92.402 552.441,92.039 C552.224,91.738 551.971,91.347 551.879,91.171 C550.033,87.622 550.961,83.269 554.051,80.98 C555.259,80.085 556.809,79.559 558.24,79.559 C558.797,79.559 559.858,79.736 560.395,79.918 C562.664,80.689 564.546,82.703 565.209,85.07 C565.434,85.874 565.501,86.395 565.502,87.352 C565.504,87.996 565.523,88.173 565.595,88.201 C565.646,88.22 566.445,88.238 567.371,88.242 C568.627,88.246 569.107,88.269 569.262,88.334 C569.562,88.46 569.862,88.856 569.945,89.237 C569.993,89.459 570.009,90.804 569.995,93.486 L569.975,97.41 L569.798,97.71 C569.701,97.875 569.513,98.078 569.38,98.161 C569.145,98.307 569.09,98.311 567.45,98.331 L565.761,98.351 L565.761,99.554 L565.761,100.758 L565.081,101.432 C564.315,102.192 564.138,102.47 564.138,102.92 C564.138,103.347 564.335,103.649 565.113,104.421 C565.721,105.023 565.761,105.079 565.761,105.321 C565.76,105.562 565.717,105.623 565.152,106.191 C564.512,106.833 564.346,107.113 564.346,107.545 C564.346,107.952 564.48,108.173 565.142,108.855 L565.761,109.492 L565.761,109.986 L565.761,110.479 L565.114,111.117 C564.335,111.886 564.138,112.188 564.138,112.614 C564.138,113.064 564.315,113.343 565.081,114.102 L565.761,114.776 L565.761,115.886 L565.761,116.995 L565.263,117.646 C564.988,118.003 564.522,118.605 564.226,118.982 C563.93,119.359 563.674,119.704 563.656,119.748 C563.604,119.881 563.419,119.838 563.317,119.669 z M562.544,107.188 L562.544,98.6 L562.255,98.6 L561.965,98.6 L561.965,107.188 L561.965,115.776 L562.255,115.776 L562.544,115.776 L562.544,107.188 z M566.89,95.469 C567.034,95.392 567.237,95.207 567.341,95.057 L567.53,94.784 L567.55,93.556 C567.561,92.881 567.552,92.233 567.53,92.115 C567.482,91.855 567.09,91.407 566.808,91.289 C566.664,91.229 566.29,91.203 565.576,91.203 L564.551,91.203 L564.39,91.476 C563.569,92.871 562.237,94.012 560.743,94.6 C560.478,94.704 560.159,94.811 560.036,94.837 C559.912,94.864 559.741,94.912 559.656,94.944 L559.501,95.002 L559.688,95.198 C559.885,95.403 560.154,95.55 560.422,95.598 C560.51,95.614 561.943,95.623 563.606,95.618 C566.578,95.611 566.634,95.607 566.891,95.469 z M557.077,91.458 C557.077,89.575 557.093,89.165 557.176,88.968 C557.303,88.663 557.439,88.516 557.73,88.367 C557.949,88.255 558.187,88.245 561.107,88.229 L564.249,88.211 L564.3,87.761 C564.37,87.143 564.252,86.128 564.02,85.345 C563.335,83.039 561.572,81.367 559.35,80.914 C558.531,80.748 557.906,80.746 557.114,80.908 C555.344,81.272 553.928,82.344 552.95,84.061 C552.423,84.985 552.087,86.44 552.141,87.567 C552.201,88.82 552.502,89.825 553.137,90.896 L553.442,91.408 L553.603,91.196 C554.214,90.389 555.107,89.658 555.943,89.28 L556.385,89.079 L556.345,89.28 C556.323,89.39 556.304,90.023 556.304,90.686 L556.304,91.891 L555.893,92.094 C555.53,92.273 555.018,92.721 555.018,92.86 C555.018,93.007 556.595,93.706 556.932,93.709 L557.076,93.71 L557.076,91.456 z M560.377,93.442 C561.436,92.993 562.406,92.237 562.988,91.408 L563.137,91.196 L561.624,91.215 L560.112,91.235 L559.864,91.434 C559.43,91.786 559.367,91.96 559.338,92.897 L559.312,93.728 L559.613,93.683 C559.779,93.658 560.123,93.549 560.377,93.442 z M553.378,117.481 C552.847,117.219 551.958,116.783 551.401,116.512 C550.56,116.101 550.399,116 550.445,115.913 C550.475,115.855 550.674,115.446 550.887,115.004 C551.1,114.562 551.657,113.418 552.125,112.463 C552.592,111.508 553.245,110.169 553.576,109.489 L554.177,108.252 L554.775,108.532 C556.173,109.188 558.17,110.198 558.17,110.249 C558.17,110.366 557.073,112.559 557.015,112.559 C556.981,112.559 556.598,112.384 556.163,112.17 C555.728,111.955 555.204,111.709 555,111.621 C554.643,111.469 554.618,111.466 554.408,111.566 C554.018,111.751 553.954,112.321 554.297,112.546 C554.388,112.605 554.864,112.847 555.355,113.084 C556.685,113.724 556.596,113.528 556.056,114.637 C555.802,115.157 555.561,115.583 555.519,115.583 C555.477,115.583 554.973,115.351 554.399,115.068 C553.684,114.715 553.283,114.554 553.125,114.554 C552.708,114.554 552.469,114.964 552.657,115.358 C552.745,115.542 552.909,115.644 553.888,116.125 C554.51,116.43 555.018,116.695 555.018,116.714 C555.018,116.801 554.433,117.962 554.391,117.959 C554.364,117.958 553.908,117.742 553.378,117.481 z" fill="#000000" id="path12916"/>
    <g>
      <path d="M465.841,191.88 L465.841,141.303" fill-opacity="0" stroke="#012060" stroke-width="1" stroke-linecap="round"/>
      <path d="M465.841,141.303 L468.841,143.303 L465.841,135.303 L462.841,143.303 z" fill="#012060" fill-opacity="1" stroke="#012060" stroke-width="1" stroke-opacity="1"/>
    </g>
    <g>
      <path d="M484.692,386.544 L516.409,386.544" fill-opacity="0" stroke="#BDECF8" stroke-width="1" stroke-linecap="round"/>
      <path d="M516.409,386.544 L514.409,389.544 L522.409,386.544 L514.409,383.544 z" fill="#BDECF8" fill-opacity="1" stroke="#BDECF8" stroke-width="1" stroke-opacity="1"/>
    </g>
    <g>
      <path d="M484.692,370.514 L516.409,370.514" fill-opacity="0" stroke="#012060" stroke-width="1" stroke-linecap="round"/>
      <path d="M516.409,370.514 L514.409,373.514 L522.409,370.514 L514.409,367.514 z" fill="#012060" fill-opacity="1" stroke="#012060" stroke-width="1" stroke-opacity="1"/>
    </g>
    <g>
      <path d="M603.539,118.888 L542.767,118.888" fill-opacity="0" stroke="#012060" stroke-width="1" stroke-linecap="round"/>
      <path d="M542.767,118.888 L544.767,115.888 L536.767,118.888 L544.767,121.888 z" fill="#012060" fill-opacity="1" stroke="#012060" stroke-width="1" stroke-opacity="1"/>
    </g>
    <path d="M68.338,140.277 C68.186,140.226 66.614,139.459 64.844,138.573 C61.384,136.841 61.47,136.904 60.824,135.632 C60.348,134.695 60.298,133.702 60.704,133.269 L60.965,132.99 L60.511,132.559 C60.261,132.321 60.057,132.025 60.057,131.901 C60.057,131.777 60.345,131.235 60.697,130.697 C61.05,130.159 61.373,129.661 61.415,129.591 C61.463,129.511 61.299,129.531 60.968,129.646 C60.499,129.809 59.577,129.828 52.272,129.828 L44.101,129.829 L43.218,129.519 C41.612,128.956 40.324,127.878 39.598,126.487 C38.961,125.268 38.842,124.724 38.778,122.707 C38.685,119.81 38.931,118.511 39.835,117.111 L40.255,116.461 L39.498,115.416 C39.081,114.841 38.506,113.889 38.219,113.301 C37.932,112.713 37.669,112.228 37.636,112.224 C37.603,112.22 37.513,112.391 37.436,112.603 C36.669,114.724 33.696,114.499 33.059,112.272 C32.973,111.968 32.521,108.863 32.055,105.371 C31.316,99.824 31.223,98.95 31.326,98.451 C31.662,96.81 33.215,95.998 34.626,96.726 C35.443,97.148 35.892,97.968 36.076,99.379 L36.159,100.015 L36.394,99.331 C36.804,98.138 37.275,97.615 38.568,96.917 C38.685,96.854 39.288,95.749 39.942,94.399 L41.107,91.994 L40.727,91.706 C38.98,90.383 38.196,88.708 38.158,86.213 C38.119,83.666 38.819,81.639 40.054,80.723 C42.088,79.215 45.391,77.844 47.363,77.691 C48.385,77.612 48.813,77.726 51.415,78.777 C53.604,79.661 54.388,79.793 54.756,79.34 L54.956,79.092 L55.077,79.439 C55.384,80.319 55.156,80.894 54.446,81.036 C54.252,81.074 54.094,81.119 54.094,81.134 C54.094,81.15 54.216,81.429 54.365,81.755 C54.923,82.977 55.002,83.504 55.059,86.351 C55.108,88.795 55.13,89.029 55.304,89.029 C55.655,89.029 56.774,89.467 57.144,89.749 C57.365,89.917 57.561,90.199 57.639,90.457 C57.752,90.835 57.737,90.948 57.517,91.403 C57.236,91.984 56.692,92.431 55.683,92.91 L55.009,93.231 L54.933,94.138 C54.891,94.637 54.787,95.152 54.702,95.282 C54.442,95.678 52.83,96.906 52.078,97.28 C51.689,97.474 51.138,97.695 50.853,97.771 L50.335,97.909 L49.995,99.018 C49.808,99.627 49.647,100.166 49.638,100.216 C49.616,100.34 50.45,100.65 52.094,101.13 C55.252,102.051 56.684,102.969 56.684,104.07 C56.684,104.3 56.685,104.491 56.686,104.496 C56.688,104.5 57.31,104.545 58.069,104.596 C61.785,104.842 63.942,105.224 65.015,105.826 C65.911,106.329 67.353,107.476 68.578,108.661 C69.482,109.535 69.678,109.677 69.853,109.583 C69.967,109.522 70.416,109.092 70.851,108.626 L71.642,107.78 L75.996,107.818 C80.052,107.853 80.366,107.869 80.577,108.06 C80.701,108.173 80.818,108.396 80.837,108.557 C80.871,108.849 80.877,108.85 84.784,109.684 L88.697,110.52 L88.667,112.279 C88.65,113.247 88.629,114.044 88.619,114.05 C88.608,114.056 86.041,114.274 82.914,114.533 L77.227,115.004 L76.509,114.654 C74.937,113.886 74.744,113.743 74.67,113.289 L74.602,112.87 L73.838,112.902 L73.074,112.935 L72.805,113.597 C72.454,114.464 72.013,115.08 71.551,115.35 C71.196,115.558 71.106,115.561 69.565,115.43 C67.616,115.265 65.349,114.978 62.916,114.589 C61.92,114.43 60.907,114.279 60.664,114.254 L60.222,114.208 L60.66,114.32 C60.901,114.381 61.522,114.576 62.041,114.752 C62.559,114.928 64.871,115.553 67.179,116.14 C72.178,117.412 72.87,117.622 74.025,118.213 C75.121,118.774 76.331,119.934 76.773,120.846 C77.219,121.763 77.347,122.82 77.139,123.843 C76.887,125.079 76.357,126.083 74.744,128.383 C73.42,130.271 71.372,133.508 71.453,133.586 C71.471,133.604 72.404,134.039 73.528,134.553 C75.309,135.369 75.616,135.548 75.927,135.949 C77.302,137.724 75.982,139.37 72.589,140.112 C71.714,140.304 68.757,140.419 68.338,140.277 z M68.938,135.142 C69.188,134.952 69.811,134.028 70.776,132.417 C71.58,131.076 72.625,129.424 73.098,128.745 C75.928,124.686 75.999,124.544 76.007,122.928 C76.014,121.66 75.792,121.13 74.867,120.205 C73.817,119.155 72.84,118.766 68.393,117.626 C66.268,117.081 64.495,116.635 64.454,116.634 C64.413,116.634 64.546,116.911 64.751,117.251 C65.523,118.533 65.612,118.963 65.661,121.658 C65.697,123.6 65.671,124.237 65.532,124.838 C65.326,125.724 64.828,126.772 64.314,127.399 C64.112,127.646 63.36,128.738 62.643,129.825 L61.341,131.801 L61.886,132.289 C63.451,133.691 65.326,134.905 66.551,135.31 C67.435,135.602 68.427,135.532 68.938,135.142 z M40.623,125.701 C40.623,125.481 41.367,124.899 41.941,124.671 C42.504,124.447 42.8,124.422 45.469,124.367 L48.383,124.308 L47.401,123.496 C46.127,122.441 43.49,120.034 42.742,119.242 C42.42,118.9 42.088,118.621 42.004,118.621 C41.748,118.621 40.772,119.657 40.474,120.244 C40.319,120.549 40.134,121.137 40.062,121.55 C39.885,122.568 39.983,124.712 40.235,125.329 C40.406,125.75 40.623,125.957 40.623,125.701 z M64.115,124.914 C64.218,124.569 64.253,123.913 64.23,122.762 C64.2,121.233 64.175,121.057 63.902,120.474 C63.07,118.699 61.633,117.962 59.002,117.959 C58.015,117.959 57.998,117.963 57.669,118.318 C56.711,119.349 53.321,123.95 53.321,124.219 C53.321,124.268 54.891,124.291 56.809,124.271 C58.888,124.248 60.65,124.281 61.173,124.351 C62.173,124.486 63.011,124.809 63.381,125.204 C63.733,125.578 63.942,125.496 64.115,124.914 z M42.416,114.824 C43.7,114.202 43.645,114.205 52.213,114.195 L60.112,114.186 L59.443,113.864 C59.076,113.687 58.494,113.49 58.15,113.427 C57.745,113.352 55.197,113.324 50.923,113.346 C44.422,113.38 44.312,113.384 43.676,113.625 C42.799,113.956 42.339,114.251 41.579,114.972 C40.739,115.767 40.554,116.118 41.275,115.548 C41.583,115.304 42.097,114.978 42.416,114.824 z M71.251,114.066 C71.401,113.869 71.672,113.341 71.852,112.892 C72.366,111.613 72.353,111.621 73.699,111.697 C75.062,111.775 75.366,111.909 75.838,112.645 C76.186,113.188 76.647,113.588 76.847,113.521 C76.904,113.502 76.429,112.849 75.792,112.069 C75.154,111.29 74.632,110.557 74.632,110.441 C74.632,109.845 75.722,109.525 77.669,109.55 C78.751,109.565 78.926,109.539 79.27,109.321 L79.656,109.075 L78.828,109.007 C78.373,108.969 76.66,108.953 75.022,108.97 L72.044,109.002 L71.433,109.663 C70.691,110.467 69.947,111.002 69.572,111.002 C69.365,111.002 68.94,110.656 67.905,109.641 C66.534,108.296 65.051,107.103 64.231,106.685 C63.72,106.424 62.588,106.188 61.106,106.033 C59.099,105.822 56.029,105.59 55.899,105.639 C55.509,105.786 54.328,108.021 54.053,109.132 C53.842,109.984 53.839,110.046 53.99,110.589 C54.139,111.128 54.812,111.527 56.468,112.056 C58.994,112.865 65.983,114.03 70.215,114.349 C70.489,114.37 70.772,114.395 70.845,114.406 C70.917,114.417 71.1,114.264 71.251,114.066 z M82.665,111.646 C85.353,111.146 87.514,110.704 87.469,110.663 C87.385,110.588 81.102,109.234 80.843,109.235 C80.767,109.235 80.705,109.31 80.705,109.401 C80.705,109.492 80.515,109.757 80.284,109.989 C79.698,110.574 79.078,110.734 77.531,110.696 C76.825,110.678 76.288,110.709 76.288,110.767 C76.288,110.883 77.619,112.547 77.715,112.551 C77.75,112.552 79.978,112.145 82.665,111.646 z M49.521,96.994 C49.577,96.945 49.937,96.821 50.322,96.718 C51.252,96.469 52.012,96.075 52.86,95.403 C53.579,94.833 53.608,94.669 52.99,94.659 C52.664,94.654 51.813,94.285 51.513,94.019 C51.303,93.832 50.561,92.396 50.561,92.177 C50.561,92.113 50.887,92.373 51.286,92.755 C52.083,93.518 52.633,93.845 53.294,93.951 L53.729,94.02 L53.797,93.365 C53.835,93.004 53.897,92.629 53.934,92.531 C53.972,92.433 54.334,92.225 54.739,92.068 C55.521,91.764 56.262,91.301 56.451,90.998 C56.676,90.637 56.074,90.316 54.738,90.086 L54.333,90.016 L54.24,90.597 C54.172,91.026 54.095,91.189 53.948,91.218 C53.762,91.253 53.754,91.182 53.826,90.198 C53.869,89.615 53.874,89.139 53.837,89.139 C53.801,89.139 53.521,89.238 53.215,89.358 C52.909,89.479 52.659,89.538 52.659,89.49 C52.659,89.318 53.331,88.347 53.625,88.094 L53.926,87.835 L53.43,87.771 C51.851,87.566 46.804,87.268 46.549,87.365 C46.136,87.522 45.956,87.884 45.87,88.73 C45.789,89.53 45.896,89.834 46.412,90.265 C46.635,90.452 46.632,90.454 46.267,90.353 C45.491,90.139 45.197,89.549 45.29,88.392 C45.351,87.629 45.572,87.208 46.044,86.953 C46.313,86.808 47.247,86.815 52.173,87 L53.951,87.066 L53.908,85.646 C53.833,83.134 53.482,82.024 52.415,80.922 C51.771,80.257 51.682,80.23 50.395,80.299 C49.223,80.362 48.79,80.786 48.571,82.087 C48.437,82.882 48.492,83.4 48.755,83.815 C48.897,84.04 48.892,84.099 48.708,84.367 C48.43,84.771 48.256,85.249 48.218,85.716 C48.178,86.211 47.987,86.243 46.622,85.986 C45.44,85.763 45.019,85.83 44.67,86.297 C44.425,86.626 44.282,87.546 44.272,88.865 L44.267,89.64 L42.98,90.281 L41.694,90.921 L42.042,91.133 C42.301,91.291 42.39,91.424 42.39,91.66 C42.39,91.834 41.894,92.999 41.285,94.257 C40.678,95.512 40.181,96.563 40.181,96.593 C40.181,96.623 40.371,96.648 40.603,96.648 C41.612,96.648 42.365,96.905 44.873,98.109 C46.27,98.78 47.662,99.441 47.966,99.578 L48.518,99.826 L48.969,98.454 C49.217,97.699 49.466,97.042 49.521,96.994 z M94.53,112.41 C94.585,112.091 94.633,111.135 94.636,110.284 C94.645,107.923 94.158,106.398 93.017,105.21 C92.445,104.615 91.127,103.84 90.977,104.01 C90.933,104.06 90.608,105.169 90.255,106.475 C89.902,107.781 89.582,108.886 89.544,108.931 C89.505,108.977 88.88,109.093 88.154,109.189 L86.834,109.365 L83.797,108.635 C82.127,108.234 80.65,107.858 80.515,107.801 C80.38,107.744 80.24,107.579 80.204,107.435 C80.161,107.263 81.158,103.757 83.129,97.152 C84.773,91.641 86.169,87.038 86.23,86.924 C86.291,86.811 86.526,86.669 86.753,86.609 C87.492,86.415 93.109,85.274 93.326,85.274 C93.443,85.274 94.055,85.507 94.687,85.79 C95.558,86.181 95.822,86.348 95.781,86.48 C95.514,87.331 93.183,95.899 93.183,96.03 C93.183,96.124 93.321,96.272 93.491,96.36 C94.654,96.961 95.941,98.305 96.59,99.596 C97.229,100.867 97.43,101.815 97.426,103.549 C97.421,105.33 97.252,106.287 96.587,108.297 C96.212,109.432 94.611,112.99 94.476,112.99 C94.451,112.99 94.475,112.729 94.53,112.41 z M89.572,97.393 C91.153,91.518 92.423,86.686 92.393,86.657 C92.334,86.597 87.269,87.618 87.179,87.707 C87.113,87.774 81.478,106.624 81.478,106.78 C81.478,106.887 86.251,108.124 86.544,108.092 C86.65,108.081 87.576,104.808 89.572,97.393 z" fill="#000000" id="path3384"/>
  </g>
</svg>
