<!DOCTYPE svg PUBLIC "-//W3C//DTD SVG 1.1//EN" "http://www.w3.org/Graphics/SVG/1.1/DTD/svg11.dtd">
<svg xmlns="http://www.w3.org/2000/svg" xmlns:xlink="http://www.w3.org/1999/xlink" width="951px" height="731px" version="1.1"><defs/><g transform="translate(0.5,0.5)"><rect x="150" y="0" width="280" height="730" fill="#e6e6e6" stroke="none" pointer-events="none"/><rect x="200" y="230" width="180" height="340" fill="#ffffff" stroke="#1a1a1a" pointer-events="none"/><g fill="#333333" font-family="Helvetica" text-anchor="middle" font-size="18px"><text x="289.5" y="267.5">Matching service</text></g><rect x="810" y="217" width="140" height="90" fill="none" stroke="#000000" pointer-events="none"/><rect x="800" y="207" width="140" height="90" fill="#ffffff" stroke="#000000" pointer-events="none"/><rect x="540" y="425" width="340" height="145" fill="none" stroke="#000000" pointer-events="none"/><rect x="510" y="120" width="160" height="260" fill="none" stroke="#000000" pointer-events="none"/><g fill="#000000" font-family="Helvetica" text-anchor="middle" font-size="18px"><text x="589.5" y="245.5">GOV.UK </text><text x="589.5" y="267.5">Verify hub</text></g><path d="M 23 159.89 C 16.97 159.89 11.6 154.85 11.6 147.13 C 11.6 141.14 16.14 135 22.79 135 C 29.28 135 34.03 140.94 34.03 147.42 C 34.03 154.91 28.43 159.89 23 159.89 Z M 0 185 C 0.52 179.48 1.22 171.94 2.54 168.13 C 3.15 166.4 4.04 165.16 5.47 164.12 C 6.4 163.43 9.7 161.61 10.31 161.31 C 11.37 160.76 12.46 160.47 13.4 161.31 C 19 166.26 26.74 166.11 32.42 161.33 C 33.08 160.65 34.12 160.83 34.81 161.1 C 35.9 161.52 39.38 163.57 40.04 163.99 C 41.96 165.25 43 166.93 43.77 170.09 C 44.75 174.36 45.33 179.79 46 185 Z" fill="#ffffff" stroke="#000000" stroke-miterlimit="10" pointer-events="none"/><rect x="220" y="112" width="140" height="90" fill="#ffffff" stroke="#000000" pointer-events="none"/><g fill="#000000" font-family="Helvetica" text-anchor="middle" font-size="18px"><text x="289.5" y="152.5">Government </text><text x="289.5" y="174.5"> service</text></g><rect x="790" y="197" width="140" height="90" fill="#ffffff" stroke="#000000" pointer-events="none"/><g fill="#000000" font-family="Helvetica" text-anchor="middle" font-size="18px"><text x="859.5" y="237.5">Identity </text><text x="859.5" y="259.5">providers</text></g><rect x="220" y="290" width="140" height="90" fill="#ffffff" stroke="#000000" pointer-events="none"/><g fill="#000000" font-family="Helvetica" text-anchor="middle" font-size="18px"><text x="289.5" y="319.5">Matching</text><text x="289.5" y="341.5">Service</text><text x="289.5" y="363.5">Adapter</text></g><rect x="220" y="450" width="140" height="90" fill="#ffffff" stroke="#000000" pointer-events="none"/><g fill="#000000" font-family="Helvetica" text-anchor="middle" font-size="18px"><text x="289.5" y="479.5">Local</text><text x="289.5" y="501.5">matching</text><text x="289.5" y="523.5">service</text></g><rect x="220" y="600" width="140" height="90" fill="#ffffff" stroke="#000000" pointer-events="none"/><g fill="#000000" font-family="Helvetica" text-anchor="middle" font-size="18px"><text x="289.5" y="651.5">Datastore</text></g><path d="M 325 380 L 325 433.76" fill="none" stroke="#000000" stroke-width="2" stroke-miterlimit="10" stroke-dasharray="6 6" pointer-events="none"/><path d="M 325 447.76 L 320.33 433.76 L 329.67 433.76 Z" fill="#000000" stroke="#000000" stroke-width="2" stroke-miterlimit="10" pointer-events="none"/><path d="M 325 540 L 325 583.76" fill="none" stroke="#000000" stroke-width="2" stroke-miterlimit="10" stroke-dasharray="6 6" pointer-events="none"/><path d="M 325 597.76 L 320.33 583.76 L 329.67 583.76 Z" fill="#000000" stroke="#000000" stroke-width="2" stroke-miterlimit="10" pointer-events="none"/><path d="M 255 600 L 255 556.24" fill="none" stroke="#000000" stroke-width="2" stroke-miterlimit="10" stroke-dasharray="6 6" pointer-events="none"/><path d="M 255 542.24 L 259.67 556.24 L 250.33 556.24 Z" fill="#000000" stroke="#000000" stroke-width="2" stroke-miterlimit="10" pointer-events="none"/><path d="M 255 450 L 255 396.24" fill="none" stroke="#000000" stroke-width="2" stroke-miterlimit="10" stroke-dasharray="6 6" pointer-events="none"/><path d="M 255 382.24 L 259.67 396.24 L 250.33 396.24 Z" fill="#000000" stroke="#000000" stroke-width="2" stroke-miterlimit="10" pointer-events="none"/><path d="M 220 180 L 76.24 180" fill="none" stroke="#000000" stroke-width="2" stroke-miterlimit="10" pointer-events="none"/><path d="M 62.24 180 L 76.24 175.33 L 76.24 184.67 Z" fill="#000000" stroke="#000000" stroke-width="2" stroke-miterlimit="10" pointer-events="none"/><path d="M 400 310 L 360 310 L 530 310 L 530 180 L 376.24 180" fill="none" stroke="#000000" stroke-width="2" stroke-miterlimit="10" pointer-events="none"/><path d="M 362.24 180 L 376.24 175.33 L 376.24 184.67 Z" fill="#000000" stroke="#000000" stroke-width="2" stroke-miterlimit="10" pointer-events="none"/><path d="M 360 137 L 650 137 L 650 220 L 773.76 220" fill="none" stroke="#000000" stroke-width="2" stroke-miterlimit="10" pointer-events="none"/><path d="M 787.76 220 L 773.76 224.67 L 773.76 215.33 Z" fill="#000000" stroke="#000000" stroke-width="2" stroke-miterlimit="10" pointer-events="none"/><path d="M 60 135 L 203.76 135" fill="none" stroke="#000000" stroke-width="2" stroke-miterlimit="10" pointer-events="none"/><path d="M 217.76 135 L 203.76 139.67 L 203.76 130.33 Z" fill="#000000" stroke="#000000" stroke-width="2" stroke-miterlimit="10" pointer-events="none"/><g fill="#000000" font-family="Helvetica" font-weight="bold" text-anchor="middle" font-size="18px"><text x="287.5" y="56.5">Government organisation</text></g><g fill="#000000" font-family="Helvetica" text-anchor="middle" font-size="18px"><text x="23.5" y="112.5">User</text></g><path d="M 660 468 L 713.76 468" fill="none" stroke="#000000" stroke-width="2" stroke-miterlimit="10" pointer-events="none"/><path d="M 727.76 468 L 713.76 472.67 L 713.76 463.33 Z" fill="#000000" stroke="#000000" stroke-width="2" stroke-miterlimit="10" pointer-events="none"/><g fill="#000000" font-family="Helvetica" font-size="18px"><text x="751.5" y="474.5">SAML (PKI)</text></g><path d="M 660 518 L 713.76 518" fill="none" stroke="#000000" stroke-width="2" stroke-miterlimit="10" stroke-dasharray="6 6" pointer-events="none"/><path d="M 727.76 518 L 713.76 522.67 L 713.76 513.33 Z" fill="#000000" stroke="#000000" stroke-width="2" stroke-miterlimit="10" pointer-events="none"/><g fill="#000000" font-family="Helvetica" font-size="18px"><text x="751.5" y="523.5">Non-SAML</text></g><g fill="#000000" font-family="Helvetica" font-weight="bold" text-anchor="middle" font-size="18px"><text x="599.5" y="474.5">Key</text></g><path d="M 790 260 L 650 260 L 650 350 L 376.24 350" fill="none" stroke="#000000" stroke-width="2" stroke-miterlimit="10" pointer-events="none"/><path d="M 362.24 350 L 376.24 345.33 L 376.24 354.67 Z" fill="#000000" stroke="#000000" stroke-width="2" stroke-miterlimit="10" pointer-events="none"/></g></svg>