<?xml version="1.0" encoding="UTF-8"?>
<!DOCTYPE svg PUBLIC "-//W3C//DTD SVG 1.1//EN" "http://www.w3.org/Graphics/SVG/1.1/DTD/svg11.dtd">
<svg version="1.1" xmlns="http://www.w3.org/2000/svg" xmlns:xlink="http://www.w3.org/1999/xlink" x="0" y="0" width="720" height="425" viewBox="0, 0, 720, 425">
  <g id="Layer_1">
    <g>
      <path d="M91.486,9.421 L352.269,9.421 C357.887,9.421 362.441,13.623 362.441,18.806 L362.441,406.194 C362.441,411.377 357.887,415.579 352.269,415.579 L91.486,415.579 C85.869,415.579 81.315,411.377 81.315,406.194 L81.315,18.806 C81.315,13.623 85.869,9.421 91.486,9.421 z" fill="#BDC1C7"/>
      <path d="M91.486,9.421 L352.269,9.421 C357.887,9.421 362.441,13.623 362.441,18.806 L362.441,406.194 C362.441,411.377 357.887,415.579 352.269,415.579 L91.486,415.579 C85.869,415.579 81.315,411.377 81.315,406.194 L81.315,18.806 C81.315,13.623 85.869,9.421 91.486,9.421 z" fill-opacity="0" stroke="#9FA5AE" stroke-width="1"/>
    </g>
    <g>
      <path d="M372.479,9.844 L701.448,9.844 C706.992,9.844 711.487,14.04 711.487,19.216 L711.487,405.784 C711.487,410.96 706.992,415.156 701.448,415.156 L372.479,415.156 C366.935,415.156 362.441,410.96 362.441,405.784 L362.441,19.216 C362.441,14.04 366.935,9.844 372.479,9.844 z" fill="#EDF0F4"/>
      <path d="M372.479,9.844 L701.448,9.844 C706.992,9.844 711.487,14.04 711.487,19.216 L711.487,405.784 C711.487,410.96 706.992,415.156 701.448,415.156 L372.479,415.156 C366.935,415.156 362.441,410.96 362.441,405.784 L362.441,19.216 C362.441,14.04 366.935,9.844 372.479,9.844 z" fill-opacity="0" stroke="#8B9094" stroke-width="1"/>
    </g>
    <g id="rect43929">
      <path d="M122.569,181.166 L312.948,181.166 C317.627,181.166 321.419,185.004 321.419,189.739 L321.419,282.063 C321.419,286.798 317.627,290.637 312.948,290.637 L122.569,290.637 C117.891,290.637 114.098,286.798 114.098,282.063 L114.098,189.739 C114.098,185.004 117.891,181.166 122.569,181.166 z" fill="#A7A9AB"/>
      <path d="M122.569,181.166 L312.948,181.166 C317.627,181.166 321.419,185.004 321.419,189.739 L321.419,282.063 C321.419,286.798 317.627,290.637 312.948,290.637 L122.569,290.637 C117.891,290.637 114.098,286.798 114.098,282.063 L114.098,189.739 C114.098,185.004 117.891,181.166 122.569,181.166 z" fill-opacity="0" stroke="#6E757E" stroke-width="0.644" stroke-linecap="round" stroke-linejoin="round"/>
    </g>
    <g>
      <path d="M176.478,180.858 L311.224,180.774 C316.84,180.771 321.396,185.001 321.399,190.223 L321.421,225.681 C321.425,230.903 316.874,235.14 311.258,235.143 L176.512,235.228 C170.896,235.231 166.34,231.001 166.337,225.778 L166.314,190.32 C166.311,185.098 170.861,180.862 176.478,180.858 z" fill="#9B9B9B"/>
      <path d="M176.478,180.858 L311.224,180.774 C316.84,180.771 321.396,185.001 321.399,190.223 L321.421,225.681 C321.425,230.903 316.874,235.14 311.258,235.143 L176.512,235.228 C170.896,235.231 166.34,231.001 166.337,225.778 L166.314,190.32 C166.311,185.098 170.861,180.862 176.478,180.858 z" fill-opacity="0" stroke="#4F4F4F" stroke-width="1"/>
    </g>
    <g>
      <path d="M176.509,235.228 L311.25,235.228 C316.867,235.228 321.419,239.542 321.419,244.864 L321.419,281 C321.419,286.322 316.867,290.637 311.25,290.637 L176.509,290.637 C170.893,290.637 166.34,286.322 166.34,281 L166.34,244.864 C166.34,239.542 170.893,235.228 176.509,235.228 z" fill="#9B9B9B"/>
      <path d="M176.509,235.228 L311.25,235.228 C316.867,235.228 321.419,239.542 321.419,244.864 L321.419,281 C321.419,286.322 316.867,290.637 311.25,290.637 L176.509,290.637 C170.893,290.637 166.34,286.322 166.34,281 L166.34,244.864 C166.34,239.542 170.893,235.228 176.509,235.228 z" fill-opacity="0" stroke="#4F4F4F" stroke-width="1"/>
    </g>
    <path d="M474.55,227.725 L474.55,135.303" fill-opacity="0" stroke="#0041C7" stroke-width="1.009" stroke-linecap="round" id="path43941"/>
    <path d="M321.421,191.88 L436.841,191.88" fill-opacity="0" stroke="#0041C7" stroke-width="1" stroke-linecap="round" id="path43991"/>
    <g id="rect20475">
      <path d="M450.006,355.552 L652.921,355.552 C656.953,355.552 660.222,356.095 660.222,356.764 L660.222,400.756 C660.222,401.426 656.953,401.968 652.921,401.968 L450.006,401.968 C445.974,401.968 442.705,401.426 442.705,400.756 L442.705,356.764 C442.705,356.095 445.974,355.552 450.006,355.552 z" fill="#BDC0C6"/>
      <path d="M450.006,355.552 L652.921,355.552 C656.953,355.552 660.222,356.095 660.222,356.764 L660.222,400.756 C660.222,401.426 656.953,401.968 652.921,401.968 L450.006,401.968 C445.974,401.968 442.705,401.426 442.705,400.756 L442.705,356.764 C442.705,356.095 445.974,355.552 450.006,355.552 z" fill-opacity="0" stroke="#9FA5AE" stroke-width="0.312" stroke-linecap="round" stroke-linejoin="round"/>
    </g>
    <path d="M342.989,119.669 C342.936,119.581 342.459,118.951 341.929,118.27 C341.266,117.416 340.962,116.975 340.956,116.853 C340.949,116.756 340.944,112.551 340.938,107.51 L340.931,98.343 L339.371,98.343 C338.509,98.342 337.71,98.313 337.586,98.277 C337.295,98.193 337.051,97.973 336.883,97.645 C336.762,97.408 336.75,97.271 336.75,96.192 L336.75,95 L336.573,94.959 C335.997,94.826 335.504,94.667 335.092,94.482 C334.834,94.366 334.606,94.29 334.583,94.313 C334.449,94.447 335.045,95.407 335.589,95.934 L335.964,96.296 L335.987,97.014 C336.008,97.641 336.033,97.778 336.188,98.095 C336.416,98.558 336.822,98.932 337.288,99.106 C337.618,99.23 337.785,99.244 338.939,99.244 L340.223,99.244 L340.223,99.729 L340.223,100.215 L340.013,100.303 C339.568,100.489 338.727,100.602 337.94,100.582 L337.168,100.562 L336.557,101.79 C336.221,102.465 335.607,103.71 335.193,104.556 C333.855,107.292 332.63,109.803 332.15,110.79 C329.56,116.119 329.512,116.209 329.184,116.417 C328.687,116.732 328.362,116.699 327.479,116.242 C326.838,115.911 326.748,115.842 326.61,115.584 C326.399,115.186 326.409,114.801 326.643,114.286 C326.745,114.062 327.212,113.097 327.679,112.141 C328.147,111.186 328.769,109.912 329.062,109.311 C329.355,108.709 329.992,107.407 330.477,106.416 C330.963,105.426 331.542,104.239 331.765,103.779 C331.987,103.319 332.591,102.078 333.108,101.022 C333.625,99.966 334.047,99.083 334.047,99.06 C334.046,99.037 333.913,98.874 333.751,98.697 C332.46,97.29 331.915,95.3 332.317,93.454 C332.39,93.118 332.463,92.785 332.479,92.714 C332.498,92.629 332.375,92.402 332.113,92.039 C331.896,91.738 331.643,91.347 331.551,91.171 C329.706,87.622 330.633,83.269 333.724,80.98 C334.932,80.085 336.482,79.559 337.912,79.559 C338.47,79.559 339.531,79.736 340.068,79.918 C342.337,80.689 344.219,82.703 344.882,85.07 C345.107,85.874 345.174,86.395 345.175,87.352 C345.176,87.996 345.195,88.173 345.268,88.201 C345.318,88.22 346.117,88.238 347.043,88.242 C348.3,88.246 348.78,88.269 348.935,88.334 C349.235,88.46 349.535,88.856 349.618,89.237 C349.666,89.459 349.682,90.804 349.668,93.486 L349.647,97.41 L349.471,97.71 C349.374,97.875 349.186,98.078 349.053,98.161 C348.818,98.307 348.763,98.311 347.123,98.331 L345.434,98.351 L345.434,99.554 L345.434,100.758 L344.754,101.432 C343.988,102.192 343.811,102.47 343.811,102.92 C343.811,103.347 344.007,103.649 344.786,104.421 C345.394,105.023 345.434,105.079 345.433,105.321 C345.433,105.562 345.39,105.623 344.824,106.191 C344.185,106.833 344.019,107.113 344.019,107.545 C344.019,107.952 344.153,108.173 344.815,108.855 L345.434,109.492 L345.434,109.986 L345.434,110.479 L344.787,111.117 C344.008,111.886 343.811,112.188 343.811,112.614 C343.811,113.064 343.988,113.343 344.754,114.102 L345.434,114.776 L345.434,115.886 L345.434,116.995 L344.935,117.646 C344.661,118.003 344.195,118.605 343.899,118.982 C343.603,119.359 343.347,119.704 343.329,119.748 C343.276,119.881 343.092,119.838 342.989,119.669 z M342.217,107.188 L342.217,98.6 L341.928,98.6 L341.638,98.6 L341.638,107.188 L341.638,115.776 L341.928,115.776 L342.217,115.776 L342.217,107.188 z M346.563,95.469 C346.707,95.392 346.909,95.207 347.013,95.057 L347.202,94.784 L347.223,93.556 C347.234,92.881 347.225,92.233 347.203,92.115 C347.154,91.855 346.762,91.407 346.481,91.289 C346.337,91.229 345.963,91.203 345.249,91.203 L344.224,91.203 L344.063,91.476 C343.242,92.871 341.909,94.012 340.416,94.6 C340.151,94.704 339.832,94.811 339.708,94.837 C339.585,94.864 339.414,94.912 339.329,94.944 L339.174,95.002 L339.361,95.198 C339.558,95.403 339.826,95.55 340.094,95.598 C340.183,95.614 341.616,95.623 343.279,95.618 C346.251,95.611 346.306,95.607 346.563,95.469 z M336.749,91.458 C336.749,89.575 336.766,89.165 336.848,88.968 C336.976,88.663 337.111,88.516 337.403,88.367 C337.622,88.255 337.859,88.245 340.78,88.229 L343.922,88.211 L343.973,87.761 C344.043,87.143 343.925,86.128 343.693,85.345 C343.008,83.039 341.245,81.367 339.023,80.914 C338.203,80.748 337.579,80.746 336.787,80.908 C335.017,81.272 333.601,82.344 332.622,84.061 C332.096,84.985 331.76,86.44 331.814,87.567 C331.873,88.82 332.174,89.825 332.81,90.896 L333.115,91.408 L333.276,91.196 C333.887,90.389 334.78,89.658 335.615,89.28 L336.058,89.079 L336.017,89.28 C335.995,89.39 335.977,90.023 335.977,90.686 L335.977,91.891 L335.566,92.094 C335.202,92.273 334.691,92.721 334.691,92.86 C334.691,93.007 336.267,93.706 336.604,93.709 L336.749,93.71 L336.749,91.456 z M340.05,93.442 C341.108,92.993 342.079,92.237 342.661,91.408 L342.81,91.196 L341.297,91.215 L339.784,91.235 L339.537,91.434 C339.103,91.786 339.04,91.96 339.011,92.897 L338.985,93.728 L339.286,93.683 C339.452,93.658 339.796,93.549 340.05,93.442 z M333.05,117.481 C332.52,117.219 331.63,116.783 331.074,116.512 C330.233,116.101 330.072,116 330.118,115.913 C330.148,115.855 330.347,115.446 330.56,115.004 C330.773,114.562 331.33,113.418 331.797,112.463 C332.265,111.508 332.918,110.169 333.249,109.489 L333.85,108.252 L334.447,108.532 C335.846,109.188 337.843,110.198 337.843,110.249 C337.843,110.366 336.746,112.559 336.688,112.559 C336.654,112.559 336.271,112.384 335.836,112.17 C335.401,111.955 334.877,111.709 334.672,111.621 C334.316,111.469 334.29,111.466 334.08,111.566 C333.691,111.751 333.627,112.321 333.97,112.546 C334.061,112.605 334.536,112.847 335.028,113.084 C336.357,113.724 336.269,113.528 335.728,114.637 C335.475,115.157 335.234,115.583 335.192,115.583 C335.15,115.583 334.646,115.351 334.072,115.068 C333.357,114.715 332.956,114.554 332.798,114.554 C332.38,114.554 332.142,114.964 332.33,115.358 C332.418,115.542 332.582,115.644 333.561,116.125 C334.182,116.43 334.691,116.695 334.691,116.714 C334.691,116.801 334.106,117.962 334.064,117.959 C334.037,117.958 333.581,117.742 333.05,117.481 z" fill="#000000" id="path12916"/>
    <g>
      <path d="M221.878,354.865 L221.878,299.637" fill-opacity="0" stroke="#BEF0FC" stroke-width="1" stroke-linecap="round"/>
      <path d="M224.878,299.637 L221.878,291.637 L218.878,299.637 z" fill="#BEF0FC" fill-opacity="1" stroke="#BEF0FC" stroke-width="1" stroke-opacity="1"/>
    </g>
    <g>
      <path d="M207.556,290.637 L207.556,346.552" fill-opacity="0" stroke="#BEF0FC" stroke-width="1" stroke-linecap="round"/>
      <path d="M204.556,346.552 L207.556,354.552 L210.556,346.552 z" fill="#BEF0FC" fill-opacity="1" stroke="#BEF0FC" stroke-width="1" stroke-opacity="1"/>
    </g>
    <g>
      <path d="M70.184,81.029 L117.443,81.029" fill-opacity="0" stroke="#0041C7" stroke-width="1" stroke-linecap="round"/>
      <path d="M117.443,84.029 L125.443,81.029 L117.443,78.029 z" fill-opacity="0" stroke="#0041C7" stroke-width="1" stroke-opacity="1"/>
    </g>
    <g>
      <path d="M129.761,119.827 L79.184,119.948" fill-opacity="0" stroke="#0041C7" stroke-width="1" stroke-linecap="round"/>
      <path d="M79.176,116.948 L71.184,119.967 L79.191,122.948 z" fill-opacity="0" stroke="#0041C7" stroke-width="1" stroke-opacity="1"/>
    </g>
    <path d="M411.739,81.029 L496.794,81.029" fill-opacity="0" stroke="#012060" stroke-width="1" stroke-dasharray="6,5" stroke-linecap="round"/>
    <g>
      <path d="M507.767,81.145 L567.237,81.145" fill-opacity="0" stroke="#0041C7" stroke-width="1" stroke-linecap="round"/>
      <path d="M567.237,84.145 L575.237,81.145 L567.237,78.145 z" fill-opacity="0" stroke="#0041C7" stroke-width="1" stroke-opacity="1"/>
    </g>
    <g>
      <path d="M347.473,88.897 L348.189,88.897 L348.189,97.709 L347.473,97.709 L347.473,88.897 z" fill="#EDF0F4"/>
      <path d="M346.756,88.897 L347.473,88.897 L347.473,97.709 L346.756,97.709 L346.756,88.897 z" fill="#BDC0C6"/>
    </g>
    <g>
      <path d="M474.55,227.725 L330.729,227.725" fill-opacity="0" stroke="#0041C7" stroke-width="1" stroke-linecap="round"/>
      <path d="M330.729,224.725 L322.729,227.725 L330.729,230.725 z" fill-opacity="0" stroke="#0041C7" stroke-width="1" stroke-opacity="1"/>
    </g>
    <g>
      <g>
        <path d="M152.673,359.392 L279.55,359.392 C286.349,359.392 291.861,365.105 291.861,372.153 L291.861,391.296 C291.861,398.345 286.349,404.058 279.55,404.058 L152.673,404.058 C145.873,404.058 140.361,398.345 140.361,391.296 L140.361,372.153 C140.361,365.105 145.873,359.392 152.673,359.392 z" fill="#A3ABD0"/>
        <path d="M152.673,359.392 L279.55,359.392 C286.349,359.392 291.861,365.105 291.861,372.153 L291.861,391.296 C291.861,398.345 286.349,404.058 279.55,404.058 L152.673,404.058 C145.873,404.058 140.361,398.345 140.361,391.296 L140.361,372.153 C140.361,365.105 145.873,359.392 152.673,359.392 z" fill-opacity="0" stroke="#7874A0" stroke-width="1"/>
      </g>
      <g>
        <path d="M216.111,367.352 C177.368,367.352 145.961,364.711 145.961,361.452 C145.961,358.194 177.368,355.552 216.111,355.552 C254.854,355.552 286.261,358.194 286.261,361.452 C286.261,364.711 254.854,367.352 216.111,367.352 z" fill="#A3ABD0"/>
        <path d="M216.111,367.352 C177.368,367.352 145.961,364.711 145.961,361.452 C145.961,358.194 177.368,355.552 216.111,355.552 C254.854,355.552 286.261,358.194 286.261,361.452 C286.261,364.711 254.854,367.352 216.111,367.352 z" fill-opacity="0" stroke="#7874A0" stroke-width="1"/>
      </g>
      <path d="M216.111,407.719 C177.368,407.719 145.961,405.077 145.961,401.819 C145.961,398.56 177.368,395.919 216.111,395.919 C254.854,395.919 286.261,398.56 286.261,401.819 C286.261,405.077 254.854,407.719 216.111,407.719 z" fill="#A3ABD0"/>
      <path d="M286.58,401.681 C274.68,411.182 150.057,409.057 145.642,401.682" fill-opacity="0" stroke="#7874A0" stroke-width="1"/>
    </g>
    <g>
      <g>
        <path d="M152.673,359.392 L279.55,359.392 C286.349,359.392 291.861,365.105 291.861,372.153 L291.861,391.296 C291.861,398.345 286.349,404.058 279.55,404.058 L152.673,404.058 C145.873,404.058 140.361,398.345 140.361,391.296 L140.361,372.153 C140.361,365.105 145.873,359.392 152.673,359.392 z" fill="#A3ABD0"/>
        <path d="M152.673,359.392 L279.55,359.392 C286.349,359.392 291.861,365.105 291.861,372.153 L291.861,391.296 C291.861,398.345 286.349,404.058 279.55,404.058 L152.673,404.058 C145.873,404.058 140.361,398.345 140.361,391.296 L140.361,372.153 C140.361,365.105 145.873,359.392 152.673,359.392 z" fill-opacity="0" stroke="#7874A0" stroke-width="1"/>
      </g>
      <g>
        <path d="M216.111,367.352 C177.368,367.352 145.961,364.711 145.961,361.452 C145.961,358.194 177.368,355.552 216.111,355.552 C254.854,355.552 286.261,358.194 286.261,361.452 C286.261,364.711 254.854,367.352 216.111,367.352 z" fill="#A3ABD0"/>
        <path d="M216.111,367.352 C177.368,367.352 145.961,364.711 145.961,361.452 C145.961,358.194 177.368,355.552 216.111,355.552 C254.854,355.552 286.261,358.194 286.261,361.452 C286.261,364.711 254.854,367.352 216.111,367.352 z" fill-opacity="0" stroke="#7874A0" stroke-width="1"/>
      </g>
      <path d="M216.111,407.719 C177.368,407.719 145.961,405.077 145.961,401.819 C145.961,398.56 177.368,395.919 216.111,395.919 C254.854,395.919 286.261,398.56 286.261,401.819 C286.261,405.077 254.854,407.719 216.111,407.719 z" fill="#A3ABD0"/>
      <path d="M286.58,401.681 C274.68,411.182 150.057,409.057 145.642,401.682" fill-opacity="0" stroke="#7874A0" stroke-width="1"/>
    </g>
    <text transform="matrix(1, 0, 0, 1, 216.111, 386.544)">
      <tspan x="-55.009" y="-5.25" font-family="Arial-BoldMT" font-size="15" fill="#000000">Local matching </tspan>
      <tspan x="-33.761" y="11.75" font-family="Arial-BoldMT" font-size="15" fill="#000000">datastore</tspan>
    </text>
    <text transform="matrix(1, 0, 0, 1, 577.596, 387.514)">
      <tspan x="-70.808" y="3.5" font-family="ArialMT" font-size="12" fill="#000000">Non SAML communication</tspan>
    </text>
    <text transform="matrix(1, 0, 0, 1, 563.073, 370.514)">
      <tspan x="-56.801" y="3.5" font-family="ArialMT" font-size="12" fill="#000000">SAML communcation</tspan>
    </text>
    <g>
      <g>
        <path d="M597.403,57.323 L684.403,57.323 C691.031,57.323 696.403,62.696 696.403,69.323 L696.403,111.527 C696.403,118.154 691.031,123.527 684.403,123.527 L597.403,123.527 C590.776,123.527 585.403,118.154 585.403,111.527 L585.403,69.323 C585.403,62.696 590.776,57.323 597.403,57.323 z" fill="#ACC6E9"/>
        <path d="M597.403,57.323 L684.403,57.323 C691.031,57.323 696.403,62.696 696.403,69.323 L696.403,111.527 C696.403,118.154 691.031,123.527 684.403,123.527 L597.403,123.527 C590.776,123.527 585.403,118.154 585.403,111.527 L585.403,69.323 C585.403,62.696 590.776,57.323 597.403,57.323 z" fill-opacity="0" stroke="#6B6F94" stroke-width="1"/>
      </g>
      <g>
        <path d="M593.303,60.823 L680.303,60.823 C686.931,60.823 692.303,66.196 692.303,72.823 L692.303,115.027 C692.303,121.654 686.931,127.027 680.303,127.027 L593.303,127.027 C586.676,127.027 581.303,121.654 581.303,115.027 L581.303,72.823 C581.303,66.196 586.676,60.823 593.303,60.823 z" fill="#ACC6E9"/>
        <path d="M593.303,60.823 L680.303,60.823 C686.931,60.823 692.303,66.196 692.303,72.823 L692.303,115.027 C692.303,121.654 686.931,127.027 680.303,127.027 L593.303,127.027 C586.676,127.027 581.303,121.654 581.303,115.027 L581.303,72.823 C581.303,66.196 586.676,60.823 593.303,60.823 z" fill-opacity="0" stroke="#6B6F94" stroke-width="1"/>
      </g>
      <g>
        <path d="M588.236,64.792 L675.236,64.792 C681.864,64.792 687.236,70.165 687.236,76.792 L687.236,118.995 C687.236,125.623 681.864,130.995 675.236,130.995 L588.236,130.995 C581.609,130.995 576.236,125.623 576.236,118.995 L576.236,76.792 C576.236,70.165 581.609,64.792 588.236,64.792 z" fill="#ACC6E9"/>
        <path d="M588.236,64.792 L675.236,64.792 C681.864,64.792 687.236,70.165 687.236,76.792 L687.236,118.995 C687.236,125.623 681.864,130.995 675.236,130.995 L588.236,130.995 C581.609,130.995 576.236,125.623 576.236,118.995 L576.236,76.792 C576.236,70.165 581.609,64.792 588.236,64.792 z" fill-opacity="0" stroke="#6B6F94" stroke-width="1"/>
      </g>
    </g>
    <text transform="matrix(1, 0, 0, 1, 632.142, 94.159)">
      <tspan x="-26.667" y="-3.5" font-family="Arial-BoldMT" font-size="15" fill="#000000">Identity </tspan>
      <tspan x="-30.007" y="13.5" font-family="Arial-BoldMT" font-size="15" fill="#000000">provider</tspan>
    </text>
    <g>
      <g>
        <path d="M412.767,69.303 L495.767,69.303 C502.394,69.303 507.767,74.676 507.767,81.303 L507.767,123.303 C507.767,129.93 502.394,135.303 495.767,135.303 L412.767,135.303 C406.139,135.303 400.767,129.93 400.767,123.303 L400.767,81.303 C400.767,74.676 406.139,69.303 412.767,69.303 z" fill="#81A9DA"/>
        <path d="M412.767,69.303 L495.767,69.303 C502.394,69.303 507.767,74.676 507.767,81.303 L507.767,123.303 C507.767,129.93 502.394,135.303 495.767,135.303 L412.767,135.303 C406.139,135.303 400.767,129.93 400.767,123.303 L400.767,81.303 C400.767,74.676 406.139,69.303 412.767,69.303 z" fill-opacity="0" stroke="#5E6873" stroke-width="1"/>
      </g>
      <text transform="matrix(1, 0, 0, 1, 454.267, 102.303)">
        <tspan x="-28.898" y="-3.5" font-family="Arial-BoldMT" font-size="15" fill="#000000">GOV.UK</tspan>
        <tspan x="-36.259" y="13.5" font-family="Arial-BoldMT" font-size="15" fill="#000000">Verify hub</tspan>
      </text>
    </g>
    <text transform="matrix(1, 0, 0, 1, 245.009, 208.751)">
      <tspan x="-61.688" y="-4.322" font-family="Arial-BoldMT" font-size="15" fill="#000000">Matching Service </tspan>
      <tspan x="-28.337" y="12.678" font-family="Arial-BoldMT" font-size="15" fill="#000000">Adapter</tspan>
    </text>
    <g>
      <g>
        <path d="M139.111,47.803 L293.111,47.803 C299.739,47.803 305.111,53.176 305.111,59.803 L305.111,144.803 C305.111,151.43 299.739,156.803 293.111,156.803 L139.111,156.803 C132.484,156.803 127.111,151.43 127.111,144.803 L127.111,59.803 C127.111,53.176 132.484,47.803 139.111,47.803 z" fill="#A79E9E"/>
        <path d="M139.111,47.803 L293.111,47.803 C299.739,47.803 305.111,53.176 305.111,59.803 L305.111,144.803 C305.111,151.43 299.739,156.803 293.111,156.803 L139.111,156.803 C132.484,156.803 127.111,151.43 127.111,144.803 L127.111,59.803 C127.111,53.176 132.484,47.803 139.111,47.803 z" fill-opacity="0" stroke="#3E3D3D" stroke-width="1"/>
      </g>
      <text transform="matrix(1, 0, 0, 1, 216.111, 102.303)">
        <tspan x="-44.176" y="-7" font-family="Arial-BoldMT" font-size="15" fill="#000000">Government </tspan>
        <tspan x="-25.858" y="10" font-family="Arial-BoldMT" font-size="15" fill="#000000">service</tspan>
      </text>
    </g>
    <text transform="matrix(1, 0, 0, 1, 243.88, 264.182)">
      <tspan x="-55.009" y="-4" font-family="Arial-BoldMT" font-size="15" fill="#000000">Local matching </tspan>
      <tspan x="-25.858" y="13" font-family="Arial-BoldMT" font-size="15" fill="#000000">service</tspan>
    </text>
    <text transform="matrix(-0, -1, 1, -0, 144.423, 234.12)">
      <tspan x="-32.915" y="-7.917" font-family="Arial-BoldMT" font-size="15" fill="#000000">Matching </tspan>
      <tspan x="-25.858" y="9.083" font-family="Arial-BoldMT" font-size="15" fill="#000000">service</tspan>
    </text>
    <text transform="matrix(1, 0, 0, 1, 161.775, 323.751)">
      <tspan x="-29.678" y="-3.5" font-family="ArialMT" font-size="12" fill="#000000">Match user</tspan>
      <tspan x="-37.685" y="10.5" font-family="ArialMT" font-size="12" fill="#000000">to local record</tspan>
    </text>
    <text transform="matrix(1, 0, 0, 1, 532.757, 72.059)">
      <tspan x="-10.074" y="3.5" font-family="ArialMT" font-size="12.5" fill="#000000">PKI</tspan>
    </text>
    <text transform="matrix(1, 0, 0, 1, 558.519, 99.693)">
      <tspan x="-17.02" y="3.5" font-family="ArialMT" font-size="12.5" fill="#000000">SAML</tspan>
    </text>
    <text transform="matrix(1, 0, 0, 1, 348.493, 72.059)">
      <tspan x="-10.074" y="3.5" font-family="ArialMT" font-size="12.5" fill="#000000">PKI</tspan>
    </text>
    <text transform="matrix(1, 0, 0, 1, 390.693, 181.514)">
      <tspan x="-10.074" y="3.5" font-family="ArialMT" font-size="12.5" fill="#000000">PKI</tspan>
    </text>
    <text transform="matrix(1, 0, 0, 1, 380.747, 99.693)">
      <tspan x="-17.02" y="3.5" font-family="ArialMT" font-size="12.5" fill="#000000">SAML</tspan>
    </text>
    <text transform="matrix(1, 0, 0, 1, 435.256, 208.439)">
      <tspan x="-17.02" y="3.5" font-family="ArialMT" font-size="12.5" fill="#000000">SAML</tspan>
    </text>
    <text transform="matrix(1, 0, 0, 1, 232.881, 30.107)">
      <tspan x="-110.021" y="6.107" font-family="Arial-BoldMT" font-size="22" fill="#000000">Government network</tspan>
    </text>
    <path d="M129.598,81.145 L305.111,81.145" fill-opacity="0" stroke="#0041C7" stroke-width="1" stroke-dasharray="6,5" stroke-linecap="round"/>
    <path d="M130.041,119.898 L305.111,119.898" fill-opacity="0" stroke="#0041C7" stroke-width="1" stroke-dasharray="6,5" stroke-linecap="round"/>
    <g>
      <path d="M304.595,81.145 L391.767,81.288" fill-opacity="0" stroke="#0041C7" stroke-width="1" stroke-linecap="round"/>
      <path d="M391.762,84.288 L399.767,81.301 L391.772,78.288 z" fill-opacity="0" stroke="#0041C7" stroke-width="1" stroke-opacity="1"/>
    </g>
    <g>
      <path d="M399.415,119.898 L314.111,119.898" fill-opacity="0" stroke="#0041C7" stroke-width="1" stroke-linecap="round"/>
      <path d="M314.111,116.898 L306.111,119.898 L314.111,122.898 z" fill-opacity="0" stroke="#0041C7" stroke-width="1" stroke-opacity="1"/>
    </g>
    <path d="M395.767,119.898 L436.841,119.898" fill-opacity="0" stroke="#0041C7" stroke-width="1" stroke-dasharray="6,5" stroke-linecap="round"/>
    <path d="M474.55,134.861 L474.55,118.888" fill-opacity="0" stroke="#0041C7" stroke-width="1.04" stroke-dasharray="4.16,4.16" stroke-linecap="round" id="path44055"/>
    <path d="M506.272,118.888 L474.55,118.888" fill-opacity="0" stroke="#0041C7" stroke-width="1.04" stroke-dasharray="4.16,4.16" stroke-linecap="round" id="path44057"/>
    <path d="M436.841,135.942 L436.841,119.969" fill-opacity="0" stroke="#0041C7" stroke-width="1.04" stroke-dasharray="4.16,4.16" stroke-linecap="round" id="path44055"/>
    <path d="M386.65,228.415 C386.596,228.327 386.119,227.697 385.589,227.016 C384.926,226.162 384.623,225.721 384.617,225.599 C384.61,225.502 384.604,221.297 384.599,216.256 L384.591,207.089 L383.031,207.089 C382.169,207.088 381.371,207.059 381.246,207.023 C380.955,206.939 380.711,206.719 380.544,206.391 C380.423,206.154 380.41,206.017 380.41,204.938 L380.41,203.746 L380.233,203.705 C379.657,203.572 379.164,203.413 378.752,203.228 C378.495,203.112 378.266,203.036 378.244,203.059 C378.11,203.193 378.706,204.153 379.25,204.68 L379.625,205.042 L379.648,205.76 C379.668,206.387 379.694,206.524 379.849,206.841 C380.076,207.304 380.482,207.678 380.949,207.852 C381.278,207.976 381.446,207.99 382.6,207.99 L383.884,207.99 L383.884,208.475 L383.884,208.961 L383.673,209.049 C383.229,209.235 382.387,209.348 381.6,209.328 L380.828,209.308 L380.217,210.536 C379.881,211.211 379.268,212.456 378.854,213.302 C377.516,216.038 376.29,218.548 375.81,219.536 C373.22,224.865 373.173,224.955 372.844,225.163 C372.347,225.478 372.023,225.445 371.139,224.988 C370.499,224.657 370.408,224.588 370.271,224.33 C370.06,223.932 370.069,223.547 370.304,223.032 C370.406,222.808 370.872,221.843 371.34,220.887 C371.808,219.932 372.43,218.658 372.723,218.057 C373.015,217.455 373.652,216.153 374.138,215.162 C374.624,214.171 375.203,212.985 375.425,212.525 C375.647,212.065 376.252,210.824 376.769,209.768 C377.286,208.712 377.708,207.829 377.707,207.806 C377.707,207.783 377.573,207.62 377.411,207.443 C376.12,206.036 375.576,204.046 375.978,202.2 C376.051,201.864 376.124,201.531 376.14,201.46 C376.159,201.375 376.036,201.148 375.774,200.785 C375.557,200.484 375.304,200.093 375.212,199.917 C373.366,196.368 374.294,192.015 377.384,189.726 C378.592,188.831 380.143,188.305 381.573,188.305 C382.13,188.305 383.192,188.482 383.728,188.664 C385.997,189.435 387.879,191.449 388.542,193.816 C388.767,194.62 388.834,195.141 388.836,196.098 C388.837,196.742 388.856,196.919 388.929,196.947 C388.979,196.966 389.778,196.984 390.704,196.988 C391.96,196.992 392.44,197.015 392.595,197.08 C392.896,197.205 393.196,197.602 393.278,197.983 C393.327,198.205 393.342,199.55 393.328,202.232 L393.308,206.156 L393.132,206.456 C393.035,206.621 392.846,206.824 392.713,206.907 C392.479,207.053 392.424,207.057 390.783,207.077 L389.094,207.097 L389.094,208.3 L389.094,209.504 L388.414,210.178 C387.648,210.938 387.471,211.216 387.471,211.666 C387.471,212.093 387.668,212.395 388.447,213.167 C389.054,213.769 389.094,213.825 389.094,214.067 C389.094,214.308 389.051,214.369 388.485,214.937 C387.846,215.579 387.679,215.859 387.679,216.291 C387.679,216.698 387.814,216.919 388.476,217.601 L389.094,218.238 L389.094,218.732 L389.094,219.225 L388.448,219.863 C387.669,220.632 387.471,220.934 387.471,221.36 C387.471,221.81 387.648,222.089 388.414,222.848 L389.094,223.522 L389.094,224.632 L389.094,225.741 L388.596,226.392 C388.322,226.749 387.855,227.351 387.56,227.728 C387.264,228.105 387.007,228.45 386.99,228.494 C386.937,228.627 386.753,228.584 386.65,228.415 z M385.878,215.934 L385.878,207.346 L385.588,207.346 L385.299,207.346 L385.299,215.934 L385.299,224.522 L385.588,224.522 L385.878,224.522 L385.878,215.934 z M390.224,204.215 C390.367,204.138 390.57,203.953 390.674,203.803 L390.863,203.53 L390.883,202.302 C390.894,201.627 390.885,200.979 390.864,200.861 C390.815,200.601 390.423,200.153 390.141,200.035 C389.997,199.975 389.624,199.949 388.909,199.949 L387.884,199.949 L387.723,200.222 C386.903,201.617 385.57,202.758 384.077,203.346 C383.811,203.45 383.493,203.557 383.369,203.583 C383.245,203.61 383.074,203.658 382.989,203.69 L382.834,203.748 L383.021,203.944 C383.218,204.149 383.487,204.296 383.755,204.344 C383.843,204.36 385.276,204.369 386.939,204.364 C389.912,204.357 389.967,204.353 390.224,204.215 z M380.41,200.204 C380.41,198.321 380.426,197.911 380.509,197.714 C380.636,197.409 380.772,197.262 381.064,197.113 C381.283,197.001 381.52,196.991 384.441,196.975 L387.582,196.957 L387.633,196.507 C387.703,195.889 387.586,194.874 387.353,194.091 C386.668,191.785 384.905,190.113 382.683,189.66 C381.864,189.493 381.239,189.492 380.447,189.654 C378.677,190.018 377.261,191.09 376.283,192.807 C375.756,193.731 375.421,195.186 375.474,196.313 C375.534,197.566 375.835,198.571 376.471,199.642 L376.775,200.154 L376.936,199.942 C377.547,199.135 378.44,198.404 379.276,198.026 L379.718,197.825 L379.678,198.026 C379.656,198.136 379.638,198.769 379.638,199.432 L379.638,200.637 L379.226,200.84 C378.863,201.019 378.351,201.467 378.351,201.606 C378.351,201.753 379.928,202.452 380.265,202.455 L380.41,202.456 L380.41,200.202 z M383.711,202.188 C384.769,201.739 385.74,200.983 386.321,200.154 L386.47,199.942 L384.957,199.961 L383.445,199.981 L383.198,200.18 C382.763,200.532 382.701,200.706 382.671,201.643 L382.645,202.474 L382.947,202.429 C383.112,202.404 383.456,202.295 383.71,202.188 z M376.711,226.227 C376.18,225.965 375.291,225.529 374.735,225.258 C373.893,224.846 373.733,224.746 373.778,224.659 C373.808,224.601 374.007,224.192 374.22,223.75 C374.433,223.308 374.99,222.164 375.458,221.209 C375.926,220.254 376.579,218.915 376.909,218.235 L377.511,216.998 L378.108,217.278 C379.507,217.934 381.503,218.944 381.503,218.995 C381.503,219.112 380.406,221.305 380.348,221.305 C380.315,221.305 379.931,221.13 379.496,220.916 C379.061,220.701 378.538,220.455 378.333,220.367 C377.976,220.215 377.951,220.212 377.741,220.312 C377.351,220.497 377.287,221.067 377.631,221.292 C377.721,221.351 378.197,221.593 378.688,221.829 C380.018,222.47 379.929,222.274 379.389,223.383 C379.136,223.903 378.894,224.329 378.852,224.329 C378.811,224.329 378.307,224.097 377.732,223.814 C377.017,223.461 376.616,223.299 376.459,223.299 C376.041,223.299 375.803,223.71 375.991,224.104 C376.078,224.288 376.242,224.39 377.222,224.871 C377.843,225.176 378.351,225.441 378.351,225.46 C378.351,225.547 377.767,226.708 377.724,226.705 C377.697,226.704 377.242,226.488 376.711,226.227 z" fill="#000000" id="path12916"/>
    <path d="M400.767,81.145 L507.767,81.145" fill-opacity="0" stroke="#0041C7" stroke-width="1" stroke-dasharray="6,5" stroke-linecap="round"/>
    <path d="M534.316,119.669 C534.263,119.581 533.786,118.951 533.256,118.27 C532.593,117.416 532.29,116.975 532.283,116.853 C532.277,116.756 532.271,112.551 532.266,107.51 L532.258,98.343 L530.698,98.343 C529.836,98.342 529.038,98.313 528.913,98.277 C528.622,98.193 528.378,97.973 528.211,97.645 C528.09,97.408 528.077,97.271 528.077,96.192 L528.077,95 L527.9,94.959 C527.324,94.826 526.831,94.667 526.419,94.482 C526.162,94.366 525.933,94.29 525.91,94.313 C525.776,94.447 526.372,95.407 526.917,95.934 L527.292,96.296 L527.315,97.014 C527.335,97.641 527.36,97.778 527.516,98.095 C527.743,98.558 528.149,98.932 528.615,99.106 C528.945,99.23 529.113,99.244 530.266,99.244 L531.551,99.244 L531.551,99.729 L531.551,100.215 L531.34,100.303 C530.895,100.489 530.054,100.602 529.267,100.582 L528.495,100.562 L527.884,101.79 C527.548,102.465 526.934,103.71 526.521,104.556 C525.183,107.292 523.957,109.803 523.477,110.79 C520.887,116.119 520.84,116.209 520.511,116.417 C520.014,116.732 519.69,116.699 518.806,116.242 C518.165,115.911 518.075,115.842 517.938,115.584 C517.726,115.186 517.736,114.801 517.97,114.286 C518.073,114.062 518.539,113.097 519.007,112.141 C519.475,111.186 520.097,109.912 520.389,109.311 C520.682,108.709 521.319,107.407 521.805,106.416 C522.29,105.426 522.87,104.239 523.092,103.779 C523.314,103.319 523.919,102.078 524.435,101.022 C524.952,99.966 525.375,99.083 525.374,99.06 C525.373,99.037 525.24,98.874 525.078,98.697 C523.787,97.29 523.243,95.3 523.644,93.454 C523.717,93.118 523.79,92.785 523.806,92.714 C523.825,92.629 523.703,92.402 523.441,92.039 C523.224,91.738 522.971,91.347 522.879,91.171 C521.033,87.622 521.961,83.269 525.051,80.98 C526.259,80.085 527.809,79.559 529.24,79.559 C529.797,79.559 530.858,79.736 531.395,79.918 C533.664,80.689 535.546,82.703 536.209,85.07 C536.434,85.874 536.501,86.395 536.502,87.352 C536.504,87.996 536.523,88.173 536.595,88.201 C536.646,88.22 537.445,88.238 538.371,88.242 C539.627,88.246 540.107,88.269 540.262,88.334 C540.562,88.46 540.862,88.856 540.945,89.237 C540.993,89.459 541.009,90.804 540.995,93.486 L540.975,97.41 L540.798,97.71 C540.701,97.875 540.513,98.078 540.38,98.161 C540.145,98.307 540.09,98.311 538.45,98.331 L536.761,98.351 L536.761,99.554 L536.761,100.758 L536.081,101.432 C535.315,102.192 535.138,102.47 535.138,102.92 C535.138,103.347 535.335,103.649 536.113,104.421 C536.721,105.023 536.761,105.079 536.761,105.321 C536.76,105.562 536.717,105.623 536.152,106.191 C535.512,106.833 535.346,107.113 535.346,107.545 C535.346,107.952 535.48,108.173 536.142,108.855 L536.761,109.492 L536.761,109.986 L536.761,110.479 L536.114,111.117 C535.335,111.886 535.138,112.188 535.138,112.614 C535.138,113.064 535.315,113.343 536.081,114.102 L536.761,114.776 L536.761,115.886 L536.761,116.995 L536.263,117.646 C535.988,118.003 535.522,118.605 535.226,118.982 C534.93,119.359 534.674,119.704 534.656,119.748 C534.604,119.881 534.419,119.838 534.317,119.669 z M533.544,107.188 L533.544,98.6 L533.255,98.6 L532.965,98.6 L532.965,107.188 L532.965,115.776 L533.255,115.776 L533.544,115.776 L533.544,107.188 z M537.89,95.469 C538.034,95.392 538.237,95.207 538.341,95.057 L538.53,94.784 L538.55,93.556 C538.561,92.881 538.552,92.233 538.53,92.115 C538.482,91.855 538.09,91.407 537.808,91.289 C537.664,91.229 537.29,91.203 536.576,91.203 L535.551,91.203 L535.39,91.476 C534.569,92.871 533.237,94.012 531.743,94.6 C531.478,94.704 531.159,94.811 531.036,94.837 C530.912,94.864 530.741,94.912 530.656,94.944 L530.501,95.002 L530.688,95.198 C530.885,95.403 531.154,95.55 531.422,95.598 C531.51,95.614 532.943,95.623 534.606,95.618 C537.578,95.611 537.634,95.607 537.891,95.469 z M528.077,91.458 C528.077,89.575 528.093,89.165 528.176,88.968 C528.303,88.663 528.439,88.516 528.73,88.367 C528.949,88.255 529.187,88.245 532.108,88.229 L535.249,88.211 L535.3,87.761 C535.37,87.143 535.252,86.128 535.02,85.345 C534.335,83.039 532.572,81.367 530.35,80.914 C529.531,80.748 528.906,80.746 528.114,80.908 C526.344,81.272 524.928,82.344 523.95,84.061 C523.423,84.985 523.087,86.44 523.141,87.567 C523.201,88.82 523.502,89.825 524.137,90.896 L524.442,91.408 L524.603,91.196 C525.214,90.389 526.107,89.658 526.943,89.28 L527.385,89.079 L527.345,89.28 C527.323,89.39 527.304,90.023 527.304,90.686 L527.304,91.891 L526.893,92.094 C526.53,92.273 526.018,92.721 526.018,92.86 C526.018,93.007 527.595,93.706 527.932,93.709 L528.076,93.71 L528.076,91.456 z M531.377,93.442 C532.436,92.993 533.406,92.237 533.988,91.408 L534.137,91.196 L532.624,91.215 L531.112,91.235 L530.864,91.434 C530.43,91.786 530.367,91.96 530.338,92.897 L530.312,93.728 L530.613,93.683 C530.779,93.658 531.123,93.549 531.377,93.442 z M524.378,117.481 C523.847,117.219 522.958,116.783 522.401,116.512 C521.56,116.101 521.399,116 521.445,115.913 C521.475,115.855 521.674,115.446 521.887,115.004 C522.1,114.562 522.657,113.418 523.125,112.463 C523.592,111.508 524.245,110.169 524.576,109.489 L525.177,108.252 L525.775,108.532 C527.173,109.188 529.17,110.198 529.17,110.249 C529.17,110.366 528.073,112.559 528.015,112.559 C527.981,112.559 527.598,112.384 527.163,112.17 C526.728,111.955 526.204,111.709 526,111.621 C525.643,111.469 525.618,111.466 525.408,111.566 C525.018,111.751 524.954,112.321 525.298,112.546 C525.388,112.605 525.864,112.847 526.355,113.084 C527.685,113.724 527.596,113.528 527.056,114.637 C526.802,115.157 526.561,115.583 526.519,115.583 C526.477,115.583 525.973,115.351 525.399,115.068 C524.684,114.715 524.283,114.554 524.125,114.554 C523.708,114.554 523.469,114.964 523.657,115.358 C523.745,115.542 523.909,115.644 524.888,116.125 C525.51,116.43 526.018,116.695 526.018,116.714 C526.018,116.801 525.433,117.962 525.391,117.959 C525.364,117.958 524.908,117.742 524.378,117.481 z" fill="#000000" id="path12916"/>
    <g>
      <path d="M436.841,191.88 L436.841,144.303" fill-opacity="0" stroke="#0041C7" stroke-width="1" stroke-linecap="round"/>
      <path d="M439.841,144.303 L436.841,136.303 L433.841,144.303 z" fill-opacity="0" stroke="#0041C7" stroke-width="1" stroke-opacity="1"/>
    </g>
    <g>
      <path d="M455.692,386.544 L484.409,386.544" fill-opacity="0" stroke="#BDECF8" stroke-width="1" stroke-linecap="round"/>
      <path d="M484.409,389.544 L492.409,386.544 L484.409,383.544 z" fill="#BDECF8" fill-opacity="1" stroke="#BDECF8" stroke-width="1" stroke-opacity="1"/>
    </g>
    <g>
      <path d="M455.692,370.514 L484.409,370.514" fill-opacity="0" stroke="#0041C7" stroke-width="1" stroke-linecap="round"/>
      <path d="M484.409,373.514 L492.409,370.514 L484.409,367.514 z" fill-opacity="0" stroke="#0041C7" stroke-width="1" stroke-opacity="1"/>
    </g>
    <g>
      <path d="M574.539,118.888 L516.767,118.888" fill-opacity="0" stroke="#0041C7" stroke-width="1" stroke-linecap="round"/>
      <path d="M516.767,115.888 L508.767,118.888 L516.767,121.888 z" fill-opacity="0" stroke="#0041C7" stroke-width="1" stroke-opacity="1"/>
    </g>
    <path d="M39.338,140.277 C39.186,140.226 37.614,139.459 35.844,138.573 C32.384,136.841 32.47,136.904 31.824,135.632 C31.348,134.695 31.298,133.702 31.704,133.269 L31.965,132.99 L31.511,132.559 C31.261,132.321 31.057,132.025 31.057,131.901 C31.057,131.777 31.345,131.235 31.697,130.697 C32.05,130.159 32.373,129.661 32.415,129.591 C32.463,129.511 32.299,129.531 31.968,129.646 C31.499,129.809 30.577,129.828 23.272,129.828 L15.101,129.829 L14.218,129.519 C12.612,128.956 11.324,127.878 10.598,126.487 C9.961,125.268 9.842,124.724 9.778,122.707 C9.685,119.81 9.931,118.511 10.835,117.111 L11.255,116.461 L10.498,115.416 C10.081,114.841 9.506,113.889 9.219,113.301 C8.932,112.713 8.669,112.228 8.636,112.224 C8.603,112.22 8.513,112.391 8.436,112.603 C7.669,114.724 4.696,114.499 4.059,112.272 C3.973,111.968 3.521,108.863 3.055,105.371 C2.316,99.824 2.223,98.95 2.326,98.451 C2.662,96.81 4.215,95.998 5.626,96.726 C6.443,97.148 6.892,97.968 7.076,99.379 L7.159,100.015 L7.394,99.331 C7.804,98.138 8.275,97.615 9.568,96.917 C9.685,96.854 10.288,95.749 10.942,94.399 L12.107,91.994 L11.727,91.706 C9.98,90.383 9.196,88.708 9.158,86.213 C9.119,83.666 9.819,81.639 11.054,80.723 C13.088,79.215 16.391,77.844 18.363,77.691 C19.385,77.612 19.813,77.726 22.415,78.777 C24.604,79.661 25.388,79.793 25.756,79.34 L25.956,79.092 L26.077,79.439 C26.384,80.319 26.156,80.894 25.446,81.036 C25.252,81.074 25.094,81.119 25.094,81.134 C25.094,81.15 25.216,81.429 25.365,81.755 C25.923,82.977 26.002,83.504 26.059,86.351 C26.108,88.795 26.13,89.029 26.304,89.029 C26.655,89.029 27.774,89.467 28.144,89.749 C28.365,89.917 28.561,90.199 28.639,90.457 C28.752,90.835 28.737,90.948 28.517,91.403 C28.236,91.984 27.692,92.431 26.683,92.91 L26.009,93.231 L25.933,94.138 C25.891,94.637 25.787,95.152 25.702,95.282 C25.442,95.678 23.83,96.906 23.078,97.28 C22.689,97.474 22.138,97.695 21.853,97.771 L21.335,97.909 L20.995,99.018 C20.808,99.627 20.647,100.166 20.638,100.216 C20.616,100.34 21.45,100.65 23.094,101.13 C26.252,102.051 27.684,102.969 27.684,104.07 C27.684,104.3 27.685,104.491 27.686,104.496 C27.688,104.5 28.31,104.545 29.069,104.596 C32.785,104.842 34.942,105.224 36.015,105.826 C36.911,106.329 38.353,107.476 39.578,108.661 C40.482,109.535 40.678,109.677 40.853,109.583 C40.967,109.522 41.416,109.092 41.851,108.626 L42.642,107.78 L46.996,107.818 C51.052,107.853 51.366,107.869 51.577,108.06 C51.701,108.173 51.818,108.396 51.837,108.557 C51.871,108.849 51.877,108.85 55.784,109.684 L59.697,110.52 L59.667,112.279 C59.65,113.247 59.629,114.044 59.619,114.05 C59.608,114.056 57.041,114.274 53.914,114.533 L48.227,115.004 L47.509,114.654 C45.937,113.886 45.744,113.743 45.67,113.289 L45.602,112.87 L44.838,112.902 L44.074,112.935 L43.805,113.597 C43.454,114.464 43.013,115.08 42.551,115.35 C42.196,115.558 42.106,115.561 40.565,115.43 C38.616,115.265 36.349,114.978 33.916,114.589 C32.92,114.43 31.907,114.279 31.664,114.254 L31.222,114.208 L31.66,114.32 C31.901,114.381 32.522,114.576 33.041,114.752 C33.559,114.928 35.871,115.553 38.179,116.14 C43.178,117.412 43.87,117.622 45.025,118.213 C46.121,118.774 47.331,119.934 47.773,120.846 C48.219,121.763 48.347,122.82 48.139,123.843 C47.887,125.079 47.357,126.083 45.744,128.383 C44.42,130.271 42.372,133.508 42.453,133.586 C42.471,133.604 43.404,134.039 44.528,134.553 C46.309,135.369 46.616,135.548 46.927,135.949 C48.302,137.724 46.982,139.37 43.589,140.112 C42.714,140.304 39.757,140.419 39.338,140.277 z M39.938,135.142 C40.188,134.952 40.811,134.028 41.776,132.417 C42.58,131.076 43.625,129.424 44.098,128.745 C46.928,124.686 46.999,124.544 47.007,122.928 C47.014,121.66 46.792,121.13 45.867,120.205 C44.817,119.155 43.84,118.766 39.393,117.626 C37.268,117.081 35.495,116.635 35.454,116.634 C35.413,116.634 35.546,116.911 35.751,117.251 C36.523,118.533 36.612,118.963 36.661,121.658 C36.697,123.6 36.671,124.237 36.532,124.838 C36.326,125.724 35.828,126.772 35.314,127.399 C35.112,127.646 34.36,128.738 33.643,129.825 L32.341,131.801 L32.886,132.289 C34.451,133.691 36.326,134.905 37.551,135.31 C38.435,135.602 39.427,135.532 39.938,135.142 z M11.623,125.701 C11.623,125.481 12.367,124.899 12.941,124.671 C13.504,124.447 13.8,124.422 16.469,124.367 L19.383,124.308 L18.401,123.496 C17.127,122.441 14.49,120.034 13.742,119.242 C13.42,118.9 13.088,118.621 13.004,118.621 C12.748,118.621 11.772,119.657 11.474,120.244 C11.319,120.549 11.134,121.137 11.062,121.55 C10.885,122.568 10.983,124.712 11.235,125.329 C11.406,125.75 11.623,125.957 11.623,125.701 z M35.115,124.914 C35.218,124.569 35.253,123.913 35.23,122.762 C35.2,121.233 35.175,121.057 34.902,120.474 C34.07,118.699 32.633,117.962 30.002,117.959 C29.015,117.959 28.998,117.963 28.669,118.318 C27.711,119.349 24.321,123.95 24.321,124.219 C24.321,124.268 25.891,124.291 27.809,124.271 C29.888,124.248 31.65,124.281 32.173,124.351 C33.173,124.486 34.011,124.809 34.381,125.204 C34.733,125.578 34.942,125.496 35.115,124.914 z M13.416,114.824 C14.7,114.202 14.645,114.205 23.213,114.195 L31.112,114.186 L30.443,113.864 C30.076,113.687 29.494,113.49 29.15,113.427 C28.745,113.352 26.197,113.324 21.923,113.346 C15.422,113.38 15.312,113.384 14.676,113.625 C13.799,113.956 13.339,114.251 12.579,114.972 C11.739,115.767 11.554,116.118 12.275,115.548 C12.584,115.304 13.097,114.978 13.416,114.824 z M42.251,114.066 C42.401,113.869 42.672,113.341 42.852,112.892 C43.366,111.613 43.353,111.621 44.699,111.697 C46.062,111.775 46.366,111.909 46.838,112.645 C47.186,113.188 47.647,113.588 47.847,113.521 C47.904,113.502 47.429,112.849 46.792,112.069 C46.154,111.29 45.632,110.557 45.632,110.441 C45.632,109.845 46.722,109.525 48.669,109.55 C49.751,109.565 49.926,109.539 50.27,109.321 L50.656,109.075 L49.828,109.007 C49.373,108.969 47.66,108.953 46.022,108.97 L43.044,109.002 L42.433,109.663 C41.691,110.467 40.947,111.002 40.572,111.002 C40.365,111.002 39.941,110.656 38.905,109.641 C37.534,108.296 36.051,107.103 35.231,106.685 C34.72,106.424 33.588,106.188 32.106,106.033 C30.099,105.822 27.029,105.59 26.899,105.639 C26.509,105.786 25.328,108.021 25.053,109.132 C24.842,109.984 24.839,110.046 24.99,110.589 C25.139,111.128 25.812,111.527 27.468,112.056 C29.994,112.865 36.983,114.03 41.215,114.349 C41.489,114.37 41.772,114.395 41.845,114.406 C41.917,114.417 42.1,114.264 42.251,114.066 z M53.665,111.646 C56.353,111.146 58.514,110.704 58.469,110.663 C58.385,110.588 52.102,109.234 51.843,109.235 C51.767,109.235 51.705,109.31 51.705,109.401 C51.705,109.492 51.515,109.757 51.284,109.989 C50.698,110.574 50.078,110.734 48.531,110.696 C47.825,110.678 47.288,110.709 47.288,110.767 C47.288,110.883 48.619,112.547 48.715,112.551 C48.75,112.552 50.978,112.145 53.665,111.646 z M20.521,96.994 C20.577,96.945 20.937,96.821 21.322,96.718 C22.252,96.469 23.012,96.075 23.86,95.403 C24.579,94.833 24.608,94.669 23.99,94.659 C23.664,94.654 22.813,94.285 22.513,94.019 C22.303,93.832 21.561,92.396 21.561,92.177 C21.561,92.113 21.887,92.373 22.286,92.755 C23.083,93.518 23.633,93.845 24.294,93.951 L24.729,94.02 L24.797,93.365 C24.835,93.004 24.897,92.629 24.934,92.531 C24.972,92.433 25.334,92.225 25.739,92.068 C26.521,91.764 27.262,91.301 27.451,90.998 C27.676,90.637 27.074,90.316 25.738,90.086 L25.333,90.016 L25.24,90.597 C25.172,91.026 25.095,91.189 24.948,91.218 C24.762,91.253 24.754,91.182 24.826,90.198 C24.869,89.615 24.874,89.139 24.837,89.139 C24.801,89.139 24.521,89.238 24.215,89.358 C23.909,89.479 23.659,89.538 23.659,89.49 C23.659,89.318 24.331,88.347 24.625,88.094 L24.926,87.835 L24.43,87.771 C22.851,87.566 17.804,87.268 17.549,87.365 C17.136,87.522 16.956,87.884 16.87,88.73 C16.789,89.53 16.896,89.834 17.412,90.265 C17.635,90.452 17.632,90.454 17.267,90.353 C16.491,90.139 16.197,89.549 16.29,88.392 C16.351,87.629 16.572,87.208 17.044,86.953 C17.313,86.808 18.247,86.815 23.173,87 L24.951,87.066 L24.908,85.646 C24.833,83.134 24.482,82.024 23.415,80.922 C22.771,80.257 22.682,80.23 21.395,80.299 C20.223,80.362 19.79,80.786 19.571,82.087 C19.437,82.882 19.492,83.4 19.755,83.815 C19.897,84.04 19.892,84.099 19.708,84.367 C19.43,84.771 19.256,85.249 19.218,85.716 C19.178,86.211 18.987,86.243 17.622,85.986 C16.44,85.763 16.019,85.83 15.67,86.297 C15.425,86.626 15.282,87.546 15.272,88.865 L15.267,89.64 L13.98,90.281 L12.694,90.921 L13.042,91.133 C13.301,91.291 13.39,91.424 13.39,91.66 C13.39,91.834 12.894,92.999 12.285,94.257 C11.678,95.512 11.181,96.563 11.181,96.593 C11.181,96.623 11.371,96.648 11.603,96.648 C12.612,96.648 13.365,96.905 15.873,98.109 C17.27,98.78 18.662,99.441 18.966,99.578 L19.518,99.826 L19.969,98.454 C20.217,97.699 20.466,97.042 20.521,96.994 z M65.53,112.41 C65.585,112.091 65.633,111.135 65.636,110.284 C65.645,107.923 65.158,106.398 64.017,105.21 C63.445,104.615 62.127,103.84 61.977,104.01 C61.933,104.06 61.608,105.169 61.255,106.475 C60.902,107.781 60.582,108.886 60.544,108.931 C60.505,108.977 59.88,109.093 59.154,109.189 L57.834,109.365 L54.797,108.635 C53.127,108.234 51.65,107.858 51.515,107.801 C51.38,107.744 51.24,107.579 51.204,107.435 C51.161,107.263 52.158,103.757 54.129,97.152 C55.773,91.641 57.169,87.038 57.23,86.924 C57.291,86.811 57.526,86.669 57.753,86.609 C58.492,86.415 64.109,85.274 64.326,85.274 C64.443,85.274 65.055,85.507 65.687,85.79 C66.558,86.181 66.822,86.348 66.781,86.48 C66.514,87.331 64.183,95.899 64.183,96.03 C64.183,96.124 64.321,96.272 64.491,96.36 C65.654,96.961 66.941,98.305 67.59,99.596 C68.229,100.867 68.43,101.815 68.426,103.549 C68.421,105.33 68.252,106.287 67.587,108.297 C67.212,109.432 65.611,112.99 65.476,112.99 C65.451,112.99 65.475,112.729 65.53,112.41 z M60.572,97.393 C62.153,91.518 63.423,86.686 63.393,86.657 C63.334,86.597 58.269,87.618 58.179,87.707 C58.113,87.774 52.478,106.624 52.478,106.78 C52.478,106.887 57.251,108.124 57.544,108.092 C57.65,108.081 58.576,104.808 60.572,97.393 z" fill="#000000" id="path3384"/>
  </g>
</svg>
