<!DOCTYPE svg PUBLIC "-//W3C//DTD SVG 1.1//EN" "http://www.w3.org/Graphics/SVG/1.1/DTD/svg11.dtd">
<svg xmlns="http://www.w3.org/2000/svg" xmlns:xlink="http://www.w3.org/1999/xlink" width="1039px" height="1051px" version="1.1"><defs/><g transform="translate(0.5,0.5)"><rect x="144" y="240" width="540" height="810" fill="#e6e6e6" stroke="none" pointer-events="none"/><rect x="794" y="370" width="140" height="310" fill="none" stroke="#000000" pointer-events="none"/><g fill="#000000" font-family="Helvetica" text-anchor="middle" font-size="18px"><text x="863.5" y="403.5">GOV.UK</text><text x="863.5" y="425.5">Verify hub</text></g><path d="M 23 974.89 C 16.97 974.89 11.6 969.85 11.6 962.13 C 11.6 956.14 16.14 950 22.79 950 C 29.28 950 34.03 955.94 34.03 962.42 C 34.03 969.91 28.43 974.89 23 974.89 Z M 0 1000 C 0.52 994.48 1.22 986.94 2.54 983.13 C 3.15 981.4 4.04 980.16 5.47 979.12 C 6.4 978.43 9.7 976.61 10.31 976.31 C 11.37 975.76 12.46 975.47 13.4 976.31 C 19 981.26 26.74 981.11 32.42 976.33 C 33.08 975.65 34.12 975.83 34.81 976.1 C 35.9 976.52 39.38 978.57 40.04 978.99 C 41.96 980.25 43 981.93 43.77 985.09 C 44.75 989.36 45.33 994.79 46 1000 Z" fill="#ffffff" stroke="#000000" stroke-miterlimit="10" pointer-events="none"/><rect x="191" y="915" width="140" height="90" fill="#ffffff" stroke="#000000" pointer-events="none"/><g fill="#000000" font-family="Helvetica" text-anchor="middle" font-size="18px"><text x="260.5" y="955.5">Government</text><text x="260.5" y="977.5">service</text></g><rect x="492" y="370" width="141" height="310" fill="#ffffff" stroke="#000000" pointer-events="none"/><g fill="#000000" font-family="Helvetica" text-anchor="middle" font-size="18px"><text x="562" y="403.5">Matching </text><text x="562" y="425.5">Service </text><text x="562" y="447.5">Adapter</text></g><g fill="#000000" font-family="Helvetica" font-weight="bold" text-anchor="middle" font-size="21px"><text x="414.5" y="295.5">Government </text><text x="414.5" y="320.5">organisation</text></g><g fill="#000000" font-family="Helvetica" text-anchor="middle" font-size="18px"><text x="23.5" y="927.5">User</text></g><rect x="191" y="760" width="140" height="90" fill="#ffffff" stroke="#000000" pointer-events="none"/><g fill="#000000" font-family="Helvetica" text-anchor="middle" font-size="18px"><text x="260.5" y="811.5">Data store</text></g><path d="M 191 960 L 90.24 960" fill="none" stroke="#000000" stroke-width="2" stroke-miterlimit="10" pointer-events="none"/><path d="M 76.24 960 L 90.24 955.33 L 90.24 964.67 Z" fill="#000000" stroke="#000000" stroke-width="2" stroke-miterlimit="10" pointer-events="none"/><g fill="#333333" font-family="Helvetica" text-anchor="middle" font-size="18px"><text x="413" y="399.5">Response:</text><text x="413" y="421.5">no-match</text></g><path d="M 633 448 L 777.76 448" fill="none" stroke="#000000" stroke-width="2" stroke-miterlimit="10" pointer-events="none"/><path d="M 791.76 448 L 777.76 452.67 L 777.76 443.33 Z" fill="#000000" stroke="#000000" stroke-width="2" stroke-miterlimit="10" pointer-events="none"/><path d="M 794 545 L 649.24 545" fill="none" stroke="#000000" stroke-width="2" stroke-miterlimit="10" pointer-events="none"/><path d="M 635.24 545 L 649.24 540.33 L 649.24 549.67 Z" fill="#000000" stroke="#000000" stroke-width="2" stroke-miterlimit="10" pointer-events="none"/><ellipse cx="859" cy="492" rx="12.5" ry="12.5" fill="#000000" stroke="#000000" pointer-events="none"/><g fill="#FFFFFF" font-family="Helvetica" font-weight="bold" text-anchor="middle" font-size="18px"><text x="858" y="498">2</text></g><rect x="884" y="462" width="150" height="70" fill="#ffffff" stroke="#ffffff" stroke-width="8" pointer-events="none"/><g fill="#333333" font-family="Helvetica" font-size="18px"><rect fill="#ffffff" stroke="#FFFFFF" x="890" y="466" width="120" height="64" stroke-width="1"/><text x="889.5" y="481">Check service </text><text x="889.5" y="503">can create </text><text x="889.5" y="525">accounts</text></g><ellipse cx="563" cy="646" rx="12.5" ry="12.5" fill="#000000" stroke="#000000" pointer-events="none"/><g fill="#FFFFFF" font-family="Helvetica" font-weight="bold" text-anchor="middle" font-size="18px"><text x="562" y="652">7</text></g><g fill="#333333" font-family="Helvetica" text-anchor="middle" font-size="18px"><text x="562" y="576.5">Extract</text><text x="562" y="598.5">attributes</text><text x="562" y="620.5">from MDS</text></g><g fill="#333333" font-family="Helvetica" font-size="18px"><text x="889.5" y="786.5">Forward </text><text x="889.5" y="808.5">the attributes</text></g><ellipse cx="715" cy="544" rx="12.5" ry="12.5" fill="#000000" stroke="#000000" pointer-events="none"/><g fill="#FFFFFF" font-family="Helvetica" font-weight="bold" text-anchor="middle" font-size="18px"><text x="714" y="550">3</text></g><rect x="190.5" y="370" width="141" height="310" fill="#ffffff" stroke="#000000" pointer-events="none"/><g fill="#000000" font-family="Helvetica" text-anchor="middle" font-size="18px"><text x="260.5" y="403.5">Local</text><text x="260.5" y="425.5">matching</text><text x="260.5" y="447.5">service</text></g><path d="M 331 447 L 475.76 447" fill="none" stroke="#000000" stroke-width="2" stroke-miterlimit="10" pointer-events="none"/><path d="M 489.76 447 L 475.76 451.67 L 475.76 442.33 Z" fill="#000000" stroke="#000000" stroke-width="2" stroke-miterlimit="10" pointer-events="none"/><ellipse cx="413" cy="446" rx="12.5" ry="12.5" fill="#000000" stroke="#000000" pointer-events="none"/><g fill="#FFFFFF" font-family="Helvetica" font-weight="bold" text-anchor="middle" font-size="18px"><text x="412" y="452">1</text></g><path d="M 494 545 L 349.24 545" fill="none" stroke="#000000" stroke-width="2" stroke-miterlimit="10" pointer-events="none"/><path d="M 335.24 545 L 349.24 540.33 L 349.24 549.67 Z" fill="#000000" stroke="#000000" stroke-width="2" stroke-miterlimit="10" pointer-events="none"/><ellipse cx="413" cy="544" rx="12.5" ry="12.5" fill="#000000" stroke="#000000" pointer-events="none"/><g fill="#FFFFFF" font-family="Helvetica" font-weight="bold" text-anchor="middle" font-size="18px"><text x="412" y="550">4</text></g><path d="M 331 650 L 444 650 L 475.76 650" fill="none" stroke="#000000" stroke-width="2" stroke-miterlimit="10" pointer-events="none"/><path d="M 489.76 650 L 475.76 654.67 L 475.76 645.33 Z" fill="#000000" stroke="#000000" stroke-width="2" stroke-miterlimit="10" pointer-events="none"/><ellipse cx="413" cy="650" rx="12.5" ry="12.5" fill="#000000" stroke="#000000" pointer-events="none"/><g fill="#FFFFFF" font-family="Helvetica" font-weight="bold" text-anchor="middle" font-size="18px"><text x="412" y="656">6</text></g><path d="M 261 680 L 261 743.76" fill="none" stroke="#000000" stroke-width="2" stroke-miterlimit="10" stroke-dasharray="6 6" pointer-events="none"/><path d="M 261 757.76 L 256.33 743.76 L 265.67 743.76 Z" fill="#000000" stroke="#000000" stroke-width="2" stroke-miterlimit="10" pointer-events="none"/><ellipse cx="261" cy="709" rx="12.5" ry="12.5" fill="#000000" stroke="#000000" pointer-events="none"/><g fill="#FFFFFF" font-family="Helvetica" font-weight="bold" text-anchor="middle" font-size="18px"><text x="260" y="715">5</text></g><path d="M 633 650 L 864 650 L 864 960 L 347.24 960" fill="none" stroke="#000000" stroke-width="2" stroke-miterlimit="10" pointer-events="none"/><path d="M 333.24 960 L 347.24 955.33 L 347.24 964.67 Z" fill="#000000" stroke="#000000" stroke-width="2" stroke-miterlimit="10" pointer-events="none"/><path d="M 261 915 L 261 866.24" fill="none" stroke="#000000" stroke-width="2" stroke-miterlimit="10" pointer-events="none"/><path d="M 261 852.24 L 265.67 866.24 L 256.33 866.24 Z" fill="#000000" stroke="#000000" stroke-width="2" stroke-miterlimit="10" pointer-events="none"/><ellipse cx="261" cy="889" rx="12.5" ry="12.5" fill="#000000" stroke="#000000" pointer-events="none"/><g fill="#FFFFFF" font-family="Helvetica" font-weight="bold" text-anchor="middle" font-size="18px"><text x="260" y="895">9</text></g><g fill="#333333" font-family="Helvetica" text-anchor="middle" font-size="18px"><text x="144.5" y="710.5">Store #PID and LOA </text><text x="144.5" y="732.5">(optional)</text></g><g fill="#333333" font-family="Helvetica" text-anchor="middle" font-size="18px"><text x="413" y="602.5">Response:</text><text x="413" y="624.5">success</text></g><ellipse cx="864" cy="790" rx="12.5" ry="12.5" fill="#000000" stroke="#000000" pointer-events="none"/><g fill="#FFFFFF" font-family="Helvetica" font-weight="bold" text-anchor="middle" font-size="18px"><text x="863" y="796">8</text></g><rect x="144" y="0" width="540" height="209" fill="none" stroke="#000000" pointer-events="none"/><g fill="#000000" font-family="Helvetica" font-size="18px"><text x="175.5" y="126.93">MDS</text><text x="175.5" y="148.93">#PID</text><text x="175.5" y="170.93">LOA</text></g><g fill="#333333" font-family="Helvetica" font-size="18px"><text x="240.5" y="126.93">Matching dataset</text><text x="240.5" y="148.93">Hashed persistent identifier</text><text x="240.5" y="170.93">Level of assurance</text></g><ellipse cx="193" cy="86" rx="12.5" ry="12.5" fill="#000000" stroke="#000000" pointer-events="none"/><g fill="#FFFFFF" font-family="Helvetica" font-weight="bold" text-anchor="middle" font-size="18px"><text x="192" y="92">1</text></g><g fill="#333333" font-family="Helvetica" font-size="18px"><text x="240.5" y="92.5">Step - see explanations below diagram</text></g><g fill="#333333" font-family="Helvetica" font-weight="bold" font-size="18px"><text x="240.5" y="47.5">Key</text></g><g fill="#333333" font-family="Helvetica" text-anchor="middle" font-size="18px"><text x="413" y="517.5">JSON POST</text></g></g></svg>