<?xml version="1.0" encoding="UTF-8"?>
<!DOCTYPE svg PUBLIC "-//W3C//DTD SVG 1.1//EN" "http://www.w3.org/Graphics/SVG/1.1/DTD/svg11.dtd">
<svg version="1.1" xmlns="http://www.w3.org/2000/svg" xmlns:xlink="http://www.w3.org/1999/xlink" x="0" y="0" width="744" height="425" viewBox="0, 0, 744, 425">
  <g id="Layer_1">
    <g>
      <path d="M22.486,9.421 L283.269,9.421 C288.887,9.421 293.441,13.623 293.441,18.806 L293.441,406.194 C293.441,411.377 288.887,415.579 283.269,415.579 L22.486,415.579 C16.869,415.579 12.315,411.377 12.315,406.194 L12.315,18.806 C12.315,13.623 16.869,9.421 22.486,9.421 z" fill="#BDC1C7"/>
      <path d="M22.486,9.421 L283.269,9.421 C288.887,9.421 293.441,13.623 293.441,18.806 L293.441,406.194 C293.441,411.377 288.887,415.579 283.269,415.579 L22.486,415.579 C16.869,415.579 12.315,411.377 12.315,406.194 L12.315,18.806 C12.315,13.623 16.869,9.421 22.486,9.421 z" fill-opacity="0" stroke="#9FA5AE" stroke-width="1"/>
    </g>
    <g>
      <path d="M303.479,9.844 L632.448,9.844 C637.992,9.844 642.487,14.04 642.487,19.216 L642.487,405.784 C642.487,410.96 637.992,415.156 632.448,415.156 L303.479,415.156 C297.935,415.156 293.441,410.96 293.441,405.784 L293.441,19.216 C293.441,14.04 297.935,9.844 303.479,9.844 z" fill="#EDF0F4"/>
      <path d="M303.479,9.844 L632.448,9.844 C637.992,9.844 642.487,14.04 642.487,19.216 L642.487,405.784 C642.487,410.96 637.992,415.156 632.448,415.156 L303.479,415.156 C297.935,415.156 293.441,410.96 293.441,405.784 L293.441,19.216 C293.441,14.04 297.935,9.844 303.479,9.844 z" fill-opacity="0" stroke="#8B9094" stroke-width="1"/>
    </g>
    <path d="M405.55,220.725 L405.55,135.303" fill-opacity="0" stroke="#0041C7" stroke-width="1.009" stroke-linecap="round" id="path43941"/>
    <g id="rect20475">
      <path d="M381.006,355.552 L583.921,355.552 C587.953,355.552 591.222,356.095 591.222,356.764 L591.222,400.756 C591.222,401.426 587.953,401.968 583.921,401.968 L381.006,401.968 C376.974,401.968 373.705,401.426 373.705,400.756 L373.705,356.764 C373.705,356.095 376.974,355.552 381.006,355.552 z" fill="#BDC0C6"/>
      <path d="M381.006,355.552 L583.921,355.552 C587.953,355.552 591.222,356.095 591.222,356.764 L591.222,400.756 C591.222,401.426 587.953,401.968 583.921,401.968 L381.006,401.968 C376.974,401.968 373.705,401.426 373.705,400.756 L373.705,356.764 C373.705,356.095 376.974,355.552 381.006,355.552 z" fill-opacity="0" stroke="#9FA5AE" stroke-width="0.312" stroke-linecap="round" stroke-linejoin="round"/>
    </g>
    <path d="M342.739,81.029 L427.794,81.029" fill-opacity="0" stroke="#012060" stroke-width="1" stroke-dasharray="6,5" stroke-linecap="round"/>
    <g>
      <path d="M438.767,81.145 L498.236,81.145" fill-opacity="0" stroke="#0041C7" stroke-width="1" stroke-linecap="round"/>
      <path d="M498.236,84.145 L506.236,81.145 L498.236,78.145 z" fill-opacity="0" stroke="#0041C7" stroke-width="1" stroke-opacity="1"/>
    </g>
    <g>
      <path d="M278.473,88.897 L279.189,88.897 L279.189,97.709 L278.473,97.709 L278.473,88.897 z" fill="#EDF0F4"/>
      <path d="M277.756,88.897 L278.473,88.897 L278.473,97.709 L277.756,97.709 L277.756,88.897 z" fill="#BDC0C6"/>
    </g>
    <g>
      <g>
        <path d="M80.778,360.099 L214.458,360.099 C221.622,360.099 227.429,365.377 227.429,371.888 L227.429,389.572 C227.429,396.083 221.622,401.361 214.458,401.361 L80.778,401.361 C73.614,401.361 67.806,396.083 67.806,389.572 L67.806,371.888 C67.806,365.377 73.614,360.099 80.778,360.099 z" fill="#A3ABD0"/>
        <path d="M80.778,360.099 L214.458,360.099 C221.622,360.099 227.429,365.377 227.429,371.888 L227.429,389.572 C227.429,396.083 221.622,401.361 214.458,401.361 L80.778,401.361 C73.614,401.361 67.806,396.083 67.806,389.572 L67.806,371.888 C67.806,365.377 73.614,360.099 80.778,360.099 z" fill-opacity="0" stroke="#7874A0" stroke-width="1"/>
      </g>
      <g>
        <path d="M147.618,367.453 C106.798,367.453 73.707,365.013 73.707,362.003 C73.707,358.992 106.798,356.552 147.618,356.552 C188.438,356.552 221.529,358.992 221.529,362.003 C221.529,365.013 188.438,367.453 147.618,367.453 z" fill="#A3ABD0"/>
        <path d="M147.618,367.453 C106.798,367.453 73.707,365.013 73.707,362.003 C73.707,358.992 106.798,356.552 147.618,356.552 C188.438,356.552 221.529,358.992 221.529,362.003 C221.529,365.013 188.438,367.453 147.618,367.453 z" fill-opacity="0" stroke="#7874A0" stroke-width="1"/>
      </g>
      <path d="M147.618,404.743 C106.798,404.743 73.707,402.303 73.707,399.293 C73.707,396.282 106.798,393.842 147.618,393.842 C188.438,393.842 221.529,396.282 221.529,399.293 C221.529,402.303 188.438,404.743 147.618,404.743 z" fill="#A3ABD0"/>
      <path d="M221.865,399.165 C209.327,407.943 78.022,405.98 73.371,399.167" fill-opacity="0" stroke="#7874A0" stroke-width="1"/>
    </g>
    <text transform="matrix(1, 0, 0, 1, 147.556, 391.36)">
      <tspan x="-55.009" y="-12" font-family="Arial-BoldMT" font-size="15" fill="#000000">Local matching </tspan>
      <tspan x="-75.861" y="5" font-family="Arial-BoldMT" font-size="15" fill="#000000">datastore - test users</tspan>
    </text>
    <text transform="matrix(1, 0, 0, 1, 508.596, 387.514)">
      <tspan x="-70.808" y="3.5" font-family="ArialMT" font-size="12" fill="#000000">Non SAML communication</tspan>
    </text>
    <text transform="matrix(1, 0, 0, 1, 494.073, 370.514)">
      <tspan x="-56.801" y="3.5" font-family="ArialMT" font-size="12" fill="#000000">SAML communcation</tspan>
    </text>
    <g>
      <path d="M528.403,57.323 L615.403,57.323 C622.031,57.323 627.403,66.226 627.403,77.208 L627.403,147.142 C627.403,158.124 622.031,167.027 615.403,167.027 L528.403,167.027 C521.776,167.027 516.403,158.124 516.403,147.142 L516.403,77.208 C516.403,66.226 521.776,57.323 528.403,57.323 z" fill="#ACC6E9"/>
      <path d="M528.403,57.323 L615.403,57.323 C622.031,57.323 627.403,66.226 627.403,77.208 L627.403,147.142 C627.403,158.124 622.031,167.027 615.403,167.027 L528.403,167.027 C521.776,167.027 516.403,158.124 516.403,147.142 L516.403,77.208 C516.403,66.226 521.776,57.323 528.403,57.323 z" fill-opacity="0" stroke="#6B6F94" stroke-width="1"/>
    </g>
    <g>
      <path d="M524.303,60.823 L611.303,60.823 C617.931,60.823 623.303,69.807 623.303,80.889 L623.303,151.46 C623.303,162.543 617.931,171.527 611.303,171.527 L524.303,171.527 C517.676,171.527 512.303,162.543 512.303,151.46 L512.303,80.889 C512.303,69.807 517.676,60.823 524.303,60.823 z" fill="#ACC6E9"/>
      <path d="M524.303,60.823 L611.303,60.823 C617.931,60.823 623.303,69.807 623.303,80.889 L623.303,151.46 C623.303,162.543 617.931,171.527 611.303,171.527 L524.303,171.527 C517.676,171.527 512.303,162.543 512.303,151.46 L512.303,80.889 C512.303,69.807 517.676,60.823 524.303,60.823 z" fill-opacity="0" stroke="#6B6F94" stroke-width="1"/>
    </g>
    <g>
      <path d="M519.642,64.559 L606.642,64.559 C613.27,64.559 618.642,73.442 618.642,84.399 L618.642,154.174 C618.642,165.131 613.27,174.014 606.642,174.014 L519.642,174.014 C513.015,174.014 507.642,165.131 507.642,154.174 L507.642,84.399 C507.642,73.442 513.015,64.559 519.642,64.559 z" fill="#ACC6E9"/>
      <path d="M519.642,64.559 L606.642,64.559 C613.27,64.559 618.642,73.442 618.642,84.399 L618.642,154.174 C618.642,165.131 613.27,174.014 606.642,174.014 L519.642,174.014 C513.015,174.014 507.642,165.131 507.642,154.174 L507.642,84.399 C507.642,73.442 513.015,64.559 519.642,64.559 z" fill-opacity="0" stroke="#6B6F94" stroke-width="1"/>
    </g>
    <text transform="matrix(1, 0, 0, 1, 564.572, 95.303)">
      <tspan x="-14.865" y="-12" font-family="Arial-BoldMT" font-size="15" fill="#000000">Test </tspan>
      <tspan x="-26.667" y="5" font-family="Arial-BoldMT" font-size="15" fill="#000000">identity </tspan>
      <tspan x="-34.178" y="22" font-family="Arial-BoldMT" font-size="15" fill="#000000">providers</tspan>
    </text>
    <g>
      <g>
        <path d="M343.767,69.303 L426.767,69.303 C433.394,69.303 438.767,74.676 438.767,81.303 L438.767,123.303 C438.767,129.93 433.394,135.303 426.767,135.303 L343.767,135.303 C337.139,135.303 331.767,129.93 331.767,123.303 L331.767,81.303 C331.767,74.676 337.139,69.303 343.767,69.303 z" fill="#81A9DA"/>
        <path d="M343.767,69.303 L426.767,69.303 C433.394,69.303 438.767,74.676 438.767,81.303 L438.767,123.303 C438.767,129.93 433.394,135.303 426.767,135.303 L343.767,135.303 C337.139,135.303 331.767,129.93 331.767,123.303 L331.767,81.303 C331.767,74.676 337.139,69.303 343.767,69.303 z" fill-opacity="0" stroke="#5E6873" stroke-width="1"/>
      </g>
      <text transform="matrix(1, 0, 0, 1, 385.267, 102.303)">
        <tspan x="-28.898" y="-3.5" font-family="Arial-BoldMT" font-size="15" fill="#000000">GOV.UK</tspan>
        <tspan x="-36.259" y="13.5" font-family="Arial-BoldMT" font-size="15" fill="#000000">Verify hub</tspan>
      </text>
    </g>
    <g>
      <g>
        <path d="M80.166,177.858 L214.912,177.774 C220.529,177.771 225.084,182.001 225.088,187.223 L225.11,222.681 C225.113,227.903 220.563,232.14 214.946,232.143 L80.2,232.228 C74.584,232.231 70.028,228.001 70.025,222.778 L70.003,187.32 C70,182.098 74.55,177.862 80.166,177.858 z" fill="#9B9B9B"/>
        <path d="M80.166,177.858 L214.912,177.774 C220.529,177.771 225.084,182.001 225.088,187.223 L225.11,222.681 C225.113,227.903 220.563,232.14 214.946,232.143 L80.2,232.228 C74.584,232.231 70.028,228.001 70.025,222.778 L70.003,187.32 C70,182.098 74.55,177.862 80.166,177.858 z" fill-opacity="0" stroke="#4F4F4F" stroke-width="1"/>
      </g>
      <text transform="matrix(1, 0, 0, 1, 147.556, 205.001)">
        <tspan x="-61.688" y="-4.322" font-family="Arial-BoldMT" font-size="15" fill="#000000">Matching Service </tspan>
        <tspan x="-28.337" y="12.678" font-family="Arial-BoldMT" font-size="15" fill="#000000">Adapter</tspan>
      </text>
    </g>
    <g>
      <g>
        <path d="M70.556,47.803 L224.556,47.803 C231.184,47.803 236.556,53.176 236.556,59.803 L236.556,144.803 C236.556,151.43 231.184,156.803 224.556,156.803 L70.556,156.803 C63.929,156.803 58.556,151.43 58.556,144.803 L58.556,59.803 C58.556,53.176 63.929,47.803 70.556,47.803 z" fill="#A79E9E"/>
        <path d="M70.556,47.803 L224.556,47.803 C231.184,47.803 236.556,53.176 236.556,59.803 L236.556,144.803 C236.556,151.43 231.184,156.803 224.556,156.803 L70.556,156.803 C63.929,156.803 58.556,151.43 58.556,144.803 L58.556,59.803 C58.556,53.176 63.929,47.803 70.556,47.803 z" fill-opacity="0" stroke="#3E3D3D" stroke-width="1"/>
      </g>
      <text transform="matrix(1, 0, 0, 1, 147.556, 102.303)">
        <tspan x="-44.176" y="-7" font-family="Arial-BoldMT" font-size="15" fill="#000000">Government </tspan>
        <tspan x="-25.858" y="10" font-family="Arial-BoldMT" font-size="15" fill="#000000">service</tspan>
      </text>
    </g>
    <g>
      <g>
        <path d="M80.186,265.228 L214.927,265.228 C220.543,265.228 225.096,269.542 225.096,274.864 L225.096,311 C225.096,316.322 220.543,320.637 214.927,320.637 L80.186,320.637 C74.569,320.637 70.017,316.322 70.017,311 L70.017,274.864 C70.017,269.542 74.569,265.228 80.186,265.228 z" fill="#9B9B9B"/>
        <path d="M80.186,265.228 L214.927,265.228 C220.543,265.228 225.096,269.542 225.096,274.864 L225.096,311 C225.096,316.322 220.543,320.637 214.927,320.637 L80.186,320.637 C74.569,320.637 70.017,316.322 70.017,311 L70.017,274.864 C70.017,269.542 74.569,265.228 80.186,265.228 z" fill-opacity="0" stroke="#4F4F4F" stroke-width="1"/>
      </g>
      <text transform="matrix(1, 0, 0, 1, 147.556, 292.932)">
        <tspan x="-55.009" y="-4" font-family="Arial-BoldMT" font-size="15" fill="#000000">Local matching </tspan>
        <tspan x="-25.858" y="13" font-family="Arial-BoldMT" font-size="15" fill="#000000">service</tspan>
      </text>
    </g>
    <text transform="matrix(1, 0, 0, 1, 99.9, 340.365)">
      <tspan x="-41.016" y="-3.5" font-family="ArialMT" font-size="12" fill="#000000">Match test user</tspan>
      <tspan x="-37.685" y="10.5" font-family="ArialMT" font-size="12" fill="#000000">to local record</tspan>
    </text>
    <text transform="matrix(1, 0, 0, 1, 152.878, 31.196)">
      <tspan x="-62.783" y="6.107" font-family="Arial-BoldMT" font-size="22" fill="#000000">Test service</tspan>
    </text>
    <g>
      <path d="M237.355,81.145 L320.899,81.145" fill-opacity="0" stroke="#0041C7" stroke-width="1" stroke-linecap="round"/>
      <path d="M320.899,84.145 L328.899,81.145 L320.899,78.145 z" fill-opacity="0" stroke="#0041C7" stroke-width="1" stroke-opacity="1"/>
    </g>
    <g>
      <path d="M329.243,119.898 L247.01,119.898" fill-opacity="0" stroke="#0041C7" stroke-width="1" stroke-linecap="round"/>
      <path d="M247.01,116.898 L239.01,119.898 L247.01,122.898 z" fill-opacity="0" stroke="#0041C7" stroke-width="1" stroke-opacity="1"/>
    </g>
    <path d="M326.767,119.898 L367.841,119.898" fill-opacity="0" stroke="#0041C7" stroke-width="1" stroke-dasharray="6,5" stroke-linecap="round"/>
    <path d="M405.55,134.861 L405.55,118.888" fill-opacity="0" stroke="#0041C7" stroke-width="1.04" stroke-dasharray="4.16,4.16" stroke-linecap="round" id="path44055"/>
    <path d="M437.272,118.888 L405.55,118.888" fill-opacity="0" stroke="#0041C7" stroke-width="1.04" stroke-dasharray="4.16,4.16" stroke-linecap="round" id="path44057"/>
    <path d="M367.841,135.942 L367.841,119.969" fill-opacity="0" stroke="#0041C7" stroke-width="1.04" stroke-dasharray="4.16,4.16" stroke-linecap="round" id="path44055"/>
    <path d="M331.767,81.145 L438.767,81.145" fill-opacity="0" stroke="#0041C7" stroke-width="1" stroke-dasharray="6,5" stroke-linecap="round"/>
    <g>
      <path d="M367.841,191.88 L367.841,144.303" fill-opacity="0" stroke="#0041C7" stroke-width="1" stroke-linecap="round"/>
      <path d="M370.841,144.303 L367.841,136.303 L364.841,144.303 z" fill-opacity="0" stroke="#0041C7" stroke-width="1" stroke-opacity="1"/>
    </g>
    <g>
      <path d="M386.692,386.544 L415.409,386.544" fill-opacity="0" stroke="#BDECF8" stroke-width="1" stroke-linecap="round"/>
      <path d="M415.409,389.544 L423.409,386.544 L415.409,383.544 z" fill="#BDECF8" fill-opacity="1" stroke="#BDECF8" stroke-width="1" stroke-opacity="1"/>
    </g>
    <g>
      <path d="M386.692,370.514 L415.409,370.514" fill-opacity="0" stroke="#0041C7" stroke-width="1" stroke-linecap="round"/>
      <path d="M415.409,373.514 L423.409,370.514 L415.409,367.514 z" fill-opacity="0" stroke="#0041C7" stroke-width="1" stroke-opacity="1"/>
    </g>
    <g>
      <g>
        <path d="M524.232,131.094 L604.912,131.094 C609.236,131.094 612.741,134.728 612.741,139.21 L612.741,151.382 C612.741,155.864 609.236,159.498 604.912,159.498 L524.232,159.498 C519.908,159.498 516.403,155.864 516.403,151.382 L516.403,139.21 C516.403,134.728 519.908,131.094 524.232,131.094 z" fill="#A3ABD0"/>
        <path d="M524.232,131.094 L604.912,131.094 C609.236,131.094 612.741,134.728 612.741,139.21 L612.741,151.382 C612.741,155.864 609.236,159.498 604.912,159.498 L524.232,159.498 C519.908,159.498 516.403,155.864 516.403,151.382 L516.403,139.21 C516.403,134.728 519.908,131.094 524.232,131.094 z" fill-opacity="0" stroke="#7874A0" stroke-width="1"/>
      </g>
      <g>
        <path d="M564.572,136.157 C539.936,136.157 519.964,134.477 519.964,132.405 C519.964,130.333 539.936,128.653 564.572,128.653 C589.208,128.653 609.18,130.333 609.18,132.405 C609.18,134.477 589.208,136.157 564.572,136.157 z" fill="#A3ABD0"/>
        <path d="M564.572,136.157 C539.936,136.157 519.964,134.477 519.964,132.405 C519.964,130.333 539.936,128.653 564.572,128.653 C589.208,128.653 609.18,130.333 609.18,132.405 C609.18,134.477 589.208,136.157 564.572,136.157 z" fill-opacity="0" stroke="#7874A0" stroke-width="1"/>
      </g>
      <path d="M564.572,161.825 C539.936,161.825 519.964,160.146 519.964,158.073 C519.964,156.001 539.936,154.322 564.572,154.322 C589.208,154.322 609.18,156.001 609.18,158.073 C609.18,160.146 589.208,161.825 564.572,161.825 z" fill="#A3ABD0"/>
      <path d="M609.382,157.986 C601.815,164.028 522.569,162.677 519.761,157.987" fill-opacity="0" stroke="#7874A0" stroke-width="1"/>
    </g>
    <text transform="matrix(1, 0, 0, 1, 564.572, 148.34)">
      <tspan x="-36.962" y="3.933" font-family="Arial-BoldMT" font-size="15" fill="#000000">Test users</tspan>
    </text>
    <g>
      <path d="M507.642,118.888 L447.767,118.888" fill-opacity="0" stroke="#0041C7" stroke-width="1" stroke-linecap="round"/>
      <path d="M447.767,115.888 L439.767,118.888 L447.767,121.888 z" fill-opacity="0" stroke="#0041C7" stroke-width="1" stroke-opacity="1"/>
    </g>
    <g>
      <path d="M161.6,233.114 L161.6,255.647" fill-opacity="0" stroke="#BEF0FC" stroke-width="1" stroke-linecap="round"/>
      <path d="M158.6,255.647 L161.6,263.647 L164.6,255.647 z" fill="#BEF0FC" fill-opacity="1" stroke="#BEF0FC" stroke-width="1" stroke-opacity="1"/>
    </g>
    <g>
      <path d="M147.556,264.341 L147.556,241.228" fill-opacity="0" stroke="#BEF0FC" stroke-width="1" stroke-linecap="round"/>
      <path d="M150.556,241.228 L147.556,233.228 L144.556,241.228 z" fill="#BEF0FC" fill-opacity="1" stroke="#BEF0FC" stroke-width="1" stroke-opacity="1"/>
    </g>
    <text transform="matrix(1, 0, 0, 1, 93.053, 248.728)">
      <tspan x="-48.191" y="-3.5" font-family="ArialMT" font-size="12" fill="#000000">JSON response: </tspan>
      <tspan x="-48.191" y="10.5" font-family="ArialMT" font-size="12" fill="#000000">match / no-match </tspan>
    </text>
    <g>
      <path d="M405.55,220.725 L234.615,220.725" fill-opacity="0" stroke="#0041C7" stroke-width="1" stroke-linecap="round"/>
      <path d="M234.615,217.725 L226.615,220.725 L234.615,223.725 z" fill-opacity="0" stroke="#0041C7" stroke-width="1" stroke-opacity="1"/>
    </g>
    <path d="M225.615,191.88 L367.841,191.88" fill-opacity="0" stroke="#0041C7" stroke-width="1" stroke-linecap="round" id="path43991"/>
    <text transform="matrix(1, 0, 0, 1, 457.577, 31.196)">
      <tspan x="-125.898" y="6.107" font-family="Arial-BoldMT" font-size="22" fill="#000000">Integration environment</tspan>
    </text>
    <g>
      <path d="M161.6,321.032 L161.6,347.282" fill-opacity="0" stroke="#BEF0FC" stroke-width="1" stroke-linecap="round"/>
      <path d="M158.6,347.282 L161.6,355.282 L164.6,347.282 z" fill="#BEF0FC" fill-opacity="1" stroke="#BEF0FC" stroke-width="1" stroke-opacity="1"/>
    </g>
    <g>
      <path d="M147.556,355.552 L147.556,330.504" fill-opacity="0" stroke="#BEF0FC" stroke-width="1" stroke-linecap="round"/>
      <path d="M150.556,330.504 L147.556,322.504 L144.556,330.504 z" fill="#BEF0FC" fill-opacity="1" stroke="#BEF0FC" stroke-width="1" stroke-opacity="1"/>
    </g>
  </g>
</svg>
