<!DOCTYPE svg PUBLIC "-//W3C//DTD SVG 1.1//EN" "http://www.w3.org/Graphics/SVG/1.1/DTD/svg11.dtd">
<svg xmlns="http://www.w3.org/2000/svg" xmlns:xlink="http://www.w3.org/1999/xlink" width="811px" height="731px" version="1.1"><defs/><g transform="translate(0.5,0.5)"><rect x="650" y="170" width="160" height="170" fill="#ffffff" stroke="#000000" pointer-events="none"/><rect x="0" y="0" width="280" height="730" fill="#e6e6e6" stroke="none" pointer-events="none"/><rect x="50" y="230" width="180" height="340" fill="#ffffff" stroke="#1a1a1a" pointer-events="none"/><g fill="#333333" font-family="Helvetica" text-anchor="middle" font-size="18px"><text x="139.5" y="267.5">Matching service</text></g><rect x="390" y="425" width="340" height="145" fill="none" stroke="#000000" pointer-events="none"/><rect x="360" y="120" width="160" height="250" fill="none" stroke="#000000" pointer-events="none"/><g fill="#000000" font-family="Helvetica" text-anchor="middle" font-size="18px"><text x="439.5" y="240.5">GOV.UK </text><text x="439.5" y="262.5">Verify hub</text></g><rect x="70" y="112" width="140" height="90" fill="#ffffff" stroke="#000000" pointer-events="none"/><g fill="#000000" font-family="Helvetica" text-anchor="middle" font-size="18px"><text x="139.5" y="152.5">Government </text><text x="139.5" y="174.5"> service</text></g><rect x="640" y="160" width="160" height="170" fill="#ffffff" stroke="#000000" pointer-events="none"/><g fill="#000000" font-family="Helvetica" text-anchor="middle" font-size="18px"><text x="719.5" y="201.5">Test identity </text><text x="719.5" y="223.5">providers</text></g><rect x="70" y="290" width="140" height="90" fill="#ffffff" stroke="#000000" pointer-events="none"/><g fill="#000000" font-family="Helvetica" text-anchor="middle" font-size="18px"><text x="139.5" y="319.5">Matching</text><text x="139.5" y="341.5">Service</text><text x="139.5" y="363.5">Adapter</text></g><rect x="70" y="450" width="140" height="90" fill="#ffffff" stroke="#000000" pointer-events="none"/><g fill="#000000" font-family="Helvetica" text-anchor="middle" font-size="18px"><text x="139.5" y="479.5">Local</text><text x="139.5" y="501.5">matching</text><text x="139.5" y="523.5">service</text></g><rect x="70" y="600" width="140" height="90" fill="#ffffff" stroke="#000000" pointer-events="none"/><g fill="#000000" font-family="Helvetica" text-anchor="middle" font-size="18px"><text x="139.5" y="651.5">Datastore</text></g><path d="M 175 380 L 175 433.76" fill="none" stroke="#000000" stroke-width="2" stroke-miterlimit="10" stroke-dasharray="6 6" pointer-events="none"/><path d="M 175 447.76 L 170.33 433.76 L 179.67 433.76 Z" fill="#000000" stroke="#000000" stroke-width="2" stroke-miterlimit="10" pointer-events="none"/><path d="M 175 540 L 175 583.76" fill="none" stroke="#000000" stroke-width="2" stroke-miterlimit="10" stroke-dasharray="6 6" pointer-events="none"/><path d="M 175 597.76 L 170.33 583.76 L 179.67 583.76 Z" fill="#000000" stroke="#000000" stroke-width="2" stroke-miterlimit="10" pointer-events="none"/><path d="M 105 600 L 105 556.24" fill="none" stroke="#000000" stroke-width="2" stroke-miterlimit="10" stroke-dasharray="6 6" pointer-events="none"/><path d="M 105 542.24 L 109.67 556.24 L 100.33 556.24 Z" fill="#000000" stroke="#000000" stroke-width="2" stroke-miterlimit="10" pointer-events="none"/><path d="M 105 450 L 105 396.24" fill="none" stroke="#000000" stroke-width="2" stroke-miterlimit="10" stroke-dasharray="6 6" pointer-events="none"/><path d="M 105 382.24 L 109.67 396.24 L 100.33 396.24 Z" fill="#000000" stroke="#000000" stroke-width="2" stroke-miterlimit="10" pointer-events="none"/><path d="M 250 310 L 210 310 L 380 310 L 380 180 L 226.24 180" fill="none" stroke="#000000" stroke-width="2" stroke-miterlimit="10" pointer-events="none"/><path d="M 212.24 180 L 226.24 175.33 L 226.24 184.67 Z" fill="#000000" stroke="#000000" stroke-width="2" stroke-miterlimit="10" pointer-events="none"/><path d="M 210 137 L 500 137 L 500 220 L 623.76 220" fill="none" stroke="#000000" stroke-width="2" stroke-miterlimit="10" pointer-events="none"/><path d="M 637.76 220 L 623.76 224.67 L 623.76 215.33 Z" fill="#000000" stroke="#000000" stroke-width="2" stroke-miterlimit="10" pointer-events="none"/><g fill="#000000" font-family="Helvetica" font-weight="bold" text-anchor="middle" font-size="18px"><text x="137.5" y="56.5">Test service</text></g><path d="M 510 468 L 563.76 468" fill="none" stroke="#000000" stroke-width="2" stroke-miterlimit="10" pointer-events="none"/><path d="M 577.76 468 L 563.76 472.67 L 563.76 463.33 Z" fill="#000000" stroke="#000000" stroke-width="2" stroke-miterlimit="10" pointer-events="none"/><g fill="#000000" font-family="Helvetica" font-size="18px"><text x="601.5" y="474.5">SAML (PKI)</text></g><path d="M 510 518 L 563.76 518" fill="none" stroke="#000000" stroke-width="2" stroke-miterlimit="10" stroke-dasharray="6 6" pointer-events="none"/><path d="M 577.76 518 L 563.76 522.67 L 563.76 513.33 Z" fill="#000000" stroke="#000000" stroke-width="2" stroke-miterlimit="10" pointer-events="none"/><g fill="#000000" font-family="Helvetica" font-size="18px"><text x="601.5" y="523.5">Non-SAML</text></g><g fill="#000000" font-family="Helvetica" font-weight="bold" text-anchor="middle" font-size="18px"><text x="449.5" y="474.5">Key</text></g><path d="M 640 260 L 500 260 L 500 350 L 226.24 350" fill="none" stroke="#000000" stroke-width="2" stroke-miterlimit="10" pointer-events="none"/><path d="M 212.24 350 L 226.24 345.33 L 226.24 354.67 Z" fill="#000000" stroke="#000000" stroke-width="2" stroke-miterlimit="10" pointer-events="none"/><rect x="660" y="250" width="120" height="60" fill="none" stroke="#1a1a1a" pointer-events="none"/><g fill="#000000" font-family="Helvetica" text-anchor="middle" font-size="18px"><text x="719.5" y="286.5">Test users</text></g><g fill="#000000" font-family="Helvetica" font-weight="bold" text-anchor="middle" font-size="18px"><text x="569.5" y="56.5">Integration environment</text></g></g></svg>