<?xml version="1.0" encoding="UTF-8"?>
<!DOCTYPE svg PUBLIC "-//W3C//DTD SVG 1.1//EN" "http://www.w3.org/Graphics/SVG/1.1/DTD/svg11.dtd">
<svg version="1.1" xmlns="http://www.w3.org/2000/svg" xmlns:xlink="http://www.w3.org/1999/xlink" x="0" y="0" width="300" height="150" viewBox="0, 0, 300, 150">
  <g id="Layer_1">
    <g id="rect43929">
      <path d="M54.648,17.029 L245.027,17.029 C249.705,17.029 253.498,20.867 253.498,25.602 L253.498,117.927 C253.498,122.662 249.705,126.5 245.027,126.5 L54.648,126.5 C49.969,126.5 46.177,122.662 46.177,117.927 L46.177,25.602 C46.177,20.867 49.969,17.029 54.648,17.029 z" fill="#A7A9AB"/>
      <path d="M54.648,17.029 L245.027,17.029 C249.705,17.029 253.498,20.867 253.498,25.602 L253.498,117.927 C253.498,122.662 249.705,126.5 245.027,126.5 L54.648,126.5 C49.969,126.5 46.177,122.662 46.177,117.927 L46.177,25.602 C46.177,20.867 49.969,17.029 54.648,17.029 z" fill-opacity="0" stroke="#6E757E" stroke-width="0.644" stroke-linecap="round" stroke-linejoin="round"/>
    </g>
    <g>
      <path d="M108.557,16.722 L243.302,16.637 C248.919,16.634 253.475,20.864 253.478,26.087 L253.5,61.545 C253.503,66.767 248.953,71.003 243.336,71.007 L108.591,71.091 C102.974,71.095 98.418,66.864 98.415,61.642 L98.393,26.184 C98.39,20.962 102.94,16.725 108.557,16.722 z" fill="#9B9B9B"/>
      <path d="M108.557,16.722 L243.302,16.637 C248.919,16.634 253.475,20.864 253.478,26.087 L253.5,61.545 C253.503,66.767 248.953,71.003 243.336,71.007 L108.591,71.091 C102.974,71.095 98.418,66.864 98.415,61.642 L98.393,26.184 C98.39,20.962 102.94,16.725 108.557,16.722 z" fill-opacity="0" stroke="#4F4F4F" stroke-width="1"/>
    </g>
    <g>
      <path d="M108.588,71.091 L243.329,71.091 C248.945,71.091 253.498,75.405 253.498,80.727 L253.498,116.864 C253.498,122.186 248.945,126.5 243.329,126.5 L108.588,126.5 C102.972,126.5 98.419,122.186 98.419,116.864 L98.419,80.727 C98.419,75.405 102.972,71.091 108.588,71.091 z" fill="#9B9B9B"/>
      <path d="M108.588,71.091 L243.329,71.091 C248.945,71.091 253.498,75.405 253.498,80.727 L253.498,116.864 C253.498,122.186 248.945,126.5 243.329,126.5 L108.588,126.5 C102.972,126.5 98.419,122.186 98.419,116.864 L98.419,80.727 C98.419,75.405 102.972,71.091 108.588,71.091 z" fill-opacity="0" stroke="#4F4F4F" stroke-width="1"/>
    </g>
    <text transform="matrix(1, 0, 0, 1, 176.588, 44.114)">
      <tspan x="-61.688" y="-4.322" font-family="Arial-BoldMT" font-size="15" fill="#000000">Matching Service </tspan>
      <tspan x="-28.337" y="12.678" font-family="Arial-BoldMT" font-size="15" fill="#000000">Adapter</tspan>
    </text>
    <text transform="matrix(1, 0, 0, 1, 175.458, 99.546)">
      <tspan x="-55.009" y="-4" font-family="Arial-BoldMT" font-size="15" fill="#000000">Local matching </tspan>
      <tspan x="-25.858" y="13" font-family="Arial-BoldMT" font-size="15" fill="#000000">service</tspan>
    </text>
    <text transform="matrix(-0, -1, 1, -0, 76.001, 69.483)">
      <tspan x="-32.915" y="-7.917" font-family="Arial-BoldMT" font-size="15" fill="#000000">Matching </tspan>
      <tspan x="-25.858" y="9.083" font-family="Arial-BoldMT" font-size="15" fill="#000000">service</tspan>
    </text>
  </g>
</svg>
