<?xml version="1.0" encoding="UTF-8"?>
<!DOCTYPE svg PUBLIC "-//W3C//DTD SVG 1.1//EN" "http://www.w3.org/Graphics/SVG/1.1/DTD/svg11.dtd">
<svg version="1.1" xmlns="http://www.w3.org/2000/svg" xmlns:xlink="http://www.w3.org/1999/xlink" x="0" y="0" width="920" height="390" viewBox="0, 0, 920, 390">
  <g id="Layer_1">
    <g id="g4172">
      <g id="rect9754">
        <path d="M311.16,8.059 L528.54,8.059 C542.434,8.059 553.698,15.695 553.698,25.114 L553.698,99.887 C553.698,109.306 542.434,116.941 528.54,116.941 L311.16,116.941 C297.265,116.941 286.002,109.306 286.002,99.887 L286.002,25.114 C286.002,15.695 297.265,8.059 311.16,8.059 z" fill="#81A9DA" fill-opacity="0.627"/>
        <path d="M311.16,8.059 L528.54,8.059 C542.434,8.059 553.698,15.695 553.698,25.114 L553.698,99.887 C553.698,109.306 542.434,116.941 528.54,116.941 L311.16,116.941 C297.265,116.941 286.002,109.306 286.002,99.887 L286.002,25.114 C286.002,15.695 297.265,8.059 311.16,8.059 z" fill-opacity="0" stroke="#535353" stroke-width="0.901" stroke-opacity="0.392" stroke-linecap="round" stroke-linejoin="round"/>
      </g>
      <g id="rect9756">
        <path d="M307.205,3.007 L527.372,3.007 C541.445,3.007 552.853,10.762 552.853,20.327 L552.853,96.264 C552.853,105.829 541.445,113.584 527.372,113.584 L307.205,113.584 C293.133,113.584 281.724,105.829 281.724,96.264 L281.724,20.327 C281.724,10.762 293.133,3.007 307.205,3.007 z" fill="#81A9DA"/>
        <path d="M307.205,3.007 L527.372,3.007 C541.445,3.007 552.853,10.762 552.853,20.327 L552.853,96.264 C552.853,105.829 541.445,113.584 527.372,113.584 L307.205,113.584 C293.133,113.584 281.724,105.829 281.724,96.264 L281.724,20.327 C281.724,10.762 293.133,3.007 307.205,3.007 z" fill-opacity="0" stroke="#535353" stroke-width="0.41" stroke-linecap="round" stroke-linejoin="round"/>
      </g>
    </g>
    <g id="rect6346">
      <path d="M331.61,299.611 L524.706,299.611 C531.114,299.611 536.308,302.09 536.308,305.147 L536.308,364.758 C536.308,367.815 531.114,370.293 524.706,370.293 L331.61,370.293 C325.202,370.293 320.007,367.815 320.007,364.758 L320.007,305.147 C320.007,302.09 325.202,299.611 331.61,299.611 z" fill="#CCCCCC"/>
      <path d="M331.61,299.611 L524.706,299.611 C531.114,299.611 536.308,302.09 536.308,305.147 L536.308,364.758 C536.308,367.815 531.114,370.293 524.706,370.293 L331.61,370.293 C325.202,370.293 320.007,367.815 320.007,364.758 L320.007,305.147 C320.007,302.09 325.202,299.611 331.61,299.611 z" fill-opacity="0" stroke="#6E9217" stroke-width="0.6" stroke-opacity="0.3" stroke-linecap="round" stroke-linejoin="round"/>
    </g>
    <g id="rect6348">
      <path d="M296.314,280.396 L539.109,280.396 C547.166,280.396 553.698,283.663 553.698,287.693 L553.698,366.278 C553.698,370.308 547.166,373.576 539.109,373.576 L296.314,373.576 C288.256,373.576 281.724,370.308 281.724,366.278 L281.724,287.693 C281.724,283.663 288.256,280.396 296.314,280.396 z" fill="#9B9B9B"/>
      <path d="M296.314,280.396 L539.109,280.396 C547.166,280.396 553.698,283.663 553.698,287.693 L553.698,366.278 C553.698,370.308 547.166,373.576 539.109,373.576 L296.314,373.576 C288.256,373.576 281.724,370.308 281.724,366.278 L281.724,287.693 C281.724,283.663 288.256,280.396 296.314,280.396 z" fill-opacity="0" stroke="#242424" stroke-width="0.738" stroke-linecap="round" stroke-linejoin="round"/>
    </g>
    <path d="M506.587,183.043 C503.099,182.228 500.801,179.622 500.252,175.858 C499.814,172.852 500.667,170.249 503.292,166.581 C505.961,162.852 507.866,159.107 508.1,157.13 L508.215,156.159 L506.467,156.158 C505.506,156.158 504.396,156.067 504.001,155.958 C502.769,155.615 501.402,153.946 500.639,151.854 C500.051,150.242 500.065,147.236 500.668,145.691 C501.703,143.035 503.659,141.003 506.15,139.998 L507.276,139.543 L521.101,139.485 C529.344,139.451 535.484,139.504 536.308,139.619 C541.302,140.311 544.711,144.707 544.252,149.863 C543.726,155.783 540.635,161.76 535.226,167.319 L534.03,168.548 L537.666,168.548 C542.126,168.548 542.351,168.627 543.317,170.533 C545.017,173.884 544.447,177.564 541.833,180.118 C541.207,180.73 540.166,181.51 539.52,181.851 C537.111,183.124 537.625,183.084 521.947,183.195 C510.727,183.274 507.437,183.241 506.587,183.043 z M530.202,180.049 C528.344,178.311 527.329,175.485 527.784,173.317 C528.204,171.312 528.822,170.383 531.607,167.562 C535.807,163.309 537.996,160.385 539.924,156.454 C541.426,153.393 542.023,151.243 542.056,148.785 C542.079,146.971 542.036,146.73 541.503,145.676 C540.398,143.496 538.658,142.376 536.164,142.239 C533.813,142.11 532.533,142.53 531.243,143.855 C529.948,145.185 529.517,146.398 529.527,148.687 C529.535,150.561 529.913,152.093 530.803,153.855 C531.482,155.201 531.474,155.79 530.774,155.984 C530.504,156.059 525.836,156.129 520.402,156.139 L510.52,156.159 L510.52,156.605 C510.52,158.581 508.404,163.184 505.754,166.974 C503.34,170.427 502.932,171.152 502.54,172.679 C501.664,176.099 503.452,179.482 506.761,180.664 C507.312,180.861 510.147,180.921 519.312,180.927 L531.151,180.936 L530.202,180.049 z M506.208,174.693 C506.216,174.611 506.555,174.014 506.962,173.365 L507.701,172.185 L516.568,172.134 L525.435,172.083 L524.811,173.46 L524.187,174.838 L515.19,174.839 C510.242,174.839 506.2,174.773 506.208,174.692 z M509.34,168.653 C509.34,168.602 509.658,167.983 510.047,167.276 L510.753,165.991 L519.488,165.991 L528.223,165.991 L527.53,167.368 L526.837,168.744 L518.089,168.744 C513.277,168.744 509.34,168.703 509.34,168.653 z M512.568,161.419 L513.217,159.994 L521.995,159.942 C526.824,159.914 530.774,159.935 530.774,159.99 C530.774,160.044 530.497,160.709 530.158,161.467 L529.542,162.845 L520.731,162.845 L511.92,162.845 L512.568,161.419 z M538.488,179.907 C539.597,179.439 540.878,178.111 541.445,176.841 C542.064,175.456 542.15,173.014 541.624,171.823 L541.219,170.907 L536.604,170.907 L531.989,170.907 L531.45,171.546 C530.684,172.455 530.381,173.294 530.381,174.504 C530.381,176.034 530.874,177.258 531.974,178.462 C533.788,180.447 536.026,180.943 538.488,179.907 z M528.127,153.455 C527.49,151.804 527.15,149.986 527.144,148.195 C527.137,146.384 527.186,146.124 527.764,144.903 C528.132,144.128 528.801,143.169 529.377,142.592 L530.362,141.607 L519.072,141.607 C508.102,141.607 507.751,141.619 506.684,142.018 C505.355,142.515 503.76,144.017 503.048,145.442 C502.614,146.31 502.557,146.667 502.568,148.49 C502.58,150.657 502.927,151.934 503.858,153.242 L504.254,153.799 L516.257,153.799 C527.608,153.799 528.253,153.781 528.127,153.455 z" fill="#000000" id="path25051"/>
    <path d="M367.531,211.947 C367.465,211.836 366.864,211.044 366.196,210.185 C365.361,209.11 364.979,208.555 364.971,208.401 C364.965,208.279 364.955,202.984 364.949,196.635 L364.94,185.092 L362.975,185.091 C361.89,185.091 360.884,185.054 360.727,185.008 C360.36,184.902 360.053,184.626 359.843,184.213 C359.69,183.914 359.674,183.742 359.674,182.382 L359.674,180.882 L359.451,180.831 C358.726,180.662 358.105,180.462 357.586,180.229 C357.262,180.084 356.974,179.988 356.946,180.016 C356.777,180.185 357.527,181.394 358.213,182.057 L358.685,182.514 L358.714,183.418 C358.74,184.207 358.772,184.38 358.967,184.779 C359.254,185.363 359.765,185.833 360.352,186.053 C360.767,186.208 360.979,186.226 362.431,186.226 L364.049,186.226 L364.049,186.837 L364.049,187.449 L363.783,187.56 C363.223,187.794 362.164,187.936 361.173,187.911 L360.201,187.886 L359.431,189.432 C359.008,190.283 358.235,191.85 357.714,192.916 C356.03,196.361 354.486,199.522 353.881,200.766 C350.62,207.477 350.56,207.59 350.147,207.852 C349.521,208.249 349.112,208.207 347.999,207.632 C347.193,207.214 347.079,207.128 346.906,206.803 C346.64,206.301 346.652,205.816 346.947,205.169 C347.076,204.886 347.663,203.67 348.252,202.467 C348.841,201.265 349.625,199.661 349.993,198.903 C350.362,198.146 351.164,196.505 351.775,195.258 C352.387,194.01 353.117,192.516 353.396,191.937 C353.676,191.357 354.438,189.795 355.089,188.465 C355.739,187.135 356.271,186.024 356.271,185.995 C356.27,185.966 356.102,185.76 355.897,185.537 C354.272,183.766 353.586,181.259 354.092,178.935 C354.184,178.512 354.276,178.093 354.296,178.003 C354.32,177.896 354.166,177.61 353.836,177.153 C353.562,176.774 353.244,176.282 353.128,176.059 C350.804,171.59 351.972,166.109 355.864,163.226 C357.385,162.1 359.337,161.438 361.138,161.438 C361.84,161.438 363.177,161.66 363.853,161.89 C366.71,162.86 369.08,165.396 369.915,168.377 C370.198,169.389 370.282,170.045 370.284,171.251 C370.285,172.061 370.31,172.284 370.401,172.319 C370.465,172.344 371.471,172.367 372.637,172.371 C374.219,172.376 374.823,172.406 375.019,172.487 C375.397,172.645 375.775,173.144 375.879,173.624 C375.939,173.904 375.959,175.597 375.942,178.975 L375.916,183.917 L375.694,184.295 C375.572,184.502 375.335,184.758 375.167,184.862 C374.872,185.046 374.802,185.052 372.736,185.076 L370.61,185.101 L370.61,186.617 L370.61,188.132 L369.754,188.981 C368.789,189.938 368.566,190.289 368.566,190.855 C368.566,191.392 368.814,191.773 369.794,192.745 C370.559,193.503 370.61,193.574 370.609,193.879 C370.609,194.182 370.555,194.259 369.843,194.974 C369.037,195.783 368.828,196.135 368.828,196.68 C368.828,197.192 368.997,197.47 369.831,198.329 L370.61,199.132 L370.61,199.753 L370.61,200.374 L369.796,201.178 C368.814,202.146 368.566,202.526 368.566,203.063 C368.566,203.629 368.789,203.98 369.754,204.937 L370.61,205.786 L370.61,207.183 L370.61,208.58 L369.982,209.399 C369.637,209.85 369.05,210.607 368.677,211.082 C368.305,211.557 367.982,211.991 367.96,212.046 C367.893,212.214 367.661,212.16 367.532,211.947 z M366.559,196.23 L366.559,185.416 L366.195,185.416 L365.83,185.416 L365.83,196.23 L365.83,207.044 L366.195,207.044 L366.559,207.044 L366.559,196.23 z M372.032,181.473 C372.213,181.376 372.468,181.142 372.599,180.953 L372.837,180.61 L372.863,179.064 C372.877,178.213 372.867,177.397 372.838,177.249 C372.777,176.922 372.283,176.357 371.929,176.209 C371.747,176.133 371.276,176.1 370.377,176.1 L369.086,176.1 L368.883,176.444 C367.85,178.201 366.172,179.638 364.291,180.378 C363.957,180.509 363.556,180.644 363.4,180.677 C363.244,180.711 363.029,180.771 362.922,180.811 L362.727,180.885 L362.962,181.131 C363.21,181.39 363.549,181.575 363.886,181.635 C363.997,181.655 365.802,181.667 367.896,181.66 C371.639,181.649 371.709,181.646 372.032,181.473 z M359.674,176.421 C359.674,174.051 359.694,173.534 359.798,173.285 C359.959,172.901 360.13,172.716 360.497,172.529 C360.773,172.388 361.072,172.376 364.75,172.355 L368.706,172.333 L368.77,171.766 C368.858,170.988 368.71,169.709 368.418,168.724 C367.555,165.82 365.335,163.714 362.537,163.144 C361.505,162.934 360.718,162.932 359.721,163.136 C357.492,163.595 355.709,164.945 354.477,167.107 C353.814,168.271 353.391,170.103 353.458,171.522 C353.534,173.1 353.913,174.366 354.713,175.714 L355.097,176.36 L355.3,176.092 C356.069,175.077 357.193,174.155 358.246,173.679 L358.803,173.427 L358.752,173.679 C358.725,173.818 358.702,174.615 358.702,175.45 L358.702,176.968 L358.184,177.223 C357.726,177.448 357.082,178.013 357.082,178.188 C357.082,178.372 359.067,179.252 359.492,179.256 L359.674,179.257 L359.674,176.42 z M363.83,178.92 C365.163,178.355 366.386,177.403 367.118,176.359 L367.305,176.091 L365.401,176.116 L363.496,176.14 L363.185,176.392 C362.638,176.834 362.559,177.054 362.522,178.234 L362.489,179.28 L362.869,179.224 C363.077,179.192 363.51,179.056 363.83,178.92 z M355.016,209.191 C354.348,208.862 353.228,208.313 352.527,207.971 C351.467,207.454 351.265,207.327 351.323,207.217 C351.361,207.144 351.611,206.629 351.879,206.072 C352.148,205.515 352.849,204.076 353.438,202.873 C354.027,201.67 354.849,199.984 355.266,199.127 L356.023,197.569 L356.775,197.922 C358.536,198.748 361.051,200.02 361.051,200.085 C361.051,200.232 359.67,202.994 359.596,202.994 C359.554,202.994 359.071,202.773 358.523,202.504 C357.975,202.234 357.316,201.923 357.058,201.813 C356.609,201.621 356.577,201.618 356.313,201.744 C355.822,201.976 355.742,202.694 356.174,202.977 C356.288,203.051 356.887,203.356 357.506,203.654 C359.18,204.461 359.069,204.214 358.388,205.611 C358.069,206.266 357.765,206.801 357.713,206.801 C357.66,206.801 357.025,206.51 356.302,206.153 C355.401,205.709 354.896,205.505 354.698,205.505 C354.172,205.505 353.872,206.022 354.109,206.519 C354.219,206.75 354.426,206.879 355.659,207.484 C356.441,207.868 357.082,208.202 357.082,208.226 C357.082,208.336 356.345,209.798 356.292,209.794 C356.258,209.79 355.684,209.52 355.016,209.191 z" fill="#000000" id="path25084"/>
    <g>
      <g>
        <path d="M312.957,341.513 C305.235,341.513 298.975,335.006 298.975,326.978 C298.975,318.952 305.235,312.443 312.957,312.443 C320.678,312.443 326.937,318.952 326.937,326.978 C326.937,335.006 320.678,341.513 312.957,341.513 z" fill="#BFF1FD"/>
        <path d="M312.957,341.513 C305.235,341.513 298.975,335.006 298.975,326.978 C298.975,318.952 305.235,312.443 312.957,312.443 C320.678,312.443 326.937,318.952 326.937,326.978 C326.937,335.006 320.678,341.513 312.957,341.513 z" fill-opacity="0" stroke="#83B3C2" stroke-width="1"/>
      </g>
      <text transform="matrix(1, 0, 0, 1, 312.956, 326.978)">
        <tspan x="-5.4" y="5.184" font-family="Arial-BoldMT" font-size="15" fill="#000000">1</tspan>
      </text>
    </g>
    <text transform="matrix(1, 0, 0, 1, 417.876, 31.901)">
      <tspan x="-119.292" y="6.5" font-family="Arial-BoldMT" font-size="20" fill="#000000">IDAP certificate authority</tspan>
    </text>
    <text transform="matrix(1, 0, 0, 1, 489.073, 327.131)">
      <tspan x="-55.22" y="-5" font-family="Arial-BoldMT" font-size="18.75" fill="#000000">Government</tspan>
      <tspan x="-32.323" y="17" font-family="Arial-BoldMT" font-size="18.75" fill="#000000">service</tspan>
    </text>
    <path d="M330.502,211.947 C330.435,211.836 329.834,211.044 329.167,210.185 C328.332,209.11 327.95,208.555 327.942,208.401 C327.936,208.279 327.925,202.984 327.92,196.635 L327.91,185.092 L325.946,185.091 C324.86,185.091 323.854,185.054 323.698,185.008 C323.331,184.902 323.024,184.626 322.813,184.213 C322.66,183.914 322.645,183.742 322.645,182.382 L322.645,180.882 L322.422,180.831 C321.697,180.662 321.075,180.462 320.557,180.229 C320.233,180.084 319.945,179.988 319.916,180.016 C319.747,180.185 320.498,181.394 321.183,182.057 L321.655,182.514 L321.685,183.418 C321.71,184.207 321.742,184.38 321.938,184.779 C322.224,185.363 322.735,185.833 323.323,186.053 C323.738,186.208 323.949,186.226 325.402,186.226 L327.019,186.226 L327.019,186.837 L327.019,187.449 L326.754,187.56 C326.194,187.794 325.135,187.936 324.143,187.911 L323.171,187.886 L322.402,189.432 C321.978,190.283 321.206,191.85 320.685,192.916 C319,196.361 317.457,199.522 316.852,200.766 C313.59,207.477 313.531,207.59 313.117,207.852 C312.491,208.249 312.082,208.207 310.97,207.632 C310.163,207.214 310.049,207.128 309.876,206.803 C309.61,206.301 309.622,205.816 309.918,205.169 C310.046,204.886 310.634,203.67 311.223,202.467 C311.812,201.265 312.595,199.661 312.964,198.903 C313.332,198.146 314.134,196.505 314.746,195.258 C315.358,194.01 316.087,192.516 316.367,191.937 C316.647,191.357 317.408,189.795 318.059,188.465 C318.71,187.135 319.242,186.024 319.241,185.995 C319.24,185.966 319.072,185.76 318.868,185.537 C317.242,183.766 316.557,181.259 317.063,178.935 C317.155,178.512 317.247,178.093 317.267,178.003 C317.291,177.896 317.136,177.61 316.806,177.153 C316.533,176.774 316.214,176.282 316.098,176.059 C313.774,171.59 314.943,166.109 318.834,163.226 C320.355,162.1 322.308,161.438 324.109,161.438 C324.811,161.438 326.147,161.66 326.823,161.89 C329.68,162.86 332.05,165.396 332.885,168.377 C333.169,169.389 333.253,170.045 333.255,171.251 C333.256,172.061 333.28,172.284 333.372,172.319 C333.435,172.344 334.441,172.367 335.607,172.371 C337.189,172.376 337.794,172.406 337.989,172.487 C338.367,172.645 338.745,173.144 338.849,173.624 C338.91,173.904 338.93,175.597 338.912,178.975 L338.886,183.917 L338.664,184.295 C338.542,184.502 338.305,184.758 338.138,184.862 C337.842,185.046 337.773,185.052 335.707,185.076 L333.58,185.101 L333.58,186.617 L333.58,188.132 L332.724,188.981 C331.759,189.938 331.537,190.289 331.537,190.855 C331.537,191.392 331.784,191.773 332.765,192.745 C333.53,193.503 333.58,193.574 333.58,193.879 C333.579,194.182 333.525,194.259 332.813,194.974 C332.008,195.783 331.798,196.135 331.798,196.68 C331.798,197.192 331.967,197.47 332.801,198.329 L333.58,199.132 L333.58,199.753 L333.58,200.374 L332.766,201.178 C331.785,202.146 331.537,202.526 331.537,203.063 C331.537,203.629 331.759,203.98 332.724,204.937 L333.58,205.786 L333.58,207.183 L333.58,208.58 L332.953,209.399 C332.607,209.85 332.02,210.607 331.648,211.082 C331.275,211.557 330.952,211.991 330.93,212.046 C330.864,212.214 330.632,212.16 330.502,211.947 z M329.53,196.23 L329.53,185.416 L329.165,185.416 L328.801,185.416 L328.801,196.23 L328.801,207.044 L329.165,207.044 L329.53,207.044 L329.53,196.23 z M335.003,181.473 C335.184,181.376 335.439,181.142 335.57,180.953 L335.808,180.61 L335.833,179.064 C335.847,178.213 335.837,177.397 335.808,177.249 C335.747,176.922 335.253,176.357 334.899,176.209 C334.717,176.133 334.247,176.1 333.347,176.1 L332.056,176.1 L331.854,176.444 C330.821,178.201 329.142,179.638 327.262,180.378 C326.927,180.509 326.526,180.644 326.37,180.677 C326.215,180.711 325.999,180.771 325.892,180.811 L325.697,180.885 L325.933,181.131 C326.181,181.39 326.519,181.575 326.857,181.635 C326.968,181.655 328.772,181.667 330.866,181.66 C334.609,181.649 334.679,181.646 335.003,181.473 z M322.644,176.421 C322.644,174.051 322.665,173.534 322.769,173.285 C322.929,172.901 323.1,172.716 323.467,172.529 C323.743,172.388 324.042,172.376 327.72,172.355 L331.676,172.333 L331.741,171.766 C331.829,170.988 331.681,169.709 331.388,168.724 C330.525,165.82 328.306,163.714 325.507,163.144 C324.475,162.934 323.689,162.932 322.691,163.136 C320.462,163.595 318.679,164.945 317.447,167.107 C316.784,168.271 316.361,170.103 316.429,171.522 C316.504,173.1 316.883,174.366 317.684,175.714 L318.067,176.36 L318.27,176.092 C319.039,175.077 320.164,174.155 321.216,173.679 L321.773,173.427 L321.723,173.679 C321.695,173.818 321.672,174.615 321.672,175.45 L321.672,176.968 L321.154,177.223 C320.697,177.448 320.052,178.013 320.052,178.188 C320.052,178.372 322.038,179.252 322.462,179.256 L322.644,179.257 L322.644,176.42 z M326.801,178.92 C328.134,178.355 329.356,177.403 330.088,176.359 L330.276,176.091 L328.371,176.116 L326.466,176.14 L326.155,176.392 C325.608,176.834 325.529,177.054 325.492,178.234 L325.46,179.28 L325.839,179.224 C326.048,179.192 326.48,179.056 326.801,178.92 z M317.986,209.191 C317.318,208.862 316.198,208.313 315.498,207.971 C314.438,207.454 314.236,207.327 314.293,207.217 C314.331,207.144 314.582,206.629 314.85,206.072 C315.118,205.515 315.819,204.076 316.408,202.873 C316.997,201.67 317.82,199.984 318.236,199.127 L318.993,197.569 L319.746,197.922 C321.507,198.748 324.021,200.02 324.021,200.085 C324.021,200.232 322.64,202.994 322.567,202.994 C322.525,202.994 322.042,202.773 321.494,202.504 C320.946,202.234 320.287,201.923 320.029,201.813 C319.58,201.621 319.548,201.618 319.283,201.744 C318.793,201.976 318.712,202.694 319.145,202.977 C319.258,203.051 319.858,203.356 320.476,203.654 C322.151,204.461 322.039,204.214 321.359,205.611 C321.04,206.266 320.736,206.801 320.683,206.801 C320.63,206.801 319.996,206.51 319.273,206.153 C318.372,205.709 317.867,205.505 317.668,205.505 C317.143,205.505 316.842,206.022 317.079,206.519 C317.19,206.75 317.396,206.879 318.629,207.484 C319.412,207.868 320.052,208.202 320.052,208.226 C320.052,208.336 319.316,209.798 319.262,209.794 C319.229,209.79 318.655,209.52 317.986,209.191 z" fill="#000000" id="path25084"/>
    <path d="M434.746,183.043 C431.258,182.228 428.96,179.622 428.411,175.858 C427.973,172.852 428.826,170.249 431.451,166.581 C434.12,162.852 436.025,159.107 436.259,157.13 L436.374,156.159 L434.626,156.158 C433.665,156.158 432.555,156.067 432.16,155.958 C430.928,155.615 429.56,153.946 428.798,151.854 C428.21,150.242 428.224,147.236 428.826,145.691 C429.862,143.035 431.818,141.003 434.309,139.998 L435.434,139.543 L449.259,139.485 C457.503,139.451 463.643,139.504 464.467,139.619 C469.461,140.311 472.869,144.707 472.411,149.863 C471.885,155.783 468.794,161.76 463.385,167.319 L462.189,168.548 L465.824,168.548 C470.284,168.548 470.51,168.627 471.476,170.533 C473.175,173.884 472.605,177.564 469.992,180.118 C469.365,180.73 468.324,181.51 467.678,181.851 C465.27,183.124 465.783,183.084 450.106,183.195 C438.886,183.274 435.596,183.241 434.746,183.043 z M458.361,180.049 C456.503,178.311 455.488,175.485 455.943,173.317 C456.363,171.312 456.981,170.383 459.765,167.562 C463.966,163.309 466.155,160.385 468.083,156.454 C469.584,153.393 470.182,151.243 470.214,148.785 C470.238,146.971 470.195,146.73 469.661,145.676 C468.557,143.496 466.817,142.376 464.323,142.239 C461.971,142.11 460.692,142.53 459.402,143.855 C458.106,145.185 457.675,146.398 457.685,148.687 C457.694,150.561 458.072,152.093 458.961,153.855 C459.641,155.201 459.633,155.79 458.933,155.984 C458.663,156.059 453.995,156.129 448.56,156.139 L438.679,156.159 L438.679,156.605 C438.679,158.581 436.563,163.184 433.913,166.974 C431.499,170.427 431.09,171.152 430.699,172.679 C429.823,176.099 431.611,179.482 434.92,180.664 C435.47,180.861 438.306,180.921 447.47,180.927 L459.31,180.936 L458.361,180.049 z M434.367,174.693 C434.375,174.611 434.713,174.014 435.12,173.365 L435.86,172.185 L444.727,172.134 L453.594,172.083 L452.97,173.46 L452.346,174.838 L443.349,174.839 C438.401,174.839 434.359,174.773 434.367,174.692 z M437.499,168.653 C437.499,168.602 437.817,167.983 438.205,167.276 L438.912,165.991 L447.647,165.991 L456.382,165.991 L455.689,167.368 L454.995,168.744 L446.247,168.744 C441.436,168.744 437.499,168.703 437.499,168.653 z M440.727,161.419 L441.375,159.994 L450.154,159.942 C454.983,159.914 458.933,159.935 458.933,159.99 C458.933,160.044 458.656,160.709 458.317,161.467 L457.701,162.845 L448.89,162.845 L440.079,162.845 L440.727,161.419 z M466.647,179.907 C467.756,179.439 469.037,178.111 469.604,176.841 C470.222,175.456 470.309,173.014 469.783,171.823 L469.377,170.907 L464.763,170.907 L460.148,170.907 L459.609,171.546 C458.843,172.455 458.54,173.294 458.54,174.504 C458.54,176.034 459.032,177.258 460.133,178.462 C461.947,180.447 464.185,180.943 466.647,179.907 z M456.286,153.455 C455.649,151.804 455.309,149.986 455.302,148.195 C455.295,146.384 455.345,146.124 455.923,144.903 C456.29,144.128 456.96,143.169 457.536,142.592 L458.521,141.607 L447.231,141.607 C436.261,141.607 435.91,141.619 434.843,142.018 C433.514,142.515 431.919,144.017 431.207,145.442 C430.773,146.31 430.716,146.667 430.726,148.49 C430.738,150.657 431.085,151.934 432.017,153.242 L432.413,153.799 L444.416,153.799 C455.767,153.799 456.412,153.781 456.286,153.455 z" fill="#000000" id="path25051"/>
    <text transform="matrix(1, 0, 0, 1, 390.37, 301.041)">
      <tspan x="-37.932" y="-2.5" font-family="ArialMT" font-size="15" fill="#000000">Public keys</tspan>
      <tspan x="-27.927" y="16.5" font-family="ArialMT" font-size="15" fill="#000000">(shared)</tspan>
    </text>
    <text transform="matrix(1, 0, 0, 1, 390.37, 346.933)">
      <tspan x="-40.847" y="-3.5" font-family="ArialMT" font-size="15" fill="#000000">Private keys</tspan>
      <tspan x="-40.437" y="13.5" font-family="ArialMT" font-size="15" fill="#000000">(not shared)</tspan>
    </text>
    <g>
      <g>
        <path d="M295.706,201.326 C287.984,201.326 281.724,194.82 281.724,186.792 C281.724,178.765 287.984,172.257 295.706,172.257 C303.427,172.257 309.686,178.765 309.686,186.792 C309.686,194.82 303.427,201.326 295.706,201.326 z" fill="#BFF1FD"/>
        <path d="M295.706,201.326 C287.984,201.326 281.724,194.82 281.724,186.792 C281.724,178.765 287.984,172.257 295.706,172.257 C303.427,172.257 309.686,178.765 309.686,186.792 C309.686,194.82 303.427,201.326 295.706,201.326 z" fill-opacity="0" stroke="#83B3C2" stroke-width="1"/>
      </g>
      <text transform="matrix(1, 0, 0, 1, 295.705, 186.792)">
        <tspan x="-4.171" y="5" font-family="Arial-BoldMT" font-size="15" fill="#000000">2</tspan>
      </text>
    </g>
    <g>
      <g>
        <path d="M514.125,255.296 C506.402,255.296 500.143,248.79 500.143,240.762 C500.143,232.735 506.402,226.227 514.125,226.227 C521.846,226.227 528.105,232.735 528.105,240.762 C528.105,248.79 521.846,255.296 514.125,255.296 z" fill="#BFF1FD"/>
        <path d="M514.125,255.296 C506.402,255.296 500.143,248.79 500.143,240.762 C500.143,232.735 506.402,226.227 514.125,226.227 C521.846,226.227 528.105,232.735 528.105,240.762 C528.105,248.79 521.846,255.296 514.125,255.296 z" fill-opacity="0" stroke="#83B3C2" stroke-width="1"/>
      </g>
      <text transform="matrix(1, 0, 0, 1, 514.124, 240.762)">
        <tspan x="-4.171" y="5" font-family="Arial-BoldMT" font-size="15" fill="#000000">3</tspan>
      </text>
    </g>
    <path d="M344.049,113.157 L344.049,63.413" fill-opacity="0" stroke="#012161" stroke-width="1" stroke-linecap="round"/>
    <path d="M344.278,63.413 L491.703,63.413" fill-opacity="0" stroke="#012161" stroke-width="1" stroke-linecap="round"/>
    <path d="M491.703,63.413 L491.703,113.157" fill-opacity="0" stroke="#012161" stroke-width="1" stroke-linecap="round"/>
    <g>
      <path d="M491.703,113.157 L491.703,271.541" fill-opacity="0" stroke="#012161" stroke-width="1" stroke-linecap="round"/>
      <path d="M488.703,271.541 L491.703,279.541 L494.703,271.541 z" fill="#012161" fill-opacity="1" stroke="#012161" stroke-width="1" stroke-opacity="1"/>
    </g>
    <g>
      <path d="M344.049,280.396 L344.049,122.157" fill-opacity="0" stroke="#012161" stroke-width="1" stroke-linecap="round"/>
      <path d="M347.049,122.157 L344.049,114.157 L341.049,122.157 z" fill="#012161" fill-opacity="1" stroke="#012161" stroke-width="1" stroke-opacity="1"/>
    </g>
    <path d="M339.541,222.25 L347.338,222.25 L347.338,259.273 L339.541,259.273 L339.541,222.25 z" fill="#FFFFFF"/>
    <text transform="matrix(1, 0, 0, 1, 307.705, 240.762)">
      <tspan x="-90.461" y="-3.5" font-family="ArialMT" font-size="15" fill="#000000">Certificate signing requests</tspan>
      <tspan x="-73.378" y="13.5" font-family="ArialMT" font-size="15" fill="#000000">containing public keys</tspan>
    </text>
    <path d="M705.875,168.068 L705.875,168.068" fill-opacity="0" stroke="#012161" stroke-width="1"/>
    <g>
      <path d="M345.535,348.037 C329.689,341.252 333.657,320.384 341.764,309.069" fill-opacity="0" stroke="#012161" stroke-width="1" stroke-linecap="round"/>
      <path d="M343.852,311.223 L347.509,303.501 L339.676,306.915 z" fill="#012161" fill-opacity="1" stroke="#012161" stroke-width="1" stroke-opacity="1"/>
    </g>
    <text transform="matrix(1, 0, 0, 1, 450.377, 205.762)">
      <tspan x="-35.435" y="-3.5" font-family="ArialMT" font-size="15" fill="#000000">Encryption</tspan>
      <tspan x="-32.095" y="13.5" font-family="ArialMT" font-size="15" fill="#000000">certificate</tspan>
    </text>
    <text transform="matrix(1, 0, 0, 1, 532.238, 205.762)">
      <tspan x="-25.02" y="-3.5" font-family="ArialMT" font-size="15" fill="#000000">Signing</tspan>
      <tspan x="-32.095" y="13.5" font-family="ArialMT" font-size="15" fill="#000000">certificate</tspan>
    </text>
    <text transform="matrix(1, 0, 0, 1, 417.875, 90.177)">
      <tspan x="-31.271" y="-3.5" font-family="ArialMT" font-size="15" fill="#000000">Generate </tspan>
      <tspan x="-35.845" y="13.5" font-family="ArialMT" font-size="15" fill="#000000">certificates</tspan>
    </text>
  </g>
</svg>
