<!DOCTYPE svg PUBLIC "-//W3C//DTD SVG 1.1//EN" "http://www.w3.org/Graphics/SVG/1.1/DTD/svg11.dtd">
<svg xmlns="http://www.w3.org/2000/svg" xmlns:xlink="http://www.w3.org/1999/xlink" width="1031px" height="471px" version="1.1"><defs/><g transform="translate(0.5,0.5)"><rect x="540" y="0" width="490" height="470" fill="none" stroke="#1a1a1a" pointer-events="none"/><rect x="0" y="0" width="490" height="470" fill="none" stroke="#1a1a1a" pointer-events="none"/><g fill="#333333" font-family="Helvetica" font-weight="bold" text-anchor="middle" font-size="18px"><text x="244.5" y="51.5">Government service</text></g><g fill="#333333" font-family="Helvetica" font-weight="bold" text-anchor="middle" font-size="18px"><text x="784.5" y="51.5">GOV.UK Verify hub</text></g><rect x="40" y="90" width="180" height="80" fill="none" stroke="#1a1a1a" pointer-events="none"/><g fill="#333333" font-family="Helvetica" text-anchor="middle" font-size="18px"><text x="129.5" y="136.5">Data</text></g><rect x="270" y="90" width="180" height="80" fill="none" stroke="#1a1a1a" pointer-events="none"/><g fill="#333333" font-family="Helvetica" text-anchor="middle" font-size="18px"><text x="359.5" y="136.5">Sign</text></g><path d="M 220 130 L 253.76 130" fill="none" stroke="#000000" stroke-width="2" stroke-miterlimit="10" pointer-events="none"/><path d="M 267.76 130 L 253.76 134.67 L 253.76 125.33 Z" fill="#000000" stroke="#000000" stroke-width="2" stroke-miterlimit="10" pointer-events="none"/><path d="M 40 130 L 40 130" fill="none" stroke="#000000" stroke-width="2" stroke-miterlimit="10" pointer-events="none"/><path d="M 40 130 L 40 130 L 40 130 Z" fill="#000000" stroke="#000000" stroke-width="2" stroke-miterlimit="10" pointer-events="none"/><rect x="580" y="90" width="180" height="80" fill="none" stroke="#1a1a1a" pointer-events="none"/><g fill="#333333" font-family="Helvetica" text-anchor="middle" font-size="18px"><text x="669.5" y="125.5">Check</text><text x="669.5" y="147.5">signature</text></g><rect x="810" y="90" width="180" height="80" fill="none" stroke="#1a1a1a" pointer-events="none"/><g fill="#333333" font-family="Helvetica" text-anchor="middle" font-size="18px"><text x="899.5" y="136.5">Read data</text></g><path d="M 760 130 L 793.76 130" fill="none" stroke="#000000" stroke-width="2" stroke-miterlimit="10" pointer-events="none"/><path d="M 807.76 130 L 793.76 134.67 L 793.76 125.33 Z" fill="#000000" stroke="#000000" stroke-width="2" stroke-miterlimit="10" pointer-events="none"/><rect x="270" y="220" width="180" height="80" fill="none" stroke="#1a1a1a" pointer-events="none"/><g fill="#333333" font-family="Helvetica" text-anchor="middle" font-size="18px"><text x="359.5" y="255.5">Government service</text><text x="359.5" y="277.5">private signing key</text></g><path d="M 360 220 L 360 186.24" fill="none" stroke="#000000" stroke-width="2" stroke-miterlimit="10" pointer-events="none"/><path d="M 360 172.24 L 364.67 186.24 L 355.33 186.24 Z" fill="#000000" stroke="#000000" stroke-width="2" stroke-miterlimit="10" pointer-events="none"/><rect x="580" y="220" width="180" height="80" fill="none" stroke="#1a1a1a" pointer-events="none"/><g fill="#333333" font-family="Helvetica" text-anchor="middle" font-size="18px"><text x="669.5" y="255.5">Government service</text><text x="669.5" y="277.5">public signing key</text></g><path d="M 670 220 L 670 186.24" fill="none" stroke="#000000" stroke-width="2" stroke-miterlimit="10" pointer-events="none"/><path d="M 670 172.24 L 674.67 186.24 L 665.33 186.24 Z" fill="#000000" stroke="#000000" stroke-width="2" stroke-miterlimit="10" pointer-events="none"/><rect x="580" y="350" width="180" height="80" fill="none" stroke="#1a1a1a" pointer-events="none"/><g fill="#333333" font-family="Helvetica" text-anchor="middle" font-size="18px"><text x="669.5" y="385.5">Government service</text><text x="669.5" y="407.5">signing certificate</text></g><path d="M 670 350 L 670 316.24" fill="none" stroke="#000000" stroke-width="2" stroke-miterlimit="10" pointer-events="none"/><path d="M 670 302.24 L 674.67 316.24 L 665.33 316.24 Z" fill="#000000" stroke="#000000" stroke-width="2" stroke-miterlimit="10" pointer-events="none"/><path d="M 450 130 L 563.76 130" fill="none" stroke="#000000" stroke-width="2" stroke-miterlimit="10" pointer-events="none"/><path d="M 577.76 130 L 563.76 134.67 L 563.76 125.33 Z" fill="#000000" stroke="#000000" stroke-width="2" stroke-miterlimit="10" pointer-events="none"/></g></svg>