<?xml version="1.0" encoding="UTF-8"?>
<!DOCTYPE svg PUBLIC "-//W3C//DTD SVG 1.1//EN" "http://www.w3.org/Graphics/SVG/1.1/DTD/svg11.dtd">
<svg version="1.1" xmlns="http://www.w3.org/2000/svg" xmlns:xlink="http://www.w3.org/1999/xlink" x="0" y="0" width="810" height="280" viewBox="0, 0, 810, 280">
  <g id="Layer_1">
    <path d="M816.872,-589.4 L862.248,-589.4 L862.248,-559.658 L816.872,-559.658 z" fill="#FFFFFF" id="rect4785-8"/>
    <path d="M839.437,-473.699 L922.414,-473.699 L922.414,-458.48 L839.437,-458.48 z" fill="#FFFFFF" id="rect4787-1"/>
    <path d="M1499.362,-66.574 L1544.738,-66.574 L1544.738,-36.832 L1499.362,-36.832 z" fill="#FFFFFF" id="rect4785"/>
    <path d="M1521.927,49.127 L1604.904,49.127 L1604.904,64.346 L1521.927,64.346 z" fill="#FFFFFF" id="rect4787"/>
    <g>
      <path d="M299.306,128.195 L302.352,128.195" fill-opacity="0" stroke="#535353" stroke-width="1.483"/>
      <g id="rect6576">
        <path d="M39.177,23.298 L304.813,23.298 C313.628,23.298 320.774,31.681 320.774,42.023 L320.774,243.667 C320.774,254.008 313.628,262.392 304.813,262.392 L39.177,262.392 C30.362,262.392 23.216,254.008 23.216,243.667 L23.216,42.023 C23.216,31.681 30.362,23.298 39.177,23.298 z" fill="#9B9B9B"/>
        <path d="M39.177,23.298 L304.813,23.298 C313.628,23.298 320.774,31.681 320.774,42.023 L320.774,243.667 C320.774,254.008 313.628,262.392 304.813,262.392 L39.177,262.392 C30.362,262.392 23.216,254.008 23.216,243.667 L23.216,42.023 C23.216,31.681 30.362,23.298 39.177,23.298 z" fill-opacity="0" stroke="#242424" stroke-width="0.6" stroke-linecap="round" stroke-linejoin="round"/>
      </g>
      <text transform="matrix(1, 0, 0, 1, 171.995, 56.737)">
        <tspan x="-58.901" y="-5" font-family="Arial-BoldMT" font-size="20" fill="#000000">Government</tspan>
        <tspan x="-34.478" y="18" font-family="Arial-BoldMT" font-size="20" fill="#000000">service</tspan>
      </text>
      <g>
        <g>
          <g id="rect23727">
            <path d="M60.524,177.587 L283.988,177.587 C292.448,177.587 299.306,173.398 299.306,168.231 L299.306,93.402 C299.306,88.235 292.448,84.046 283.988,84.046 L60.524,84.046 C52.064,84.046 45.206,88.235 45.206,93.402 L45.206,168.231 C45.206,173.398 52.064,177.587 60.524,177.587 z" fill="#9FC5FF"/>
            <path d="M60.524,177.587 L283.988,177.587 C292.448,177.587 299.306,173.398 299.306,168.231 L299.306,93.402 C299.306,88.235 292.448,84.046 283.988,84.046 L60.524,84.046 C52.064,84.046 45.206,88.235 45.206,93.402 L45.206,168.231 C45.206,173.398 52.064,177.587 60.524,177.587 z" fill-opacity="0" stroke="#000000" stroke-width="0.64"/>
          </g>
          <g id="rect23729">
            <path d="M53.117,177.539 L176.13,177.539 C180.787,177.539 184.562,173.352 184.562,168.187 L184.562,93.396 C184.562,88.232 180.787,84.045 176.13,84.045 L53.117,84.045 C48.46,84.045 44.684,88.232 44.684,93.396 L44.684,168.187 C44.684,173.352 48.46,177.539 53.117,177.539 z" fill="#D4E1F5"/>
            <path d="M53.117,177.539 L176.13,177.539 C180.787,177.539 184.562,173.352 184.562,168.187 L184.562,93.396 C184.562,88.232 180.787,84.045 176.13,84.045 L53.117,84.045 C48.46,84.045 44.684,88.232 44.684,93.396 L44.684,168.187 C44.684,173.352 48.46,177.539 53.117,177.539 z" fill-opacity="0" stroke="#000000" stroke-width="0.639"/>
          </g>
          <path d="M79.392,177.169 L184.939,177.169 L184.939,84.483 L79.392,84.483 z" fill="#D4E1F5" id="rect23778"/>
          <path d="M185.351,84.275 L185.351,177.645" fill-opacity="0" stroke="#000000" stroke-width="0.64" id="path23766"/>
        </g>
        <text transform="matrix(1, 0, 0, 1, 114.032, 130.845)">
          <tspan x="-24.181" y="-20.5" font-family="ArialMT" font-size="15" fill="#000000">Data to </tspan>
          <tspan x="-65.032" y="-3.5" font-family="ArialMT" font-size="15" fill="#000000">sign so the receiver</tspan>
          <tspan x="-59.615" y="13.5" font-family="ArialMT" font-size="15" fill="#000000">knows the identity</tspan>
          <tspan x="-43.781" y="30.5" font-family="ArialMT" font-size="15" fill="#000000">of the sender</tspan>
        </text>
        <text transform="matrix(1, 0, 0, 1, 241.718, 130.845)">
          <tspan x="-53.778" y="-29" font-family="ArialMT" font-size="15" fill="#000000">Digital signature</tspan>
          <tspan x="-45.029" y="-12" font-family="ArialMT" font-size="15" fill="#000000">created using</tspan>
          <tspan x="-37.932" y="5" font-family="ArialMT" font-size="15" fill="#000000">gov service</tspan>
          <tspan x="-22.511" y="22" font-family="ArialMT" font-size="15" fill="#000000">private</tspan>
          <tspan x="-37.522" y="39" font-family="ArialMT" font-size="15" fill="#000000">signing key</tspan>
        </text>
      </g>
      <path d="M218.571,238.458 C218.637,238.347 219.238,237.554 219.906,236.696 C220.741,235.621 221.123,235.066 221.131,234.912 C221.137,234.79 221.147,229.495 221.153,223.146 L221.162,211.602 L223.127,211.602 C224.212,211.602 225.218,211.565 225.375,211.519 C225.742,211.413 226.049,211.137 226.259,210.724 C226.412,210.425 226.428,210.253 226.428,208.893 L226.428,207.393 L226.651,207.341 C227.376,207.173 227.997,206.973 228.516,206.74 C228.84,206.595 229.128,206.499 229.156,206.527 C229.325,206.696 228.574,207.905 227.889,208.568 L227.417,209.025 L227.388,209.929 C227.362,210.718 227.33,210.891 227.135,211.29 C226.848,211.873 226.337,212.344 225.75,212.563 C225.335,212.719 225.123,212.736 223.671,212.736 L222.053,212.736 L222.053,213.348 L222.053,213.96 L222.319,214.071 C222.879,214.305 223.938,214.447 224.929,214.422 L225.901,214.397 L226.671,215.943 C227.094,216.793 227.867,218.361 228.388,219.426 C230.072,222.872 231.616,226.033 232.221,227.277 C235.482,233.988 235.542,234.101 235.955,234.363 C236.581,234.76 236.99,234.718 238.102,234.143 C238.909,233.725 239.023,233.639 239.196,233.313 C239.462,232.812 239.45,232.327 239.155,231.679 C239.026,231.397 238.439,230.181 237.85,228.978 C237.261,227.775 236.477,226.171 236.109,225.414 C235.74,224.657 234.938,223.016 234.326,221.769 C233.715,220.521 232.985,219.027 232.706,218.447 C232.426,217.868 231.664,216.306 231.013,214.976 C230.363,213.646 229.831,212.534 229.831,212.506 C229.832,212.477 230,212.271 230.204,212.048 C231.83,210.277 232.516,207.77 232.01,205.446 C231.918,205.023 231.826,204.603 231.806,204.514 C231.781,204.407 231.936,204.121 232.266,203.664 C232.54,203.285 232.858,202.793 232.974,202.57 C235.298,198.101 234.13,192.62 230.238,189.737 C228.717,188.611 226.765,187.948 224.964,187.948 C224.262,187.948 222.925,188.171 222.249,188.4 C219.392,189.37 217.022,191.907 216.187,194.888 C215.904,195.9 215.82,196.556 215.818,197.762 C215.817,198.572 215.792,198.795 215.701,198.83 C215.637,198.855 214.631,198.878 213.465,198.882 C211.883,198.886 211.278,198.916 211.083,198.998 C210.705,199.156 210.327,199.655 210.223,200.135 C210.163,200.415 210.143,202.108 210.16,205.486 L210.186,210.428 L210.408,210.805 C210.53,211.013 210.767,211.268 210.935,211.372 C211.23,211.556 211.3,211.563 213.366,211.587 L215.492,211.612 L215.492,213.128 L215.492,214.643 L216.348,215.492 C217.313,216.449 217.536,216.8 217.536,217.366 C217.536,217.903 217.288,218.284 216.308,219.256 C215.543,220.014 215.492,220.085 215.493,220.39 C215.493,220.693 215.547,220.77 216.259,221.485 C217.065,222.294 217.274,222.646 217.274,223.191 C217.274,223.703 217.105,223.981 216.271,224.84 L215.492,225.642 L215.492,226.264 L215.492,226.885 L216.306,227.689 C217.288,228.657 217.536,229.037 217.536,229.574 C217.536,230.14 217.313,230.491 216.348,231.448 L215.492,232.297 L215.492,233.694 L215.492,235.091 L216.12,235.91 C216.465,236.36 217.052,237.118 217.425,237.592 C217.797,238.067 218.12,238.502 218.142,238.557 C218.209,238.725 218.441,238.671 218.57,238.458 z M219.543,222.741 L219.543,211.927 L219.907,211.927 L220.272,211.927 L220.272,222.741 L220.272,233.555 L219.907,233.555 L219.543,233.555 L219.543,222.741 z M214.07,207.984 C213.889,207.887 213.634,207.653 213.503,207.464 L213.265,207.121 L213.239,205.575 C213.225,204.724 213.235,203.908 213.264,203.76 C213.325,203.433 213.819,202.868 214.173,202.72 C214.355,202.644 214.826,202.611 215.725,202.611 L217.016,202.611 L217.219,202.955 C218.252,204.711 219.93,206.149 221.811,206.888 C222.145,207.02 222.546,207.155 222.702,207.188 C222.858,207.222 223.073,207.282 223.18,207.322 L223.375,207.396 L223.14,207.642 C222.892,207.901 222.553,208.086 222.216,208.146 C222.105,208.166 220.3,208.177 218.206,208.171 C214.463,208.16 214.393,208.157 214.07,207.984 z M226.428,202.932 C226.428,200.562 226.408,200.045 226.304,199.796 C226.143,199.412 225.972,199.227 225.605,199.04 C225.329,198.899 225.03,198.887 221.352,198.866 L217.396,198.844 L217.332,198.277 C217.244,197.498 217.392,196.22 217.684,195.235 C218.547,192.331 220.767,190.225 223.565,189.655 C224.597,189.445 225.384,189.443 226.381,189.647 C228.61,190.106 230.393,191.456 231.625,193.618 C232.288,194.781 232.711,196.614 232.643,198.033 C232.568,199.611 232.189,200.877 231.389,202.225 L231.005,202.87 L230.802,202.603 C230.033,201.587 228.909,200.666 227.856,200.19 L227.299,199.938 L227.35,200.19 C227.377,200.329 227.4,201.126 227.4,201.961 L227.4,203.479 L227.918,203.733 C228.376,203.959 229.02,204.523 229.02,204.699 C229.02,204.883 227.035,205.763 226.61,205.767 L226.428,205.768 L226.428,202.93 z M222.272,205.431 C220.939,204.866 219.716,203.913 218.984,202.87 L218.797,202.602 L220.701,202.627 L222.606,202.651 L222.917,202.903 C223.464,203.345 223.543,203.565 223.58,204.745 L223.613,205.791 L223.233,205.734 C223.025,205.703 222.592,205.566 222.272,205.431 z M231.086,235.702 C231.754,235.373 232.874,234.824 233.575,234.482 C234.635,233.964 234.837,233.838 234.779,233.728 C234.741,233.655 234.491,233.14 234.223,232.583 C233.954,232.026 233.253,230.586 232.664,229.383 C232.075,228.181 231.253,226.495 230.836,225.638 L230.079,224.08 L229.327,224.433 C227.565,225.259 225.051,226.531 225.051,226.596 C225.051,226.743 226.432,229.505 226.506,229.505 C226.548,229.505 227.031,229.284 227.579,229.014 C228.127,228.745 228.786,228.434 229.044,228.323 C229.493,228.132 229.524,228.129 229.789,228.254 C230.28,228.487 230.36,229.204 229.928,229.488 C229.814,229.562 229.215,229.867 228.596,230.165 C226.922,230.972 227.033,230.725 227.714,232.122 C228.033,232.776 228.337,233.312 228.389,233.312 C228.442,233.312 229.077,233.021 229.8,232.664 C230.701,232.22 231.206,232.016 231.404,232.016 C231.93,232.016 232.23,232.533 231.993,233.03 C231.883,233.261 231.676,233.39 230.443,233.995 C229.661,234.379 229.02,234.713 229.02,234.736 C229.02,234.847 229.757,236.309 229.81,236.305 C229.844,236.301 230.418,236.031 231.086,235.702 z" fill="#000000" id="path25084"/>
      <text transform="matrix(1, 0, 0, 1, 157.537, 213.337)">
        <tspan x="-39.595" y="-12" font-family="ArialMT" font-size="15" fill="#000000">Gov service</tspan>
        <tspan x="-22.511" y="5" font-family="ArialMT" font-size="15" fill="#000000">private </tspan>
        <tspan x="-37.522" y="22" font-family="ArialMT" font-size="15" fill="#000000">signing key</tspan>
      </text>
    </g>
    <g id="rect6265-0">
      <path d="M422.532,39.79 L614.928,39.79 C627.225,39.79 637.194,52.981 637.194,69.254 L637.194,198.436 C637.194,214.708 627.225,227.9 614.928,227.9 L422.532,227.9 C410.235,227.9 400.266,214.708 400.266,198.436 L400.266,69.254 C400.266,52.981 410.235,39.79 422.532,39.79 z" fill="#6E9217" fill-opacity="0.3"/>
      <path d="M422.532,39.79 L614.928,39.79 C627.225,39.79 637.194,52.981 637.194,69.254 L637.194,198.436 C637.194,214.708 627.225,227.9 614.928,227.9 L422.532,227.9 C410.235,227.9 400.266,214.708 400.266,198.436 L400.266,69.254 C400.266,52.981 410.235,39.79 422.532,39.79 z" fill-opacity="0" stroke="#6E9217" stroke-width="0.6" stroke-opacity="0.3" stroke-linecap="round" stroke-linejoin="round"/>
    </g>
    <g id="rect6267-6">
      <path d="M414.839,24.737 L660.288,24.737 C675.976,24.737 688.694,41.504 688.694,62.187 L688.694,226.38 C688.694,247.064 675.976,263.831 660.288,263.831 L414.839,263.831 C399.151,263.831 386.433,247.064 386.433,226.38 L386.433,62.187 C386.433,41.504 399.151,24.737 414.839,24.737 z" fill="#81A9DA"/>
      <path d="M414.839,24.737 L660.288,24.737 C675.976,24.737 688.694,41.504 688.694,62.187 L688.694,226.38 C688.694,247.064 675.976,263.831 660.288,263.831 L414.839,263.831 C399.151,263.831 386.433,247.064 386.433,226.38 L386.433,62.187 C386.433,41.504 399.151,24.737 414.839,24.737 z" fill-opacity="0" stroke="#535353" stroke-width="1.483" stroke-linecap="round" stroke-linejoin="round"/>
    </g>
    <g id="rect23780">
      <path d="M454.095,167.063 L640.337,167.063 C647.388,167.063 653.104,163.012 653.104,158.014 L653.104,85.639 C653.104,80.641 647.388,76.59 640.337,76.59 L454.095,76.59 C447.044,76.59 441.328,80.641 441.328,85.639 L441.328,158.014 C441.328,163.012 447.044,167.063 454.095,167.063 z" fill="#9FC5FF"/>
      <path d="M454.095,167.063 L640.337,167.063 C647.388,167.063 653.104,163.012 653.104,158.014 L653.104,85.639 C653.104,80.641 647.388,76.59 640.337,76.59 L454.095,76.59 C447.044,76.59 441.328,80.641 441.328,85.639 L441.328,158.014 C441.328,163.012 447.044,167.063 454.095,167.063 z" fill-opacity="0" stroke="#000000" stroke-width="0.64"/>
    </g>
    <g id="rect23782">
      <path d="M426.334,167.007 L532.981,167.007 C537.019,167.007 540.292,162.958 540.292,157.963 L540.292,85.625 C540.292,80.629 537.019,76.58 532.981,76.58 L426.334,76.58 C422.296,76.58 419.023,80.629 419.023,85.625 L419.023,157.963 C419.023,162.958 422.296,167.007 426.334,167.007 z" fill="#D4E1F5"/>
      <path d="M426.334,167.007 L532.981,167.007 C537.019,167.007 540.292,162.958 540.292,157.963 L540.292,85.625 C540.292,80.629 537.019,76.58 532.981,76.58 L426.334,76.58 C422.296,76.58 419.023,80.629 419.023,85.625 L419.023,157.963 C419.023,162.958 422.296,167.007 426.334,167.007 z" fill-opacity="0" stroke="#000000" stroke-width="0.639"/>
    </g>
    <path d="M465.884,166.65 L540.558,166.65 L540.558,77.003 L465.884,77.003 z" fill="#D4E1F5" id="rect23784"/>
    <path d="M540.85,76.802 L540.85,167.11" fill-opacity="0" stroke="#000000" stroke-width="0.64" id="path23808"/>
    <text transform="matrix(1, 0, 0, 1, 479.157, 121.456)">
      <tspan x="-15.842" y="-29" font-family="ArialMT" font-size="15" fill="#000000">Data</tspan>
      <tspan x="-46.282" y="-12" font-family="ArialMT" font-size="15" fill="#000000">signed by gov</tspan>
      <tspan x="-33.761" y="5" font-family="ArialMT" font-size="15" fill="#000000">service so </tspan>
      <tspan x="-56.825" y="22" font-family="ArialMT" font-size="15" fill="#000000">GOV.UK Verify is</tspan>
      <tspan x="-55.444" y="39" font-family="ArialMT" font-size="15" fill="#000000">certain of source</tspan>
    </text>
    <text transform="matrix(1, 0, 0, 1, 597.119, 121.456)">
      <tspan x="-53.778" y="-20.5" font-family="ArialMT" font-size="15" fill="#000000">Digital signature</tspan>
      <tspan x="-44.608" y="-3.5" font-family="ArialMT" font-size="15" fill="#000000">read with gov </tspan>
      <tspan x="-45.436" y="13.5" font-family="ArialMT" font-size="15" fill="#000000">service public </tspan>
      <tspan x="-37.522" y="30.5" font-family="ArialMT" font-size="15" fill="#000000">signing key</tspan>
    </text>
    <text transform="matrix(1, 0, 0, 1, 537.563, 47.737)">
      <tspan x="-68.55" y="-5" font-family="Arial-BoldMT" font-size="20" fill="#000000">GOV.UK Verify</tspan>
      <tspan x="-18.325" y="18" font-family="Arial-BoldMT" font-size="20" fill="#000000">hub</tspan>
    </text>
    <path d="M484.794,226.017 C481.305,225.203 479.008,222.597 478.459,218.832 C478.021,215.827 478.874,213.224 481.499,209.556 C484.168,205.827 486.073,202.082 486.307,200.105 L486.422,199.134 L484.674,199.133 C483.712,199.132 482.603,199.042 482.208,198.932 C480.976,198.59 479.608,196.921 478.845,194.829 C478.258,193.216 478.272,190.21 478.874,188.665 C479.91,186.009 481.866,183.978 484.356,182.972 L485.482,182.518 L499.307,182.46 C507.551,182.425 513.691,182.479 514.515,182.593 C519.508,183.285 522.917,187.681 522.459,192.838 C521.932,198.757 518.842,204.734 513.433,210.293 L512.237,211.522 L515.872,211.522 C520.332,211.522 520.557,211.601 521.524,213.508 C523.223,216.859 522.653,220.538 520.039,223.093 C519.413,223.705 518.372,224.485 517.726,224.826 C515.317,226.098 515.831,226.059 500.154,226.169 C488.934,226.248 485.644,226.216 484.794,226.018 z M508.409,223.023 C506.551,221.286 505.536,218.46 505.99,216.292 C506.411,214.287 507.028,213.357 509.813,210.537 C514.013,206.283 516.202,203.36 518.131,199.429 C519.632,196.368 520.23,194.217 520.262,191.76 C520.286,189.946 520.243,189.704 519.709,188.651 C518.604,186.471 516.865,185.35 514.371,185.213 C512.019,185.084 510.74,185.504 509.45,186.829 C508.154,188.16 507.723,189.373 507.733,191.661 C507.741,193.536 508.119,195.067 509.009,196.83 C509.688,198.175 509.681,198.765 508.981,198.959 C508.711,199.033 504.043,199.103 498.608,199.114 L488.727,199.134 L488.727,199.58 C488.727,201.556 486.611,206.159 483.961,209.949 C481.546,213.402 481.138,214.126 480.747,215.653 C479.871,219.074 481.658,222.457 484.967,223.639 C485.518,223.836 488.354,223.895 497.518,223.902 L509.357,223.911 L508.409,223.024 z M484.414,217.667 C484.423,217.586 484.761,216.989 485.168,216.34 L485.908,215.16 L494.775,215.109 L503.642,215.058 L503.018,216.435 L502.393,217.813 L493.397,217.814 C488.449,217.814 484.407,217.748 484.414,217.667 z M487.547,211.627 C487.547,211.577 487.865,210.958 488.253,210.251 L488.959,208.966 L497.694,208.966 L506.43,208.966 L505.736,210.342 L505.043,211.719 L496.295,211.719 C491.484,211.719 487.547,211.678 487.547,211.627 z M490.775,204.394 L491.423,202.968 L500.202,202.917 C505.03,202.889 508.981,202.91 508.981,202.965 C508.981,203.019 508.704,203.683 508.365,204.441 L507.748,205.82 L498.937,205.82 L490.126,205.82 L490.775,204.394 z M516.695,222.881 C517.803,222.414 519.085,221.086 519.652,219.816 C520.27,218.431 520.357,215.988 519.83,214.798 L519.425,213.882 L514.81,213.882 L510.196,213.882 L509.657,214.521 C508.891,215.429 508.588,216.268 508.588,217.478 C508.588,219.009 509.08,220.233 510.18,221.437 C511.995,223.422 514.233,223.918 516.695,222.881 z M506.334,196.43 C505.697,194.779 505.357,192.96 505.35,191.17 C505.343,189.358 505.393,189.099 505.971,187.878 C506.338,187.103 507.008,186.143 507.584,185.567 L508.569,184.582 L497.279,184.582 C486.309,184.582 485.957,184.594 484.89,184.993 C483.562,185.49 481.967,186.992 481.254,188.417 C480.82,189.285 480.764,189.642 480.774,191.465 C480.786,193.631 481.133,194.909 482.064,196.217 L482.461,196.774 L494.464,196.774 C505.815,196.774 506.459,196.755 506.334,196.43 z" fill="#000000" id="path25051"/>
    <path d="M586.863,229.458 C586.796,229.347 586.196,228.554 585.528,227.696 C584.693,226.621 584.311,226.066 584.303,225.912 C584.297,225.79 584.287,220.495 584.281,214.146 L584.271,202.602 L582.307,202.602 C581.221,202.602 580.216,202.565 580.059,202.519 C579.692,202.413 579.385,202.137 579.174,201.724 C579.022,201.425 579.006,201.253 579.006,199.893 L579.006,198.393 L578.783,198.341 C578.058,198.173 577.437,197.973 576.918,197.74 C576.594,197.595 576.306,197.499 576.278,197.527 C576.109,197.696 576.859,198.905 577.545,199.568 L578.017,200.025 L578.046,200.929 C578.071,201.718 578.104,201.891 578.299,202.29 C578.585,202.873 579.097,203.344 579.684,203.563 C580.099,203.719 580.31,203.736 581.763,203.736 L583.38,203.736 L583.38,204.348 L583.38,204.96 L583.115,205.071 C582.555,205.305 581.496,205.447 580.505,205.422 L579.532,205.397 L578.763,206.943 C578.34,207.793 577.567,209.361 577.046,210.426 C575.361,213.872 573.818,217.033 573.213,218.277 C569.952,224.988 569.892,225.101 569.478,225.363 C568.852,225.76 568.444,225.718 567.331,225.143 C566.524,224.725 566.41,224.639 566.238,224.313 C565.971,223.812 565.984,223.327 566.279,222.679 C566.408,222.397 566.995,221.181 567.584,219.978 C568.173,218.775 568.956,217.171 569.325,216.414 C569.694,215.657 570.496,214.016 571.107,212.769 C571.719,211.521 572.448,210.027 572.728,209.447 C573.008,208.868 573.769,207.306 574.42,205.976 C575.071,204.646 575.603,203.534 575.602,203.506 C575.602,203.477 575.434,203.271 575.229,203.048 C573.604,201.277 572.918,198.77 573.424,196.446 C573.516,196.023 573.608,195.603 573.628,195.514 C573.652,195.407 573.497,195.121 573.167,194.664 C572.894,194.285 572.576,193.793 572.46,193.57 C570.135,189.101 571.304,183.62 575.195,180.737 C576.716,179.611 578.669,178.948 580.47,178.948 C581.172,178.948 582.509,179.171 583.184,179.4 C586.042,180.37 588.412,182.907 589.246,185.888 C589.53,186.9 589.614,187.556 589.616,188.762 C589.617,189.572 589.642,189.795 589.733,189.83 C589.796,189.855 590.802,189.878 591.969,189.882 C593.551,189.886 594.155,189.916 594.35,189.998 C594.729,190.156 595.106,190.655 595.21,191.135 C595.271,191.415 595.291,193.108 595.273,196.486 L595.248,201.428 L595.026,201.805 C594.904,202.013 594.667,202.268 594.499,202.372 C594.203,202.556 594.134,202.563 592.068,202.587 L589.942,202.612 L589.942,204.128 L589.942,205.643 L589.085,206.492 C588.12,207.449 587.898,207.8 587.898,208.366 C587.898,208.903 588.145,209.284 589.126,210.256 C589.891,211.014 589.942,211.085 589.941,211.39 C589.94,211.693 589.886,211.77 589.174,212.485 C588.369,213.294 588.16,213.646 588.16,214.191 C588.16,214.703 588.329,214.981 589.162,215.84 L589.942,216.642 L589.942,217.264 L589.942,217.885 L589.127,218.689 C588.146,219.657 587.898,220.037 587.898,220.574 C587.898,221.14 588.12,221.491 589.085,222.448 L589.942,223.297 L589.942,224.694 L589.942,226.091 L589.314,226.91 C588.969,227.36 588.381,228.118 588.009,228.592 C587.636,229.067 587.313,229.502 587.291,229.557 C587.225,229.725 586.993,229.671 586.863,229.458 z M585.891,213.741 L585.891,202.927 L585.527,202.927 L585.162,202.927 L585.162,213.741 L585.162,224.555 L585.527,224.555 L585.891,224.555 L585.891,213.741 z M591.364,198.984 C591.545,198.887 591.8,198.653 591.931,198.464 L592.169,198.121 L592.194,196.575 C592.208,195.724 592.198,194.908 592.17,194.76 C592.108,194.433 591.615,193.868 591.26,193.72 C591.079,193.644 590.608,193.611 589.709,193.611 L588.418,193.611 L588.215,193.955 C587.182,195.711 585.503,197.149 583.623,197.888 C583.289,198.02 582.888,198.155 582.732,198.188 C582.576,198.222 582.361,198.282 582.253,198.322 L582.059,198.396 L582.294,198.642 C582.542,198.901 582.88,199.086 583.218,199.146 C583.329,199.166 585.134,199.177 587.228,199.171 C590.971,199.16 591.04,199.157 591.364,198.984 z M579.005,193.932 C579.005,191.562 579.026,191.045 579.13,190.796 C579.29,190.412 579.461,190.227 579.829,190.04 C580.104,189.899 580.403,189.887 584.081,189.866 L588.038,189.844 L588.102,189.277 C588.19,188.498 588.042,187.22 587.749,186.235 C586.886,183.331 584.667,181.225 581.869,180.655 C580.836,180.445 580.05,180.443 579.053,180.647 C576.824,181.106 575.041,182.456 573.808,184.618 C573.145,185.781 572.723,187.614 572.79,189.033 C572.865,190.611 573.244,191.877 574.045,193.225 L574.429,193.87 L574.631,193.603 C575.401,192.587 576.525,191.666 577.578,191.19 L578.135,190.938 L578.084,191.19 C578.056,191.329 578.034,192.126 578.034,192.961 L578.034,194.479 L577.516,194.733 C577.058,194.959 576.413,195.523 576.413,195.699 C576.413,195.883 578.399,196.763 578.823,196.767 L579.006,196.768 L579.006,193.93 z M583.162,196.431 C584.495,195.866 585.717,194.913 586.45,193.87 L586.637,193.602 L584.732,193.627 L582.827,193.651 L582.516,193.903 C581.97,194.345 581.89,194.565 581.854,195.745 L581.821,196.791 L582.2,196.734 C582.409,196.703 582.842,196.566 583.162,196.431 z M574.348,226.702 C573.679,226.373 572.559,225.824 571.859,225.482 C570.799,224.964 570.597,224.838 570.654,224.728 C570.692,224.655 570.943,224.14 571.211,223.583 C571.479,223.026 572.181,221.586 572.77,220.383 C573.359,219.181 574.181,217.495 574.598,216.638 L575.355,215.08 L576.107,215.433 C577.868,216.259 580.383,217.531 580.383,217.596 C580.383,217.743 579.001,220.505 578.928,220.505 C578.886,220.505 578.403,220.284 577.855,220.014 C577.307,219.745 576.648,219.434 576.39,219.323 C575.941,219.132 575.909,219.129 575.644,219.254 C575.154,219.487 575.073,220.204 575.506,220.488 C575.62,220.562 576.219,220.867 576.837,221.165 C578.512,221.972 578.4,221.725 577.72,223.122 C577.401,223.776 577.097,224.312 577.044,224.312 C576.992,224.312 576.357,224.021 575.634,223.664 C574.733,223.22 574.228,223.016 574.03,223.016 C573.504,223.016 573.204,223.533 573.441,224.03 C573.551,224.261 573.758,224.39 574.991,224.995 C575.773,225.379 576.413,225.713 576.413,225.736 C576.413,225.847 575.677,227.309 575.623,227.305 C575.59,227.301 575.016,227.031 574.348,226.702 z" fill="#000000" id="path25084"/>
    <g>
      <path d="M528.352,217.195 C549.776,220.014 554.512,214.728 565.361,204.561" fill-opacity="0" stroke="#121F64" stroke-width="1"/>
      <path d="M567.37,206.788 L571.301,199.202 L563.351,202.333 z" fill="#121F64" fill-opacity="1" stroke="#121F64" stroke-width="1" stroke-opacity="1"/>
    </g>
    <text transform="matrix(1, 0, 0, 1, 637.599, 204.337)">
      <tspan x="-39.595" y="-12" font-family="ArialMT" font-size="15" fill="#000000">Gov service</tspan>
      <tspan x="-19.596" y="5" font-family="ArialMT" font-size="15" fill="#000000">public</tspan>
      <tspan x="-37.522" y="22" font-family="ArialMT" font-size="15" fill="#000000">signing key</tspan>
    </text>
    <text transform="matrix(1, 0, 0, 1, 431.751, 204.337)">
      <tspan x="-39.595" y="-12" font-family="ArialMT" font-size="15" fill="#000000">Gov service</tspan>
      <tspan x="-23.767" y="5" font-family="ArialMT" font-size="15" fill="#000000">signing</tspan>
      <tspan x="-32.095" y="22" font-family="ArialMT" font-size="15" fill="#000000">certificate</tspan>
    </text>
    <g>
      <path d="M299.306,128.195 L409.153,128.195" fill-opacity="0" stroke="#121E64" stroke-width="1.483" stroke-linecap="round"/>
      <path d="M409.153,131.485 L417.926,128.195 L409.153,124.905 z" fill="#121E64" fill-opacity="1" stroke="#121E64" stroke-width="1.483" stroke-opacity="1"/>
    </g>
  </g>
</svg>
