<?xml version="1.0" encoding="UTF-8"?>
<!DOCTYPE svg PUBLIC "-//W3C//DTD SVG 1.1//EN" "http://www.w3.org/Graphics/SVG/1.1/DTD/svg11.dtd">
<svg version="1.1" xmlns="http://www.w3.org/2000/svg" xmlns:xlink="http://www.w3.org/1999/xlink" x="0" y="0" width="900" height="540" viewBox="0, 0, 900, 540">
  <g id="Layer_1">
    <path d="M47.056,521.078 C47.056,521.078 47.056,521.078 47.056,521.078 C47.056,521.078 46.7,521.078 47.056,521.078 z" fill="#FFFFFF"/>
    <g>
      <path d="M469.527,5.336 L860.891,5.336 C867.486,5.336 872.833,10.769 872.833,17.471 L872.833,518.029 C872.833,524.731 867.486,530.164 860.891,530.164 L469.527,530.164 C462.932,530.164 457.585,524.731 457.585,518.029 L457.585,17.471 C457.585,10.769 462.932,5.336 469.527,5.336 z" fill="#EDF0F4"/>
      <path d="M469.527,5.336 L860.891,5.336 C867.486,5.336 872.833,10.769 872.833,17.471 L872.833,518.029 C872.833,524.731 867.486,530.164 860.891,530.164 L469.527,530.164 C462.932,530.164 457.585,524.731 457.585,518.029 L457.585,17.471 C457.585,10.769 462.932,5.336 469.527,5.336 z" fill-opacity="0" stroke="#8B9094" stroke-width="1"/>
    </g>
    <g>
      <path d="M100.057,5.336 L444.164,5.336 C451.576,5.336 457.585,10.765 457.585,17.463 L457.585,518.037 C457.585,524.735 451.576,530.164 444.164,530.164 L100.057,530.164 C92.644,530.164 86.635,524.735 86.635,518.037 L86.635,17.463 C86.635,10.765 92.644,5.336 100.057,5.336 z" fill="#BDC1C7"/>
      <path d="M100.057,5.336 L444.164,5.336 C451.576,5.336 457.585,10.765 457.585,17.463 L457.585,518.037 C457.585,524.735 451.576,530.164 444.164,530.164 L100.057,530.164 C92.644,530.164 86.635,524.735 86.635,518.037 L86.635,17.463 C86.635,10.765 92.644,5.336 100.057,5.336 z" fill-opacity="0" stroke="#9FA5AE" stroke-width="1"/>
    </g>
    <path d="M86.135,139.367 L456.679,139.367 L456.679,167.367 L86.135,167.367 L86.135,139.367 z" fill="#BDC0C6"/>
  </g>
  <g id="Layer_2">
    <g>
      <path d="M206.532,38.5 L360.532,38.5 C367.16,38.5 372.532,43.873 372.532,50.5 L372.532,135.5 C372.532,142.127 367.16,147.5 360.532,147.5 L206.532,147.5 C199.905,147.5 194.532,142.127 194.532,135.5 L194.532,50.5 C194.532,43.873 199.905,38.5 206.532,38.5 z" fill="#A79E9E"/>
      <path d="M206.532,38.5 L360.532,38.5 C367.16,38.5 372.532,43.873 372.532,50.5 L372.532,135.5 C372.532,142.127 367.16,147.5 360.532,147.5 L206.532,147.5 C199.905,147.5 194.532,142.127 194.532,135.5 L194.532,50.5 C194.532,43.873 199.905,38.5 206.532,38.5 z" fill-opacity="0" stroke="#3E3D3D" stroke-width="1"/>
    </g>
    <g>
      <path d="M204.147,351.763 L363.147,351.763 C369.774,351.763 375.147,357.135 375.147,363.763 L375.147,408.763 C375.147,415.39 369.774,420.763 363.147,420.763 L204.147,420.763 C197.519,420.763 192.147,415.39 192.147,408.763 L192.147,363.763 C192.147,357.135 197.519,351.763 204.147,351.763 z" fill="#9B9B9B"/>
      <path d="M204.147,351.763 L363.147,351.763 C369.774,351.763 375.147,357.135 375.147,363.763 L375.147,408.763 C375.147,415.39 369.774,420.763 363.147,420.763 L204.147,420.763 C197.519,420.763 192.147,415.39 192.147,408.763 L192.147,363.763 C192.147,357.135 197.519,351.763 204.147,351.763 z" fill-opacity="0" stroke="#4F4F4F" stroke-width="1"/>
    </g>
    <path d="M268.647,322.008 L268.647,322.008" fill-opacity="0" stroke="#7874A0" stroke-width="1"/>
    <g>
      <g>
        <path d="M220.208,472.356 L347.085,472.356 C353.885,472.356 359.397,478.07 359.397,485.118 L359.397,504.261 C359.397,511.309 353.885,517.023 347.085,517.023 L220.208,517.023 C213.409,517.023 207.897,511.309 207.897,504.261 L207.897,485.118 C207.897,478.07 213.409,472.356 220.208,472.356 z" fill="#A3ABD0"/>
        <path d="M220.208,472.356 L347.085,472.356 C353.885,472.356 359.397,478.07 359.397,485.118 L359.397,504.261 C359.397,511.309 353.885,517.023 347.085,517.023 L220.208,517.023 C213.409,517.023 207.897,511.309 207.897,504.261 L207.897,485.118 C207.897,478.07 213.409,472.356 220.208,472.356 z" fill-opacity="0" stroke="#7874A0" stroke-width="1"/>
      </g>
      <g>
        <path d="M283.647,480.317 C244.904,480.317 213.497,477.675 213.497,474.417 C213.497,471.159 244.904,468.517 283.647,468.517 C322.389,468.517 353.797,471.159 353.797,474.417 C353.797,477.675 322.389,480.317 283.647,480.317 z" fill="#A3ABD0"/>
        <path d="M283.647,480.317 C244.904,480.317 213.497,477.675 213.497,474.417 C213.497,471.159 244.904,468.517 283.647,468.517 C322.389,468.517 353.797,471.159 353.797,474.417 C353.797,477.675 322.389,480.317 283.647,480.317 z" fill-opacity="0" stroke="#7874A0" stroke-width="1"/>
      </g>
      <path d="M283.147,520.183 C244.404,520.183 212.997,517.542 212.997,514.283 C212.997,511.025 244.404,508.383 283.147,508.383 C321.889,508.383 353.297,511.025 353.297,514.283 C353.297,517.542 321.889,520.183 283.147,520.183 z" fill="#A3ABD0"/>
      <path d="M354.116,514.646 C342.216,524.147 217.592,522.022 213.178,514.647" fill-opacity="0" stroke="#7874A0" stroke-width="1"/>
    </g>
    <g>
      <path d="M208.104,187.678 L361.104,187.678 C367.731,187.678 373.104,193.051 373.104,199.678 L373.104,280.678 C373.104,287.305 367.731,292.678 361.104,292.678 L208.104,292.678 C201.476,292.678 196.104,287.305 196.104,280.678 L196.104,199.678 C196.104,193.051 201.476,187.678 208.104,187.678 z" fill="#9B9B9B"/>
      <path d="M208.104,187.678 L361.104,187.678 C367.731,187.678 373.104,193.051 373.104,199.678 L373.104,280.678 C373.104,287.305 367.731,292.678 361.104,292.678 L208.104,292.678 C201.476,292.678 196.104,287.305 196.104,280.678 L196.104,199.678 C196.104,193.051 201.476,187.678 208.104,187.678 z" fill-opacity="0" stroke="#585858" stroke-width="1"/>
    </g>
    <g>
      <path d="M541.74,59.836 L624.74,59.836 C631.367,59.836 636.74,65.209 636.74,71.836 L636.74,113.836 C636.74,120.463 631.367,125.836 624.74,125.836 L541.74,125.836 C535.113,125.836 529.74,120.463 529.74,113.836 L529.74,71.836 C529.74,65.209 535.113,59.836 541.74,59.836 z" fill="#81A9DA"/>
      <path d="M541.74,59.836 L624.74,59.836 C631.367,59.836 636.74,65.209 636.74,71.836 L636.74,113.836 C636.74,120.463 631.367,125.836 624.74,125.836 L541.74,125.836 C535.113,125.836 529.74,120.463 529.74,113.836 L529.74,71.836 C529.74,65.209 535.113,59.836 541.74,59.836 z" fill-opacity="0" stroke="#5E6873" stroke-width="1"/>
    </g>
    <g>
      <g>
        <path d="M720,52.164 L807,52.164 C813.627,52.164 819,57.537 819,64.164 L819,106.367 C819,112.995 813.627,118.367 807,118.367 L720,118.367 C713.373,118.367 708,112.995 708,106.367 L708,64.164 C708,57.537 713.373,52.164 720,52.164 z" fill="#ACC6E9"/>
        <path d="M720,52.164 L807,52.164 C813.627,52.164 819,57.537 819,64.164 L819,106.367 C819,112.995 813.627,118.367 807,118.367 L720,118.367 C713.373,118.367 708,112.995 708,106.367 L708,64.164 C708,57.537 713.373,52.164 720,52.164 z" fill-opacity="0" stroke="#6B6F94" stroke-width="1"/>
      </g>
      <g>
        <path d="M715.9,55.664 L802.9,55.664 C809.527,55.664 814.9,61.037 814.9,67.664 L814.9,109.867 C814.9,116.495 809.527,121.867 802.9,121.867 L715.9,121.867 C709.273,121.867 703.9,116.495 703.9,109.867 L703.9,67.664 C703.9,61.037 709.273,55.664 715.9,55.664 z" fill="#ACC6E9"/>
        <path d="M715.9,55.664 L802.9,55.664 C809.527,55.664 814.9,61.037 814.9,67.664 L814.9,109.867 C814.9,116.495 809.527,121.867 802.9,121.867 L715.9,121.867 C709.273,121.867 703.9,116.495 703.9,109.867 L703.9,67.664 C703.9,61.037 709.273,55.664 715.9,55.664 z" fill-opacity="0" stroke="#6B6F94" stroke-width="1"/>
      </g>
      <g>
        <path d="M710.833,59.633 L797.833,59.633 C804.461,59.633 809.833,65.005 809.833,71.633 L809.833,113.836 C809.833,120.463 804.461,125.836 797.833,125.836 L710.833,125.836 C704.206,125.836 698.833,120.463 698.833,113.836 L698.833,71.633 C698.833,65.005 704.206,59.633 710.833,59.633 z" fill="#ACC6E9"/>
        <path d="M710.833,59.633 L797.833,59.633 C804.461,59.633 809.833,65.005 809.833,71.633 L809.833,113.836 C809.833,120.463 804.461,125.836 797.833,125.836 L710.833,125.836 C704.206,125.836 698.833,120.463 698.833,113.836 L698.833,71.633 C698.833,65.005 704.206,59.633 710.833,59.633 z" fill-opacity="0" stroke="#6B6F94" stroke-width="1"/>
      </g>
    </g>
    <path d="M560.823,420.7 L763.014,420.7 C769.957,420.7 775.585,425.76 775.585,432.002 L775.585,501.698 C775.585,507.94 769.957,513 763.014,513 L560.823,513 C553.88,513 548.252,507.94 548.252,501.698 L548.252,432.002 C548.252,425.76 553.88,420.7 560.823,420.7 z" fill="#BDC0C6"/>
    <path d="M193.695,71.88 L372,71.88" fill-opacity="0" stroke="#000000" stroke-width="1" stroke-dasharray="6,5" stroke-linecap="round"/>
    <g>
      <path d="M71.677,71.88 L185,71.88" fill-opacity="0" stroke="#000000" stroke-width="1" stroke-linecap="round"/>
      <path d="M185,74.88 L193,71.88 L185,68.88 M185,71.88 L193,71.88" fill-opacity="0" stroke="#000000" stroke-width="1" stroke-opacity="1"/>
    </g>
    <g>
      <path d="M373.491,71.88 L521.705,71.88" fill-opacity="0" stroke="#000000" stroke-width="1" stroke-linecap="round"/>
      <path d="M521.705,74.88 L529.705,71.88 L521.705,68.88 M521.705,71.88 L529.705,71.88" fill-opacity="0" stroke="#000000" stroke-width="1" stroke-opacity="1"/>
    </g>
    <g>
      <path d="M637.272,71.88 L689.833,71.88" fill-opacity="0" stroke="#000000" stroke-width="1" stroke-linecap="round"/>
      <path d="M689.833,74.88 L697.833,71.88 L689.833,68.88 M689.833,71.88 L697.833,71.88" fill-opacity="0" stroke="#000000" stroke-width="1" stroke-opacity="1"/>
    </g>
    <g>
      <path d="M698.833,111.5 L646.272,111.5" fill-opacity="0" stroke="#000000" stroke-width="1" stroke-linecap="round"/>
      <path d="M646.272,108.5 L638.272,111.5 L646.272,114.5 M646.272,111.5 L638.272,111.5" fill-opacity="0" stroke="#000000" stroke-width="1" stroke-opacity="1"/>
    </g>
    <g>
      <path d="M529.695,111.5 L382.636,111.5" fill-opacity="0" stroke="#000000" stroke-width="1" stroke-linecap="round"/>
      <path d="M382.636,108.5 L374.636,111.5 L382.636,114.5 M382.636,111.5 L374.636,111.5" fill-opacity="0" stroke="#000000" stroke-width="1" stroke-opacity="1"/>
    </g>
    <g>
      <path d="M193.469,111.5 L80.677,111.5" fill-opacity="0" stroke="#000000" stroke-width="1" stroke-linecap="round"/>
      <path d="M80.677,108.5 L72.677,111.5 L80.677,114.5 M80.677,111.5 L72.677,111.5" fill-opacity="0" stroke="#000000" stroke-width="1" stroke-opacity="1"/>
    </g>
    <path d="M372.147,204.072 L571.615,204.072" fill-opacity="0" stroke="#0041C7" stroke-width="1" stroke-linecap="round"/>
    <g>
      <path d="M571.615,204.072 L571.615,134.836" fill-opacity="0" stroke="#0041C7" stroke-width="1"/>
      <path d="M574.615,134.836 L571.615,126.836 L568.615,134.836 z" fill-opacity="0" stroke="#0041C7" stroke-width="1" stroke-opacity="1"/>
    </g>
    <path d="M597.149,271.75 L597.149,126" fill-opacity="0" stroke="#0041C7" stroke-width="1" stroke-linecap="round"/>
    <g>
      <path d="M597.078,271.75 L382.104,271.75" fill-opacity="0" stroke="#0041C7" stroke-width="1" stroke-linecap="round"/>
      <path d="M382.104,268.75 L374.104,271.75 L382.104,274.75 z" fill-opacity="0" stroke="#0041C7" stroke-width="1" stroke-opacity="1"/>
    </g>
    <g>
      <path d="M556.688,472.365 L584.956,472.365" fill-opacity="0" stroke="#0041C7" stroke-width="1"/>
      <path d="M584.956,475.365 L592.956,472.365 L584.956,469.365 z" fill-opacity="0" stroke="#0041C7" stroke-width="1" stroke-opacity="1"/>
    </g>
    <g>
      <path d="M294.904,295.112 L294.904,343.701" fill-opacity="0" stroke="#BFF0FD" stroke-width="1" stroke-linecap="round"/>
      <path d="M291.904,343.701 L294.904,351.701 L297.904,343.701 z" fill="#BFF0FD" fill-opacity="1" stroke="#BFF0FD" stroke-width="1" stroke-opacity="1"/>
    </g>
    <g>
      <path d="M266.054,351.334 L266.054,302.745" fill-opacity="0" stroke="#BFF0FD" stroke-width="1" stroke-linecap="round"/>
      <path d="M269.054,302.745 L266.054,294.745 L263.054,302.745 z" fill="#BFF0FD" fill-opacity="1" stroke="#BFF0FD" stroke-width="1" stroke-opacity="1"/>
    </g>
    <g>
      <path d="M284.604,469.472 L284.604,431.155" fill-opacity="0" stroke="#BFF0FD" stroke-width="1" stroke-linecap="round"/>
      <path d="M287.604,431.155 L284.604,423.155 L281.604,431.155 z" fill="#BFF0FD" fill-opacity="1" stroke="#BFF0FD" stroke-width="1" stroke-opacity="1"/>
    </g>
    <g>
      <path d="M273.001,421.2 L273.001,459.517" fill-opacity="0" stroke="#BFF0FD" stroke-width="1" stroke-linecap="round"/>
      <path d="M270.001,459.517 L273.001,467.517 L276.001,459.517 z" fill="#BFF0FD" fill-opacity="1" stroke="#BFF0FD" stroke-width="1" stroke-opacity="1"/>
    </g>
    <path d="M207.405,503.386 L108.62,503.386" fill-opacity="0" stroke="#BFF0FD" stroke-width="1" stroke-linecap="round"/>
    <path d="M108.62,503.386 L108.62,121.586" fill-opacity="0" stroke="#BFF0FD" stroke-width="1" stroke-linecap="round"/>
    <g>
      <path d="M109.683,121.586 L185.532,121.586" fill-opacity="0" stroke="#BFF0FD" stroke-width="1" stroke-linecap="round"/>
      <path d="M185.532,124.586 L193.532,121.586 L185.532,118.586 z" fill="#BFF0FD" fill-opacity="1" stroke="#BFF0FD" stroke-width="1" stroke-opacity="1"/>
    </g>
    <g>
      <path d="M198.405,489.365 L120.426,489.365" fill-opacity="0" stroke="#BFF0FD" stroke-width="1" stroke-linecap="round"/>
      <path d="M198.405,492.365 L206.405,489.365 L198.405,486.365 z" fill="#BFF0FD" fill-opacity="1" stroke="#BFF0FD" stroke-width="1" stroke-opacity="1"/>
    </g>
    <path d="M120.426,490.248 L120.426,134.724" fill-opacity="0" stroke="#BFF0FD" stroke-width="1" stroke-linecap="round"/>
    <path d="M120.426,133.841 L193.469,133.841" fill-opacity="0" stroke="#BFF0FD" stroke-width="1" stroke-linecap="round"/>
    <g>
      <path d="M556.469,499.05 L585.174,498.957" fill-opacity="0" stroke="#BFF0FD" stroke-width="1"/>
      <path d="M585.184,501.957 L593.174,498.931 L585.165,495.957 z" fill="#BFF0FD" fill-opacity="1" stroke="#BFF0FD" stroke-width="1" stroke-opacity="1"/>
    </g>
    <path d="M194.532,111.5 L371.468,111.5" fill-opacity="0" stroke="#000000" stroke-width="1" stroke-dasharray="6,5" stroke-linecap="round"/>
    <path d="M530.705,111.5 L568.936,111.5" fill-opacity="0" stroke="#000000" stroke-width="1" stroke-dasharray="6,5" stroke-linecap="round"/>
    <path d="M571.013,112.836 L571.013,129.836" fill-opacity="0" stroke="#000000" stroke-width="1" stroke-dasharray="10,7"/>
    <path d="M531.736,71.88 L637.272,71.88" fill-opacity="0" stroke="#000000" stroke-width="1" stroke-dasharray="6,5" stroke-linecap="round"/>
    <path d="M597.682,111.5 L637.272,111.5" fill-opacity="0" stroke="#000000" stroke-width="1" stroke-dasharray="6,5"/>
    <path d="M597.149,112.836 L597.149,129.836" fill-opacity="0" stroke="#000000" stroke-width="1" stroke-dasharray="10,7"/>
    <g>
      <g>
        <path d="M485.091,280.5 C480.258,280.5 476.341,276.582 476.341,271.75 C476.341,266.918 480.258,263 485.091,263 C489.923,263 493.841,266.918 493.841,271.75 C493.841,276.582 489.923,280.5 485.091,280.5 z" fill="#BFF1FD"/>
        <path d="M485.091,280.5 C480.258,280.5 476.341,276.582 476.341,271.75 C476.341,266.918 480.258,263 485.091,263 C489.923,263 493.841,266.918 493.841,271.75 C493.841,276.582 489.923,280.5 485.091,280.5 z" fill-opacity="0" stroke="#0041C7" stroke-width="1"/>
      </g>
      <text transform="matrix(1, 0, 0, 1, 484.591, 271.25)">
        <tspan x="-3.059" y="3.5" font-family="Arial-BoldMT" font-size="11" fill="#000000">4</tspan>
      </text>
    </g>
    <g>
      <g>
        <path d="M294.904,333.763 C290.256,333.763 286.487,329.845 286.487,325.013 C286.487,320.18 290.256,316.263 294.904,316.263 C299.552,316.263 303.321,320.18 303.321,325.013 C303.321,329.845 299.552,333.763 294.904,333.763 z" fill="#BFF1FD"/>
        <path d="M294.904,333.763 C290.256,333.763 286.487,329.845 286.487,325.013 C286.487,320.18 290.256,316.263 294.904,316.263 C299.552,316.263 303.321,320.18 303.321,325.013 C303.321,329.845 299.552,333.763 294.904,333.763 z" fill-opacity="0" stroke="#8CBBCB" stroke-width="1"/>
      </g>
      <text transform="matrix(1, 0, 0, 1, 294.52, 324.513)">
        <tspan x="-3.059" y="3.5" font-family="Arial-BoldMT" font-size="11" fill="#000000">5</tspan>
      </text>
    </g>
    <g>
      <g>
        <path d="M266.054,334.784 C261.405,334.784 257.637,330.866 257.637,326.034 C257.637,321.201 261.405,317.284 266.054,317.284 C270.702,317.284 274.47,321.201 274.47,326.034 C274.47,330.866 270.702,334.784 266.054,334.784 z" fill="#BFF1FD"/>
        <path d="M266.054,334.784 C261.405,334.784 257.637,330.866 257.637,326.034 C257.637,321.201 261.405,317.284 266.054,317.284 C270.702,317.284 274.47,321.201 274.47,326.034 C274.47,330.866 270.702,334.784 266.054,334.784 z" fill-opacity="0" stroke="#8CBBCB" stroke-width="1"/>
      </g>
      <text transform="matrix(1, 0, 0, 1, 265.67, 325.534)">
        <tspan x="-3.059" y="3.5" font-family="Arial-BoldMT" font-size="11" fill="#000000">6</tspan>
      </text>
    </g>
    <text transform="matrix(1, 0, 0, 1, 281.689, 25.107)">
      <tspan x="-110.021" y="6.107" font-family="Arial-BoldMT" font-size="22" fill="#000000">Government network</tspan>
    </text>
    <text transform="matrix(1, 0, 0, 1, 277.766, 91.5)">
      <tspan x="-53.011" y="-5" font-family="Arial-BoldMT" font-size="18" fill="#000000">Government </tspan>
      <tspan x="-31.03" y="16" font-family="Arial-BoldMT" font-size="18" fill="#000000">service</tspan>
    </text>
    <text transform="matrix(1, 0, 0, 1, 580.326, 90.5)">
      <tspan x="-28.898" y="-3.5" font-family="Arial-BoldMT" font-size="15" fill="#000000">GOV.UK</tspan>
      <tspan x="-36.259" y="13.5" font-family="Arial-BoldMT" font-size="15" fill="#000000">Verify hub</tspan>
    </text>
    <text transform="matrix(1, 0, 0, 1, 752.368, 92.5)">
      <tspan x="-26.667" y="-3.5" font-family="Arial-BoldMT" font-size="15" fill="#000000">Identity </tspan>
      <tspan x="-30.007" y="13.5" font-family="Arial-BoldMT" font-size="15" fill="#000000">provider</tspan>
    </text>
    <text transform="matrix(1, 0, 0, 1, 268.147, 208.617)">
      <tspan x="-61.688" y="-3.5" font-family="Arial-BoldMT" font-size="15" fill="#000000">Matching Service</tspan>
      <tspan x="-28.337" y="13.5" font-family="Arial-BoldMT" font-size="15" fill="#000000">Adapter</tspan>
    </text>
    <g>
      <g>
        <path d="M221.259,234.417 L310.042,234.417 C315.811,234.417 320.487,238.274 320.487,243.032 L320.487,263.135 C320.487,267.893 315.811,271.75 310.042,271.75 L221.259,271.75 C215.49,271.75 210.814,267.893 210.814,263.135 L210.814,243.032 C210.814,238.274 215.49,234.417 221.259,234.417 z" fill="#EDF0F4"/>
        <path d="M221.259,234.417 L310.042,234.417 C315.811,234.417 320.487,238.274 320.487,243.032 L320.487,263.135 C320.487,267.893 315.811,271.75 310.042,271.75 L221.259,271.75 C215.49,271.75 210.814,267.893 210.814,263.135 L210.814,243.032 C210.814,238.274 215.49,234.417 221.259,234.417 z" fill-opacity="0" stroke="#95979A" stroke-width="1"/>
      </g>
      <text transform="matrix(1, 0, 0, 1, 265.15, 252.583)">
        <tspan x="-42.568" y="-2.667" font-family="Arial-BoldMT" font-size="10" fill="#000000">Convert between</tspan>
        <tspan x="-42.568" y="8.333" font-family="Arial-BoldMT" font-size="10" fill="#000000">SAML and JSON</tspan>
      </text>
    </g>
    <text transform="matrix(1, 0, 0, 1, 283.147, 383.063)">
      <tspan x="-54.587" y="-3.5" font-family="Arial-BoldMT" font-size="15" fill="#000000">Local Matching </tspan>
      <tspan x="-26.689" y="13.5" font-family="Arial-BoldMT" font-size="15" fill="#000000">Service</tspan>
    </text>
    <text transform="matrix(1, 0, 0, 1, 281.289, 501.886)">
      <tspan x="-55.009" y="-5.25" font-family="Arial-BoldMT" font-size="15" fill="#000000">Local matching </tspan>
      <tspan x="-33.761" y="11.75" font-family="Arial-BoldMT" font-size="15" fill="#000000">datastore</tspan>
    </text>
    <text transform="matrix(1, 0, 0, 1, 372.565, 323.407)">
      <tspan x="-64.744" y="0.123" font-family="ArialMT" font-size="12" fill="#000000">JSON matching request</tspan>
    </text>
    <text transform="matrix(1, 0, 0, 1, 233.48, 445.314)">
      <tspan x="-39.021" y="-4.833" font-family="ArialMT" font-size="12" fill="#000000">Match user to</tspan>
      <tspan x="-39.021" y="9.167" font-family="ArialMT" font-size="12" fill="#000000">local record</tspan>
    </text>
    <text transform="matrix(1, 0, 0, 1, 204.633, 321.508)">
      <tspan x="-16.002" y="-12.25" font-family="ArialMT" font-size="12" fill="#000000">JSON</tspan>
      <tspan x="-24.683" y="1.75" font-family="ArialMT" font-size="12" fill="#000000">response </tspan>
      <tspan x="-50.347" y="15.75" font-family="ArialMT" font-size="12" fill="#000000">(match / no-match)</tspan>
    </text>
    <path d="M237.186,338.464 L241.436,338.464 L241.436,346.918 L237.186,346.918 L237.186,338.464 z" fill="#BDC1C7"/>
    <path d="M300.501,338.721 L304.75,338.61 L304.963,346.807 L300.714,346.918 L300.501,338.721 z" fill="#BDC1C7"/>
    <text transform="matrix(1, 0, 0, 1, 678.096, 498.489)">
      <tspan x="-77.147" y="2.91" font-family="ArialMT" font-size="12" fill="#000000">Non-SAML communication</tspan>
    </text>
    <path d="M455.335,213.497 L457.562,213.497 L457.562,225.859 L455.335,225.859 L455.335,213.497 z" fill="#BFC3C6"/>
    <path d="M40.215,129.273 C40.063,129.222 38.49,128.455 36.72,127.569 C33.26,125.836 33.346,125.899 32.7,124.628 C32.225,123.691 32.174,122.698 32.58,122.264 L32.841,121.986 L32.387,121.554 C32.137,121.317 31.933,121.021 31.933,120.896 C31.933,120.772 32.221,120.23 32.574,119.692 C32.926,119.154 33.249,118.657 33.291,118.587 C33.34,118.507 33.175,118.527 32.844,118.642 C32.375,118.804 31.453,118.824 24.149,118.824 L15.978,118.824 L15.094,118.515 C13.488,117.952 12.201,116.874 11.474,115.483 C10.837,114.264 10.719,113.72 10.654,111.702 C10.561,108.806 10.807,107.507 11.712,106.107 L12.132,105.457 L11.374,104.411 C10.958,103.836 10.382,102.884 10.095,102.296 C9.808,101.708 9.546,101.224 9.513,101.22 C9.479,101.216 9.389,101.386 9.312,101.599 C8.545,103.72 5.572,103.495 4.936,101.268 C4.849,100.964 4.397,97.858 3.932,94.366 C3.192,88.819 3.1,87.945 3.202,87.447 C3.538,85.805 5.092,84.993 6.502,85.721 C7.32,86.144 7.768,86.964 7.952,88.374 L8.036,89.011 L8.271,88.326 C8.681,87.133 9.151,86.611 10.445,85.913 C10.562,85.849 11.164,84.745 11.818,83.395 L12.983,80.989 L12.603,80.701 C10.856,79.378 10.073,77.703 10.034,75.209 C9.995,72.662 10.695,70.635 11.93,69.719 C13.965,68.21 17.267,66.84 19.239,66.687 C20.262,66.607 20.689,66.722 23.291,67.772 C25.48,68.656 26.265,68.789 26.632,68.336 L26.833,68.088 L26.954,68.435 C27.26,69.314 27.033,69.889 26.322,70.031 C26.129,70.07 25.971,70.114 25.971,70.13 C25.971,70.145 26.092,70.425 26.241,70.751 C26.799,71.972 26.879,72.5 26.936,75.347 C26.985,77.791 27.006,78.024 27.18,78.024 C27.531,78.024 28.65,78.463 29.021,78.745 C29.241,78.913 29.438,79.195 29.515,79.453 C29.628,79.831 29.614,79.943 29.393,80.399 C29.112,80.98 28.568,81.427 27.56,81.906 L26.885,82.226 L26.809,83.133 C26.768,83.632 26.664,84.147 26.578,84.278 C26.319,84.674 24.707,85.902 23.955,86.276 C23.566,86.47 23.014,86.69 22.729,86.767 L22.211,86.905 L21.871,88.013 C21.684,88.623 21.524,89.162 21.515,89.211 C21.492,89.335 22.326,89.646 23.97,90.126 C27.128,91.047 28.56,91.964 28.56,93.066 C28.56,93.295 28.561,93.487 28.563,93.491 C28.564,93.496 29.186,93.541 29.946,93.591 C33.662,93.838 35.819,94.22 36.891,94.822 C37.787,95.325 39.229,96.472 40.455,97.657 C41.358,98.531 41.554,98.673 41.73,98.579 C41.843,98.518 42.292,98.087 42.727,97.622 L43.518,96.776 L47.873,96.813 C51.928,96.848 52.243,96.865 52.453,97.056 C52.578,97.168 52.695,97.392 52.713,97.552 C52.747,97.844 52.754,97.846 56.66,98.68 L60.573,99.515 L60.543,101.275 C60.527,102.243 60.505,103.04 60.495,103.046 C60.485,103.052 57.918,103.269 54.79,103.529 L49.103,104 L48.386,103.649 C46.813,102.881 46.62,102.738 46.547,102.285 L46.479,101.866 L45.715,101.898 L44.951,101.93 L44.682,102.593 C44.33,103.459 43.889,104.076 43.428,104.346 C43.072,104.553 42.982,104.557 41.442,104.426 C39.492,104.261 37.225,103.974 34.792,103.585 C33.797,103.426 32.783,103.275 32.54,103.25 L32.099,103.204 L32.537,103.316 C32.778,103.377 33.399,103.572 33.917,103.748 C34.435,103.924 36.747,104.549 39.055,105.136 C44.054,106.407 44.747,106.617 45.901,107.209 C46.997,107.77 48.207,108.929 48.65,109.841 C49.095,110.759 49.224,111.815 49.015,112.839 C48.763,114.075 48.233,115.079 46.62,117.379 C45.296,119.266 43.248,122.504 43.329,122.582 C43.347,122.599 44.281,123.034 45.404,123.549 C47.186,124.365 47.493,124.544 47.803,124.944 C49.178,126.719 47.859,128.366 44.466,129.108 C43.59,129.3 40.634,129.414 40.215,129.273 z M40.814,124.138 C41.064,123.947 41.687,123.024 42.653,121.413 C43.456,120.072 44.501,118.42 44.975,117.741 C47.804,113.682 47.875,113.539 47.883,111.923 C47.89,110.655 47.668,110.125 46.743,109.2 C45.693,108.15 44.717,107.761 40.27,106.621 C38.144,106.076 36.372,105.63 36.33,105.63 C36.289,105.63 36.423,105.907 36.627,106.246 C37.4,107.529 37.488,107.958 37.538,110.653 C37.573,112.596 37.547,113.233 37.408,113.834 C37.203,114.72 36.704,115.768 36.19,116.395 C35.988,116.642 35.236,117.734 34.52,118.82 L33.217,120.797 L33.762,121.285 C35.327,122.686 37.202,123.9 38.428,124.305 C39.311,124.597 40.303,124.528 40.814,124.138 z M12.499,114.697 C12.499,114.477 13.244,113.895 13.818,113.667 C14.38,113.443 14.677,113.417 17.346,113.363 L20.259,113.303 L19.278,112.491 C18.003,111.437 15.367,109.029 14.619,108.237 C14.296,107.896 13.964,107.617 13.881,107.617 C13.625,107.617 12.648,108.653 12.35,109.24 C12.196,109.545 12.011,110.132 11.939,110.545 C11.761,111.563 11.859,113.707 12.111,114.325 C12.282,114.745 12.499,114.953 12.499,114.697 z M35.992,113.91 C36.095,113.565 36.13,112.909 36.107,111.758 C36.076,110.229 36.051,110.053 35.778,109.47 C34.946,107.695 33.509,106.957 30.878,106.955 C29.892,106.954 29.874,106.959 29.545,107.313 C28.587,108.345 25.198,112.945 25.198,113.215 C25.197,113.263 26.767,113.287 28.685,113.266 C30.765,113.244 32.527,113.277 33.049,113.347 C34.049,113.482 34.887,113.805 35.258,114.199 C35.61,114.574 35.818,114.492 35.992,113.91 z M14.293,103.819 C15.577,103.197 15.522,103.201 24.089,103.191 L31.988,103.182 L31.32,102.86 C30.952,102.683 30.37,102.486 30.026,102.422 C29.622,102.348 27.074,102.319 22.8,102.342 C16.298,102.376 16.189,102.38 15.552,102.62 C14.675,102.952 14.216,103.247 13.455,103.967 C12.615,104.763 12.431,105.113 13.152,104.543 C13.46,104.3 13.973,103.974 14.293,103.819 z M43.127,103.062 C43.278,102.865 43.548,102.336 43.728,101.888 C44.242,100.609 44.23,100.617 45.575,100.693 C46.938,100.77 47.242,100.905 47.715,101.641 C48.063,102.183 48.524,102.584 48.724,102.517 C48.781,102.498 48.306,101.845 47.668,101.065 C47.03,100.286 46.509,99.553 46.509,99.436 C46.509,98.84 47.598,98.521 49.545,98.546 C50.627,98.56 50.802,98.535 51.146,98.316 L51.533,98.07 L50.705,98.002 C50.249,97.965 48.536,97.948 46.898,97.966 L43.92,97.998 L43.31,98.659 C42.568,99.463 41.824,99.998 41.449,99.998 C41.241,99.998 40.817,99.651 39.781,98.636 C38.41,97.292 36.928,96.099 36.108,95.68 C35.597,95.42 34.465,95.184 32.982,95.028 C30.975,94.818 27.905,94.586 27.775,94.635 C27.385,94.782 26.204,97.016 25.929,98.128 C25.718,98.98 25.715,99.042 25.866,99.585 C26.016,100.124 26.689,100.522 28.345,101.052 C30.87,101.86 37.859,103.026 42.092,103.345 C42.365,103.365 42.648,103.391 42.721,103.402 C42.794,103.412 42.977,103.259 43.127,103.062 z M54.542,100.641 C57.229,100.142 59.391,99.7 59.345,99.659 C59.262,99.584 52.979,98.23 52.72,98.231 C52.644,98.231 52.582,98.306 52.582,98.397 C52.582,98.488 52.392,98.752 52.16,98.984 C51.574,99.57 50.954,99.729 49.407,99.691 C48.702,99.674 48.165,99.705 48.165,99.762 C48.165,99.879 49.495,101.542 49.592,101.547 C49.627,101.548 51.854,101.141 54.542,100.641 z M21.398,85.989 C21.453,85.941 21.814,85.817 22.199,85.714 C23.128,85.465 23.888,85.071 24.736,84.398 C25.455,83.828 25.484,83.664 24.866,83.655 C24.541,83.65 23.69,83.281 23.39,83.015 C23.18,82.828 22.437,81.392 22.437,81.172 C22.437,81.109 22.763,81.369 23.162,81.75 C23.96,82.514 24.509,82.841 25.171,82.946 L25.605,83.016 L25.674,82.361 C25.712,82 25.773,81.625 25.811,81.527 C25.848,81.429 26.21,81.22 26.615,81.063 C27.397,80.76 28.138,80.297 28.327,79.994 C28.553,79.632 27.951,79.312 26.614,79.081 L26.209,79.011 L26.117,79.593 C26.048,80.022 25.972,80.185 25.824,80.213 C25.639,80.249 25.63,80.178 25.702,79.193 C25.745,78.611 25.75,78.135 25.714,78.135 C25.677,78.135 25.397,78.233 25.091,78.354 C24.785,78.475 24.535,78.534 24.535,78.486 C24.535,78.314 25.208,77.343 25.502,77.089 L25.802,76.831 L25.307,76.767 C23.727,76.561 18.681,76.264 18.425,76.361 C18.012,76.518 17.832,76.88 17.746,77.726 C17.665,78.526 17.772,78.83 18.288,79.261 C18.512,79.448 18.508,79.45 18.143,79.349 C17.367,79.135 17.074,78.545 17.167,77.388 C17.228,76.625 17.449,76.203 17.921,75.949 C18.189,75.804 19.124,75.811 24.049,75.995 L25.827,76.062 L25.785,74.642 C25.71,72.13 25.359,71.019 24.291,69.917 C23.648,69.253 23.559,69.226 22.271,69.294 C21.099,69.357 20.667,69.781 20.447,71.082 C20.313,71.878 20.368,72.396 20.631,72.811 C20.773,73.036 20.768,73.095 20.584,73.363 C20.306,73.766 20.133,74.245 20.095,74.712 C20.054,75.206 19.864,75.238 18.499,74.981 C17.316,74.759 16.895,74.826 16.547,75.293 C16.301,75.622 16.158,76.542 16.149,77.861 L16.143,78.636 L14.857,79.276 L13.57,79.917 L13.918,80.128 C14.178,80.286 14.266,80.42 14.266,80.656 C14.266,80.83 13.771,81.994 13.162,83.253 C12.554,84.508 12.058,85.559 12.058,85.589 C12.058,85.619 12.247,85.643 12.479,85.643 C13.488,85.643 14.241,85.901 16.749,87.105 C18.147,87.776 19.539,88.437 19.842,88.573 L20.394,88.822 L20.846,87.449 C21.094,86.694 21.342,86.037 21.398,85.989 z M66.407,101.406 C66.462,101.087 66.509,100.13 66.512,99.28 C66.521,96.919 66.034,95.393 64.893,94.205 C64.322,93.611 63.004,92.835 62.853,93.005 C62.809,93.056 62.484,94.165 62.131,95.471 C61.779,96.776 61.458,97.882 61.42,97.927 C61.382,97.972 60.756,98.088 60.03,98.185 L58.71,98.361 L55.673,97.631 C54.003,97.229 52.526,96.854 52.391,96.797 C52.257,96.74 52.117,96.575 52.08,96.431 C52.037,96.258 53.034,92.752 55.005,86.148 C56.65,80.637 58.045,76.034 58.106,75.92 C58.167,75.806 58.402,75.664 58.629,75.605 C59.369,75.41 64.985,74.27 65.203,74.27 C65.319,74.27 65.931,74.502 66.563,74.786 C67.435,75.177 67.699,75.344 67.657,75.476 C67.39,76.326 65.059,84.895 65.059,85.025 C65.059,85.119 65.198,85.268 65.367,85.355 C66.531,85.957 67.818,87.301 68.467,88.592 C69.106,89.862 69.306,90.811 69.302,92.545 C69.298,94.325 69.129,95.283 68.464,97.293 C68.089,98.427 66.488,101.985 66.352,101.985 C66.327,101.985 66.352,101.725 66.407,101.406 z M61.448,86.389 C63.03,80.513 64.299,75.682 64.27,75.652 C64.21,75.593 59.145,76.614 59.056,76.703 C58.989,76.77 53.355,95.619 53.355,95.775 C53.355,95.883 58.127,97.119 58.421,97.088 C58.526,97.077 59.453,93.804 61.448,86.389 z" fill="#000000" id="path3384"/>
    <g>
      <g>
        <path d="M372.468,198.44 L372.468,281.416 C372.468,286.807 368.61,291.178 363.852,291.178 L343.75,291.178 C338.992,291.178 335.134,286.807 335.134,281.416 L335.134,198.44 C335.134,193.049 338.992,188.678 343.75,188.678 L363.852,188.678 C368.61,188.678 372.468,193.049 372.468,198.44 z" fill="#EDF0F4"/>
        <path d="M372.468,198.44 L372.468,281.416 C372.468,286.807 368.61,291.178 363.852,291.178 L343.75,291.178 C338.992,291.178 335.134,286.807 335.134,281.416 L335.134,198.44 C335.134,193.049 338.992,188.678 343.75,188.678 L363.852,188.678 C368.61,188.678 372.468,193.049 372.468,198.44 z" fill-opacity="0" stroke="#95979A" stroke-width="1"/>
      </g>
      <text transform="matrix(-0, 1, -1, -0, 352.968, 240.917)">
        <tspan x="-23.062" y="-8" font-family="Arial-BoldMT" font-size="10" fill="#000000">Assertion </tspan>
        <tspan x="-23.896" y="3" font-family="Arial-BoldMT" font-size="10" fill="#000000">consumer </tspan>
        <tspan x="-39.734" y="14" font-family="Arial-BoldMT" font-size="10" fill="#000000">service endpoint</tspan>
      </text>
    </g>
    <g>
      <g>
        <path d="M657.418,80.63 C652.586,80.63 648.668,76.713 648.668,71.88 C648.668,67.048 652.586,63.13 657.418,63.13 C662.251,63.13 666.168,67.048 666.168,71.88 C666.168,76.713 662.251,80.63 657.418,80.63 z" fill="#BFF1FD"/>
        <path d="M657.418,80.63 C652.586,80.63 648.668,76.713 648.668,71.88 C648.668,67.048 652.586,63.13 657.418,63.13 C662.251,63.13 666.168,67.048 666.168,71.88 C666.168,76.713 662.251,80.63 657.418,80.63 z" fill-opacity="0" stroke="#000000" stroke-width="1"/>
      </g>
      <text transform="matrix(1, 0, 0, 1, 656.918, 71.38)">
        <tspan x="-3.059" y="3.5" font-family="Arial-BoldMT" font-size="11" fill="#000000">2</tspan>
      </text>
    </g>
    <g>
      <g>
        <path d="M668.053,120.25 C663.22,120.25 659.303,116.332 659.303,111.5 C659.303,106.668 663.22,102.75 668.053,102.75 C672.885,102.75 676.803,106.668 676.803,111.5 C676.803,116.332 672.885,120.25 668.053,120.25 z" fill="#BFF1FD"/>
        <path d="M668.053,120.25 C663.22,120.25 659.303,116.332 659.303,111.5 C659.303,106.668 663.22,102.75 668.053,102.75 C672.885,102.75 676.803,106.668 676.803,111.5 C676.803,116.332 672.885,120.25 668.053,120.25 z" fill-opacity="0" stroke="#000000" stroke-width="1"/>
      </g>
      <text transform="matrix(1, 0, 0, 1, 667.553, 111)">
        <tspan x="-3.059" y="3.5" font-family="Arial-BoldMT" font-size="11" fill="#000000">3</tspan>
      </text>
    </g>
    <g>
      <g>
        <path d="M485.091,212.822 C480.258,212.822 476.341,208.904 476.341,204.072 C476.341,199.239 480.258,195.322 485.091,195.322 C489.923,195.322 493.841,199.239 493.841,204.072 C493.841,208.904 489.923,212.822 485.091,212.822 z" fill="#BFF1FD"/>
        <path d="M485.091,212.822 C480.258,212.822 476.341,208.904 476.341,204.072 C476.341,199.239 480.258,195.322 485.091,195.322 C489.923,195.322 493.841,199.239 493.841,204.072 C493.841,208.904 489.923,212.822 485.091,212.822 z" fill-opacity="0" stroke="#0041C7" stroke-width="1"/>
      </g>
      <text transform="matrix(1, 0, 0, 1, 484.591, 203.572)">
        <tspan x="-3.059" y="3.5" font-family="Arial-BoldMT" font-size="11" fill="#000000">7</tspan>
      </text>
    </g>
    <g>
      <g>
        <path d="M471.881,120.25 C467.048,120.25 463.131,116.332 463.131,111.5 C463.131,106.668 467.048,102.75 471.881,102.75 C476.713,102.75 480.631,106.668 480.631,111.5 C480.631,116.332 476.713,120.25 471.881,120.25 z" fill="#BFF1FD"/>
        <path d="M471.881,120.25 C467.048,120.25 463.131,116.332 463.131,111.5 C463.131,106.668 467.048,102.75 471.881,102.75 C476.713,102.75 480.631,106.668 480.631,111.5 C480.631,116.332 476.713,120.25 471.881,120.25 z" fill-opacity="0" stroke="#000000" stroke-width="1"/>
      </g>
      <text transform="matrix(1, 0, 0, 1, 471.381, 111)">
        <tspan x="-3.059" y="3.5" font-family="Arial-BoldMT" font-size="11" fill="#000000">8</tspan>
      </text>
    </g>
    <g>
      <g>
        <path d="M114.898,218.336 C110.25,218.336 106.482,214.418 106.482,209.586 C106.482,204.753 110.25,200.836 114.898,200.836 C119.547,200.836 123.315,204.753 123.315,209.586 C123.315,214.418 119.547,218.336 114.898,218.336 z" fill="#BFF1FD"/>
        <path d="M114.898,218.336 C110.25,218.336 106.482,214.418 106.482,209.586 C106.482,204.753 110.25,200.836 114.898,200.836 C119.547,200.836 123.315,204.753 123.315,209.586 C123.315,214.418 119.547,218.336 114.898,218.336 z" fill-opacity="0" stroke="#8CBBCB" stroke-width="1"/>
      </g>
      <text transform="matrix(1, 0, 0, 1, 114.515, 209.086)">
        <tspan x="-3.059" y="3.5" font-family="Arial-BoldMT" font-size="11" fill="#000000">9</tspan>
      </text>
    </g>
    <g>
      <path d="M556.193,439.647 L585.45,439.647" fill-opacity="0" stroke="#000000" stroke-width="1" stroke-linecap="round"/>
      <path d="M585.45,442.647 L593.45,439.647 L585.45,436.647 M585.45,439.647 L593.45,439.647" fill-opacity="0" stroke="#000000" stroke-width="1" stroke-opacity="1"/>
    </g>
    <text transform="matrix(1, 0, 0, 1, 696.747, 471.865)">
      <tspan x="-95.799" y="-3.5" font-family="ArialMT" font-size="12" fill="#000000">SAML communication </tspan>
      <tspan x="-95.799" y="10.5" font-family="ArialMT" font-size="12" fill="#000000">using SOAP</tspan>
    </text>
    <text transform="matrix(1, 0, 0, 1, 696.747, 439.147)">
      <tspan x="-95.799" y="-3.5" font-family="ArialMT" font-size="12" fill="#000000">SAML communication via user's </tspan>
      <tspan x="-95.799" y="10.5" font-family="ArialMT" font-size="12" fill="#000000">browser</tspan>
    </text>
    <text transform="matrix(1, 0, 0, 1, 501.625, 43.416)">
      <tspan x="-16.116" y="-12.25" font-family="ArialMT" font-size="12" fill="#000000">SAML </tspan>
      <tspan x="-37.362" y="1.75" font-family="ArialMT" font-size="12" fill="#000000">authentication </tspan>
      <tspan x="-20.013" y="15.75" font-family="ArialMT" font-size="12" fill="#000000">request</tspan>
    </text>
    <text transform="matrix(1, 0, 0, 1, 678.096, 43.416)">
      <tspan x="-16.116" y="-12.25" font-family="ArialMT" font-size="12" fill="#000000">SAML </tspan>
      <tspan x="-37.362" y="1.75" font-family="ArialMT" font-size="12" fill="#000000">authentication </tspan>
      <tspan x="-20.013" y="15.75" font-family="ArialMT" font-size="12" fill="#000000">request</tspan>
    </text>
    <text transform="matrix(1, 0, 0, 1, 714.603, 152.586)">
      <tspan x="-92.575" y="-12.25" font-family="ArialMT" font-size="12" fill="#000000">SAML response: </tspan>
      <tspan x="-92.575" y="1.75" font-family="ArialMT" font-size="12" fill="#000000">- authentication context assertion</tspan>
      <tspan x="-92.575" y="15.75" font-family="ArialMT" font-size="12" fill="#000000">- identity assertion</tspan>
    </text>
    <text transform="matrix(1, 0, 0, 1, 556.01, 296.279)">
      <tspan x="-60.575" y="-5.25" font-family="ArialMT" font-size="12" fill="#000000">SAML attribute query: </tspan>
      <tspan x="-60.575" y="8.75" font-family="ArialMT" font-size="12" fill="#000000">- identity assertion</tspan>
    </text>
    <text transform="matrix(1, 0, 0, 1, 476.71, 234.859)">
      <tspan x="-89.86" y="-10.5" font-family="ArialMT" font-size="12" fill="#000000">SAML attribute query response: </tspan>
      <tspan x="-89.86" y="3.5" font-family="ArialMT" font-size="12" fill="#000000">- assertion</tspan>
    </text>
    <path d="M102.773,228.117 L124.023,228.117 L124.023,283.397 L102.773,283.397 L102.773,228.117 z" fill="#BDC1C7"/>
    <text transform="matrix(1, 0, 0, 1, 115.166, 255.757)">
      <tspan x="-20.344" y="-17.5" font-family="ArialMT" font-size="12" fill="#000000">Consult </tspan>
      <tspan x="-25.017" y="-3.5" font-family="ArialMT" font-size="12" fill="#000000">datastore </tspan>
      <tspan x="-26.347" y="10.5" font-family="ArialMT" font-size="12" fill="#000000">to interact</tspan>
      <tspan x="-24.009" y="24.5" font-family="ArialMT" font-size="12" fill="#000000">with user</tspan>
    </text>
    <g>
      <path d="M456.335,124.086 L457.578,124.086 L457.578,133.688 L456.335,133.688 L456.335,124.086 z" fill="#BFC3C6"/>
      <path d="M457.578,124.086 L458.821,124.086 L458.821,133.688 L457.578,133.688 L457.578,124.086 z" fill="#EDF0F4"/>
    </g>
    <text transform="matrix(1, 0, 0, 1, 431.851, 140.086)">
      <tspan x="-48.28" y="-8" font-family="ArialMT" font-size="12" fill="#000000">SAML response: </tspan>
      <tspan x="-48.28" y="6" font-family="ArialMT" font-size="12" fill="#000000">- assertion</tspan>
    </text>
    <g>
      <g>
        <path d="M471.881,80.63 C467.048,80.63 463.131,76.713 463.131,71.88 C463.131,67.048 467.048,63.13 471.881,63.13 C476.713,63.13 480.631,67.048 480.631,71.88 C480.631,76.713 476.713,80.63 471.881,80.63 z" fill="#BFF1FD"/>
        <path d="M471.881,80.63 C467.048,80.63 463.131,76.713 463.131,71.88 C463.131,67.048 467.048,63.13 471.881,63.13 C476.713,63.13 480.631,67.048 480.631,71.88 C480.631,76.713 476.713,80.63 471.881,80.63 z" fill-opacity="0" stroke="#000000" stroke-width="1"/>
      </g>
      <text transform="matrix(1, 0, 0, 1, 471.381, 71.38)">
        <tspan x="-3.059" y="3.5" font-family="Arial-BoldMT" font-size="11" fill="#000000">1</tspan>
      </text>
    </g>
  </g>
</svg>
