<!DOCTYPE svg PUBLIC "-//W3C//DTD SVG 1.1//EN" "http://www.w3.org/Graphics/SVG/1.1/DTD/svg11.dtd">
<svg xmlns="http://www.w3.org/2000/svg" xmlns:xlink="http://www.w3.org/1999/xlink" width="1001px" height="831px" version="1.1"><defs/><g transform="translate(0.5,0.5)"><rect x="610" y="425" width="340" height="145" fill="none" stroke="#000000" pointer-events="none"/><rect x="130" y="0" width="300" height="830" fill="#e6e6e6" stroke="none" pointer-events="none"/><rect x="580" y="120" width="160" height="240" fill="none" stroke="#000000" pointer-events="none"/><g fill="#000000" font-family="Helvetica" text-anchor="middle" font-size="18px"><text x="659.5" y="235.5">GOV.UK</text><text x="659.5" y="257.5">Verify hub</text></g><path d="M 43 159.89 C 36.97 159.89 31.6 154.85 31.6 147.13 C 31.6 141.14 36.14 135 42.79 135 C 49.28 135 54.03 140.94 54.03 147.42 C 54.03 154.91 48.43 159.89 43 159.89 Z M 20 185 C 20.52 179.48 21.22 171.94 22.54 168.13 C 23.15 166.4 24.04 165.16 25.47 164.12 C 26.4 163.43 29.7 161.61 30.31 161.31 C 31.37 160.76 32.46 160.47 33.4 161.31 C 39 166.26 46.74 166.11 52.42 161.33 C 53.08 160.65 54.12 160.83 54.81 161.1 C 55.9 161.52 59.38 163.57 60.04 163.99 C 61.96 165.25 63 166.93 63.77 170.09 C 64.75 174.36 65.33 179.79 66 185 Z" fill="#ffffff" stroke="#000000" stroke-miterlimit="10" pointer-events="none"/><rect x="210" y="112" width="140" height="90" fill="#ffffff" stroke="#000000" pointer-events="none"/><g fill="#000000" font-family="Helvetica" text-anchor="middle" font-size="18px"><text x="279.5" y="152.5">Government</text><text x="279.5" y="174.5">service</text></g><rect x="860" y="197" width="140" height="90" fill="none" stroke="#000000" pointer-events="none"/><g fill="#000000" font-family="Helvetica" text-anchor="middle" font-size="18px"><text x="929.5" y="237.5">Identity</text><text x="929.5" y="259.5">provider</text></g><rect x="210" y="390" width="140" height="90" fill="#ffffff" stroke="#000000" pointer-events="none"/><g fill="#000000" font-family="Helvetica" text-anchor="middle" font-size="18px"><text x="279.5" y="419.5">Matching</text><text x="279.5" y="441.5">Service</text><text x="279.5" y="463.5">Adapter</text></g><rect x="210" y="570" width="140" height="90" fill="#ffffff" stroke="#000000" pointer-events="none"/><g fill="#000000" font-family="Helvetica" text-anchor="middle" font-size="18px"><text x="279.5" y="599.5">Local</text><text x="279.5" y="621.5">matching</text><text x="279.5" y="643.5">service</text></g><rect x="210" y="700" width="140" height="90" fill="#ffffff" stroke="#000000" pointer-events="none"/><g fill="#000000" font-family="Helvetica" text-anchor="middle" font-size="18px"><text x="279.5" y="751.5">Datastore</text></g><path d="M 315 480 L 315 553.76" fill="none" stroke="#000000" stroke-width="2" stroke-miterlimit="10" stroke-dasharray="6 6" pointer-events="none"/><path d="M 315 567.76 L 310.33 553.76 L 319.67 553.76 Z" fill="#000000" stroke="#000000" stroke-width="2" stroke-miterlimit="10" pointer-events="none"/><path d="M 245 570 L 245 496.24" fill="none" stroke="#000000" stroke-width="2" stroke-miterlimit="10" stroke-dasharray="6 6" pointer-events="none"/><path d="M 245 482.24 L 249.67 496.24 L 240.33 496.24 Z" fill="#000000" stroke="#000000" stroke-width="2" stroke-miterlimit="10" pointer-events="none"/><path d="M 245 390 L 245 310 L 600 310 L 600 180 L 366.24 180" fill="none" stroke="#000000" stroke-width="2" stroke-miterlimit="10" pointer-events="none"/><path d="M 352.24 180 L 366.24 175.33 L 366.24 184.67 Z" fill="#000000" stroke="#000000" stroke-width="2" stroke-miterlimit="10" pointer-events="none"/><path d="M 210 180 L 106.24 180" fill="none" stroke="#000000" stroke-width="2" stroke-miterlimit="10" pointer-events="none"/><path d="M 92.24 180 L 106.24 175.33 L 106.24 184.67 Z" fill="#000000" stroke="#000000" stroke-width="2" stroke-miterlimit="10" pointer-events="none"/><path d="M 350 137 L 720 137 L 720 220 L 843.76 220" fill="none" stroke="#000000" stroke-width="2" stroke-miterlimit="10" pointer-events="none"/><path d="M 857.76 220 L 843.76 224.67 L 843.76 215.33 Z" fill="#000000" stroke="#000000" stroke-width="2" stroke-miterlimit="10" pointer-events="none"/><path d="M 860 265 L 860 266 L 720 266 L 720 340 L 315 340 L 315 373.76" fill="none" stroke="#000000" stroke-width="2" stroke-miterlimit="10" pointer-events="none"/><path d="M 315 387.76 L 310.33 373.76 L 319.67 373.76 Z" fill="#000000" stroke="#000000" stroke-width="2" stroke-miterlimit="10" pointer-events="none"/><path d="M 90 134 L 90 135 L 193.76 135" fill="none" stroke="#000000" stroke-width="2" stroke-miterlimit="10" pointer-events="none"/><path d="M 207.76 135 L 193.76 139.67 L 193.76 130.33 Z" fill="#000000" stroke="#000000" stroke-width="2" stroke-miterlimit="10" pointer-events="none"/><ellipse cx="510" cy="136" rx="12.5" ry="12.5" fill="#000000" stroke="#000000" pointer-events="none"/><g fill="#FFFFFF" font-family="Helvetica" font-weight="bold" text-anchor="middle" font-size="18px"><text x="510" y="142">1</text></g><ellipse cx="315" cy="526" rx="12.5" ry="12.5" fill="#000000" stroke="#000000" pointer-events="none"/><g fill="#FFFFFF" font-family="Helvetica" font-weight="bold" text-anchor="middle" font-size="18px"><text x="314" y="532">5</text></g><ellipse cx="246" cy="526" rx="12.5" ry="12.5" fill="#000000" stroke="#000000" pointer-events="none"/><g fill="#FFFFFF" font-family="Helvetica" font-weight="bold" text-anchor="middle" font-size="18px"><text x="245" y="532">6</text></g><ellipse cx="282" cy="309" rx="12.5" ry="12.5" fill="#000000" stroke="#000000" pointer-events="none"/><g fill="#FFFFFF" font-family="Helvetica" font-weight="bold" text-anchor="middle" font-size="18px"><text x="281" y="315">7</text></g><g fill="#000000" font-family="Helvetica" font-weight="bold" text-anchor="middle" font-size="18px"><text x="277.5" y="56.5">Government organisation</text></g><g fill="#000000" font-family="Helvetica" text-anchor="middle" font-size="18px"><text x="43.5" y="112.5">User</text></g><path d="M 730 468 L 783.76 468" fill="none" stroke="#000000" stroke-width="2" stroke-miterlimit="10" pointer-events="none"/><path d="M 797.76 468 L 783.76 472.67 L 783.76 463.33 Z" fill="#000000" stroke="#000000" stroke-width="2" stroke-miterlimit="10" pointer-events="none"/><g fill="#000000" font-family="Helvetica" font-size="18px"><text x="821.5" y="474.5">SAML</text></g><path d="M 730 518 L 783.76 518" fill="none" stroke="#000000" stroke-width="2" stroke-miterlimit="10" stroke-dasharray="6 6" pointer-events="none"/><path d="M 797.76 518 L 783.76 522.67 L 783.76 513.33 Z" fill="#000000" stroke="#000000" stroke-width="2" stroke-miterlimit="10" pointer-events="none"/><g fill="#000000" font-family="Helvetica" font-size="18px"><text x="821.5" y="523.5">Non-SAML</text></g><g fill="#000000" font-family="Helvetica" text-anchor="middle" font-size="18px"><text x="509.5" y="54.5">SAML</text><text x="509.5" y="76.5">authentication</text><text x="509.5" y="98.5">request</text></g><g fill="#000000" font-family="Helvetica" text-anchor="middle" font-size="18px"><text x="807.5" y="300.5">SAML</text><text x="807.5" y="322.5">response</text></g><ellipse cx="807" cy="221" rx="12.5" ry="12.5" fill="#000000" stroke="#000000" pointer-events="none"/><g fill="#FFFFFF" font-family="Helvetica" font-weight="bold" text-anchor="middle" font-size="18px"><text x="806.5" y="227">2</text></g><ellipse cx="807" cy="265" rx="12.5" ry="12.5" fill="#000000" stroke="#000000" pointer-events="none"/><g fill="#FFFFFF" font-family="Helvetica" font-weight="bold" text-anchor="middle" font-size="18px"><text x="806.5" y="271">3</text></g><ellipse cx="508" cy="340" rx="12.5" ry="12.5" fill="#000000" stroke="#000000" pointer-events="none"/><g fill="#FFFFFF" font-family="Helvetica" font-weight="bold" text-anchor="middle" font-size="18px"><text x="507.5" y="346">4</text></g><g fill="#000000" font-family="Helvetica" text-anchor="middle" font-size="18px"><text x="509.5" y="374.5">SAML</text><text x="509.5" y="396.5">attribute</text><text x="509.5" y="418.5">query</text></g><ellipse cx="510" cy="181" rx="12.5" ry="12.5" fill="#000000" stroke="#000000" pointer-events="none"/><g fill="#FFFFFF" font-family="Helvetica" font-weight="bold" text-anchor="middle" font-size="18px"><text x="510" y="187">8</text></g><g fill="#000000" font-family="Helvetica" text-anchor="middle" font-size="18px"><text x="283.5" y="258.5">SAML attribute</text><text x="283.5" y="280.5">query response</text></g><g fill="#000000" font-family="Helvetica" text-anchor="middle" font-size="18px"><text x="509.5" y="217.5">SAML</text><text x="509.5" y="239.5">response</text></g><g fill="#000000" font-family="Helvetica" font-weight="bold" text-anchor="middle" font-size="18px"><text x="669.5" y="474.5">Key</text></g><path d="M 210 180 L 170 180 L 170 746 L 200 746 L 200 745 L 193.76 745" fill="none" stroke="#000000" stroke-width="2" stroke-miterlimit="10" stroke-dasharray="6 6" pointer-events="none"/><path d="M 207.76 745 L 193.76 749.67 L 193.76 740.33 Z" fill="#000000" stroke="#000000" stroke-width="2" stroke-miterlimit="10" pointer-events="none"/><path d="M 315 660 L 315 720 L 245 720 L 245 676.24" fill="none" stroke="#000000" stroke-width="2" stroke-miterlimit="10" stroke-dasharray="6 6" pointer-events="none"/><path d="M 245 662.24 L 249.67 676.24 L 240.33 676.24 Z" fill="#000000" stroke="#000000" stroke-width="2" stroke-miterlimit="10" pointer-events="none"/><ellipse cx="169" cy="309" rx="12.5" ry="12.5" fill="#000000" stroke="#000000" pointer-events="none"/><g fill="#FFFFFF" font-family="Helvetica" font-weight="bold" text-anchor="middle" font-size="18px"><text x="168" y="315">9</text></g><g fill="#000000" font-family="Helvetica" text-anchor="middle" font-size="18px"><text x="70.5" y="306.5">Get user's record</text><text x="70.5" y="328.5">from datastore</text></g></g></svg>