<!DOCTYPE svg PUBLIC "-//W3C//DTD SVG 1.1//EN" "http://www.w3.org/Graphics/SVG/1.1/DTD/svg11.dtd">
<svg xmlns="http://www.w3.org/2000/svg" xmlns:xlink="http://www.w3.org/1999/xlink" width="821px" height="271px" version="1.1"><defs/><g transform="translate(0.5,0.5)"><rect x="620" y="0" width="200" height="270" fill="#e6e6e6" stroke="#000000" pointer-events="none"/><g fill="#333333" font-family="Helvetica" font-size="18px"><text x="632.5" y="34.5">Signed by </text><text x="632.5" y="56.5">identity provider</text></g><rect x="0" y="0" width="620" height="270" fill="#ffffff" stroke="#000000" pointer-events="none"/><g fill="#000000" font-family="Helvetica" font-size="18px"><text x="12.5" y="34.5">SAML response</text></g><rect x="10" y="50" width="600" height="100" fill="#cccccc" stroke="none" pointer-events="none"/><g fill="#000000" font-family="Helvetica" font-size="18px"><text x="431.5" y="92.5">Encrypted for hub</text></g><rect x="10" y="160" width="600" height="100" fill="#cccccc" stroke="none" pointer-events="none"/><g fill="#000000" font-family="Helvetica" font-size="18px"><text x="431.5" y="202.5">Encrypted for hub</text></g><rect x="220" y="60" width="200" height="80" fill="#e6e6e6" stroke="#000000" pointer-events="none"/><g fill="#333333" font-family="Helvetica" font-size="18px"><text x="232.5" y="92.5">Signed by </text><text x="232.5" y="114.5">identity provider</text></g><rect x="220" y="170" width="200" height="80" fill="#e6e6e6" stroke="#000000" pointer-events="none"/><g fill="#333333" font-family="Helvetica" font-size="18px"><text x="232.5" y="202.5">Signed by </text><text x="232.5" y="224.5">identity provider</text></g><rect x="20" y="170" width="200" height="80" fill="#ffffff" stroke="#000000" pointer-events="none"/><g fill="#000000" font-family="Helvetica" font-size="18px"><text x="32.5" y="202.5">Identity assertion</text></g><rect x="20" y="60" width="200" height="80" fill="#ffffff" stroke="#000000" pointer-events="none"/><g fill="#000000" font-family="Helvetica" font-size="18px"><text x="32.5" y="92.5">Authentication </text><text x="32.5" y="114.5">context assertion</text></g></g></svg>