<svg xmlns="http://www.w3.org/2000/svg" viewBox="0 0 841.89 595.28"><defs><style>.cls-1{fill:#e8e6e6;}.cls-11,.cls-2,.cls-33{font-size:12px;}.cls-11,.cls-2,.cls-23{fill:#1d1d1b;}.cls-2{font-family:HelveticaNeue-Bold, Helvetica Neue;font-weight:700;}.cls-3{letter-spacing:-0.07em;}.cls-4{letter-spacing:-0.02em;}.cls-10,.cls-20,.cls-5,.cls-8{fill:#d6e5f2;stroke:#3e5da8;}.cls-10,.cls-14,.cls-15,.cls-20,.cls-21,.cls-22,.cls-24,.cls-26,.cls-27,.cls-28,.cls-29,.cls-30,.cls-31,.cls-32,.cls-5,.cls-6,.cls-7,.cls-8,.cls-9{stroke-miterlimit:10;}.cls-5{stroke-width:1.03px;}.cls-22,.cls-24,.cls-26,.cls-27,.cls-28,.cls-29,.cls-30,.cls-31,.cls-6{fill:none;}.cls-14,.cls-21,.cls-22,.cls-24,.cls-26,.cls-27,.cls-28,.cls-29,.cls-30,.cls-31,.cls-32,.cls-6,.cls-7,.cls-9{stroke:#1d1d1b;}.cls-6{stroke-width:1.02px;}.cls-14,.cls-21,.cls-32,.cls-7,.cls-9{fill:#fff;}.cls-7{stroke-width:1.05px;}.cls-8{stroke-width:0.86px;}.cls-9{stroke-width:0.89px;}.cls-10{stroke-width:0.84px;}.cls-11,.cls-33{font-family:HelveticaNeue, Helvetica Neue;}.cls-12{letter-spacing:-0.13em;}.cls-13{letter-spacing:-0.06em;}.cls-14{stroke-width:1px;}.cls-15{fill:#d3e5cf;stroke:#679a2f;}.cls-16{letter-spacing:-0.02em;}.cls-17{letter-spacing:0.02em;}.cls-18{letter-spacing:0em;}.cls-19{letter-spacing:-0.03em;}.cls-20{stroke-width:0.9px;}.cls-21{stroke-width:0.85px;}.cls-22{stroke-dasharray:2.5 2.5;}.cls-25{letter-spacing:-0.13em;}.cls-26{stroke-dasharray:2.55 2.55;}.cls-27{stroke-dasharray:2.41 2.41;}.cls-28{stroke-dasharray:2.47 2.47;}.cls-29{stroke-dasharray:2.51 2.51;}.cls-30{stroke-dasharray:2.52 2.52;}.cls-31{stroke-dasharray:2.35 2.35;}</style></defs><title>diagram</title><g id="Layer_3" data-name="Layer 3"><rect class="cls-1" x="41.39" y="126.74" width="301.82" height="452.2"/><rect class="cls-1" x="41.39" y="22.61" width="761" height="58.63"/><text class="cls-2" transform="translate(378.89 41.92)">User<tspan class="cls-3" x="26.89" y="0">’</tspan><tspan x="29.34" y="0">s b</tspan><tspan class="cls-4" x="46.45" y="0">r</tspan><tspan x="50.9" y="0">owser</tspan></text><rect class="cls-5" x="452.44" y="126.74" width="125.41" height="452.2" rx="9.98" ry="9.98"/><rect class="cls-6" x="179.91" y="355.27" width="146.41" height="206.88"/><rect class="cls-7" x="56.97" y="174.32" width="271.89" height="67.3"/><rect class="cls-8" x="199.85" y="387.98" width="106.53" height="59.08" rx="7.86" ry="7.86"/><rect class="cls-9" x="199.85" y="494.98" width="106.53" height="57.96"/><rect class="cls-10" x="199.85" y="293.32" width="106.53" height="46.05" rx="7.2" ry="7.2"/><text class="cls-11" transform="translate(493.47 361.96)">GO<tspan class="cls-12" x="18.23" y="0">V</tspan><tspan x="24.01" y="0">.UK </tspan><tspan class="cls-13" x="-3.88" y="14.4">V</tspan><tspan x="2.79" y="14.4">erify Hub</tspan></text><path class="cls-14" d="M57.25,494.56v52.18c0,8.52,13.47,15.42,30.09,15.42s30.08-6.9,30.08-15.42V494.56Z"/><ellipse class="cls-14" cx="87.34" cy="494.56" rx="30.08" ry="15.41"/><text class="cls-11" transform="translate(228.11 407.43)">Matching<tspan x="5.12" y="14.4">Service</tspan><tspan x="3.67" y="28.8">Adapter</tspan></text><rect class="cls-15" x="677.12" y="129.16" width="125.41" height="67.3"/><text class="cls-11" transform="translate(217.9 311.91)"><tspan class="cls-13">V</tspan><tspan x="6.67" y="0">erify Service</tspan><tspan x="13.88" y="14.4">P</tspan><tspan class="cls-16" x="21.66" y="14.4">r</tspan><tspan x="25.44" y="14.4">ovider</tspan></text><text class="cls-11" transform="translate(160.28 206.77)">Gove<tspan class="cls-17" x="28.44" y="0">r</tspan><tspan x="32.65" y="0">nment </tspan><tspan x="15.01" y="14.4">Service</tspan></text><text class="cls-11" transform="translate(238.56 513.62)">Local<tspan x="-10.45" y="14.4">Matching</tspan><tspan x="-5.33" y="28.8">Service</tspan></text><text class="cls-11" transform="translate(66.23 528.19)">Existing<tspan x="-4.23" y="14.4">datasto</tspan><tspan class="cls-4" x="36.22" y="14.4">r</tspan><tspan x="40" y="14.4">e</tspan></text><text class="cls-11" transform="translate(720.24 160.81)">Identity<tspan x="-5.55" y="14.4">P</tspan><tspan class="cls-16" x="2.23" y="14.4">r</tspan><tspan x="6.01" y="14.4">oviders</tspan></text><text class="cls-2" transform="translate(159.84 148.31)">Gove<tspan class="cls-17" x="29.57" y="0">r</tspan><tspan class="cls-18" x="34.45" y="0">nment</tspan><tspan x="-1.27" y="14.4">O</tspan><tspan class="cls-19" x="8.07" y="14.4">r</tspan><tspan x="12.4" y="14.4">ganisation</tspan></text><text class="cls-2" transform="translate(204.12 375.46)">Matching service</text><rect class="cls-15" x="674.37" y="530.46" width="121.48" height="46.15"/><text class="cls-11" transform="translate(698.35 340.89)">SAML (PKI)</text><text class="cls-11" transform="translate(699.13 381.77)">Non-SAML</text><rect class="cls-20" x="673.1" y="470.72" width="124.02" height="46.05" rx="7.77" ry="7.77"/><rect class="cls-21" x="674.37" y="410.61" width="121.48" height="46.05"/><line class="cls-22" x1="671.11" y1="390.91" x2="791.93" y2="390.91"/><polygon class="cls-23" points="790.47 395.9 799.11 390.92 790.47 385.93 790.47 395.9"/><line class="cls-24" x1="671.11" y1="353.15" x2="791.93" y2="353.15"/><polygon class="cls-23" points="790.47 358.14 799.11 353.15 790.47 348.17 790.47 358.14"/><text class="cls-11" transform="translate(700.21 430.45)">Gove<tspan class="cls-17" x="28.44" y="0">r</tspan><tspan x="32.65" y="0">nment </tspan><tspan x="-8" y="14.4">service systems</tspan></text><text class="cls-11" transform="translate(695.1 490.77)">GO<tspan class="cls-25" x="18.23" y="0">V</tspan><tspan x="24.01" y="0">.UK </tspan><tspan class="cls-13" x="47.35" y="0">V</tspan><tspan x="54.02" y="0">erify </tspan><tspan x="17.78" y="14.4">systems</tspan></text><text class="cls-11" transform="translate(704.54 550.54)">Thi<tspan class="cls-16" x="16.22" y="0">r</tspan><tspan x="20" y="0">d party </tspan><tspan x="8.33" y="14.4">systems</tspan></text><path class="cls-23" d="M91.18,67.24H77.54a1.46,1.46,0,0,1-1.61-1.14A2.19,2.19,0,0,1,76,65a16.2,16.2,0,0,1,10-9.66,1.54,1.54,0,0,1,1.1,0,9.92,9.92,0,0,0,8.11,0,1.45,1.45,0,0,1,1.12,0,16.16,16.16,0,0,1,10,9.83,1.53,1.53,0,0,1-1.36,2.09c-.15,0-.29,0-.44,0Z"/><path class="cls-23" d="M91.1,53.84a8.52,8.52,0,1,1,8.62-8.54A8.5,8.5,0,0,1,91.1,53.84Z"/><line class="cls-24" x1="91.22" y1="64.02" x2="91.22" y2="65.27"/><line class="cls-26" x1="91.22" y1="67.82" x2="91.22" y2="163.62"/><line class="cls-24" x1="91.22" y1="164.89" x2="91.22" y2="166.14"/><polygon class="cls-23" points="86.23 164.68 91.22 173.32 96.2 164.68 86.23 164.68"/><line class="cls-24" x1="220.07" y1="242.62" x2="220.07" y2="243.87"/><line class="cls-27" x1="220.07" y1="246.28" x2="220.07" y2="283.68"/><line class="cls-24" x1="220.07" y1="284.89" x2="220.07" y2="286.14"/><polygon class="cls-23" points="215.08 284.68 220.07 293.32 225.05 284.68 215.08 284.68"/><line class="cls-24" x1="289.88" y1="293.32" x2="289.88" y2="292.07"/><line class="cls-28" x1="289.88" y1="289.59" x2="289.88" y2="251.28"/><line class="cls-24" x1="289.88" y1="250.04" x2="289.88" y2="248.79"/><polygon class="cls-23" points="294.86 250.25 289.88 241.62 284.89 250.25 294.86 250.25"/><line class="cls-24" x1="199.85" y1="509.98" x2="198.6" y2="509.98"/><line class="cls-29" x1="196.09" y1="509.98" x2="127.09" y2="509.98"/><line class="cls-24" x1="125.84" y1="509.98" x2="124.59" y2="509.98"/><polygon class="cls-23" points="126.05 504.99 117.41 509.98 126.05 514.96 126.05 504.99"/><line class="cls-24" x1="117.41" y1="531.33" x2="118.66" y2="531.33"/><line class="cls-29" x1="121.17" y1="531.33" x2="190.17" y2="531.33"/><line class="cls-24" x1="191.42" y1="531.33" x2="192.67" y2="531.33"/><polygon class="cls-23" points="191.21 536.32 199.85 531.33 191.21 526.35 191.21 536.32"/><line class="cls-24" x1="91.55" y1="243.29" x2="91.54" y2="244.54"/><line class="cls-30" x1="91.51" y1="247.07" x2="88.68" y2="467.94"/><line class="cls-24" x1="88.66" y1="469.21" x2="88.65" y2="470.46"/><polygon class="cls-23" points="83.68 468.93 88.55 477.63 93.65 469.06 83.68 468.93"/><polyline class="cls-24" points="314.13 439 565.33 439 565.33 68.02 722.48 68.02 722.48 129.16"/><line class="cls-24" x1="272.03" y1="196.72" x2="272.03" y2="293.32"/><polyline class="cls-24" points="757.56 127.06 757.56 53.59 532.85 53.59 532.85 241.87 498.17 241.87 498.17 53.59 240.55 53.59 240.55 210.87"/><polyline class="cls-24" points="272.03 212.97 272.03 68.02 466.08 68.02 466.08 401.72 307.13 401.72"/><line class="cls-24" x1="218.27" y1="496.3" x2="218.27" y2="495.05"/><line class="cls-31" x1="218.27" y1="492.7" x2="218.27" y2="456.21"/><line class="cls-24" x1="218.27" y1="455.03" x2="218.27" y2="453.78"/><polygon class="cls-23" points="223.26 455.24 218.27 446.61 213.29 455.24 223.26 455.24"/><line class="cls-24" x1="288.88" y1="446.61" x2="288.88" y2="447.86"/><line class="cls-31" x1="288.88" y1="450.21" x2="288.88" y2="486.7"/><line class="cls-24" x1="288.88" y1="487.88" x2="288.88" y2="489.13"/><polygon class="cls-23" points="283.89 487.67 288.88 496.3 293.86 487.67 283.89 487.67"/><line class="cls-24" x1="240.55" y1="293.32" x2="240.55" y2="212.14"/><polygon class="cls-23" points="245.53 213.6 240.55 204.97 235.56 213.6 245.53 213.6"/><polygon class="cls-23" points="358.31 406.7 366.94 401.72 358.31 396.73 358.31 406.7"/><line class="cls-24" x1="325.19" y1="439" x2="314.3" y2="439"/><polygon class="cls-23" points="315.76 434.01 307.13 439 315.76 443.99 315.76 434.01"/><polygon class="cls-23" points="521.75 434.01 513.12 439 521.75 443.99 521.75 434.01"/><polygon class="cls-23" points="471.07 212.79 466.08 204.16 461.1 212.79 471.07 212.79"/><polygon class="cls-23" points="493.07 203.59 498.06 212.22 503.04 203.59 493.07 203.59"/><polygon class="cls-23" points="650.54 63.24 641.9 68.22 650.54 73.21 650.54 63.24"/><polygon class="cls-23" points="752.78 120.53 757.76 129.16 762.75 120.53 752.78 120.53"/><circle class="cls-32" cx="91.22" cy="103.92" r="11.54"/><text class="cls-11" transform="translate(88.28 108.1)">1</text><circle class="cls-32" cx="219.67" cy="260.17" r="11.54"/><text class="cls-11" transform="translate(216.73 264.35)">2</text><circle class="cls-32" cx="290.48" cy="273.17" r="11.54"/><text class="cls-11" transform="translate(284.21 277.35)">11</text><circle class="cls-32" cx="218.27" cy="476.46" r="11.54"/><text class="cls-11" transform="translate(215.33 480.63)">8</text><circle class="cls-32" cx="288.08" cy="466.46" r="11.54"/><text class="cls-11" transform="translate(285.14 470.63)">7</text><circle class="cls-32" cx="89.14" cy="355.27" r="11.54"/><text class="cls-11" transform="translate(81.88 359.16)">12</text><circle class="cls-32" cx="465.69" cy="103.92" r="11.54"/><circle class="cls-32" cx="498.17" cy="103.92" r="11.54"/><circle class="cls-32" cx="396.74" cy="401.72" r="11.54"/><text class="cls-11" transform="translate(393.76 405.57) rotate(0.19)">9</text><circle class="cls-32" cx="396.62" cy="437.2" r="11.54"/><text class="cls-11" transform="translate(393.22 441.81) rotate(0.19)">6</text><circle class="cls-32" cx="722.08" cy="103.92" r="11.54"/><text class="cls-11" transform="translate(719.14 108.1)">5</text><circle class="cls-32" cx="757.56" cy="103.92" r="11.54"/><text class="cls-11" transform="translate(753.63 108.1)">4</text><circle class="cls-32" cx="240.15" cy="105.47" r="11.54"/><circle class="cls-32" cx="271.63" cy="105.47" r="11.54"/><circle class="cls-32" cx="532.85" cy="103.92" r="11.54"/><text class="cls-11" transform="translate(528.91 108.1)">4</text><circle class="cls-32" cx="565.33" cy="103.92" r="11.54"/><text class="cls-11" transform="translate(562.39 108.1)">5</text><text class="cls-11" transform="translate(458.99 108.26)">10</text><text class="cls-11" transform="translate(494.33 107.98)">3</text><text class="cls-33" transform="translate(236.9 109.26)">3</text><text class="cls-11" transform="translate(264.56 108.98)">10</text></g></svg>