<?xml version="1.0" encoding="UTF-8"?>
<!DOCTYPE svg PUBLIC "-//W3C//DTD SVG 1.1//EN" "http://www.w3.org/Graphics/SVG/1.1/DTD/svg11.dtd">
<svg version="1.1" xmlns="http://www.w3.org/2000/svg" xmlns:xlink="http://www.w3.org/1999/xlink" x="0" y="0" width="300" height="100" viewBox="0, 0, 300, 100">
  <g id="Layer_1">
    <g>
      <g id="rect56073">
        <path d="M2.199,1.561 L297.801,1.561 L297.801,98.439 L2.199,98.439 z" fill="#627180" fill-opacity="0.551"/>
        <path d="M2.199,1.561 L297.801,1.561 L297.801,98.439 L2.199,98.439 z" fill-opacity="0" stroke="#090D14" stroke-width="0.898" stroke-linecap="round" stroke-linejoin="round"/>
      </g>
      <g id="rect56075">
        <path d="M11.294,27.902 L270.914,27.902 L270.914,87.431 L11.294,87.431 z" fill="#D4E1F5"/>
        <path d="M11.294,27.902 L270.914,27.902 L270.914,87.431 L11.294,87.431 z" fill-opacity="0" stroke="#090D14" stroke-width="0.943" stroke-linecap="round" stroke-linejoin="round"/>
      </g>
      <g id="rect56077">
        <path d="M141.411,34.653 L203.208,34.653 L203.208,80.68 L141.411,80.68 z" fill="#A6C4FF"/>
        <path d="M141.411,34.653 L203.208,34.653 L203.208,80.68 L141.411,80.68 z" fill-opacity="0" stroke="#090D14" stroke-width="1.057" stroke-linecap="round" stroke-linejoin="round"/>
      </g>
      <text transform="matrix(1, 0, 0, 1, 172.31, 57.292)">
        <tspan x="-28.91" y="-3.25" font-family="ArialMT" font-size="13" fill="#000000">Signed by </tspan>
        <tspan x="-14.085" y="11.75" font-family="ArialMT" font-size="13" fill="#000000">MSA</tspan>
      </text>
      <g id="rect56093">
        <path d="M15.369,34.637 L141.411,34.637 L141.411,80.697 L15.369,80.697 z" fill="#CFD3D8"/>
        <path d="M15.369,34.637 L141.411,34.637 L141.411,80.697 L15.369,80.697 z" fill-opacity="0" stroke="#090D14" stroke-width="1.042" stroke-linecap="round" stroke-linejoin="round"/>
      </g>
      <text transform="matrix(1, 0, 0, 1, 78.89, 57.292)">
        <tspan x="-27.095" y="3" font-family="ArialMT" font-size="13" fill="#000000">Assertion</tspan>
      </text>
      <text transform="matrix(1, 0, 0, 1, 238.148, 57.292)">
        <tspan x="-29.266" y="-11" font-family="ArialMT" font-size="13" fill="#000000">Encrypted </tspan>
        <tspan x="-19.871" y="4" font-family="ArialMT" font-size="13" fill="#000000">for gov </tspan>
        <tspan x="-20.589" y="19" font-family="ArialMT" font-size="13" fill="#000000">service</tspan>
      </text>
      <text transform="matrix(1, -0.003, 0.003, 1, 52.882, 22.265)">
        <tspan x="-46.005" y="-3.5" font-family="ArialMT" font-size="13" fill="#000000">SAML response</tspan>
      </text>
    </g>
  </g>
</svg>
